#usda 1.0 | Cygon
(
	defaultPrim = "World"
	upAxis = "Y"
	metersPerUnit = 1
)

def Xform "World"
{
	def Mesh "Floor_Object_bed1b3a0_da40_4f45_9b1a_108fc37a46cd"
	{
		int[] faceVertexCounts = [3, 3, 3, 3]
		int[] faceVertexIndices = [0, 1, 2, 0, 2, 3, 4, 5, 6, 4, 6, 7]
		uniform token orientation = "leftHanded"
		normal3f[] normals = [(0, 1, 0), (0, 1, 0), (0, 1, 0), (0, 1, 0), (0, 1, 0), (0, 1, 0), (0, -1, 0), (0, -1, 0), (0, -1, 0), (0, -1, 0), (0, -1, 0), (0, -1, 0)](
			
			interpolation = "faceVarying"
		)
		
		point3f[] points = [(2.5, 7.450581E-09, 2.5), (-2.5, 7.450581E-09, 2.5), (-2.5, 7.450581E-09, -2.500002), (2.5, 7.450581E-09, -2.500002), (2.5, 0, -2.500002), (-2.5, 0, -2.500002), (-2.5, 0, 2.5), (2.5, 0, 2.5)]
		float2[] primvars:st = [(0, 0), (1, 0), (1, 1), (0, 0), (1, 1), (0, 1), (0, 0), (1, 0), (1, 1), (0, 0), (1, 1), (0, 1)](
			
			interpolation = "faceVarying"
		)
		
		
	}
	
}
