#usda 1.0 | Cygon
(
	defaultPrim = "World"
	upAxis = "Y"
	metersPerUnit = 1
)

def Xform "World"
{
	def Mesh "Floor_Object_7f2d43f2_d835_4a51_ad7f_45a3291d82d0"
	{
		int[] faceVertexCounts = [3, 3, 3, 3]
		int[] faceVertexIndices = [0, 1, 2, 0, 2, 3, 4, 5, 6, 4, 6, 7]
		uniform token orientation = "leftHanded"
		normal3f[] normals = [(0, 1, 0), (0, 1, 0), (0, 1, 0), (0, 1, 0), (0, 1, 0), (0, 1, 0), (0, -1, 0), (0, -1, 0), (0, -1, 0), (0, -1, 0), (0, -1, 0), (0, -1, 0)](
			
			interpolation = "faceVarying"
		)
		
		point3f[] points = [(-2.5, 0, -2), (2.5, 0, -2), (2.5, 0, 2), (-2.5, 0, 2), (-2.5, 5.960464E-08, 2), (2.5, 5.960464E-08, 2), (2.5, 5.960464E-08, -2), (-2.5, 5.960464E-08, -2)]
		float2[] primvars:st = [(0, 0), (1, 0), (1, 1), (0, 0), (1, 1), (0, 1), (0, 0), (1, 0), (1, 1), (0, 0), (1, 1), (0, 1)](
			
			interpolation = "faceVarying"
		)
		
		
	}
	
}
