#usda 1.0 | Cygon
(
	defaultPrim = "World"
	upAxis = "Y"
	metersPerUnit = 1
)

def Xform "World"
{
	def Mesh "Floor_Object_f79c1b4b_8763_4551_a8b6_94a4693d3c97"
	{
		int[] faceVertexCounts = [3, 3, 3, 3, 3, 3, 3, 3, 3, 3, 3, 3]
		int[] faceVertexIndices = [0, 1, 2, 0, 2, 3, 4, 5, 6, 4, 6, 7, 8, 9, 10, 8, 10, 11, 12, 13, 14, 12, 14, 15, 16, 17, 18, 16, 18, 19, 20, 21, 22, 20, 22, 23]
		uniform token orientation = "leftHanded"
		normal3f[] normals = [(0, 1, 0), (0, 1, 0), (0, 1, 0), (0, 1, 0), (0, 1, 0), (0, 1, 0), (0, -1, 0), (0, -1, 0), (0, -1, 0), (0, -1, 0), (0, -1, 0), (0, -1, 0), (0, 0, 1), (0, 0, 1), (0, 0, 1), (0, 0, 1), (0, 0, 1), (0, 0, 1), (-1, 0, 0), (-1, 0, 0), (-1, 0, 0), (-1, 0, 0), (-1, 0, 0), (-1, 0, 0), (0, 0, -1), (0, 0, -1), (0, 0, -1), (0, 0, -1), (0, 0, -1), (0, 0, -1), (1, 0, 0), (1, 0, 0), (1, 0, 0), (1, 0, 0), (1, 0, 0), (1, 0, 0)](
			
			interpolation = "faceVarying"
		)
		
		point3f[] points = [(2.5, 0.0999999, 5), (-2.5, 0.0999999, 5), (-2.5, 0.0999999, -5), (2.5, 0.0999999, -5), (2.5, -0.09999943, -5), (-2.5, -0.09999943, -5), (-2.5, -0.09999943, 5), (2.5, -0.09999943, 5), (2.5, -0.0999999, 5), (-2.5, -0.0999999, 5), (-2.5, 0.0999999, 5), (2.5, 0.0999999, 5), (-2.5, -0.0999999, 5), (-2.5, -0.0999999, -5), (-2.5, 0.0999999, -5), (-2.5, 0.0999999, 5), (-2.5, -0.0999999, -5), (2.5, -0.0999999, -5), (2.5, 0.0999999, -5), (-2.5, 0.0999999, -5), (2.5, -0.0999999, -5), (2.5, -0.0999999, 5), (2.5, 0.0999999, 5), (2.5, 0.0999999, -5)]
		float2[] primvars:st = [(0, 0), (1, 0), (1, 1), (0, 0), (1, 1), (0, 1), (0, 0), (1, 0), (1, 1), (0, 0), (1, 1), (0, 1), (0, 0), (1, 0), (1, 1), (0, 0), (1, 1), (0, 1), (0, 0), (1, 0), (1, 1), (0, 0), (1, 1), (0, 1), (0, 0), (1, 0), (1, 1), (0, 0), (1, 1), (0, 1), (0, 0), (1, 0), (1, 1), (0, 0), (1, 1), (0, 1)](
			
			interpolation = "faceVarying"
		)
		
		
	}
	
}
