#usda 1.0 | Cygon
(
	defaultPrim = "World"
	upAxis = "Y"
	metersPerUnit = 1
)

def Xform "World"
{
	def Mesh "Stair_5b3ebe7a_9211_465e_b13c_564acca019f5"
	{
		int[] faceVertexCounts = [3, 3, 3, 3, 3, 3, 3, 3]
		int[] faceVertexIndices = [0, 1, 2, 3, 4, 5, 6, 7, 8, 6, 8, 9, 10, 11, 12, 10, 12, 13, 14, 15, 16, 14, 16, 17]
		uniform token orientation = "leftHanded"
		normal3f[] normals = [(1, 0, 0), (1, 0, 0), (1, 0, 0), (-1, 0, 0), (-1, 0, 0), (-1, 0, 0), (0, 0, -0.9999999), (0, 0, -0.9999999), (0, 0, -0.9999999), (0, 0, -0.9999999), (0, 0, -0.9999999), (0, 0, -0.9999999), (0, -0.9999999, 0), (0, -0.9999999, 0), (0, -0.9999999, 0), (0, -0.9999999, 0), (0, -0.9999999, 0), (0, -0.9999999, 0), (0, 0.8449802, 0.5347975), (0, 0.8449802, 0.5347975), (0, 0.8449802, 0.5347975), (0, 0.8449802, 0.5347975), (0, 0.8449802, 0.5347975), (0, 0.8449802, 0.5347975)](
			
			interpolation = "faceVarying"
		)
		
		point3f[] points = [(0.1499977, -3.75, -5.925), (0.1499977, -3.75, 5.925), (0.1499977, 3.75, -5.925), (-0.1499977, -3.75, -5.925), (-0.1499977, 3.75, -5.925), (-0.1499977, -3.75, 5.925), (0.1499977, 3.75, -5.925), (-0.1499977, 3.75, -5.925), (-0.1499977, -3.75, -5.925), (0.1499977, -3.75, -5.925), (0.1499977, -3.75, -5.925), (-0.1499977, -3.75, -5.925), (-0.1499977, -3.75, 5.925), (0.1499977, -3.75, 5.925), (-0.1499977, 3.75, -5.925), (0.1499977, 3.75, -5.925), (0.1499977, -3.75, 5.925), (-0.1499977, -3.75, 5.925)]
		float2[] primvars:st = [(0, 0), (1, 0), (0, 1), (-7.947286E-09, 0), (1, 0), (-7.947286E-09, 1), (0, 0), (1, 0), (1, 1), (0, 0), (1, 1), (0, 1), (0, 0), (1, 0), (1, 1), (0, 0), (1, 1), (0, 1), (0, 0), (1, 0), (1, 1), (0, 0), (1, 1), (0, 1)](
			
			interpolation = "faceVarying"
		)
		
		
	}
	
}
