#usda 1.0 | Cygon
(
	defaultPrim = "World"
	upAxis = "Y"
	metersPerUnit = 1
)

def Xform "World"
{
	def Mesh "Stair_95279697_89fc_484b_baf9_10e67502f21c"
	{
		int[] faceVertexCounts = [3, 3, 3, 3, 3, 3, 3, 3, 3, 3, 3, 3, 3, 3, 3, 3, 3, 3, 3, 3, 3, 3, 3, 3, 3, 3, 3, 3, 3, 3, 3, 3, 3, 3, 3, 3, 3, 3, 3, 3, 3, 3, 3, 3, 3, 3, 3, 3, 3, 3, 3, 3, 3, 3]
		int[] faceVertexIndices = [0, 1, 8, 0, 8, 10, 10, 12, 0, 1, 6, 8, 12, 14, 0, 12, 13, 14, 10, 11, 12, 6, 7, 8, 1, 5, 6, 1, 4, 5, 1, 2, 4, 2, 3, 4, 8, 9, 10, 15, 16, 21, 15, 21, 23, 16, 19, 21, 23, 25, 15, 16, 17, 19, 17, 18, 19, 25, 26, 15, 26, 27, 15, 27, 29, 15, 27, 28, 29, 23, 24, 25, 19, 20, 21, 21, 22, 23, 30, 31, 32, 30, 32, 33, 34, 35, 36, 34, 36, 37, 38, 39, 40, 38, 40, 41, 42, 43, 44, 42, 44, 45, 46, 47, 48, 46, 48, 49, 50, 51, 52, 50, 52, 53, 54, 55, 56, 54, 56, 57, 58, 59, 60, 58, 60, 61, 62, 63, 64, 62, 64, 65, 66, 67, 68, 66, 68, 69, 70, 71, 72, 70, 72, 73, 74, 75, 76, 74, 76, 77, 78, 79, 80, 78, 80, 81, 82, 83, 84, 82, 84, 85]
		uniform token orientation = "leftHanded"
		normal3f[] normals = [(0.9999999, 0, 0), (1, 0, 0), (1, 0, 0), (0.9999999, 0, 0), (1, 0, 0), (1, 0, 0), (1, 0, 0), (1, 0, 0), (0.9999999, 0, 0), (1, 0, 0), (1, 0, 0), (1, 0, 0), (1, 0, 0), (0.9999999, 0, 0), (0.9999999, 0, 0), (1, 0, 0), (1, 0, 0), (0.9999999, 0, 0), (1, 0, 0), (1, 0, 0), (1, 0, 0), (1, 0, 0), (1, 0, 0), (1, 0, 0), (1, 0, 0), (1, 0, 0), (1, 0, 0), (1, 0, 0), (1, 0, 0), (1, 0, 0), (1, 0, 0), (1, 0, 0), (1, 0, 0), (1, 0, 0), (1, 0, 0), (1, 0, 0), (1, 0, 0), (1, 0, 0), (1, 0, 0), (-1, 0, 0), (-0.9999999, 0, 0), (-1, 0, 0), (-1, 0, 0), (-1, 0, 0), (-1, 0, 0), (-0.9999999, 0, 0), (-1, 0, 0), (-1, 0, 0), (-1, 0, 0), (-1, 0, 0), (-1, 0, 0), (-0.9999999, 0, 0), (-1, 0, 0), (-1, 0, 0), (-1, 0, 0), (-1, 0, 0), (-1, 0, 0), (-1, 0, 0), (-0.9999999, 0, 0), (-1, 0, 0), (-0.9999999, 0, 0), (-1, 0, 0), (-1, 0, 0), (-1, 0, 0), (-1, 0, 0), (-1, 0, 0), (-1, 0, 0), (-1, 0, 0), (-1, 0, 0), (-1, 0, 0), (-1, 0, 0), (-1, 0, 0), (-1, 0, 0), (-1, 0, 0), (-1, 0, 0), (-1, 0, 0), (-1, 0, 0), (-1, 0, 0), (0, 0, -1), (0, 0, -1), (0, 0, -1), (0, 0, -1), (0, 0, -1), (0, 0, -1), (0, -0.9805806, -0.1961161), (0, -0.9805806, -0.1961161), (0, -0.9805806, -0.1961161), (0, -0.9805806, -0.1961161), (0, -0.9805806, -0.1961161), (0, -0.9805806, -0.1961161), (0, 0, 1), (0, 0, 1), (0, 0, 1), (0, 0, 1), (0, 0, 1), (0, 0, 1), (0, 1, 0), (0, 1, 0), (0, 1, 0), (0, 1, 0), (0, 1, 0), (0, 1, 0), (0, 0, 1), (0, 0, 1), (0, 0, 1), (0, 0, 1), (0, 0, 1), (0, 0, 1), (0, 1, 0), (0, 1, 0), (0, 1, 0), (0, 1, 0), (0, 1, 0), (0, 1, 0), (0, 0, 1), (0, 0, 1), (0, 0, 1), (0, 0, 1), (0, 0, 1), (0, 0, 1), (0, 1, 0), (0, 1, 0), (0, 1, 0), (0, 1, 0), (0, 1, 0), (0, 1, 0), (0, 0, 1), (0, 0, 1), (0, 0, 1), (0, 0, 1), (0, 0, 1), (0, 0, 1), (0, 1, 0), (0, 1, 0), (0, 1, 0), (0, 1, 0), (0, 1, 0), (0, 1, 0), (0, 0, 1), (0, 0, 1), (0, 0, 1), (0, 0, 1), (0, 0, 1), (0, 0, 1), (0, 1, 0), (0, 1, 0), (0, 1, 0), (0, 1, 0), (0, 1, 0), (0, 1, 0), (0, 0, 0.9999999), (0, 0, 0.9999999), (0, 0, 0.9999999), (0, 0, 0.9999999), (0, 0, 0.9999999), (0, 0, 0.9999999), (0, 1, 0), (0, 1, 0), (0, 1, 0), (0, 1, 0), (0, 1, 0), (0, 1, 0)](
			
			interpolation = "faceVarying"
		)
		
		point3f[] points = [(1.907349E-06, 0.2, -2.5), (1.907349E-06, -0.5, 1), (1.907349E-06, -0.4999999, 2.5), (1.907349E-06, -0.3333333, 2.5), (1.907349E-06, -0.3333334, 1.666667), (1.907349E-06, -0.1666667, 1.666667), (1.907349E-06, -0.1666667, 0.833333), (1.907349E-06, 2.980232E-08, 0.833333), (1.907349E-06, -2.980232E-08, 0), (1.907349E-06, 0.1666667, 0), (1.907349E-06, 0.1666667, -0.833333), (1.907349E-06, 0.3333333, -0.833333), (1.907349E-06, 0.3333333, -1.666666), (1.907349E-06, 0.5, -1.666667), (1.907349E-06, 0.5, -2.5), (-5, -0.5, 1), (-5, 0.2, -2.5), (-5, 0.5, -2.5), (-5, 0.5, -1.666667), (-5, 0.3333333, -1.666666), (-5, 0.3333333, -0.833333), (-5, 0.1666667, -0.833333), (-5, 0.1666667, 0), (-5, 2.980232E-08, 0), (-5, 0, 0.833333), (-5, -0.1666667, 0.833333), (-5, -0.1666667, 1.666667), (-5, -0.3333333, 1.666667), (-5, -0.3333333, 2.5), (-5, -0.4999999, 2.5), (0, 0.5, -2.5), (-5, 0.5, -2.5), (-5, 0.2, -2.5), (0, 0.2, -2.5), (0, 0.2, -2.5), (-5, 0.2, -2.5), (-5, -0.5, 1), (0, -0.5, 1), (-5, -0.3333333, 2.5), (0, -0.3333333, 2.5), (0, -0.5, 2.5), (-5, -0.5, 2.5), (-5, -0.3333333, 1.666667), (0, -0.3333333, 1.666667), (0, -0.3333333, 2.5), (-5, -0.3333333, 2.5), (-5, -0.1666667, 1.666667), (0, -0.1666667, 1.666667), (0, -0.3333333, 1.666667), (-5, -0.3333333, 1.666667), (-5, -0.1666667, 0.833333), (0, -0.1666667, 0.833333), (0, -0.1666667, 1.666667), (-5, -0.1666667, 1.666667), (-5, 0, 0.833333), (0, 0, 0.833333), (0, -0.1666667, 0.833333), (-5, -0.1666667, 0.833333), (-5, 0, 0), (0, 0, 0), (0, 0, 0.833333), (-5, 0, 0.833333), (-5, 0.1666667, 0), (0, 0.1666667, 0), (0, 0, 0), (-5, 0, 0), (-5, 0.1666667, -0.833333), (0, 0.1666667, -0.833333), (0, 0.1666667, 0), (-5, 0.1666667, 0), (-5, 0.3333333, -0.833333), (0, 0.3333333, -0.833333), (0, 0.1666667, -0.833333), (-5, 0.1666667, -0.833333), (-5, 0.3333333, -1.666667), (0, 0.3333333, -1.666667), (0, 0.3333333, -0.833333), (-5, 0.3333333, -0.833333), (-5, 0.5, -1.666667), (0, 0.5, -1.666667), (0, 0.3333333, -1.666667), (-5, 0.3333333, -1.666667), (-5, 0.5, -2.5), (0, 0.5, -2.5), (0, 0.5, -1.666667), (-5, 0.5, -1.666667)]
		float2[] primvars:st = [(0.0115385, 2.605074E-07), (0.7115385, 0), (0.4999999, 0.6428574), (0.0115385, 2.605074E-07), (0.4999999, 0.6428574), (0.3333334, 0.6428574), (0.3333334, 0.6428574), (0.1666668, 0.6428574), (0.0115385, 2.605074E-07), (0.7115385, 0), (0.6666666, 0.6428574), (0.4999999, 0.6428574), (0.1666668, 0.6428574), (0, 0.6428574), (0.0115385, 2.605074E-07), (0.1666668, 0.6428574), (0.1602564, 1), (0, 0.6428574), (0.3333334, 0.6428574), (0.3269231, 1), (0.1666668, 0.6428574), (0.6666666, 0.6428574), (0.6602564, 1), (0.4999999, 0.6428574), (0.7115385, 0), (0.8269231, 1), (0.6666666, 0.6428574), (0.7115385, 0), (0.8333334, 0.6428574), (0.8269231, 1), (0.7115385, 0), (1, 0.6428574), (0.8333334, 0.6428574), (1, 0.6428574), (0.9935897, 1), (0.8333334, 0.6428574), (0.4999999, 0.6428574), (0.4935898, 1), (0.3333334, 0.6428574), (0.2884615, 0), (0.9884615, 0), (0.6666666, 0.642857), (0.2884615, 0), (0.6666666, 0.642857), (0.5000001, 0.642857), (0.9884615, 0), (0.8333332, 0.642857), (0.6666666, 0.642857), (0.5000001, 0.642857), (0.3333334, 0.642857), (0.2884615, 0), (0.9884615, 0), (1, 0.642857), (0.8333332, 0.642857), (1, 0.642857), (0.8397436, 1), (0.8333332, 0.642857), (0.3333334, 0.642857), (0.1730769, 1), (0.2884615, 0), (0.1730769, 1), (0.1666666, 0.642857), (0.2884615, 0), (0.1666666, 0.642857), (0, 0.642857), (0.2884615, 0), (0.1666666, 0.642857), (0.006410298, 0.9999995), (0, 0.642857), (0.5000001, 0.642857), (0.3397435, 0.9999995), (0.3333334, 0.642857), (0.8333332, 0.642857), (0.6730769, 1), (0.6666666, 0.642857), (0.6666666, 0.642857), (0.5064102, 0.9999995), (0.5000001, 0.642857), (0, 0), (1, 0), (1, 1), (0, 0), (1, 1), (0, 1), (0, 0), (1, 0), (1, 1), (0, 0), (1, 1), (0, 1), (0, 0), (1, 0), (1, 1), (0, 0), (1, 1), (0, 1), (0, 0), (1, 0), (1, 1), (0, 0), (1, 1), (0, 1), (0, 0), (1, 0), (1, 1), (0, 0), (1, 1), (0, 1), (0, 0), (1, 0), (1, 1), (0, 0), (1, 1), (0, 1), (0, 0), (1, 0), (1, 1), (0, 0), (1, 1), (0, 1), (0, 0), (1, 0), (1, 1), (0, 0), (1, 1), (0, 1), (0, 0), (1, 0), (1, 1), (0, 0), (1, 1), (0, 1), (0, 0), (1, 0), (1, 1), (0, 0), (1, 1), (0, 1), (0, 0), (1, 0), (1, 1), (0, 0), (1, 1), (0, 1), (0, 0), (1, 0), (1, 1), (0, 0), (1, 1), (0, 1), (0, 0), (1, 0), (1, 1), (0, 0), (1, 1), (0, 1), (0, 0), (1, 0), (1, 1), (0, 0), (1, 1), (0, 1)](
			
			interpolation = "faceVarying"
		)
		
		
	}
	
}
