#usda 1.0 | Cygon
(
	defaultPrim = "World"
	upAxis = "Y"
	metersPerUnit = 1
)

def Xform "World"
{
	def Mesh "Stair_95d8dcbb_e5e5_4390_b314_a183427e6ca7"
	{
		int[] faceVertexCounts = [3, 3, 3, 3, 3, 3, 3, 3]
		int[] faceVertexIndices = [0, 1, 2, 3, 4, 5, 6, 7, 8, 6, 8, 9, 10, 11, 12, 10, 12, 13, 14, 15, 16, 14, 16, 17]
		uniform token orientation = "leftHanded"
		normal3f[] normals = [(0, 0, 1), (0, 0, 1), (0, 0, 1), (0, 0, -1), (0, 0, -1), (0, 0, -1), (1, 0, 0), (1, 0, 0), (1, 0, 0), (1, 0, 0), (1, 0, 0), (1, 0, 0), (0, -1, 0), (0, -1, 0), (0, -1, 0), (0, -1, 0), (0, -1, 0), (0, -1, 0), (-0.5851853, 0.8108997, 0), (-0.5851853, 0.8108997, 0), (-0.5851853, 0.8108997, 0), (-0.5851853, 0.8108997, 0), (-0.5851853, 0.8108997, 0), (-0.5851853, 0.8108997, 0)](
			
			interpolation = "faceVarying"
		)
		
		point3f[] points = [(2.425001, -1.75, 0.1500015), (-2.424999, -1.75, 0.1500015), (2.425001, 1.75, 0.1500015), (2.425001, -1.75, -0.1499977), (2.425001, 1.75, -0.1499977), (-2.424999, -1.75, -0.1499977), (2.425001, 1.75, 0.1499996), (2.425001, 1.75, -0.1499996), (2.425001, -1.75, -0.1499996), (2.425001, -1.75, 0.1499996), (2.425001, -1.75, 0.1499996), (2.425001, -1.75, -0.1499996), (-2.424999, -1.75, -0.1499996), (-2.424999, -1.75, 0.1499996), (2.425001, 1.75, -0.1499996), (2.425001, 1.75, 0.1499996), (-2.424999, -1.75, 0.1499996), (-2.424999, -1.75, -0.1499996)]
		float2[] primvars:st = [(0, 0), (1, 6.81196E-08), (0, 1), (6.81196E-08, 0), (1, 0), (0, 1), (0, 0), (1, 0), (1, 1), (0, 0), (1, 1), (0, 1), (0, 0), (1, 0), (1, 1), (0, 0), (1, 1), (0, 1), (0, 0), (1, 0), (1, 1), (0, 0), (1, 1), (0, 1)](
			
			interpolation = "faceVarying"
		)
		
		
	}
	
}
