#usda 1.0 | Cygon
(
	defaultPrim = "World"
	upAxis = "Y"
	metersPerUnit = 1
)

def Xform "World"
{
	def Mesh "Stair_9548cb0f_40a9_4194_8e69_eff53ade5183"
	{
		int[] faceVertexCounts = [3, 3, 3, 3, 3, 3, 3, 3, 3, 3, 3, 3, 3, 3, 3, 3, 3, 3, 3, 3, 3, 3, 3, 3, 3, 3, 3, 3, 3, 3, 3, 3, 3, 3, 3, 3, 3, 3, 3, 3, 3, 3, 3, 3, 3, 3, 3, 3, 3, 3, 3, 3, 3, 3, 3, 3, 3, 3, 3, 3, 3, 3, 3, 3, 3, 3, 3, 3, 3, 3, 3, 3, 3, 3, 3, 3, 3, 3, 3, 3, 3, 3, 3, 3, 3, 3, 3, 3, 3, 3, 3, 3, 3, 3, 3, 3, 3, 3, 3, 3, 3, 3, 3, 3, 3, 3, 3, 3, 3, 3, 3, 3, 3, 3, 3, 3, 3, 3, 3, 3, 3, 3, 3, 3, 3, 3, 3, 3, 3, 3, 3, 3, 3, 3, 3, 3, 3, 3, 3, 3, 3, 3, 3, 3, 3, 3, 3, 3, 3, 3, 3, 3, 3, 3, 3, 3, 3, 3, 3, 3, 3, 3, 3, 3]
		int[] faceVertexIndices = [0, 1, 3, 0, 3, 5, 5, 7, 0, 7, 9, 0, 9, 11, 0, 11, 13, 0, 13, 15, 0, 15, 17, 0, 17, 19, 0, 19, 21, 0, 21, 23, 0, 23, 25, 0, 25, 27, 0, 27, 29, 0, 29, 31, 0, 31, 33, 0, 33, 35, 0, 35, 37, 0, 37, 39, 0, 39, 41, 0, 37, 38, 39, 27, 28, 29, 19, 20, 21, 13, 14, 15, 9, 10, 11, 7, 8, 9, 5, 6, 7, 3, 4, 5, 1, 2, 3, 39, 40, 41, 35, 36, 37, 33, 34, 35, 31, 32, 33, 29, 30, 31, 25, 26, 27, 23, 24, 25, 21, 22, 23, 17, 18, 19, 15, 16, 17, 11, 12, 13, 42, 79, 81, 42, 81, 83, 42, 77, 79, 42, 75, 77, 42, 73, 75, 42, 71, 73, 42, 69, 71, 42, 67, 69, 42, 65, 67, 42, 63, 65, 42, 61, 63, 42, 59, 61, 42, 57, 59, 42, 55, 57, 42, 53, 55, 42, 51, 53, 42, 49, 51, 42, 47, 49, 42, 45, 47, 42, 43, 45, 55, 56, 57, 45, 46, 47, 69, 70, 71, 63, 64, 65, 81, 82, 83, 79, 80, 81, 77, 78, 79, 75, 76, 77, 73, 74, 75, 71, 72, 73, 67, 68, 69, 65, 66, 67, 61, 62, 63, 59, 60, 61, 57, 58, 59, 53, 54, 55, 51, 52, 53, 49, 50, 51, 47, 48, 49, 43, 44, 45, 84, 85, 86, 84, 86, 87, 88, 89, 90, 88, 90, 91, 92, 93, 94, 92, 94, 95, 96, 97, 98, 96, 98, 99, 100, 101, 102, 100, 102, 103, 104, 105, 106, 104, 106, 107, 108, 109, 110, 108, 110, 111, 112, 113, 114, 112, 114, 115, 116, 117, 118, 116, 118, 119, 120, 121, 122, 120, 122, 123, 124, 125, 126, 124, 126, 127, 128, 129, 130, 128, 130, 131, 132, 133, 134, 132, 134, 135, 136, 137, 138, 136, 138, 139, 140, 141, 142, 140, 142, 143, 144, 145, 146, 144, 146, 147, 148, 149, 150, 148, 150, 151, 152, 153, 154, 152, 154, 155, 156, 157, 158, 156, 158, 159, 160, 161, 162, 160, 162, 163, 164, 165, 166, 164, 166, 167, 168, 169, 170, 168, 170, 171, 172, 173, 174, 172, 174, 175, 176, 177, 178, 176, 178, 179, 180, 181, 182, 180, 182, 183, 184, 185, 186, 184, 186, 187, 188, 189, 190, 188, 190, 191, 192, 193, 194, 192, 194, 195, 196, 197, 198, 196, 198, 199, 200, 201, 202, 200, 202, 203, 204, 205, 206, 204, 206, 207, 208, 209, 210, 208, 210, 211, 212, 213, 214, 212, 214, 215, 216, 217, 218, 216, 218, 219, 220, 221, 222, 220, 222, 223, 224, 225, 226, 224, 226, 227, 228, 229, 230, 228, 230, 231, 232, 233, 234, 232, 234, 235, 236, 237, 238, 236, 238, 239, 240, 241, 242, 240, 242, 243, 244, 245, 246, 244, 246, 247, 248, 249, 250, 248, 250, 251]
		uniform token orientation = "leftHanded"
		normal3f[] normals = [(0, 0, 1), (0, 0, 1), (0, 0, 1), (0, 0, 1), (0, 0, 1), (0, 0, 1), (0, 0, 1), (0, 0, 1), (0, 0, 1), (0, 0, 1), (0, 0, 1), (0, 0, 1), (0, 0, 1), (0, 0, 0.9999999), (0, 0, 1), (0, 0, 0.9999999), (0, 0, 1), (0, 0, 1), (0, 0, 1), (0, 0, 1), (0, 0, 1), (0, 0, 1), (0, 0, 0.9999999), (0, 0, 1), (0, 0, 0.9999999), (0, 0, 1), (0, 0, 1), (0, 0, 1), (0, 0, 1), (0, 0, 1), (0, 0, 1), (0, 0, 0.9999999), (0, 0, 1), (0, 0, 0.9999999), (0, 0, 0.9999999), (0, 0, 1), (0, 0, 0.9999999), (0, 0, 1), (0, 0, 1), (0, 0, 1), (0, 0, 1), (0, 0, 1), (0, 0, 1), (0, 0, 0.9999999), (0, 0, 1), (0, 0, 0.9999999), (0, 0, 0.9999999), (0, 0, 1), (0, 0, 0.9999999), (0, 0, 0.9999999), (0, 0, 1), (0, 0, 0.9999999), (0, 0, 1), (0, 0, 1), (0, 0, 1), (0, 0, 1), (0, 0, 1), (0, 0, 1), (0, 0, 1), (0, 0, 1), (0, 0, 1), (0, 0, 1), (0, 0, 1), (0, 0, 1), (0, 0, 1), (0, 0, 1), (0, 0, 1), (0, 0, 1), (0, 0, 1), (0, 0, 1), (0, 0, 1), (0, 0, 1), (0, 0, 1), (0, 0, 1), (0, 0, 0.9999999), (0, 0, 1), (0, 0, 1), (0, 0, 1), (0, 0, 1), (0, 0, 1), (0, 0, 1), (0, 0, 1), (0, 0, 1), (0, 0, 1), (0, 0, 1), (0, 0, 1), (0, 0, 1), (0, 0, 1), (0, 0, 1), (0, 0, 1), (0, 0, 0.9999999), (0, 0, 1), (0, 0, 1), (0, 0, 0.9999999), (0, 0, 1), (0, 0, 0.9999999), (0, 0, 0.9999999), (0, 0, 1), (0, 0, 0.9999999), (0, 0, 1), (0, 0, 1), (0, 0, 0.9999999), (0, 0, 0.9999999), (0, 0, 1), (0, 0, 1), (0, 0, 0.9999999), (0, 0, 1), (0, 0, 0.9999999), (0, 0, 1), (0, 0, 1), (0, 0, 0.9999999), (0, 0, 0.9999999), (0, 0, 1), (0, 0, 1), (0, 0, 1), (0, 0, 1), (0, 0, 0.9999999), (0, 0, 0.9999999), (0, 0, 1), (0, 0, 1), (0, 0, -1), (0, 0, -1), (0, 0, -1), (0, 0, -1), (0, 0, -1), (0, 0, -1), (0, 0, -1), (0, 0, -1), (0, 0, -1), (0, 0, -1), (0, 0, -1), (0, 0, -1), (0, 0, -1), (0, 0, -0.9999999), (0, 0, -1), (0, 0, -1), (0, 0, -0.9999999), (0, 0, -0.9999999), (0, 0, -1), (0, 0, -1), (0, 0, -0.9999999), (0, 0, -1), (0, 0, -1), (0, 0, -1), (0, 0, -1), (0, 0, -1), (0, 0, -1), (0, 0, -1), (0, 0, -1), (0, 0, -1), (0, 0, -1), (0, 0, -1), (0, 0, -1), (0, 0, -1), (0, 0, -1), (0, 0, -1), (0, 0, -1), (0, 0, -1), (0, 0, -1), (0, 0, -1), (0, 0, -1), (0, 0, -1), (0, 0, -1), (0, 0, -1), (0, 0, -1), (0, 0, -1), (0, 0, -1), (0, 0, -1), (0, 0, -1), (0, 0, -1), (0, 0, -1), (0, 0, -1), (0, 0, -1), (0, 0, -1), (0, 0, -1), (0, 0, -1), (0, 0, -1), (0, 0, -1), (0, 0, -1), (0, 0, -1), (0, 0, -1), (0, 0, -1), (0, 0, -1), (0, 0, -1), (0, 0, -1), (0, 0, -1), (0, 0, -1), (0, 0, -1), (0, 0, -0.9999999), (0, 0, -1), (0, 0, -1), (0, 0, -1), (0, 0, -1), (0, 0, -1), (0, 0, -1), (0, 0, -1), (0, 0, -1), (0, 0, -1), (0, 0, -1), (0, 0, -1), (0, 0, -1), (0, 0, -1), (0, 0, -1), (0, 0, -1), (0, 0, -0.9999999), (0, 0, -1), (0, 0, -1), (0, 0, -0.9999999), (0, 0, -1), (0, 0, -0.9999999), (0, 0, -1), (0, 0, -1), (0, 0, -1), (0, 0, -1), (0, 0, -1), (0, 0, -1), (0, 0, -1), (0, 0, -1), (0, 0, -1), (0, 0, -1), (0, 0, -1), (0, 0, -1), (0, 0, -1), (0, 0, -1), (0, 0, -1), (0, 0, -1), (0, 0, -1), (0, 0, -1), (0, 0, -1), (0, 0, -1), (0, 0, -1), (0, 0, -1), (0, 0, -1), (0, 0, -1), (0, 0, -1), (0, 0, -1), (0, 0, -1), (0, 0, -1), (0, 0, -1), (0, 0, -1), (1, 0, 0), (1, 0, 0), (1, 0, 0), (1, 0, 0), (1, 0, 0), (1, 0, 0), (0, -1, 0), (0, -1, 0), (0, -1, 0), (0, -1, 0), (0, -1, 0), (0, -1, 0), (-1, 0, 0), (-1, 0, 0), (-1, 0, 0), (-1, 0, 0), (-1, 0, 0), (-1, 0, 0), (0, 1, 0), (0, 1, 0), (0, 1, 0), (0, 1, 0), (0, 1, 0), (0, 1, 0), (-1, 0, 0), (-1, 0, 0), (-1, 0, 0), (-1, 0, 0), (-1, 0, 0), (-1, 0, 0), (0, 1, 0), (0, 1, 0), (0, 1, 0), (0, 1, 0), (0, 1, 0), (0, 1, 0), (-1, 0, 0), (-1, 0, 0), (-1, 0, 0), (-1, 0, 0), (-1, 0, 0), (-1, 0, 0), (0, 1, 0), (0, 1, 0), (0, 1, 0), (0, 1, 0), (0, 1, 0), (0, 1, 0), (-1, 0, 0), (-1, 0, 0), (-1, 0, 0), (-1, 0, 0), (-1, 0, 0), (-1, 0, 0), (0, 1, 0), (0, 1, 0), (0, 1, 0), (0, 1, 0), (0, 1, 0), (0, 1, 0), (-1, 0, 0), (-1, 0, 0), (-1, 0, 0), (-1, 0, 0), (-1, 0, 0), (-1, 0, 0), (0, 1, 0), (0, 1, 0), (0, 1, 0), (0, 1, 0), (0, 1, 0), (0, 1, 0), (-1, 0, 0), (-1, 0, 0), (-1, 0, 0), (-1, 0, 0), (-1, 0, 0), (-1, 0, 0), (0, 1, 0), (0, 1, 0), (0, 1, 0), (0, 1, 0), (0, 1, 0), (0, 1, 0), (-1, 0, 0), (-1, 0, 0), (-1, 0, 0), (-1, 0, 0), (-1, 0, 0), (-1, 0, 0), (0, 1, 0), (0, 1, 0), (0, 1, 0), (0, 1, 0), (0, 1, 0), (0, 1, 0), (-1, 0, 0), (-1, 0, 0), (-1, 0, 0), (-1, 0, 0), (-1, 0, 0), (-1, 0, 0), (0, 1, 0), (0, 1, 0), (0, 1, 0), (0, 1, 0), (0, 1, 0), (0, 1, 0), (-1, 0, 0), (-1, 0, 0), (-1, 0, 0), (-1, 0, 0), (-1, 0, 0), (-1, 0, 0), (0, 1, 0), (0, 1, 0), (0, 1, 0), (0, 1, 0), (0, 1, 0), (0, 1, 0), (-1, 0, 0), (-1, 0, 0), (-1, 0, 0), (-1, 0, 0), (-1, 0, 0), (-1, 0, 0), (0, 1, 0), (0, 1, 0), (0, 1, 0), (0, 1, 0), (0, 1, 0), (0, 1, 0), (-1, 0, 0), (-1, 0, 0), (-1, 0, 0), (-1, 0, 0), (-1, 0, 0), (-1, 0, 0), (0, 1, 0), (0, 1, 0), (0, 1, 0), (0, 1, 0), (0, 1, 0), (0, 1, 0), (-1, 0, 0), (-1, 0, 0), (-1, 0, 0), (-1, 0, 0), (-1, 0, 0), (-1, 0, 0), (0, 1, 0), (0, 1, 0), (0, 1, 0), (0, 1, 0), (0, 1, 0), (0, 1, 0), (-1, 0, 0), (-1, 0, 0), (-1, 0, 0), (-1, 0, 0), (-1, 0, 0), (-1, 0, 0), (0, 1, 0), (0, 1, 0), (0, 1, 0), (0, 1, 0), (0, 1, 0), (0, 1, 0), (-1, 0, 0), (-1, 0, 0), (-1, 0, 0), (-1, 0, 0), (-1, 0, 0), (-1, 0, 0), (0, 1, 0), (0, 1, 0), (0, 1, 0), (0, 1, 0), (0, 1, 0), (0, 1, 0), (-1, 0, 0), (-1, 0, 0), (-1, 0, 0), (-1, 0, 0), (-1, 0, 0), (-1, 0, 0), (0, 1, 0), (0, 1, 0), (0, 1, 0), (0, 1, 0), (0, 1, 0), (0, 1, 0), (-1, 0, 0), (-1, 0, 0), (-1, 0, 0), (-1, 0, 0), (-1, 0, 0), (-1, 0, 0), (0, 1, 0), (0, 1, 0), (0, 1, 0), (0, 1, 0), (0, 1, 0), (0, 1, 0), (-1, 0, 0), (-1, 0, 0), (-1, 0, 0), (-1, 0, 0), (-1, 0, 0), (-1, 0, 0), (0, 1, 0), (0, 1, 0), (0, 1, 0), (0, 1, 0), (0, 1, 0), (0, 1, 0), (-1, 0, 0), (-1, 0, 0), (-1, 0, 0), (-1, 0, 0), (-1, 0, 0), (-1, 0, 0), (0, 1, 0), (0, 1, 0), (0, 1, 0), (0, 1, 0), (0, 1, 0), (0, 1, 0), (-1, 0, 0), (-1, 0, 0), (-1, 0, 0), (-1, 0, 0), (-1, 0, 0), (-1, 0, 0), (0, 1, 0), (0, 1, 0), (0, 1, 0), (0, 1, 0), (0, 1, 0), (0, 1, 0), (-1, 0, 0), (-1, 0, 0), (-1, 0, 0), (-1, 0, 0), (-1, 0, 0), (-1, 0, 0), (0, 1, 0), (0, 1, 0), (0, 1, 0), (0, 1, 0), (0, 1, 0), (0, 1, 0)](
			
			interpolation = "faceVarying"
		)
		
		point3f[] points = [(2.5, -1.75, 5), (-2.5, -1.75, 5), (-2.5, -1.575, 5), (-2.25, -1.575, 5), (-2.25, -1.4, 5), (-2, -1.4, 5), (-2, -1.225, 5), (-1.75, -1.225, 5), (-1.75, -1.05, 5), (-1.5, -1.05, 5), (-1.5, -0.875, 5), (-1.25, -0.875, 5), (-1.25, -0.7, 5), (-1, -0.7, 5), (-1, -0.525, 5), (-0.75, -0.525, 5), (-0.75, -0.35, 5), (-0.5, -0.35, 5), (-0.5, -0.1750001, 5), (-0.25, -0.1750001, 5), (-0.25, 0, 5), (0, 0, 5), (0, 0.175, 5), (0.25, 0.175, 5), (0.25, 0.3499999, 5), (0.5, 0.3499999, 5), (0.5, 0.5249999, 5), (0.75, 0.5249999, 5), (0.75, 0.7, 5), (1, 0.7, 5), (1, 0.875, 5), (1.25, 0.875, 5), (1.25, 1.05, 5), (1.5, 1.05, 5), (1.5, 1.225, 5), (1.75, 1.225, 5), (1.75, 1.4, 5), (2, 1.4, 5), (2, 1.575, 5), (2.25, 1.575, 5), (2.25, 1.75, 5), (2.5, 1.75, 5), (2.5, -1.75, -1.907349E-06), (2.5, 1.75, -1.907349E-06), (2.25, 1.75, -1.907349E-06), (2.25, 1.575, -1.907349E-06), (2, 1.575, -1.907349E-06), (2, 1.4, -1.907349E-06), (1.75, 1.4, -1.907349E-06), (1.75, 1.225, -1.907349E-06), (1.5, 1.225, -1.907349E-06), (1.5, 1.05, -1.907349E-06), (1.25, 1.05, -1.907349E-06), (1.25, 0.875, -1.907349E-06), (1, 0.875, -1.907349E-06), (1, 0.7, -1.907349E-06), (0.75, 0.7, -1.907349E-06), (0.75, 0.5249999, -1.907349E-06), (0.5, 0.5249999, -1.907349E-06), (0.5, 0.3499999, -1.907349E-06), (0.25, 0.3499999, -1.907349E-06), (0.25, 0.175, -1.907349E-06), (0, 0.175, -1.907349E-06), (0, 0, -1.907349E-06), (-0.25, 0, -1.907349E-06), (-0.25, -0.1750001, -1.907349E-06), (-0.5, -0.1750001, -1.907349E-06), (-0.5, -0.35, -1.907349E-06), (-0.75, -0.35, -1.907349E-06), (-0.75, -0.525, -1.907349E-06), (-1, -0.525, -1.907349E-06), (-1, -0.7, -1.907349E-06), (-1.25, -0.7, -1.907349E-06), (-1.25, -0.875, -1.907349E-06), (-1.5, -0.875, -1.907349E-06), (-1.5, -1.05, -1.907349E-06), (-1.75, -1.05, -1.907349E-06), (-1.75, -1.225, -1.907349E-06), (-2, -1.225, -1.907349E-06), (-2, -1.4, -1.907349E-06), (-2.25, -1.4, -1.907349E-06), (-2.25, -1.575, -1.907349E-06), (-2.5, -1.575, -1.907349E-06), (-2.5, -1.75, -1.907349E-06), (2.5, 1.75, 5), (2.5, 1.75, 0), (2.5, -1.75, 0), (2.5, -1.75, 5), (2.5, -1.75, 5), (2.5, -1.75, 0), (-2.5, -1.75, 0), (-2.5, -1.75, 5), (-2.5, -1.575, 0), (-2.5, -1.575, 5), (-2.5, -1.75, 5), (-2.5, -1.75, 0), (-2.25, -1.575, 0), (-2.25, -1.575, 5), (-2.5, -1.575, 5), (-2.5, -1.575, 0), (-2.25, -1.4, 0), (-2.25, -1.4, 5), (-2.25, -1.575, 5), (-2.25, -1.575, 0), (-2, -1.4, 0), (-2, -1.4, 5), (-2.25, -1.4, 5), (-2.25, -1.4, 0), (-2, -1.225, 0), (-2, -1.225, 5), (-2, -1.4, 5), (-2, -1.4, 0), (-1.75, -1.225, 0), (-1.75, -1.225, 5), (-2, -1.225, 5), (-2, -1.225, 0), (-1.75, -1.05, 0), (-1.75, -1.05, 5), (-1.75, -1.225, 5), (-1.75, -1.225, 0), (-1.5, -1.05, 0), (-1.5, -1.05, 5), (-1.75, -1.05, 5), (-1.75, -1.05, 0), (-1.5, -0.875, 0), (-1.5, -0.875, 5), (-1.5, -1.05, 5), (-1.5, -1.05, 0), (-1.25, -0.875, 0), (-1.25, -0.875, 5), (-1.5, -0.875, 5), (-1.5, -0.875, 0), (-1.25, -0.7, 0), (-1.25, -0.7, 5), (-1.25, -0.875, 5), (-1.25, -0.875, 0), (-1, -0.7, 0), (-1, -0.7, 5), (-1.25, -0.7, 5), (-1.25, -0.7, 0), (-1, -0.525, 0), (-1, -0.525, 5), (-1, -0.7, 5), (-1, -0.7, 0), (-0.75, -0.525, 0), (-0.75, -0.525, 5), (-1, -0.525, 5), (-1, -0.525, 0), (-0.75, -0.35, 0), (-0.75, -0.35, 5), (-0.75, -0.525, 5), (-0.75, -0.525, 0), (-0.5, -0.35, 0), (-0.5, -0.35, 5), (-0.75, -0.35, 5), (-0.75, -0.35, 0), (-0.5, -0.1750001, 0), (-0.5, -0.1750001, 5), (-0.5, -0.35, 5), (-0.5, -0.35, 0), (-0.25, -0.1750001, 0), (-0.25, -0.1750001, 5), (-0.5, -0.1750001, 5), (-0.5, -0.1750001, 0), (-0.25, 0, 0), (-0.25, 0, 5), (-0.25, -0.1750001, 5), (-0.25, -0.1750001, 0), (0, 0, 0), (0, 0, 5), (-0.25, 0, 5), (-0.25, 0, 0), (0, 0.175, 0), (0, 0.175, 5), (0, 0, 5), (0, 0, 0), (0.25, 0.175, 0), (0.25, 0.175, 5), (0, 0.175, 5), (0, 0.175, 0), (0.25, 0.3499999, 0), (0.25, 0.3499999, 5), (0.25, 0.175, 5), (0.25, 0.175, 0), (0.5, 0.3499999, 0), (0.5, 0.3499999, 5), (0.25, 0.3499999, 5), (0.25, 0.3499999, 0), (0.5, 0.5249999, 0), (0.5, 0.5249999, 5), (0.5, 0.3499999, 5), (0.5, 0.3499999, 0), (0.75, 0.5249999, 0), (0.75, 0.5249999, 5), (0.5, 0.5249999, 5), (0.5, 0.5249999, 0), (0.75, 0.7, 0), (0.75, 0.7, 5), (0.75, 0.5249999, 5), (0.75, 0.5249999, 0), (1, 0.7, 0), (1, 0.7, 5), (0.75, 0.7, 5), (0.75, 0.7, 0), (1, 0.875, 0), (1, 0.875, 5), (1, 0.7, 5), (1, 0.7, 0), (1.25, 0.875, 0), (1.25, 0.875, 5), (1, 0.875, 5), (1, 0.875, 0), (1.25, 1.05, 0), (1.25, 1.05, 5), (1.25, 0.875, 5), (1.25, 0.875, 0), (1.5, 1.05, 0), (1.5, 1.05, 5), (1.25, 1.05, 5), (1.25, 1.05, 0), (1.5, 1.225, 0), (1.5, 1.225, 5), (1.5, 1.05, 5), (1.5, 1.05, 0), (1.75, 1.225, 0), (1.75, 1.225, 5), (1.5, 1.225, 5), (1.5, 1.225, 0), (1.75, 1.4, 0), (1.75, 1.4, 5), (1.75, 1.225, 5), (1.75, 1.225, 0), (2, 1.4, 0), (2, 1.4, 5), (1.75, 1.4, 5), (1.75, 1.4, 0), (2, 1.575, 0), (2, 1.575, 5), (2, 1.4, 5), (2, 1.4, 0), (2.25, 1.575, 0), (2.25, 1.575, 5), (2, 1.575, 5), (2, 1.575, 0), (2.25, 1.75, 0), (2.25, 1.75, 5), (2.25, 1.575, 5), (2.25, 1.575, 0), (2.5, 1.75, 0), (2.5, 1.75, 5), (2.25, 1.75, 5), (2.25, 1.75, 0)]
		float2[] primvars:st = [(0, 0), (1, 0), (0.95, 0.05), (0, 0), (0.95, 0.05), (0.9, 0.1), (0.9, 0.1), (0.85, 0.15), (0, 0), (0.85, 0.15), (0.8, 0.2), (0, 0), (0.8, 0.2), (0.75, 0.25), (0, 0), (0.75, 0.25), (0.7, 0.3), (0, 0), (0.7, 0.3), (0.65, 0.35), (0, 0), (0.65, 0.35), (0.6, 0.4), (0, 0), (0.6, 0.4), (0.55, 0.45), (0, 0), (0.55, 0.45), (0.5, 0.5), (0, 0), (0.5, 0.5), (0.45, 0.55), (0, 0), (0.45, 0.55), (0.4, 0.6), (0, 0), (0.4, 0.6), (0.35, 0.65), (0, 0), (0.35, 0.65), (0.3, 0.7), (0, 0), (0.3, 0.7), (0.25, 0.75), (0, 0), (0.25, 0.75), (0.2, 0.8), (0, 0), (0.2, 0.8), (0.15, 0.85), (0, 0), (0.15, 0.85), (0.1, 0.9), (0, 0), (0.1, 0.9), (0.05, 0.95), (0, 0), (0.05, 0.95), (0, 1), (0, 0), (0.1, 0.9), (0.1, 0.95), (0.05, 0.95), (0.35, 0.65), (0.35, 0.7), (0.3, 0.7), (0.55, 0.45), (0.55, 0.5), (0.5, 0.5), (0.7, 0.3), (0.7, 0.35), (0.65, 0.35), (0.8, 0.2), (0.8, 0.25), (0.75, 0.25), (0.85, 0.15), (0.85, 0.2), (0.8, 0.2), (0.9, 0.1), (0.9, 0.15), (0.85, 0.15), (0.95, 0.05), (0.95, 0.1), (0.9, 0.1), (1, 0), (1, 0.05), (0.95, 0.05), (0.05, 0.95), (0.05, 1), (0, 1), (0.15, 0.85), (0.15, 0.9), (0.1, 0.9), (0.2, 0.8), (0.2, 0.85), (0.15, 0.85), (0.25, 0.75), (0.25, 0.8), (0.2, 0.8), (0.3, 0.7), (0.3, 0.75), (0.25, 0.75), (0.4, 0.6), (0.4, 0.65), (0.35, 0.65), (0.45, 0.55), (0.45, 0.6), (0.4, 0.6), (0.5, 0.5), (0.5, 0.55), (0.45, 0.55), (0.6, 0.4), (0.6, 0.45), (0.55, 0.45), (0.65, 0.35), (0.65, 0.4), (0.6, 0.4), (0.75, 0.25), (0.75, 0.3), (0.7, 0.3), (0, 0), (0.1, 0.9), (0.05, 0.95), (0, 0), (0.05, 0.95), (0, 1), (0, 0), (0.15, 0.85), (0.1, 0.9), (0, 0), (0.2, 0.8), (0.15, 0.85), (0, 0), (0.25, 0.75), (0.2, 0.8), (0, 0), (0.3, 0.7), (0.25, 0.75), (0, 0), (0.35, 0.65), (0.3, 0.7), (0, 0), (0.4, 0.6), (0.35, 0.65), (0, 0), (0.45, 0.55), (0.4, 0.6), (0, 0), (0.5, 0.5), (0.45, 0.55), (0, 0), (0.55, 0.45), (0.5, 0.5), (0, 0), (0.6, 0.4), (0.55, 0.45), (0, 0), (0.65, 0.35), (0.6, 0.4), (0, 0), (0.7, 0.3), (0.65, 0.35), (0, 0), (0.75, 0.25), (0.7, 0.3), (0, 0), (0.8, 0.2), (0.75, 0.25), (0, 0), (0.85, 0.15), (0.8, 0.2), (0, 0), (0.9, 0.1), (0.85, 0.15), (0, 0), (0.95, 0.05), (0.9, 0.1), (0, 0), (1, 0), (0.95, 0.05), (0.7, 0.3), (0.7, 0.35), (0.65, 0.35), (0.95, 0.05), (0.95, 0.1), (0.9, 0.1), (0.35, 0.65), (0.35, 0.7), (0.3, 0.7), (0.5, 0.5), (0.5, 0.55), (0.45, 0.55), (0.05, 0.95), (0.05, 1), (0, 1), (0.1, 0.9), (0.1, 0.95), (0.05, 0.95), (0.15, 0.85), (0.15, 0.9), (0.1, 0.9), (0.2, 0.8), (0.2, 0.85), (0.15, 0.85), (0.25, 0.75), (0.25, 0.8), (0.2, 0.8), (0.3, 0.7), (0.3, 0.75), (0.25, 0.75), (0.4, 0.6), (0.4, 0.65), (0.35, 0.65), (0.45, 0.55), (0.45, 0.6), (0.4, 0.6), (0.55, 0.45), (0.55, 0.5), (0.5, 0.5), (0.6, 0.4), (0.6, 0.45), (0.55, 0.45), (0.65, 0.35), (0.65, 0.4), (0.6, 0.4), (0.75, 0.25), (0.75, 0.3), (0.7, 0.3), (0.8, 0.2), (0.8, 0.25), (0.75, 0.25), (0.85, 0.15), (0.85, 0.2), (0.8, 0.2), (0.9, 0.1), (0.9, 0.15), (0.85, 0.15), (1, 0), (1, 0.05), (0.95, 0.05), (0, 0), (1, 0), (1, 1), (0, 0), (1, 1), (0, 1), (0, 0), (1, 0), (1, 1), (0, 0), (1, 1), (0, 1), (0, 0), (1, 0), (1, 1), (0, 0), (1, 1), (0, 1), (0, 0), (1, 0), (1, 1), (0, 0), (1, 1), (0, 1), (0, 0), (1, 0), (1, 1), (0, 0), (1, 1), (0, 1), (0, 0), (1, 0), (1, 1), (0, 0), (1, 1), (0, 1), (0, 0), (1, 0), (1, 1), (0, 0), (1, 1), (0, 1), (0, 0), (1, 0), (1, 1), (0, 0), (1, 1), (0, 1), (0, 0), (1, 0), (1, 1), (0, 0), (1, 1), (0, 1), (0, 0), (1, 0), (1, 1), (0, 0), (1, 1), (0, 1), (0, 0), (1, 0), (1, 1), (0, 0), (1, 1), (0, 1), (0, 0), (1, 0), (1, 1), (0, 0), (1, 1), (0, 1), (0, 0), (1, 0), (1, 1), (0, 0), (1, 1), (0, 1), (0, 0), (1, 0), (1, 1), (0, 0), (1, 1), (0, 1), (0, 0), (1, 0), (1, 1), (0, 0), (1, 1), (0, 1), (0, 0), (1, 0), (1, 1), (0, 0), (1, 1), (0, 1), (0, 0), (1, 0), (1, 1), (0, 0), (1, 1), (0, 1), (0, 0), (1, 0), (1, 1), (0, 0), (1, 1), (0, 1), (0, 0), (1, 0), (1, 1), (0, 0), (1, 1), (0, 1), (0, 0), (1, 0), (1, 1), (0, 0), (1, 1), (0, 1), (0, 0), (1, 0), (1, 1), (0, 0), (1, 1), (0, 1), (0, 0), (1, 0), (1, 1), (0, 0), (1, 1), (0, 1), (0, 0), (1, 0), (1, 1), (0, 0), (1, 1), (0, 1), (0, 0), (1, 0), (1, 1), (0, 0), (1, 1), (0, 1), (0, 0), (1, 0), (1, 1), (0, 0), (1, 1), (0, 1), (0, 0), (1, 0), (1, 1), (0, 0), (1, 1), (0, 1), (0, 0), (1, 0), (1, 1), (0, 0), (1, 1), (0, 1), (0, 0), (1, 0), (1, 1), (0, 0), (1, 1), (0, 1), (0, 0), (1, 0), (1, 1), (0, 0), (1, 1), (0, 1), (0, 0), (1, 0), (1, 1), (0, 0), (1, 1), (0, 1), (0, 0), (1, 0), (1, 1), (0, 0), (1, 1), (0, 1), (0, 0), (1, 0), (1, 1), (0, 0), (1, 1), (0, 1), (0, 0), (1, 0), (1, 1), (0, 0), (1, 1), (0, 1), (0, 0), (1, 0), (1, 1), (0, 0), (1, 1), (0, 1), (0, 0), (1, 0), (1, 1), (0, 0), (1, 1), (0, 1), (0, 0), (1, 0), (1, 1), (0, 0), (1, 1), (0, 1), (0, 0), (1, 0), (1, 1), (0, 0), (1, 1), (0, 1), (0, 0), (1, 0), (1, 1), (0, 0), (1, 1), (0, 1), (0, 0), (1, 0), (1, 1), (0, 0), (1, 1), (0, 1), (0, 0), (1, 0), (1, 1), (0, 0), (1, 1), (0, 1), (0, 0), (1, 0), (1, 1), (0, 0), (1, 1), (0, 1), (0, 0), (1, 0), (1, 1), (0, 0), (1, 1), (0, 1)](
			
			interpolation = "faceVarying"
		)
		
		
	}
	
}
