#usda 1.0 | Cygon
(
	defaultPrim = "World"
	upAxis = "Y"
	metersPerUnit = 1
)

def Xform "World"
{
	def Mesh "Stair_9bd4dde4_904b_4fdb_9a80_e90a2b6be7cb"
	{
		int[] faceVertexCounts = [3, 3, 3, 3, 3, 3, 3, 3, 3, 3, 3, 3, 3, 3, 3, 3, 3, 3, 3, 3, 3, 3, 3, 3, 3, 3, 3, 3, 3, 3, 3, 3, 3, 3, 3, 3, 3, 3, 3, 3, 3, 3, 3, 3, 3, 3, 3, 3, 3, 3, 3, 3, 3, 3, 3, 3, 3, 3, 3, 3, 3, 3, 3, 3, 3, 3, 3, 3, 3, 3, 3, 3, 3, 3, 3, 3, 3, 3, 3, 3, 3, 3, 3, 3, 3, 3, 3, 3, 3, 3, 3, 3, 3, 3, 3, 3, 3, 3, 3, 3, 3, 3, 3, 3, 3, 3, 3, 3, 3, 3, 3, 3, 3, 3, 3, 3, 3, 3, 3, 3, 3, 3, 3, 3, 3, 3, 3, 3, 3, 3, 3, 3, 3, 3, 3, 3, 3, 3, 3, 3, 3, 3, 3, 3, 3, 3, 3, 3, 3, 3, 3, 3, 3, 3, 3, 3, 3, 3, 3, 3, 3, 3, 3, 3, 3, 3, 3, 3, 3, 3, 3, 3, 3, 3, 3, 3, 3, 3, 3, 3, 3, 3, 3, 3, 3, 3, 3, 3]
		int[] faceVertexIndices = [0, 1, 3, 0, 3, 5, 5, 7, 0, 7, 9, 0, 9, 11, 0, 11, 13, 0, 13, 15, 0, 15, 17, 0, 17, 19, 0, 19, 21, 0, 21, 23, 0, 23, 25, 0, 25, 27, 0, 27, 29, 0, 29, 31, 0, 31, 33, 0, 33, 35, 0, 35, 37, 0, 37, 39, 0, 39, 41, 0, 41, 43, 0, 43, 45, 0, 45, 47, 0, 45, 46, 47, 39, 40, 41, 29, 30, 31, 23, 24, 25, 17, 18, 19, 11, 12, 13, 7, 8, 9, 5, 6, 7, 1, 2, 3, 27, 28, 29, 13, 14, 15, 43, 44, 45, 41, 42, 43, 37, 38, 39, 35, 36, 37, 33, 34, 35, 31, 32, 33, 25, 26, 27, 21, 22, 23, 19, 20, 21, 15, 16, 17, 9, 10, 11, 3, 4, 5, 48, 91, 93, 48, 93, 95, 48, 89, 91, 48, 87, 89, 48, 85, 87, 48, 83, 85, 48, 81, 83, 48, 79, 81, 48, 77, 79, 48, 75, 77, 48, 73, 75, 48, 71, 73, 48, 69, 71, 48, 67, 69, 48, 65, 67, 48, 63, 65, 48, 61, 63, 48, 59, 61, 48, 57, 59, 48, 55, 57, 48, 53, 55, 48, 51, 53, 48, 49, 51, 93, 94, 95, 89, 90, 91, 87, 88, 89, 83, 84, 85, 77, 78, 79, 71, 72, 73, 65, 66, 67, 55, 56, 57, 49, 50, 51, 81, 82, 83, 67, 68, 69, 79, 80, 81, 75, 76, 77, 73, 74, 75, 69, 70, 71, 63, 64, 65, 61, 62, 63, 59, 60, 61, 57, 58, 59, 53, 54, 55, 51, 52, 53, 91, 92, 93, 85, 86, 87, 96, 97, 98, 96, 98, 99, 100, 101, 102, 100, 102, 103, 104, 105, 106, 104, 106, 107, 108, 109, 110, 108, 110, 111, 112, 113, 114, 112, 114, 115, 116, 117, 118, 116, 118, 119, 120, 121, 122, 120, 122, 123, 124, 125, 126, 124, 126, 127, 128, 129, 130, 128, 130, 131, 132, 133, 134, 132, 134, 135, 136, 137, 138, 136, 138, 139, 140, 141, 142, 140, 142, 143, 144, 145, 146, 144, 146, 147, 148, 149, 150, 148, 150, 151, 152, 153, 154, 152, 154, 155, 156, 157, 158, 156, 158, 159, 160, 161, 162, 160, 162, 163, 164, 165, 166, 164, 166, 167, 168, 169, 170, 168, 170, 171, 172, 173, 174, 172, 174, 175, 176, 177, 178, 176, 178, 179, 180, 181, 182, 180, 182, 183, 184, 185, 186, 184, 186, 187, 188, 189, 190, 188, 190, 191, 192, 193, 194, 192, 194, 195, 196, 197, 198, 196, 198, 199, 200, 201, 202, 200, 202, 203, 204, 205, 206, 204, 206, 207, 208, 209, 210, 208, 210, 211, 212, 213, 214, 212, 214, 215, 216, 217, 218, 216, 218, 219, 220, 221, 222, 220, 222, 223, 224, 225, 226, 224, 226, 227, 228, 229, 230, 228, 230, 231, 232, 233, 234, 232, 234, 235, 236, 237, 238, 236, 238, 239, 240, 241, 242, 240, 242, 243, 244, 245, 246, 244, 246, 247, 248, 249, 250, 248, 250, 251, 252, 253, 254, 252, 254, 255, 256, 257, 258, 256, 258, 259, 260, 261, 262, 260, 262, 263, 264, 265, 266, 264, 266, 267, 268, 269, 270, 268, 270, 271, 272, 273, 274, 272, 274, 275, 276, 277, 278, 276, 278, 279, 280, 281, 282, 280, 282, 283, 284, 285, 286, 284, 286, 287]
		uniform token orientation = "leftHanded"
		normal3f[] normals = [(1, 0, 0), (1, 0, 0), (1, 0, 0), (1, 0, 0), (1, 0, 0), (0.9999999, 0, 0), (0.9999999, 0, 0), (0.9999999, 0, 0), (1, 0, 0), (0.9999999, 0, 0), (1, 0, 0), (1, 0, 0), (1, 0, 0), (1, 0, 0), (1, 0, 0), (1, 0, 0), (1, 0, 0), (1, 0, 0), (1, 0, 0), (0.9999999, 0, 0), (1, 0, 0), (0.9999999, 0, 0), (0.9999999, 0, 0), (1, 0, 0), (0.9999999, 0, 0), (1, 0, 0), (1, 0, 0), (1, 0, 0), (1, 0, 0), (1, 0, 0), (1, 0, 0), (0.9999999, 0, 0), (1, 0, 0), (0.9999999, 0, 0), (0.9999999, 0, 0), (1, 0, 0), (0.9999999, 0, 0), (1, 0, 0), (1, 0, 0), (1, 0, 0), (1, 0, 0), (1, 0, 0), (1, 0, 0), (1, 0, 0), (1, 0, 0), (1, 0, 0), (1, 0, 0), (1, 0, 0), (1, 0, 0), (1, 0, 0), (1, 0, 0), (1, 0, 0), (1, 0, 0), (1, 0, 0), (1, 0, 0), (1, 0, 0), (1, 0, 0), (1, 0, 0), (1, 0, 0), (1, 0, 0), (1, 0, 0), (0.9999999, 0, 0), (1, 0, 0), (0.9999999, 0, 0), (0.9999999, 0, 0), (1, 0, 0), (0.9999999, 0, 0), (1, 0, 0), (1, 0, 0), (0.9999999, 0, 0), (1, 0, 0), (1, 0, 0), (1, 0, 0), (1, 0, 0), (1, 0, 0), (1, 0, 0), (1, 0, 0), (1, 0, 0), (0.9999999, 0, 0), (1, 0, 0), (0.9999999, 0, 0), (0.9999999, 0, 0), (1, 0, 0), (1, 0, 0), (1, 0, 0), (1, 0, 0), (1, 0, 0), (0.9999999, 0, 0), (1, 0, 0), (1, 0, 0), (0.9999999, 0, 0), (1, 0, 0), (0.9999999, 0, 0), (1, 0, 0), (1, 0, 0), (1, 0, 0), (1, 0, 0), (1, 0, 0), (1, 0, 0), (1, 0, 0), (1, 0, 0), (0.9999999, 0, 0), (0.9999999, 0, 0), (1, 0, 0), (0.9999999, 0, 0), (1, 0, 0), (1, 0, 0), (0.9999999, 0, 0), (1, 0, 0), (1, 0, 0), (1, 0, 0), (1, 0, 0), (1, 0, 0), (1, 0, 0), (1, 0, 0), (1, 0, 0), (1, 0, 0), (1, 0, 0), (1, 0, 0), (1, 0, 0), (0.9999999, 0, 0), (1, 0, 0), (1, 0, 0), (1, 0, 0), (1, 0, 0), (0.9999999, 0, 0), (1, 0, 0), (1, 0, 0), (1, 0, 0), (0.9999999, 0, 0), (1, 0, 0), (0.9999999, 0, 0), (1, 0, 0), (1, 0, 0), (1, 0, 0), (1, 0, 0), (1, 0, 0), (0.9999999, 0, 0), (-1, 0, 0), (-1, 0, 0), (-1, 0, 0), (-1, 0, 0), (-1, 0, 0), (-1, 0, 0), (-1, 0, 0), (-1, 0, 0), (-1, 0, 0), (-1, 0, 0), (-1, 0, 0), (-1, 0, 0), (-1, 0, 0), (-1, 0, 0), (-1, 0, 0), (-1, 0, 0), (-0.9999999, 0, 0), (-1, 0, 0), (-1, 0, 0), (-0.9999999, 0, 0), (-0.9999999, 0, 0), (-1, 0, 0), (-1, 0, 0), (-0.9999999, 0, 0), (-1, 0, 0), (-0.9999999, 0, 0), (-1, 0, 0), (-1, 0, 0), (-1, 0, 0), (-0.9999999, 0, 0), (-1, 0, 0), (-1, 0, 0), (-1, 0, 0), (-1, 0, 0), (-1, 0, 0), (-1, 0, 0), (-1, 0, 0), (-0.9999999, 0, 0), (-1, 0, 0), (-1, 0, 0), (-1, 0, 0), (-0.9999999, 0, 0), (-1, 0, 0), (-1, 0, 0), (-1, 0, 0), (-1, 0, 0), (-1, 0, 0), (-1, 0, 0), (-1, 0, 0), (-1, 0, 0), (-1, 0, 0), (-1, 0, 0), (-1, 0, 0), (-1, 0, 0), (-1, 0, 0), (-1, 0, 0), (-1, 0, 0), (-1, 0, 0), (-1, 0, 0), (-1, 0, 0), (-1, 0, 0), (-0.9999999, 0, 0), (-1, 0, 0), (-1, 0, 0), (-0.9999999, 0, 0), (-0.9999999, 0, 0), (-1, 0, 0), (-1, 0, 0), (-0.9999999, 0, 0), (-1, 0, 0), (-1, 0, 0), (-1, 0, 0), (-1, 0, 0), (-1, 0, 0), (-1, 0, 0), (-1, 0, 0), (-1, 0, 0), (-1, 0, 0), (-0.9999999, 0, 0), (-1, 0, 0), (-1, 0, 0), (-0.9999999, 0, 0), (-1, 0, 0), (-1, 0, 0), (-1, 0, 0), (-1, 0, 0), (-1, 0, 0), (-1, 0, 0), (-1, 0, 0), (-1, 0, 0), (-1, 0, 0), (-1, 0, 0), (-1, 0, 0), (-1, 0, 0), (-1, 0, 0), (-0.9999999, 0, 0), (-0.9999999, 0, 0), (-1, 0, 0), (-0.9999999, 0, 0), (-1, 0, 0), (-1, 0, 0), (-0.9999999, 0, 0), (-1, 0, 0), (-1, 0, 0), (-0.9999999, 0, 0), (-1, 0, 0), (-1, 0, 0), (-0.9999999, 0, 0), (-1, 0, 0), (-1, 0, 0), (-1, 0, 0), (-0.9999999, 0, 0), (-1, 0, 0), (-1, 0, 0), (-1, 0, 0), (-1, 0, 0), (-1, 0, 0), (-1, 0, 0), (-1, 0, 0), (-1, 0, 0), (-1, 0, 0), (-1, 0, 0), (-1, 0, 0), (-1, 0, 0), (-1, 0, 0), (-1, 0, 0), (-0.9999999, 0, 0), (-1, 0, 0), (-1, 0, 0), (-0.9999999, 0, 0), (-1, 0, 0), (-0.9999999, 0, 0), (-1, 0, 0), (-1, 0, 0), (-1, 0, 0), (-1, 0, 0), (-1, 0, 0), (-1, 0, 0), (0, 0, -1), (0, 0, -1), (0, 0, -1), (0, 0, -1), (0, 0, -1), (0, 0, -1), (0, -1, 0), (0, -1, 0), (0, -1, 0), (0, -1, 0), (0, -1, 0), (0, -1, 0), (0, 0, 1), (0, 0, 1), (0, 0, 1), (0, 0, 1), (0, 0, 1), (0, 0, 1), (0, 1, 0), (0, 1, 0), (0, 1, 0), (0, 1, 0), (0, 1, 0), (0, 1, 0), (0, 0, 1), (0, 0, 1), (0, 0, 1), (0, 0, 1), (0, 0, 1), (0, 0, 1), (0, 1, 0), (0, 1, 0), (0, 1, 0), (0, 1, 0), (0, 1, 0), (0, 1, 0), (0, 0, 1), (0, 0, 1), (0, 0, 1), (0, 0, 1), (0, 0, 1), (0, 0, 1), (0, 1, 0), (0, 1, 0), (0, 1, 0), (0, 1, 0), (0, 1, 0), (0, 1, 0), (0, 0, 1), (0, 0, 1), (0, 0, 1), (0, 0, 1), (0, 0, 1), (0, 0, 1), (0, 1, 0), (0, 1, 0), (0, 1, 0), (0, 1, 0), (0, 1, 0), (0, 1, 0), (0, 0, 1), (0, 0, 1), (0, 0, 1), (0, 0, 1), (0, 0, 1), (0, 0, 1), (0, 1, 0), (0, 1, 0), (0, 1, 0), (0, 1, 0), (0, 1, 0), (0, 1, 0), (0, 0, 1), (0, 0, 1), (0, 0, 1), (0, 0, 1), (0, 0, 1), (0, 0, 1), (0, 1, 0), (0, 1, 0), (0, 1, 0), (0, 1, 0), (0, 1, 0), (0, 1, 0), (0, 0, 1), (0, 0, 1), (0, 0, 1), (0, 0, 1), (0, 0, 1), (0, 0, 1), (0, 1, 0), (0, 1, 0), (0, 1, 0), (0, 1, 0), (0, 1, 0), (0, 1, 0), (0, 0, 1), (0, 0, 1), (0, 0, 1), (0, 0, 1), (0, 0, 1), (0, 0, 1), (0, 1, 0), (0, 1, 0), (0, 1, 0), (0, 1, 0), (0, 1, 0), (0, 1, 0), (0, 0, 1), (0, 0, 1), (0, 0, 1), (0, 0, 1), (0, 0, 1), (0, 0, 1), (0, 1, 0), (0, 1, 0), (0, 1, 0), (0, 1, 0), (0, 1, 0), (0, 1, 0), (0, 0, 1), (0, 0, 1), (0, 0, 1), (0, 0, 1), (0, 0, 1), (0, 0, 1), (0, 1, 0), (0, 1, 0), (0, 1, 0), (0, 1, 0), (0, 1, 0), (0, 1, 0), (0, 0, 1), (0, 0, 1), (0, 0, 1), (0, 0, 1), (0, 0, 1), (0, 0, 1), (0, 1, 0), (0, 1, 0), (0, 1, 0), (0, 1, 0), (0, 1, 0), (0, 1, 0), (0, 0, 1), (0, 0, 1), (0, 0, 1), (0, 0, 1), (0, 0, 1), (0, 0, 1), (0, 1, 0), (0, 1, 0), (0, 1, 0), (0, 1, 0), (0, 1, 0), (0, 1, 0), (0, 0, 1), (0, 0, 1), (0, 0, 1), (0, 0, 1), (0, 0, 1), (0, 0, 1), (0, 1, 0), (0, 1, 0), (0, 1, 0), (0, 1, 0), (0, 1, 0), (0, 1, 0), (0, 0, 1), (0, 0, 1), (0, 0, 1), (0, 0, 1), (0, 0, 1), (0, 0, 1), (0, 1, 0), (0, 1, 0), (0, 1, 0), (0, 1, 0), (0, 1, 0), (0, 1, 0), (0, 0, 1), (0, 0, 1), (0, 0, 1), (0, 0, 1), (0, 0, 1), (0, 0, 1), (0, 1, 0), (0, 1, 0), (0, 1, 0), (0, 1, 0), (0, 1, 0), (0, 1, 0), (0, 0, 1), (0, 0, 1), (0, 0, 1), (0, 0, 1), (0, 0, 1), (0, 0, 1), (0, 1, 0), (0, 1, 0), (0, 1, 0), (0, 1, 0), (0, 1, 0), (0, 1, 0), (0, 0, 1), (0, 0, 1), (0, 0, 1), (0, 0, 1), (0, 0, 1), (0, 0, 1), (0, 1, 0), (0, 1, 0), (0, 1, 0), (0, 1, 0), (0, 1, 0), (0, 1, 0), (0, 0, 1), (0, 0, 1), (0, 0, 1), (0, 0, 1), (0, 0, 1), (0, 0, 1), (0, 1, 0), (0, 1, 0), (0, 1, 0), (0, 1, 0), (0, 1, 0), (0, 1, 0), (0, 0, 1), (0, 0, 1), (0, 0, 1), (0, 0, 1), (0, 0, 1), (0, 0, 1), (0, 1, 0), (0, 1, 0), (0, 1, 0), (0, 1, 0), (0, 1, 0), (0, 1, 0), (0, 0, 1), (0, 0, 1), (0, 0, 1), (0, 0, 1), (0, 0, 1), (0, 0, 1), (0, 1, 0), (0, 1, 0), (0, 1, 0), (0, 1, 0), (0, 1, 0), (0, 1, 0), (0, 0, 1), (0, 0, 1), (0, 0, 1), (0, 0, 1), (0, 0, 1), (0, 0, 1), (0, 1, 0), (0, 1, 0), (0, 1, 0), (0, 1, 0), (0, 1, 0), (0, 1, 0), (0, 0, 1), (0, 0, 1), (0, 0, 1), (0, 0, 1), (0, 0, 1), (0, 0, 1), (0, 1, 0), (0, 1, 0), (0, 1, 0), (0, 1, 0), (0, 1, 0), (0, 1, 0), (0, 0, 1), (0, 0, 1), (0, 0, 1), (0, 0, 1), (0, 0, 1), (0, 0, 1), (0, 1, 0), (0, 1, 0), (0, 1, 0), (0, 1, 0), (0, 1, 0), (0, 1, 0)](
			
			interpolation = "faceVarying"
		)
		
		point3f[] points = [(5, -2, -2.5), (5, -2, 2.5), (5, -1.826087, 2.5), (5, -1.826087, 2.282608), (5, -1.652174, 2.282608), (5, -1.652174, 2.065218), (5, -1.478261, 2.065218), (5, -1.478261, 1.847826), (5, -1.304348, 1.847826), (5, -1.304348, 1.630434), (5, -1.130435, 1.630434), (5, -1.130435, 1.413044), (5, -0.956522, 1.413044), (5, -0.956522, 1.195652), (5, -0.7826085, 1.195652), (5, -0.7826085, 0.978261), (5, -0.6086955, 0.978261), (5, -0.6086955, 0.76087), (5, -0.4347825, 0.76087), (5, -0.4347825, 0.543478), (5, -0.2608695, 0.543478), (5, -0.2608695, 0.326087), (5, -0.0869565, 0.326087), (5, -0.0869565, 0.108696), (5, 0.0869565, 0.108696), (5, 0.0869565, -0.108696), (5, 0.2608695, -0.108696), (5, 0.2608695, -0.326087), (5, 0.434783, -0.326087), (5, 0.434783, -0.543478), (5, 0.608696, -0.543478), (5, 0.608696, -0.76087), (5, 0.782609, -0.76087), (5, 0.782609, -0.978261), (5, 0.956522, -0.978261), (5, 0.956522, -1.195652), (5, 1.130435, -1.195652), (5, 1.130435, -1.413043), (5, 1.304348, -1.413043), (5, 1.304348, -1.630434), (5, 1.478261, -1.630434), (5, 1.478261, -1.847826), (5, 1.652174, -1.847826), (5, 1.652174, -2.065217), (5, 1.826087, -2.065217), (5, 1.826087, -2.282608), (5, 2, -2.282608), (5, 2, -2.5), (-1.907349E-06, -2, -2.5), (-1.907349E-06, 2, -2.5), (-1.907349E-06, 2, -2.282608), (-1.907349E-06, 1.826087, -2.282608), (-1.907349E-06, 1.826087, -2.065217), (-1.907349E-06, 1.652174, -2.065217), (-1.907349E-06, 1.652174, -1.847826), (-1.907349E-06, 1.478261, -1.847826), (-1.907349E-06, 1.478261, -1.630434), (-1.907349E-06, 1.304348, -1.630434), (-1.907349E-06, 1.304348, -1.413043), (-1.907349E-06, 1.130435, -1.413043), (-1.907349E-06, 1.130435, -1.195652), (-1.907349E-06, 0.956522, -1.195652), (-1.907349E-06, 0.956522, -0.978261), (-1.907349E-06, 0.782609, -0.978261), (-1.907349E-06, 0.782609, -0.76087), (-1.907349E-06, 0.608696, -0.76087), (-1.907349E-06, 0.608696, -0.543478), (-1.907349E-06, 0.434783, -0.543478), (-1.907349E-06, 0.434783, -0.326087), (-1.907349E-06, 0.2608695, -0.326087), (-1.907349E-06, 0.2608695, -0.108696), (-1.907349E-06, 0.0869565, -0.108696), (-1.907349E-06, 0.0869565, 0.108696), (-1.907349E-06, -0.0869565, 0.108696), (-1.907349E-06, -0.0869565, 0.326087), (-1.907349E-06, -0.2608695, 0.326087), (-1.907349E-06, -0.2608695, 0.543478), (-1.907349E-06, -0.4347825, 0.543478), (-1.907349E-06, -0.4347825, 0.76087), (-1.907349E-06, -0.6086955, 0.76087), (-1.907349E-06, -0.6086955, 0.978261), (-1.907349E-06, -0.7826085, 0.978261), (-1.907349E-06, -0.7826085, 1.195652), (-1.907349E-06, -0.956522, 1.195652), (-1.907349E-06, -0.956522, 1.413044), (-1.907349E-06, -1.130435, 1.413044), (-1.907349E-06, -1.130435, 1.630434), (-1.907349E-06, -1.304348, 1.630434), (-1.907349E-06, -1.304348, 1.847826), (-1.907349E-06, -1.478261, 1.847826), (-1.907349E-06, -1.478261, 2.065218), (-1.907349E-06, -1.652174, 2.065218), (-1.907349E-06, -1.652174, 2.282608), (-1.907349E-06, -1.826087, 2.282608), (-1.907349E-06, -1.826087, 2.5), (-1.907349E-06, -2, 2.5), (5, 2, -2.5), (0, 2, -2.5), (0, -2, -2.5), (5, -2, -2.5), (5, -2, -2.5), (0, -2, -2.5), (0, -2, 2.5), (5, -2, 2.5), (0, -1.826087, 2.5), (5, -1.826087, 2.5), (5, -2, 2.5), (0, -2, 2.5), (0, -1.826087, 2.282608), (5, -1.826087, 2.282608), (5, -1.826087, 2.5), (0, -1.826087, 2.5), (0, -1.652174, 2.282608), (5, -1.652174, 2.282608), (5, -1.826087, 2.282608), (0, -1.826087, 2.282608), (0, -1.652174, 2.065218), (5, -1.652174, 2.065218), (5, -1.652174, 2.282608), (0, -1.652174, 2.282608), (0, -1.478261, 2.065218), (5, -1.478261, 2.065218), (5, -1.652174, 2.065218), (0, -1.652174, 2.065218), (0, -1.478261, 1.847826), (5, -1.478261, 1.847826), (5, -1.478261, 2.065218), (0, -1.478261, 2.065218), (0, -1.304348, 1.847826), (5, -1.304348, 1.847826), (5, -1.478261, 1.847826), (0, -1.478261, 1.847826), (0, -1.304348, 1.630434), (5, -1.304348, 1.630434), (5, -1.304348, 1.847826), (0, -1.304348, 1.847826), (0, -1.130435, 1.630434), (5, -1.130435, 1.630434), (5, -1.304348, 1.630434), (0, -1.304348, 1.630434), (0, -1.130435, 1.413044), (5, -1.130435, 1.413044), (5, -1.130435, 1.630434), (0, -1.130435, 1.630434), (0, -0.956522, 1.413044), (5, -0.956522, 1.413044), (5, -1.130435, 1.413044), (0, -1.130435, 1.413044), (0, -0.956522, 1.195652), (5, -0.956522, 1.195652), (5, -0.956522, 1.413044), (0, -0.956522, 1.413044), (0, -0.7826085, 1.195652), (5, -0.7826085, 1.195652), (5, -0.956522, 1.195652), (0, -0.956522, 1.195652), (0, -0.7826085, 0.978261), (5, -0.7826085, 0.978261), (5, -0.7826085, 1.195652), (0, -0.7826085, 1.195652), (0, -0.6086955, 0.978261), (5, -0.6086955, 0.978261), (5, -0.7826085, 0.978261), (0, -0.7826085, 0.978261), (0, -0.6086955, 0.76087), (5, -0.6086955, 0.76087), (5, -0.6086955, 0.978261), (0, -0.6086955, 0.978261), (0, -0.4347825, 0.76087), (5, -0.4347825, 0.76087), (5, -0.6086955, 0.76087), (0, -0.6086955, 0.76087), (0, -0.4347825, 0.543478), (5, -0.4347825, 0.543478), (5, -0.4347825, 0.76087), (0, -0.4347825, 0.76087), (0, -0.2608695, 0.543478), (5, -0.2608695, 0.543478), (5, -0.4347825, 0.543478), (0, -0.4347825, 0.543478), (0, -0.2608695, 0.326087), (5, -0.2608695, 0.326087), (5, -0.2608695, 0.543478), (0, -0.2608695, 0.543478), (0, -0.0869565, 0.326087), (5, -0.0869565, 0.326087), (5, -0.2608695, 0.326087), (0, -0.2608695, 0.326087), (0, -0.0869565, 0.108696), (5, -0.0869565, 0.108696), (5, -0.0869565, 0.326087), (0, -0.0869565, 0.326087), (0, 0.0869565, 0.108696), (5, 0.0869565, 0.108696), (5, -0.0869565, 0.108696), (0, -0.0869565, 0.108696), (0, 0.0869565, -0.108696), (5, 0.0869565, -0.108696), (5, 0.0869565, 0.108696), (0, 0.0869565, 0.108696), (0, 0.2608695, -0.108696), (5, 0.2608695, -0.108696), (5, 0.0869565, -0.108696), (0, 0.0869565, -0.108696), (0, 0.2608695, -0.326087), (5, 0.2608695, -0.326087), (5, 0.2608695, -0.108696), (0, 0.2608695, -0.108696), (0, 0.434783, -0.326087), (5, 0.434783, -0.326087), (5, 0.2608695, -0.326087), (0, 0.2608695, -0.326087), (0, 0.434783, -0.543478), (5, 0.434783, -0.543478), (5, 0.434783, -0.326087), (0, 0.434783, -0.326087), (0, 0.608696, -0.543478), (5, 0.608696, -0.543478), (5, 0.434783, -0.543478), (0, 0.434783, -0.543478), (0, 0.608696, -0.76087), (5, 0.608696, -0.76087), (5, 0.608696, -0.543478), (0, 0.608696, -0.543478), (0, 0.782609, -0.76087), (5, 0.782609, -0.76087), (5, 0.608696, -0.76087), (0, 0.608696, -0.76087), (0, 0.782609, -0.978261), (5, 0.782609, -0.978261), (5, 0.782609, -0.76087), (0, 0.782609, -0.76087), (0, 0.956522, -0.978261), (5, 0.956522, -0.978261), (5, 0.782609, -0.978261), (0, 0.782609, -0.978261), (0, 0.956522, -1.195652), (5, 0.956522, -1.195652), (5, 0.956522, -0.978261), (0, 0.956522, -0.978261), (0, 1.130435, -1.195652), (5, 1.130435, -1.195652), (5, 0.956522, -1.195652), (0, 0.956522, -1.195652), (0, 1.130435, -1.413043), (5, 1.130435, -1.413043), (5, 1.130435, -1.195652), (0, 1.130435, -1.195652), (0, 1.304348, -1.413043), (5, 1.304348, -1.413043), (5, 1.130435, -1.413043), (0, 1.130435, -1.413043), (0, 1.304348, -1.630434), (5, 1.304348, -1.630434), (5, 1.304348, -1.413043), (0, 1.304348, -1.413043), (0, 1.478261, -1.630434), (5, 1.478261, -1.630434), (5, 1.304348, -1.630434), (0, 1.304348, -1.630434), (0, 1.478261, -1.847826), (5, 1.478261, -1.847826), (5, 1.478261, -1.630434), (0, 1.478261, -1.630434), (0, 1.652174, -1.847826), (5, 1.652174, -1.847826), (5, 1.478261, -1.847826), (0, 1.478261, -1.847826), (0, 1.652174, -2.065217), (5, 1.652174, -2.065217), (5, 1.652174, -1.847826), (0, 1.652174, -1.847826), (0, 1.826087, -2.065217), (5, 1.826087, -2.065217), (5, 1.652174, -2.065217), (0, 1.652174, -2.065217), (0, 1.826087, -2.282608), (5, 1.826087, -2.282608), (5, 1.826087, -2.065217), (0, 1.826087, -2.065217), (0, 2, -2.282608), (5, 2, -2.282608), (5, 1.826087, -2.282608), (0, 1.826087, -2.282608), (0, 2, -2.5), (5, 2, -2.5), (5, 2, -2.282608), (0, 2, -2.282608)]
		float2[] primvars:st = [(0, 0), (1, 0), (0.9565216, 0.04347825), (0, 0), (0.9565216, 0.04347825), (0.9130436, 0.0869565), (0.9130436, 0.0869565), (0.8695652, 0.1304348), (0, 0), (0.8695652, 0.1304348), (0.8260868, 0.173913), (0, 0), (0.8260868, 0.173913), (0.7826088, 0.2173913), (0, 0), (0.7826088, 0.2173913), (0.7391304, 0.2608695), (0, 0), (0.7391304, 0.2608695), (0.6956522, 0.3043479), (0, 0), (0.6956522, 0.3043479), (0.652174, 0.3478261), (0, 0), (0.652174, 0.3478261), (0.6086956, 0.3913044), (0, 0), (0.6086956, 0.3913044), (0.5652174, 0.4347826), (0, 0), (0.5652174, 0.4347826), (0.5217392, 0.4782609), (0, 0), (0.5217392, 0.4782609), (0.4782608, 0.5217391), (0, 0), (0.4782608, 0.5217391), (0.4347826, 0.5652174), (0, 0), (0.4347826, 0.5652174), (0.3913044, 0.6086957), (0, 0), (0.3913044, 0.6086957), (0.347826, 0.652174), (0, 0), (0.347826, 0.652174), (0.3043478, 0.6956522), (0, 0), (0.3043478, 0.6956522), (0.2608696, 0.7391305), (0, 0), (0.2608696, 0.7391305), (0.2173914, 0.7826087), (0, 0), (0.2173914, 0.7826087), (0.1739132, 0.826087), (0, 0), (0.1739132, 0.826087), (0.1304348, 0.8695652), (0, 0), (0.1304348, 0.8695652), (0.0869566, 0.9130435), (0, 0), (0.0869566, 0.9130435), (0.04347839, 0.9565217), (0, 0), (0.04347839, 0.9565217), (0, 1), (0, 0), (0.04347839, 0.9565217), (0.04347839, 1), (0, 1), (0.1739132, 0.826087), (0.1739132, 0.8695652), (0.1304348, 0.8695652), (0.3913044, 0.6086957), (0.3913044, 0.652174), (0.347826, 0.652174), (0.5217392, 0.4782609), (0.5217392, 0.5217391), (0.4782608, 0.5217391), (0.652174, 0.3478261), (0.652174, 0.3913044), (0.6086956, 0.3913044), (0.7826088, 0.2173913), (0.7826088, 0.2608695), (0.7391304, 0.2608695), (0.8695652, 0.1304348), (0.8695652, 0.173913), (0.8260868, 0.173913), (0.9130436, 0.0869565), (0.9130436, 0.1304348), (0.8695652, 0.1304348), (1, 0), (1, 0.04347825), (0.9565216, 0.04347825), (0.4347826, 0.5652174), (0.4347826, 0.6086957), (0.3913044, 0.6086957), (0.7391304, 0.2608695), (0.7391304, 0.3043479), (0.6956522, 0.3043479), (0.0869566, 0.9130435), (0.0869566, 0.9565217), (0.04347839, 0.9565217), (0.1304348, 0.8695652), (0.1304348, 0.9130435), (0.0869566, 0.9130435), (0.2173914, 0.7826087), (0.2173914, 0.826087), (0.1739132, 0.826087), (0.2608696, 0.7391305), (0.2608696, 0.7826087), (0.2173914, 0.7826087), (0.3043478, 0.6956522), (0.3043478, 0.7391305), (0.2608696, 0.7391305), (0.347826, 0.652174), (0.347826, 0.6956522), (0.3043478, 0.6956522), (0.4782608, 0.5217391), (0.4782608, 0.5652174), (0.4347826, 0.5652174), (0.5652174, 0.4347826), (0.5652174, 0.4782609), (0.5217392, 0.4782609), (0.6086956, 0.3913044), (0.6086956, 0.4347826), (0.5652174, 0.4347826), (0.6956522, 0.3043479), (0.6956522, 0.3478261), (0.652174, 0.3478261), (0.8260868, 0.173913), (0.8260868, 0.2173913), (0.7826088, 0.2173913), (0.9565216, 0.04347825), (0.9565216, 0.0869565), (0.9130436, 0.0869565), (0, 0), (0.0869565, 0.9130436), (0.04347825, 0.9565216), (0, 0), (0.04347825, 0.9565216), (0, 1), (0, 0), (0.1304348, 0.8695652), (0.0869565, 0.9130436), (0, 0), (0.173913, 0.8260868), (0.1304348, 0.8695652), (0, 0), (0.2173913, 0.7826088), (0.173913, 0.8260868), (0, 0), (0.2608695, 0.7391304), (0.2173913, 0.7826088), (0, 0), (0.3043479, 0.6956522), (0.2608695, 0.7391304), (0, 0), (0.3478261, 0.652174), (0.3043479, 0.6956522), (0, 0), (0.3913044, 0.6086956), (0.3478261, 0.652174), (0, 0), (0.4347826, 0.5652174), (0.3913044, 0.6086956), (0, 0), (0.4782609, 0.5217392), (0.4347826, 0.5652174), (0, 0), (0.5217391, 0.4782608), (0.4782609, 0.5217392), (0, 0), (0.5652174, 0.4347826), (0.5217391, 0.4782608), (0, 0), (0.6086957, 0.3913044), (0.5652174, 0.4347826), (0, 0), (0.652174, 0.347826), (0.6086957, 0.3913044), (0, 0), (0.6956522, 0.3043478), (0.652174, 0.347826), (0, 0), (0.7391305, 0.2608696), (0.6956522, 0.3043478), (0, 0), (0.7826087, 0.2173914), (0.7391305, 0.2608696), (0, 0), (0.826087, 0.1739132), (0.7826087, 0.2173914), (0, 0), (0.8695652, 0.1304348), (0.826087, 0.1739132), (0, 0), (0.9130435, 0.0869566), (0.8695652, 0.1304348), (0, 0), (0.9565217, 0.04347839), (0.9130435, 0.0869566), (0, 0), (1, 0), (0.9565217, 0.04347839), (0.04347825, 0.9565216), (0.04347825, 1), (0, 1), (0.1304348, 0.8695652), (0.1304348, 0.9130436), (0.0869565, 0.9130436), (0.173913, 0.8260868), (0.173913, 0.8695652), (0.1304348, 0.8695652), (0.2608695, 0.7391304), (0.2608695, 0.7826088), (0.2173913, 0.7826088), (0.3913044, 0.6086956), (0.3913044, 0.652174), (0.3478261, 0.652174), (0.5217391, 0.4782608), (0.5217391, 0.5217392), (0.4782609, 0.5217392), (0.652174, 0.347826), (0.652174, 0.3913044), (0.6086957, 0.3913044), (0.8695652, 0.1304348), (0.8695652, 0.1739132), (0.826087, 0.1739132), (1, 0), (1, 0.04347839), (0.9565217, 0.04347839), (0.3043479, 0.6956522), (0.3043479, 0.7391304), (0.2608695, 0.7391304), (0.6086957, 0.3913044), (0.6086957, 0.4347826), (0.5652174, 0.4347826), (0.3478261, 0.652174), (0.3478261, 0.6956522), (0.3043479, 0.6956522), (0.4347826, 0.5652174), (0.4347826, 0.6086956), (0.3913044, 0.6086956), (0.4782609, 0.5217392), (0.4782609, 0.5652174), (0.4347826, 0.5652174), (0.5652174, 0.4347826), (0.5652174, 0.4782608), (0.5217391, 0.4782608), (0.6956522, 0.3043478), (0.6956522, 0.347826), (0.652174, 0.347826), (0.7391305, 0.2608696), (0.7391305, 0.3043478), (0.6956522, 0.3043478), (0.7826087, 0.2173914), (0.7826087, 0.2608696), (0.7391305, 0.2608696), (0.826087, 0.1739132), (0.826087, 0.2173914), (0.7826087, 0.2173914), (0.9130435, 0.0869566), (0.9130435, 0.1304348), (0.8695652, 0.1304348), (0.9565217, 0.04347839), (0.9565217, 0.0869566), (0.9130435, 0.0869566), (0.0869565, 0.9130436), (0.0869565, 0.9565216), (0.04347825, 0.9565216), (0.2173913, 0.7826088), (0.2173913, 0.8260868), (0.173913, 0.8260868), (0, 0), (1, 0), (1, 1), (0, 0), (1, 1), (0, 1), (0, 0), (1, 0), (1, 1), (0, 0), (1, 1), (0, 1), (0, 0), (1, 0), (1, 1), (0, 0), (1, 1), (0, 1), (0, 0), (1, 0), (1, 1), (0, 0), (1, 1), (0, 1), (0, 0), (1, 0), (1, 1), (0, 0), (1, 1), (0, 1), (0, 0), (1, 0), (1, 1), (0, 0), (1, 1), (0, 1), (0, 0), (1, 0), (1, 1), (0, 0), (1, 1), (0, 1), (0, 0), (1, 0), (1, 1), (0, 0), (1, 1), (0, 1), (0, 0), (1, 0), (1, 1), (0, 0), (1, 1), (0, 1), (0, 0), (1, 0), (1, 1), (0, 0), (1, 1), (0, 1), (0, 0), (1, 0), (1, 1), (0, 0), (1, 1), (0, 1), (0, 0), (1, 0), (1, 1), (0, 0), (1, 1), (0, 1), (0, 0), (1, 0), (1, 1), (0, 0), (1, 1), (0, 1), (0, 0), (1, 0), (1, 1), (0, 0), (1, 1), (0, 1), (0, 0), (1, 0), (1, 1), (0, 0), (1, 1), (0, 1), (0, 0), (1, 0), (1, 1), (0, 0), (1, 1), (0, 1), (0, 0), (1, 0), (1, 1), (0, 0), (1, 1), (0, 1), (0, 0), (1, 0), (1, 1), (0, 0), (1, 1), (0, 1), (0, 0), (1, 0), (1, 1), (0, 0), (1, 1), (0, 1), (0, 0), (1, 0), (1, 1), (0, 0), (1, 1), (0, 1), (0, 0), (1, 0), (1, 1), (0, 0), (1, 1), (0, 1), (0, 0), (1, 0), (1, 1), (0, 0), (1, 1), (0, 1), (0, 0), (1, 0), (1, 1), (0, 0), (1, 1), (0, 1), (0, 0), (1, 0), (1, 1), (0, 0), (1, 1), (0, 1), (0, 0), (1, 0), (1, 1), (0, 0), (1, 1), (0, 1), (0, 0), (1, 0), (1, 1), (0, 0), (1, 1), (0, 1), (0, 0), (1, 0), (1, 1), (0, 0), (1, 1), (0, 1), (0, 0), (1, 0), (1, 1), (0, 0), (1, 1), (0, 1), (0, 0), (1, 0), (1, 1), (0, 0), (1, 1), (0, 1), (0, 0), (1, 0), (1, 1), (0, 0), (1, 1), (0, 1), (0, 0), (1, 0), (1, 1), (0, 0), (1, 1), (0, 1), (0, 0), (1, 0), (1, 1), (0, 0), (1, 1), (0, 1), (0, 0), (1, 0), (1, 1), (0, 0), (1, 1), (0, 1), (0, 0), (1, 0), (1, 1), (0, 0), (1, 1), (0, 1), (0, 0), (1, 0), (1, 1), (0, 0), (1, 1), (0, 1), (0, 0), (1, 0), (1, 1), (0, 0), (1, 1), (0, 1), (0, 0), (1, 0), (1, 1), (0, 0), (1, 1), (0, 1), (0, 0), (1, 0), (1, 1), (0, 0), (1, 1), (0, 1), (0, 0), (1, 0), (1, 1), (0, 0), (1, 1), (0, 1), (0, 0), (1, 0), (1, 1), (0, 0), (1, 1), (0, 1), (0, 0), (1, 0), (1, 1), (0, 0), (1, 1), (0, 1), (0, 0), (1, 0), (1, 1), (0, 0), (1, 1), (0, 1), (0, 0), (1, 0), (1, 1), (0, 0), (1, 1), (0, 1), (0, 0), (1, 0), (1, 1), (0, 0), (1, 1), (0, 1), (0, 0), (1, 0), (1, 1), (0, 0), (1, 1), (0, 1), (0, 0), (1, 0), (1, 1), (0, 0), (1, 1), (0, 1), (0, 0), (1, 0), (1, 1), (0, 0), (1, 1), (0, 1), (0, 0), (1, 0), (1, 1), (0, 0), (1, 1), (0, 1)](
			
			interpolation = "faceVarying"
		)
		
		
	}
	
}
