#usda 1.0 | Cygon
(
	defaultPrim = "World"
	upAxis = "Y"
	metersPerUnit = 1
)

def Xform "World"
{
	def Mesh "Stair_b1b1edb4_73d9_4305_acae_988890f56ad0"
	{
		int[] faceVertexCounts = [3, 3, 3, 3, 3, 3, 3, 3]
		int[] faceVertexIndices = [0, 1, 2, 3, 4, 5, 6, 7, 8, 6, 8, 9, 10, 11, 12, 10, 12, 13, 14, 15, 16, 14, 16, 17]
		uniform token orientation = "leftHanded"
		normal3f[] normals = [(0.9999501, 0, -0.01000011), (0.9999501, 0, -0.01000011), (0.9999501, 0, -0.01000011), (-0.9999501, 0, 0.01000011), (-0.9999501, 0, 0.01000011), (-0.9999501, 0, 0.01000011), (-0.0100009, 0, -0.99995), (-0.0100009, 0, -0.99995), (-0.0100009, 0, -0.99995), (-0.0100009, 0, -0.99995), (-0.0100009, 0, -0.99995), (-0.0100009, 0, -0.99995), (0, -1, 0), (0, -1, 0), (0, -1, 0), (0, -1, 0), (0, -1, 0), (0, -1, 0), (0.006247321, 0.780884, 0.6246448), (0.006247321, 0.780884, 0.6246448), (0.006247321, 0.780884, 0.6246448), (0.006247321, 0.780884, 0.6246448), (0.006247321, 0.780884, 0.6246448), (0.006247321, 0.780884, 0.6246448)](
			
			interpolation = "faceVarying"
		)
		
		point3f[] points = [(0.2749805, -2, -2.503), (0.3249836, -2, 2.497), (0.2749805, 2, -2.503), (-0.02500153, -2, -2.5), (-0.02500153, 2, -2.5), (0.02500153, -2, 2.5), (0.2749825, 2, -2.503), (-0.02500153, 2, -2.5), (-0.02500153, -2, -2.5), (0.2749825, -2, -2.503), (0.2749825, -2, -2.503), (-0.02500153, -2, -2.5), (0.02499962, -2, 2.5), (0.3249836, -2, 2.497), (-0.02500153, 2, -2.5), (0.2749825, 2, -2.503), (0.3249836, -2, 2.497), (0.02499962, -2, 2.5)]
		float2[] primvars:st = [(0, 0), (1, 0), (0, 1), (0, 0), (1, 0), (0, 1), (0, 0), (1, 0), (1, 1), (0, 0), (1, 1), (0, 1), (0, 0), (0.9999809, 0), (1, 1), (0, 0), (1, 1), (1.907317E-05, 1), (0, 0), (1.000019, 0), (1, 1), (0, 0), (1, 1), (-1.90739E-05, 1)](
			
			interpolation = "faceVarying"
		)
		
		
	}
	
}
