#usda 1.0 | Cygon
(
	defaultPrim = "World"
	upAxis = "Y"
	metersPerUnit = 1
)

def Xform "World"
{
	def Mesh "Stair_4813ca05_cde5_4ebc_acd9_55b33e95ae6f"
	{
		int[] faceVertexCounts = [3, 3, 3, 3, 3, 3, 3, 3, 3, 3, 3, 3, 3, 3, 3, 3, 3, 3, 3, 3, 3, 3, 3, 3, 3, 3, 3, 3, 3, 3, 3, 3, 3, 3, 3, 3, 3, 3, 3, 3, 3, 3, 3, 3, 3, 3, 3, 3, 3, 3, 3, 3, 3, 3, 3, 3, 3, 3, 3, 3, 3, 3, 3, 3, 3, 3, 3, 3, 3, 3, 3, 3, 3, 3, 3, 3, 3, 3, 3, 3, 3, 3, 3, 3, 3, 3, 3, 3, 3, 3, 3, 3, 3, 3, 3, 3, 3, 3, 3, 3, 3, 3, 3, 3, 3, 3, 3, 3, 3, 3, 3, 3, 3, 3, 3, 3, 3, 3, 3, 3, 3, 3, 3, 3, 3, 3, 3, 3, 3, 3, 3, 3, 3, 3, 3, 3, 3, 3, 3, 3, 3, 3, 3, 3, 3, 3, 3, 3, 3, 3, 3, 3, 3, 3, 3, 3, 3, 3, 3, 3, 3, 3, 3, 3, 3, 3, 3, 3, 3, 3, 3, 3, 3, 3, 3, 3, 3, 3, 3, 3, 3, 3, 3, 3, 3, 3, 3, 3, 3, 3, 3, 3, 3, 3, 3, 3, 3, 3, 3, 3, 3, 3, 3, 3, 3, 3, 3, 3, 3, 3, 3, 3, 3, 3, 3, 3, 3, 3, 3, 3, 3, 3, 3, 3, 3, 3, 3, 3, 3, 3, 3, 3, 3, 3, 3, 3, 3, 3, 3, 3, 3, 3, 3, 3, 3, 3, 3, 3, 3, 3, 3, 3, 3, 3, 3, 3, 3, 3, 3, 3, 3, 3, 3, 3, 3, 3, 3, 3, 3, 3, 3, 3, 3, 3, 3, 3, 3, 3, 3, 3, 3, 3, 3, 3, 3, 3, 3, 3, 3, 3, 3, 3, 3, 3, 3, 3, 3, 3, 3, 3, 3, 3, 3, 3, 3, 3, 3, 3, 3, 3, 3, 3, 3, 3, 3, 3, 3, 3, 3, 3, 3, 3, 3, 3, 3, 3, 3, 3, 3, 3, 3, 3, 3, 3, 3, 3, 3, 3, 3, 3, 3, 3, 3, 3, 3, 3, 3, 3]
		int[] faceVertexIndices = [0, 1, 3, 0, 3, 5, 5, 7, 0, 7, 9, 0, 9, 11, 0, 11, 13, 0, 13, 15, 0, 15, 17, 0, 17, 19, 0, 19, 21, 0, 21, 23, 0, 23, 25, 0, 25, 27, 0, 27, 29, 0, 29, 31, 0, 31, 33, 0, 33, 35, 0, 35, 37, 0, 37, 39, 0, 39, 41, 0, 41, 43, 0, 43, 45, 0, 45, 47, 0, 47, 49, 0, 49, 51, 0, 51, 53, 0, 53, 55, 0, 55, 57, 0, 57, 59, 0, 59, 61, 0, 61, 63, 0, 63, 65, 0, 65, 67, 0, 67, 69, 0, 69, 71, 0, 71, 73, 0, 73, 75, 0, 75, 77, 0, 77, 79, 0, 79, 81, 0, 81, 83, 0, 83, 85, 0, 85, 87, 0, 29, 30, 31, 17, 18, 19, 3, 4, 5, 83, 84, 85, 79, 80, 81, 75, 76, 77, 71, 72, 73, 67, 68, 69, 61, 62, 63, 57, 58, 59, 47, 48, 49, 39, 40, 41, 33, 34, 35, 31, 32, 33, 15, 16, 17, 9, 10, 11, 7, 8, 9, 1, 2, 3, 19, 20, 21, 69, 70, 71, 63, 64, 65, 59, 60, 61, 53, 54, 55, 49, 50, 51, 45, 46, 47, 37, 38, 39, 27, 28, 29, 13, 14, 15, 81, 82, 83, 77, 78, 79, 51, 52, 53, 43, 44, 45, 41, 42, 43, 35, 36, 37, 25, 26, 27, 23, 24, 25, 21, 22, 23, 11, 12, 13, 65, 66, 67, 55, 56, 57, 5, 6, 7, 85, 86, 87, 73, 74, 75, 88, 171, 173, 88, 173, 175, 88, 169, 171, 88, 167, 169, 88, 165, 167, 88, 163, 165, 88, 161, 163, 88, 159, 161, 88, 157, 159, 88, 155, 157, 88, 153, 155, 88, 151, 153, 88, 149, 151, 88, 147, 149, 88, 145, 147, 88, 143, 145, 88, 141, 143, 88, 139, 141, 88, 137, 139, 88, 135, 137, 88, 133, 135, 88, 131, 133, 88, 129, 131, 88, 127, 129, 88, 125, 127, 88, 123, 125, 88, 121, 123, 88, 119, 121, 88, 117, 119, 88, 115, 117, 88, 113, 115, 88, 111, 113, 88, 109, 111, 88, 107, 109, 88, 105, 107, 88, 103, 105, 88, 101, 103, 88, 99, 101, 88, 97, 99, 88, 95, 97, 88, 93, 95, 88, 91, 93, 88, 89, 91, 99, 100, 101, 103, 104, 105, 145, 146, 147, 139, 140, 141, 133, 134, 135, 165, 166, 167, 95, 96, 97, 91, 92, 93, 123, 124, 125, 117, 118, 119, 107, 108, 109, 157, 158, 159, 151, 152, 153, 149, 150, 151, 135, 136, 137, 173, 174, 175, 171, 172, 173, 167, 168, 169, 147, 148, 149, 129, 130, 131, 125, 126, 127, 121, 122, 123, 119, 120, 121, 115, 116, 117, 111, 112, 113, 109, 110, 111, 163, 164, 165, 159, 160, 161, 161, 162, 163, 127, 128, 129, 113, 114, 115, 93, 94, 95, 89, 90, 91, 153, 154, 155, 143, 144, 145, 141, 142, 143, 155, 156, 157, 137, 138, 139, 105, 106, 107, 169, 170, 171, 131, 132, 133, 97, 98, 99, 101, 102, 103, 176, 177, 178, 176, 178, 179, 180, 181, 182, 180, 182, 183, 184, 185, 186, 184, 186, 187, 188, 189, 190, 188, 190, 191, 192, 193, 194, 192, 194, 195, 196, 197, 198, 196, 198, 199, 200, 201, 202, 200, 202, 203, 204, 205, 206, 204, 206, 207, 208, 209, 210, 208, 210, 211, 212, 213, 214, 212, 214, 215, 216, 217, 218, 216, 218, 219, 220, 221, 222, 220, 222, 223, 224, 225, 226, 224, 226, 227, 228, 229, 230, 228, 230, 231, 232, 233, 234, 232, 234, 235, 236, 237, 238, 236, 238, 239, 240, 241, 242, 240, 242, 243, 244, 245, 246, 244, 246, 247, 248, 249, 250, 248, 250, 251, 252, 253, 254, 252, 254, 255, 256, 257, 258, 256, 258, 259, 260, 261, 262, 260, 262, 263, 264, 265, 266, 264, 266, 267, 268, 269, 270, 268, 270, 271, 272, 273, 274, 272, 274, 275, 276, 277, 278, 276, 278, 279, 280, 281, 282, 280, 282, 283, 284, 285, 286, 284, 286, 287, 288, 289, 290, 288, 290, 291, 292, 293, 294, 292, 294, 295, 296, 297, 298, 296, 298, 299, 300, 301, 302, 300, 302, 303, 304, 305, 306, 304, 306, 307, 308, 309, 310, 308, 310, 311, 312, 313, 314, 312, 314, 315, 316, 317, 318, 316, 318, 319, 320, 321, 322, 320, 322, 323, 324, 325, 326, 324, 326, 327, 328, 329, 330, 328, 330, 331, 332, 333, 334, 332, 334, 335, 336, 337, 338, 336, 338, 339, 340, 341, 342, 340, 342, 343, 344, 345, 346, 344, 346, 347, 348, 349, 350, 348, 350, 351, 352, 353, 354, 352, 354, 355, 356, 357, 358, 356, 358, 359, 360, 361, 362, 360, 362, 363, 364, 365, 366, 364, 366, 367, 368, 369, 370, 368, 370, 371, 372, 373, 374, 372, 374, 375, 376, 377, 378, 376, 378, 379, 380, 381, 382, 380, 382, 383, 384, 385, 386, 384, 386, 387, 388, 389, 390, 388, 390, 391, 392, 393, 394, 392, 394, 395, 396, 397, 398, 396, 398, 399, 400, 401, 402, 400, 402, 403, 404, 405, 406, 404, 406, 407, 408, 409, 410, 408, 410, 411, 412, 413, 414, 412, 414, 415, 416, 417, 418, 416, 418, 419, 420, 421, 422, 420, 422, 423, 424, 425, 426, 424, 426, 427, 428, 429, 430, 428, 430, 431, 432, 433, 434, 432, 434, 435, 436, 437, 438, 436, 438, 439, 440, 441, 442, 440, 442, 443, 444, 445, 446, 444, 446, 447, 448, 449, 450, 448, 450, 451, 452, 453, 454, 452, 454, 455, 456, 457, 458, 456, 458, 459, 460, 461, 462, 460, 462, 463, 464, 465, 466, 464, 466, 467, 468, 469, 470, 468, 470, 471, 472, 473, 474, 472, 474, 475, 476, 477, 478, 476, 478, 479, 480, 481, 482, 480, 482, 483, 484, 485, 486, 484, 486, 487, 488, 489, 490, 488, 490, 491, 492, 493, 494, 492, 494, 495, 496, 497, 498, 496, 498, 499, 500, 501, 502, 500, 502, 503, 504, 505, 506, 504, 506, 507, 508, 509, 510, 508, 510, 511, 512, 513, 514, 512, 514, 515, 516, 517, 518, 516, 518, 519, 520, 521, 522, 520, 522, 523, 524, 525, 526, 524, 526, 527]
		uniform token orientation = "leftHanded"
		normal3f[] normals = [(0.9999219, -4.347109E-08, 0.01249912), (0.9999219, 9.831474E-06, 0.01249901), (0.9999219, 9.858937E-06, 0.01249901), (0.9999219, -4.347109E-08, 0.01249912), (0.9999219, 9.858937E-06, 0.01249901), (0.9999218, -1.028718E-05, 0.01249994), (0.9999218, -1.028718E-05, 0.01249994), (0.9999218, -1.081067E-05, 0.01249963), (0.9999219, -4.347109E-08, 0.01249912), (0.9999218, -1.081067E-05, 0.01249963), (0.9999219, 8.839403E-06, 0.01249838), (0.9999219, -4.347109E-08, 0.01249912), (0.9999219, 8.839403E-06, 0.01249838), (0.9999218, -9.8289E-06, 0.01250025), (0.9999219, -4.347109E-08, 0.01249912), (0.9999218, -9.8289E-06, 0.01250025), (0.9999219, 7.827593E-06, 0.01249777), (0.9999219, -4.347109E-08, 0.01249912), (0.9999219, 7.827593E-06, 0.01249777), (0.9999219, 8.837685E-06, 0.01249838), (0.9999219, -4.347109E-08, 0.01249912), (0.9999219, 8.837685E-06, 0.01249838), (0.9999217, -9.283081E-06, 0.01250055), (0.9999219, -4.347109E-08, 0.01249912), (0.9999217, -9.283081E-06, 0.01250055), (0.9999219, 7.885087E-06, 0.01249776), (0.9999219, -4.347109E-08, 0.01249912), (0.9999219, 7.885087E-06, 0.01249776), (0.9999219, -8.351951E-06, 0.01250119), (0.9999219, -4.347109E-08, 0.01249912), (0.9999219, -8.351951E-06, 0.01250119), (0.9999218, -8.843693E-06, 0.01250087), (0.9999219, -4.347109E-08, 0.01249912), (0.9999218, -8.843693E-06, 0.01250087), (0.9999219, 6.852253E-06, 0.01249715), (0.9999219, -4.347109E-08, 0.01249912), (0.9999219, 6.852253E-06, 0.01249715), (0.9999219, -7.86321E-06, 0.01250149), (0.9999219, -4.347109E-08, 0.01249912), (0.9999219, -7.86321E-06, 0.01250149), (0.9999219, 5.915531E-06, 0.01249651), (0.9999219, -4.347109E-08, 0.01249912), (0.9999219, 5.915531E-06, 0.01249651), (0.9999219, 6.897303E-06, 0.01249713), (0.9999219, -4.347109E-08, 0.01249912), (0.9999219, 6.897303E-06, 0.01249713), (0.9999219, -7.348287E-06, 0.0125018), (0.9999219, -4.347109E-08, 0.01249912), (0.9999219, -7.348287E-06, 0.0125018), (0.9999219, 5.874772E-06, 0.01249653), (0.9999219, -4.347109E-08, 0.01249912), (0.9999219, 5.874772E-06, 0.01249653), (0.9999218, -6.36909E-06, 0.01250242), (0.9999219, -4.347109E-08, 0.01249912), (0.9999218, -6.36909E-06, 0.01250242), (0.9999219, 4.932469E-06, 0.01249589), (0.9999219, -4.347109E-08, 0.01249912), (0.9999219, 4.932469E-06, 0.01249589), (0.9999219, 5.877347E-06, 0.01249653), (0.9999219, -4.347109E-08, 0.01249912), (0.9999219, 5.877347E-06, 0.01249653), (0.9999218, -5.912108E-06, 0.01250275), (0.9999219, -4.347109E-08, 0.01249912), (0.9999218, -5.912108E-06, 0.01250275), (0.9999219, 4.894715E-06, 0.01249591), (0.9999219, -4.347109E-08, 0.01249912), (0.9999219, 4.894715E-06, 0.01249591), (0.9999219, -4.899001E-06, 0.01250335), (0.9999219, -4.347109E-08, 0.01249912), (0.9999219, -4.899001E-06, 0.01250335), (0.9999219, -5.38903E-06, 0.01250304), (0.9999219, -4.347109E-08, 0.01249912), (0.9999219, -5.38903E-06, 0.01250304), (0.999922, 3.930529E-06, 0.01249528), (0.9999219, -4.347109E-08, 0.01249912), (0.999922, 3.930529E-06, 0.01249528), (0.9999218, -4.407684E-06, 0.01250366), (0.9999219, -4.347109E-08, 0.01249912), (0.9999218, -4.407684E-06, 0.01250366), (0.9999219, 2.937174E-06, 0.01249467), (0.9999219, -4.347109E-08, 0.01249912), (0.9999219, 2.937174E-06, 0.01249467), (0.9999219, 3.917231E-06, 0.01249529), (0.9999219, -4.347109E-08, 0.01249912), (0.9999219, 3.917231E-06, 0.01249529), (0.9999218, -3.919157E-06, 0.01250397), (0.9999219, -4.347109E-08, 0.01249912), (0.9999218, -3.919157E-06, 0.01250397), (0.999922, 2.947468E-06, 0.01249466), (0.9999219, -4.347109E-08, 0.01249912), (0.999922, 2.947468E-06, 0.01249466), (0.9999218, -2.938242E-06, 0.01250459), (0.9999219, -4.347109E-08, 0.01249912), (0.9999218, -2.938242E-06, 0.01250459), (0.9999219, 1.966552E-06, 0.01249403), (0.9999219, -4.347109E-08, 0.01249912), (0.9999219, 1.966552E-06, 0.01249403), (0.999922, 2.947468E-06, 0.01249466), (0.9999219, -4.347109E-08, 0.01249912), (0.999922, 2.947468E-06, 0.01249466), (0.9999218, -2.447784E-06, 0.0125049), (0.9999219, -4.347109E-08, 0.01249912), (0.9999218, -2.447784E-06, 0.0125049), (0.999922, 1.966552E-06, 0.01249403), (0.9999219, -4.347109E-08, 0.01249912), (0.999922, 1.966552E-06, 0.01249403), (0.9999218, -1.482965E-06, 0.01250558), (0.9999219, -4.347109E-08, 0.01249912), (0.9999218, -1.482965E-06, 0.01250558), (0.9999218, -1.966554E-06, 0.01250523), (0.9999219, -4.347109E-08, 0.01249912), (0.9999218, -1.966554E-06, 0.01250523), (0.999922, 9.841342E-07, 0.01249341), (0.9999219, -4.347109E-08, 0.01249912), (0.999922, 9.841342E-07, 0.01249341), (0.9999218, -9.80862E-07, 0.01250583), (0.9999219, -4.347109E-08, 0.01249912), (0.9999218, -9.80862E-07, 0.01250583), (0.999922, 3.110954E-09, 0.01249279), (0.9999219, -4.347109E-08, 0.01249912), (0.999922, 3.110954E-09, 0.01249279), (0.9999219, 9.810229E-07, 0.01249341), (0.9999219, -4.347109E-08, 0.01249912), (0.9999219, 9.810229E-07, 0.01249341), (0.9999218, -4.874005E-07, 0.01250615), (0.9999219, -4.347109E-08, 0.01249912), (0.9999218, -4.874005E-07, 0.01250615), (0.999922, 0, 0.01249287), (0.9999219, -4.347109E-08, 0.01249912), (0.9999219, 5.915531E-06, 0.01249651), (0.9999223, 0, 0.01246541), (0.9999219, 6.897303E-06, 0.01249713), (0.9999217, -9.283081E-06, 0.01250055), (0.999922, 0, 0.01249275), (0.9999219, 7.885087E-06, 0.01249776), (0.9999219, 9.858937E-06, 0.01249901), (0.9999219, 0, 0.01249275), (0.9999218, -1.028718E-05, 0.01249994), (0.9999219, 9.810229E-07, 0.01249341), (0.9999217, 0, 0.01252004), (0.9999218, -4.874005E-07, 0.01250615), (0.9999218, -9.80862E-07, 0.01250583), (0.9999217, 0, 0.01252004), (0.999922, 3.110954E-09, 0.01249279), (0.9999218, -1.966554E-06, 0.01250523), (0.9999219, 0, 0.0124927), (0.999922, 9.841342E-07, 0.01249341), (0.999922, 1.966552E-06, 0.01249403), (0.999922, 0, 0.01249279), (0.9999218, -1.482965E-06, 0.01250558), (0.999922, 2.947468E-06, 0.01249466), (0.9999216, 0, 0.01252012), (0.9999218, -2.447784E-06, 0.0125049), (0.999922, 2.947468E-06, 0.01249466), (0.999922, 0, 0.01249279), (0.9999218, -2.938242E-06, 0.01250459), (0.9999219, 3.917231E-06, 0.01249529), (0.9999216, 0, 0.01252012), (0.9999218, -3.919157E-06, 0.01250397), (0.9999219, -4.899001E-06, 0.01250335), (0.9999216, 0, 0.01252012), (0.9999219, -5.38903E-06, 0.01250304), (0.9999219, 4.932469E-06, 0.01249589), (0.9999223, 0, 0.01246546), (0.9999219, 5.877347E-06, 0.01249653), (0.9999219, -7.348287E-06, 0.0125018), (0.999922, 0, 0.01249279), (0.9999219, 5.874772E-06, 0.01249653), (0.9999219, 6.897303E-06, 0.01249713), (0.9999216, 0, 0.01252012), (0.9999219, -7.348287E-06, 0.0125018), (0.9999219, 8.837685E-06, 0.01249838), (0.9999216, 0, 0.01252012), (0.9999217, -9.283081E-06, 0.01250055), (0.9999219, 8.839403E-06, 0.01249838), (0.999922, 0, 0.01249279), (0.9999218, -9.8289E-06, 0.01250025), (0.9999218, -1.081067E-05, 0.01249963), (0.999922, 0, 0.01249279), (0.9999219, 8.839403E-06, 0.01249838), (0.9999219, 9.831474E-06, 0.01249901), (0.9999219, 0, 0.01249279), (0.9999219, 9.858937E-06, 0.01249901), (0.9999219, 7.885087E-06, 0.01249776), (0.9999219, 0, 0.01249279), (0.9999219, -8.351951E-06, 0.01250119), (0.9999218, -2.447784E-06, 0.0125049), (0.999922, 0, 0.01249279), (0.999922, 1.966552E-06, 0.01249403), (0.9999218, -2.938242E-06, 0.01250459), (0.9999217, 0, 0.01252012), (0.9999219, 1.966552E-06, 0.01249403), (0.9999218, -3.919157E-06, 0.01250397), (0.999922, 0, 0.01249279), (0.999922, 2.947468E-06, 0.01249466), (0.9999218, -4.407684E-06, 0.01250366), (0.9999217, 0, 0.01252012), (0.9999219, 2.937174E-06, 0.01249467), (0.9999219, -5.38903E-06, 0.01250304), (0.999922, 0, 0.01249279), (0.999922, 3.930529E-06, 0.01249528), (0.9999219, 4.894715E-06, 0.01249591), (0.999922, 0, 0.01249279), (0.9999219, -4.899001E-06, 0.01250335), (0.9999218, -6.36909E-06, 0.01250242), (0.9999216, 0, 0.01252008), (0.9999219, 4.932469E-06, 0.01249589), (0.9999219, -7.86321E-06, 0.01250149), (0.9999217, 0, 0.01252012), (0.9999219, 5.915531E-06, 0.01249651), (0.9999219, 7.827593E-06, 0.01249777), (0.9999223, 0, 0.01246546), (0.9999219, 8.837685E-06, 0.01249838), (0.999922, 3.110954E-09, 0.01249279), (0.9999223, 0, 0.01246554), (0.9999219, 9.810229E-07, 0.01249341), (0.999922, 9.841342E-07, 0.01249341), (0.9999219, 0, 0.01249287), (0.9999218, -9.80862E-07, 0.01250583), (0.999922, 3.930529E-06, 0.01249528), (0.999922, 0, 0.01249279), (0.9999218, -4.407684E-06, 0.01250366), (0.9999218, -5.912108E-06, 0.01250275), (0.999922, 0, 0.01249283), (0.9999219, 4.894715E-06, 0.01249591), (0.9999219, 5.877347E-06, 0.01249653), (0.9999216, 0, 0.01252016), (0.9999218, -5.912108E-06, 0.01250275), (0.9999219, 5.874772E-06, 0.01249653), (0.999922, 0, 0.01249283), (0.9999218, -6.36909E-06, 0.01250242), (0.9999219, 6.852253E-06, 0.01249715), (0.999922, 0, 0.01249283), (0.9999219, -7.86321E-06, 0.01250149), (0.9999218, -8.843693E-06, 0.01250087), (0.999922, 0, 0.01249279), (0.9999219, 6.852253E-06, 0.01249715), (0.9999219, -8.351951E-06, 0.01250119), (0.9999216, 0, 0.01252016), (0.9999218, -8.843693E-06, 0.01250087), (0.9999218, -9.8289E-06, 0.01250025), (0.9999216, 0, 0.01252016), (0.9999219, 7.827593E-06, 0.01249777), (0.9999219, 1.966552E-06, 0.01249403), (0.9999223, 0, 0.01246546), (0.999922, 2.947468E-06, 0.01249466), (0.9999219, 2.937174E-06, 0.01249467), (0.9999223, 0, 0.0124655), (0.9999219, 3.917231E-06, 0.01249529), (0.9999218, -1.028718E-05, 0.01249994), (0.9999216, 0, 0.01252016), (0.9999218, -1.081067E-05, 0.01249963), (0.9999218, -4.874005E-07, 0.01250615), (0.999922, 0, 0.01249287), (0.999922, 0, 0.01249287), (0.9999218, -1.482965E-06, 0.01250558), (0.9999216, 0, 0.01252025), (0.9999218, -1.966554E-06, 0.01250523), (-0.999922, -1.776727E-09, -0.01249216), (-0.999922, 1.016102E-06, -0.01249217), (-0.999922, 0, -0.01249279), (-0.999922, -1.776727E-09, -0.01249216), (-0.999922, 0, -0.01249279), (-0.999922, -4.119333E-05, -0.01249155), (-0.999922, -1.776727E-09, -0.01249216), (-0.999922, 2.746222E-08, -0.01249279), (-0.999922, 1.016102E-06, -0.01249217), (-0.999922, -1.776727E-09, -0.01249216), (-0.9999219, 9.33715E-07, -0.01249217), (-0.999922, 2.746222E-08, -0.01249279), (-0.999922, -1.776727E-09, -0.01249216), (-0.999922, -2.746222E-08, -0.0124928), (-0.9999219, 9.33715E-07, -0.01249217), (-0.999922, -1.776727E-09, -0.01249216), (-0.999922, 9.886403E-07, -0.01249218), (-0.999922, -2.746222E-08, -0.0124928), (-0.999922, -1.776727E-09, -0.01249216), (-0.999922, 0, -0.01249279), (-0.999922, 9.886403E-07, -0.01249218), (-0.999922, -1.776727E-09, -0.01249216), (-0.9999219, 9.611771E-07, -0.01249217), (-0.999922, 0, -0.01249279), (-0.999922, -1.776727E-09, -0.01249216), (-0.999922, 0, -0.0124928), (-0.9999219, 9.611771E-07, -0.01249217), (-0.999922, -1.776727E-09, -0.01249216), (-0.9999219, 9.886401E-07, -0.01249217), (-0.999922, 0, -0.0124928), (-0.999922, -1.776727E-09, -0.01249216), (-0.999922, -1.37311E-08, -0.01249279), (-0.9999219, 9.886401E-07, -0.01249217), (-0.999922, -1.776727E-09, -0.01249216), (-0.999922, 9.749085E-07, -0.01249217), (-0.999922, -1.37311E-08, -0.01249279), (-0.999922, -1.776727E-09, -0.01249216), (-0.9999219, -1.373111E-08, -0.01249279), (-0.999922, 9.749085E-07, -0.01249217), (-0.999922, -1.776727E-09, -0.01249216), (-0.999922, 9.474459E-07, -0.01249216), (-0.9999219, -1.373111E-08, -0.01249279), (-0.999922, -1.776727E-09, -0.01249216), (-0.999922, 0, -0.01249279), (-0.999922, 9.474459E-07, -0.01249216), (-0.999922, -1.776727E-09, -0.01249216), (-0.999922, 1.002372E-06, -0.01249219), (-0.999922, 0, -0.01249279), (-0.999922, -1.776727E-09, -0.01249216), (-0.999922, -1.37311E-08, -0.0124928), (-0.999922, 1.002372E-06, -0.01249219), (-0.999922, -1.776727E-09, -0.01249216), (-0.9999219, 9.886401E-07, -0.01249218), (-0.999922, -1.37311E-08, -0.0124928), (-0.999922, -1.776727E-09, -0.01249216), (-0.9999219, 1.373112E-08, -0.0124928), (-0.9999219, 9.886401E-07, -0.01249218), (-0.999922, -1.776727E-09, -0.01249216), (-0.9999219, 9.611765E-07, -0.01249216), (-0.9999219, 1.373112E-08, -0.0124928), (-0.999922, -1.776727E-09, -0.01249216), (-0.9999219, 1.373112E-08, -0.0124928), (-0.9999219, 9.611765E-07, -0.01249216), (-0.999922, -1.776727E-09, -0.01249216), (-0.9999219, 1.009238E-06, -0.01249219), (-0.9999219, 1.373112E-08, -0.0124928), (-0.999922, -1.776727E-09, -0.01249216), (-0.999922, 0, -0.0124928), (-0.9999219, 1.009238E-06, -0.01249219), (-0.999922, -1.776727E-09, -0.01249216), (-0.999922, 9.817741E-07, -0.01249218), (-0.999922, 0, -0.0124928), (-0.999922, -1.776727E-09, -0.01249216), (-0.999922, -6.865553E-09, -0.0124928), (-0.999922, 9.817741E-07, -0.01249218), (-0.999922, -1.776727E-09, -0.01249216), (-0.999922, 9.68043E-07, -0.01249217), (-0.999922, -6.865553E-09, -0.0124928), (-0.999922, -1.776727E-09, -0.01249216), (-0.999922, -6.865553E-09, -0.01249279), (-0.999922, 9.68043E-07, -0.01249217), (-0.999922, -1.776727E-09, -0.01249216), (-0.999922, 9.783408E-07, -0.01249217), (-0.999922, -6.865553E-09, -0.01249279), (-0.999922, -1.776727E-09, -0.01249216), (-0.999922, -3.432777E-09, -0.01249279), (-0.999922, 9.783408E-07, -0.01249217), (-0.999922, -1.776727E-09, -0.01249216), (-0.999922, 9.783413E-07, -0.01249217), (-0.999922, -3.432777E-09, -0.01249279), (-0.999922, -1.776727E-09, -0.01249216), (-0.999922, -3.432777E-09, -0.01249279), (-0.999922, 9.783413E-07, -0.01249217), (-0.999922, -1.776727E-09, -0.01249216), (-0.9999219, 9.783416E-07, -0.01249217), (-0.999922, -3.432777E-09, -0.01249279), (-0.999922, -1.776727E-09, -0.01249216), (-0.999922, -1.716389E-09, -0.0124928), (-0.9999219, 9.783416E-07, -0.01249217), (-0.999922, -1.776727E-09, -0.01249216), (-0.999922, 9.852082E-07, -0.01249219), (-0.999922, -1.716389E-09, -0.0124928), (-0.999922, -1.776727E-09, -0.01249216), (-0.9999219, -1.716388E-09, -0.01249279), (-0.999922, 9.852082E-07, -0.01249219), (-0.999922, -1.776727E-09, -0.01249216), (-0.999922, 9.834919E-07, -0.01249219), (-0.9999219, -1.716388E-09, -0.01249279), (-0.999922, -1.776727E-09, -0.01249216), (-0.999922, 4.290971E-10, -0.01249279), (-0.999922, 9.834919E-07, -0.01249219), (-0.999922, -1.776727E-09, -0.01249216), (-0.999922, 9.779124E-07, -0.01249217), (-0.999922, 4.290971E-10, -0.01249279), (-0.999922, -1.776727E-09, -0.01249216), (-0.9999219, 0, -0.01249279), (-0.999922, 9.779124E-07, -0.01249217), (-0.999922, -1.776727E-09, -0.01249216), (-0.999922, 9.779124E-07, -0.01249217), (-0.9999219, 0, -0.01249279), (-0.999922, -1.776727E-09, -0.01249216), (-0.9999219, 0, -0.01249279), (-0.999922, 9.779124E-07, -0.01249217), (-0.999922, -1.776727E-09, -0.01249216), (-0.999922, 9.779124E-07, -0.01249217), (-0.9999219, 0, -0.01249279), (-0.999922, -1.776727E-09, -0.01249216), (-0.9999223, 0, -0.01246554), (-0.999922, 9.779124E-07, -0.01249217), (-0.999922, 9.779124E-07, -0.01249217), (-0.9999217, 0, -0.01252004), (-0.999922, 4.290971E-10, -0.01249279), (-0.999922, 9.834919E-07, -0.01249219), (-0.9999216, 0, -0.01252008), (-0.9999219, -1.716388E-09, -0.01249279), (-0.999922, 0, -0.01249279), (-0.9999223, 0, -0.01246541), (-0.999922, 9.474459E-07, -0.01249216), (-0.9999219, 9.886401E-07, -0.01249218), (-0.9999216, 0, -0.01252008), (-0.999922, -1.37311E-08, -0.0124928), (-0.9999219, 1.373112E-08, -0.0124928), (-0.9999223, 0, -0.01246541), (-0.9999219, 9.611765E-07, -0.01249216), (-0.999922, -2.746222E-08, -0.0124928), (-0.9999223, 0, -0.01246541), (-0.9999219, 9.33715E-07, -0.01249217), (-0.999922, 9.779124E-07, -0.01249217), (-0.9999217, 0, -0.01252004), (-0.9999219, 0, -0.01249279), (-0.999922, 9.779124E-07, -0.01249217), (-0.9999217, 0, -0.01252004), (-0.9999219, 0, -0.01249279), (-0.999922, 9.68043E-07, -0.01249217), (-0.9999216, 0, -0.01252012), (-0.999922, -6.865553E-09, -0.0124928), (-0.999922, -3.432777E-09, -0.01249279), (-0.9999223, 0, -0.01246546), (-0.999922, 9.783408E-07, -0.01249217), (-0.999922, 9.852082E-07, -0.01249219), (-0.9999216, 0, -0.01252012), (-0.999922, -1.716389E-09, -0.0124928), (-0.999922, 0, -0.0124928), (-0.9999223, 0, -0.01246546), (-0.9999219, 9.611771E-07, -0.01249217), (-0.999922, 9.749085E-07, -0.01249217), (-0.9999216, 0, -0.01252012), (-0.999922, -1.37311E-08, -0.01249279), (-0.9999219, -1.373111E-08, -0.01249279), (-0.9999223, 0, -0.01246546), (-0.999922, 9.749085E-07, -0.01249217), (-0.9999219, 9.611765E-07, -0.01249216), (-0.9999216, 0, -0.01252012), (-0.9999219, 1.373112E-08, -0.0124928), (-0.999922, 0, -0.01249279), (-0.9999223, 0, -0.01246546), (-0.999922, -4.119333E-05, -0.01249155), (-0.999922, 1.016102E-06, -0.01249217), (-0.9999217, 0, -0.01252012), (-0.999922, 0, -0.01249279), (-0.9999219, 9.33715E-07, -0.01249217), (-0.9999216, 0, -0.01252012), (-0.999922, 2.746222E-08, -0.01249279), (-0.999922, 9.474459E-07, -0.01249216), (-0.9999217, 0, -0.01252012), (-0.9999219, -1.373111E-08, -0.01249279), (-0.999922, 0, -0.0124928), (-0.9999223, 0, -0.01246546), (-0.9999219, 1.009238E-06, -0.01249219), (-0.999922, -6.865553E-09, -0.0124928), (-0.9999223, 0, -0.01246546), (-0.999922, 9.817741E-07, -0.01249218), (-0.999922, -6.865553E-09, -0.01249279), (-0.9999223, 0, -0.01246546), (-0.999922, 9.68043E-07, -0.01249217), (-0.999922, 9.783408E-07, -0.01249217), (-0.9999217, 0, -0.01252012), (-0.999922, -6.865553E-09, -0.01249279), (-0.999922, 9.783413E-07, -0.01249217), (-0.9999217, 0, -0.01252012), (-0.999922, -3.432777E-09, -0.01249279), (-0.9999219, 9.783416E-07, -0.01249217), (-0.9999217, 0, -0.01252012), (-0.999922, -3.432777E-09, -0.01249279), (-0.999922, -1.716389E-09, -0.0124928), (-0.9999223, 0, -0.01246546), (-0.9999219, 9.783416E-07, -0.01249217), (-0.999922, 9.886403E-07, -0.01249218), (-0.9999216, 0, -0.01252014), (-0.999922, -2.746222E-08, -0.0124928), (-0.9999219, 9.611771E-07, -0.01249217), (-0.9999216, 0, -0.01252014), (-0.999922, 0, -0.01249279), (-0.999922, 0, -0.01249279), (-0.9999223, 0, -0.01246546), (-0.999922, 9.886403E-07, -0.01249218), (-0.999922, 9.817741E-07, -0.01249218), (-0.9999216, 0, -0.01252012), (-0.999922, 0, -0.0124928), (-0.999922, -3.432777E-09, -0.01249279), (-0.9999223, 0, -0.01246546), (-0.999922, 9.783413E-07, -0.01249217), (-0.9999219, 0, -0.01249279), (-0.9999223, 0, -0.01246554), (-0.999922, 9.779124E-07, -0.01249217), (-0.9999223, 0, -0.01246554), (-0.9999223, 0, -0.01246554), (-0.999922, 9.779124E-07, -0.01249217), (-0.999922, -1.37311E-08, -0.01249279), (-0.9999223, 0, -0.01246546), (-0.9999219, 9.886401E-07, -0.01249217), (-0.999922, 1.002372E-06, -0.01249219), (-0.9999216, 0, -0.01252016), (-0.999922, 0, -0.01249279), (-0.999922, -1.37311E-08, -0.0124928), (-0.9999223, 0, -0.01246546), (-0.999922, 1.002372E-06, -0.01249219), (-0.9999219, 9.886401E-07, -0.01249217), (-0.9999216, 0, -0.01252016), (-0.999922, 0, -0.0124928), (-0.9999219, 1.373112E-08, -0.0124928), (-0.9999223, 0, -0.0124655), (-0.9999219, 9.886401E-07, -0.01249218), (-0.9999219, -1.716388E-09, -0.01249279), (-0.9999223, 0, -0.0124655), (-0.999922, 9.852082E-07, -0.01249219), (-0.999922, 2.746222E-08, -0.01249279), (-0.9999223, 0, -0.0124655), (-0.999922, 1.016102E-06, -0.01249217), (-0.9999219, 1.009238E-06, -0.01249219), (-0.9999216, 0, -0.01252021), (-0.9999219, 1.373112E-08, -0.0124928), (-0.9999219, 0, -0.01249279), (-0.9999223, 0, -0.01246554), (-0.999922, 9.779124E-07, -0.01249217), (-0.999922, 4.290971E-10, -0.01249279), (-0.9999223, 0, -0.01246554), (-0.999922, 9.834919E-07, -0.01249219), (0.01249933, 0, -0.9999219), (0.01249933, 0, -0.9999219), (0.01249933, 0, -0.9999219), (0.01249933, 0, -0.9999219), (0.01249933, 0, -0.9999219), (0.01249933, 0, -0.9999219), (0, -1, 0), (0, -1, 0), (0, -1, 0), (0, -1, 0), (0, -1, 0), (0, -1, 0), (-0.0124991, 0, 0.9999219), (-0.0124991, 0, 0.9999219), (-0.0124991, 0, 0.9999219), (-0.0124991, 0, 0.9999219), (-0.0124991, 0, 0.9999219), (-0.0124991, 0, 0.9999219), (0, 1, 0), (0, 1, 0), (0, 1, 0), (0, 1, 0), (0, 1, 0), (0, 1, 0), (-0.0124991, 0, 0.9999219), (-0.0124991, 0, 0.9999219), (-0.0124991, 0, 0.9999219), (-0.0124991, 0, 0.9999219), (-0.0124991, 0, 0.9999219), (-0.0124991, 0, 0.9999219), (0, 1, 0), (0, 1, 0), (0, 1, 0), (0, 1, 0), (0, 1, 0), (0, 1, 0), (-0.0124991, 0, 0.9999219), (-0.0124991, 0, 0.9999219), (-0.0124991, 0, 0.9999219), (-0.0124991, 0, 0.9999219), (-0.0124991, 0, 0.9999219), (-0.0124991, 0, 0.9999219), (0, 1, 0), (0, 1, 0), (0, 1, 0), (0, 1, 0), (0, 1, 0), (0, 1, 0), (-0.0124991, 0, 0.9999219), (-0.0124991, 0, 0.9999219), (-0.0124991, 0, 0.9999219), (-0.0124991, 0, 0.9999219), (-0.0124991, 0, 0.9999219), (-0.0124991, 0, 0.9999219), (0, 1, 0), (0, 1, 0), (0, 1, 0), (0, 1, 0), (0, 1, 0), (0, 1, 0), (-0.0124991, 0, 0.9999219), (-0.0124991, 0, 0.9999219), (-0.0124991, 0, 0.9999219), (-0.0124991, 0, 0.9999219), (-0.0124991, 0, 0.9999219), (-0.0124991, 0, 0.9999219), (0, 1, 0), (0, 1, 0), (0, 1, 0), (0, 1, 0), (0, 1, 0), (0, 1, 0), (-0.01249909, 0, 0.9999219), (-0.01249909, 0, 0.9999219), (-0.01249909, 0, 0.9999219), (-0.01249909, 0, 0.9999219), (-0.01249909, 0, 0.9999219), (-0.01249909, 0, 0.9999219), (0, 1, 0), (0, 1, 0), (0, 1, 0), (0, 1, 0), (0, 1, 0), (0, 1, 0), (-0.01249909, 0, 0.9999219), (-0.01249909, 0, 0.9999219), (-0.01249909, 0, 0.9999219), (-0.01249909, 0, 0.9999219), (-0.01249909, 0, 0.9999219), (-0.01249909, 0, 0.9999219), (0, 1, 0), (0, 1, 0), (0, 1, 0), (0, 1, 0), (0, 1, 0), (0, 1, 0), (-0.01249909, 0, 0.9999219), (-0.01249909, 0, 0.9999219), (-0.01249909, 0, 0.9999219), (-0.01249909, 0, 0.9999219), (-0.01249909, 0, 0.9999219), (-0.01249909, 0, 0.9999219), (0, 1, 0), (0, 1, 0), (0, 1, 0), (0, 1, 0), (0, 1, 0), (0, 1, 0), (-0.01249909, 0, 0.9999219), (-0.01249909, 0, 0.9999219), (-0.01249909, 0, 0.9999219), (-0.01249909, 0, 0.9999219), (-0.01249909, 0, 0.9999219), (-0.01249909, 0, 0.9999219), (0, 1, 0), (0, 1, 0), (0, 1, 0), (0, 1, 0), (0, 1, 0), (0, 1, 0), (-0.01249909, 0, 0.9999219), (-0.01249909, 0, 0.9999219), (-0.01249909, 0, 0.9999219), (-0.01249909, 0, 0.9999219), (-0.01249909, 0, 0.9999219), (-0.01249909, 0, 0.9999219), (0, 1, 0), (0, 1, 0), (0, 1, 0), (0, 1, 0), (0, 1, 0), (0, 1, 0), (-0.01249909, 0, 0.9999219), (-0.01249909, 0, 0.9999219), (-0.01249909, 0, 0.9999219), (-0.01249909, 0, 0.9999219), (-0.01249909, 0, 0.9999219), (-0.01249909, 0, 0.9999219), (0, 1, 0), (0, 1, 0), (0, 1, 0), (0, 1, 0), (0, 1, 0), (0, 1, 0), (-0.01249909, 0, 0.9999219), (-0.01249909, 0, 0.9999219), (-0.01249909, 0, 0.9999219), (-0.01249909, 0, 0.9999219), (-0.01249909, 0, 0.9999219), (-0.01249909, 0, 0.9999219), (0, 1, 0), (0, 1, 0), (0, 1, 0), (0, 1, 0), (0, 1, 0), (0, 1, 0), (-0.01249909, 0, 0.9999219), (-0.01249909, 0, 0.9999219), (-0.01249909, 0, 0.9999219), (-0.01249909, 0, 0.9999219), (-0.01249909, 0, 0.9999219), (-0.01249909, 0, 0.9999219), (0, 1, 0), (0, 1, 0), (0, 1, 0), (0, 1, 0), (0, 1, 0), (0, 1, 0), (-0.0124991, 0, 0.9999219), (-0.0124991, 0, 0.9999219), (-0.0124991, 0, 0.9999219), (-0.0124991, 0, 0.9999219), (-0.0124991, 0, 0.9999219), (-0.0124991, 0, 0.9999219), (0, 1, 0), (0, 1, 0), (0, 1, 0), (0, 1, 0), (0, 1, 0), (0, 1, 0), (-0.01249909, 0, 0.9999219), (-0.01249909, 0, 0.9999219), (-0.01249909, 0, 0.9999219), (-0.01249909, 0, 0.9999219), (-0.01249909, 0, 0.9999219), (-0.01249909, 0, 0.9999219), (0, 1, 0), (0, 1, 0), (0, 1, 0), (0, 1, 0), (0, 1, 0), (0, 1, 0), (-0.01249909, 0, 0.9999219), (-0.01249909, 0, 0.9999219), (-0.01249909, 0, 0.9999219), (-0.01249909, 0, 0.9999219), (-0.01249909, 0, 0.9999219), (-0.01249909, 0, 0.9999219), (0, 1, 0), (0, 1, 0), (0, 1, 0), (0, 1, 0), (0, 1, 0), (0, 1, 0), (-0.01249909, 0, 0.9999219), (-0.01249909, 0, 0.9999219), (-0.01249909, 0, 0.9999219), (-0.01249909, 0, 0.9999219), (-0.01249909, 0, 0.9999219), (-0.01249909, 0, 0.9999219), (0, 1, 0), (0, 1, 0), (0, 1, 0), (0, 1, 0), (0, 1, 0), (0, 1, 0), (-0.01249909, 0, 0.9999219), (-0.01249909, 0, 0.9999219), (-0.01249909, 0, 0.9999219), (-0.01249909, 0, 0.9999219), (-0.01249909, 0, 0.9999219), (-0.01249909, 0, 0.9999219), (0, 1, 0), (0, 1, 0), (0, 1, 0), (0, 1, 0), (0, 1, 0), (0, 1, 0), (-0.0124991, 0, 0.9999219), (-0.0124991, 0, 0.9999219), (-0.0124991, 0, 0.9999219), (-0.0124991, 0, 0.9999219), (-0.0124991, 0, 0.9999219), (-0.0124991, 0, 0.9999219), (0, 1, 0), (0, 1, 0), (0, 1, 0), (0, 1, 0), (0, 1, 0), (0, 1, 0), (-0.01249909, 0, 0.9999219), (-0.01249909, 0, 0.9999219), (-0.01249909, 0, 0.9999219), (-0.01249909, 0, 0.9999219), (-0.01249909, 0, 0.9999219), (-0.01249909, 0, 0.9999219), (0, 1, 0), (0, 1, 0), (0, 1, 0), (0, 1, 0), (0, 1, 0), (0, 1, 0), (-0.01249909, 0, 0.9999219), (-0.01249909, 0, 0.9999219), (-0.01249909, 0, 0.9999219), (-0.01249909, 0, 0.9999219), (-0.01249909, 0, 0.9999219), (-0.01249909, 0, 0.9999219), (0, 1, 0), (0, 1, 0), (0, 1, 0), (0, 1, 0), (0, 1, 0), (0, 1, 0), (-0.01249909, 0, 0.9999219), (-0.01249909, 0, 0.9999219), (-0.01249909, 0, 0.9999219), (-0.01249909, 0, 0.9999219), (-0.01249909, 0, 0.9999219), (-0.01249909, 0, 0.9999219), (0, 1, 0), (0, 1, 0), (0, 1, 0), (0, 1, 0), (0, 1, 0), (0, 1, 0), (-0.0124991, 0, 0.9999219), (-0.0124991, 0, 0.9999219), (-0.0124991, 0, 0.9999219), (-0.0124991, 0, 0.9999219), (-0.0124991, 0, 0.9999219), (-0.0124991, 0, 0.9999219), (0, 1, 0), (0, 1, 0), (0, 1, 0), (0, 1, 0), (0, 1, 0), (0, 1, 0), (-0.01249909, 0, 0.9999219), (-0.01249909, 0, 0.9999219), (-0.01249909, 0, 0.9999219), (-0.01249909, 0, 0.9999219), (-0.01249909, 0, 0.9999219), (-0.01249909, 0, 0.9999219), (0, 1, 0), (0, 1, 0), (0, 1, 0), (0, 1, 0), (0, 1, 0), (0, 1, 0), (-0.0124991, 0, 0.9999219), (-0.0124991, 0, 0.9999219), (-0.0124991, 0, 0.9999219), (-0.0124991, 0, 0.9999219), (-0.0124991, 0, 0.9999219), (-0.0124991, 0, 0.9999219), (0, 1, 0), (0, 1, 0), (0, 1, 0), (0, 1, 0), (0, 1, 0), (0, 1, 0), (-0.01249909, 0, 0.9999219), (-0.01249909, 0, 0.9999219), (-0.01249909, 0, 0.9999219), (-0.01249909, 0, 0.9999219), (-0.01249909, 0, 0.9999219), (-0.01249909, 0, 0.9999219), (0, 1, 0), (0, 1, 0), (0, 1, 0), (0, 1, 0), (0, 1, 0), (0, 1, 0), (-0.0124991, 0, 0.9999219), (-0.0124991, 0, 0.9999219), (-0.0124991, 0, 0.9999219), (-0.0124991, 0, 0.9999219), (-0.0124991, 0, 0.9999219), (-0.0124991, 0, 0.9999219), (0, 1, 0), (0, 1, 0), (0, 1, 0), (0, 1, 0), (0, 1, 0), (0, 1, 0), (-0.0124991, 0, 0.9999219), (-0.0124991, 0, 0.9999219), (-0.0124991, 0, 0.9999219), (-0.0124991, 0, 0.9999219), (-0.0124991, 0, 0.9999219), (-0.0124991, 0, 0.9999219), (0, 1, 0), (0, 1, 0), (0, 1, 0), (0, 1, 0), (0, 1, 0), (0, 1, 0), (-0.01249909, 0, 0.9999219), (-0.01249909, 0, 0.9999219), (-0.01249909, 0, 0.9999219), (-0.01249909, 0, 0.9999219), (-0.01249909, 0, 0.9999219), (-0.01249909, 0, 0.9999219), (0, 1, 0), (0, 1, 0), (0, 1, 0), (0, 1, 0), (0, 1, 0), (0, 1, 0), (-0.0124991, 0, 0.9999219), (-0.0124991, 0, 0.9999219), (-0.0124991, 0, 0.9999219), (-0.0124991, 0, 0.9999219), (-0.0124991, 0, 0.9999219), (-0.0124991, 0, 0.9999219), (0, 1, 0), (0, 1, 0), (0, 1, 0), (0, 1, 0), (0, 1, 0), (0, 1, 0), (-0.01249909, 0, 0.9999219), (-0.01249909, 0, 0.9999219), (-0.01249909, 0, 0.9999219), (-0.01249909, 0, 0.9999219), (-0.01249909, 0, 0.9999219), (-0.01249909, 0, 0.9999219), (0, 1, 0), (0, 1, 0), (0, 1, 0), (0, 1, 0), (0, 1, 0), (0, 1, 0), (-0.0124991, 0, 0.9999219), (-0.0124991, 0, 0.9999219), (-0.0124991, 0, 0.9999219), (-0.0124991, 0, 0.9999219), (-0.0124991, 0, 0.9999219), (-0.0124991, 0, 0.9999219), (0, 1, 0), (0, 1, 0), (0, 1, 0), (0, 1, 0), (0, 1, 0), (0, 1, 0), (-0.0124991, 0, 0.9999219), (-0.0124991, 0, 0.9999219), (-0.0124991, 0, 0.9999219), (-0.0124991, 0, 0.9999219), (-0.0124991, 0, 0.9999219), (-0.0124991, 0, 0.9999219), (0, 1, 0), (0, 1, 0), (0, 1, 0), (0, 1, 0), (0, 1, 0), (0, 1, 0), (-0.01249909, 0, 0.9999219), (-0.01249909, 0, 0.9999219), (-0.01249909, 0, 0.9999219), (-0.01249909, 0, 0.9999219), (-0.01249909, 0, 0.9999219), (-0.01249909, 0, 0.9999219), (0, 1, 0), (0, 1, 0), (0, 1, 0), (0, 1, 0), (0, 1, 0), (0, 1, 0), (-0.0124991, 0, 0.9999219), (-0.0124991, 0, 0.9999219), (-0.0124991, 0, 0.9999219), (-0.0124991, 0, 0.9999219), (-0.0124991, 0, 0.9999219), (-0.0124991, 0, 0.9999219), (0, 1, 0), (0, 1, 0), (0, 1, 0), (0, 1, 0), (0, 1, 0), (0, 1, 0), (-0.01249909, 0, 0.9999219), (-0.01249909, 0, 0.9999219), (-0.01249909, 0, 0.9999219), (-0.01249909, 0, 0.9999219), (-0.01249909, 0, 0.9999219), (-0.01249909, 0, 0.9999219), (0, 1, 0), (0, 1, 0), (0, 1, 0), (0, 1, 0), (0, 1, 0), (0, 1, 0), (-0.0124991, 0, 0.9999219), (-0.0124991, 0, 0.9999219), (-0.0124991, 0, 0.9999219), (-0.0124991, 0, 0.9999219), (-0.0124991, 0, 0.9999219), (-0.0124991, 0, 0.9999219), (0, 1, 0), (0, 1, 0), (0, 1, 0), (0, 1, 0), (0, 1, 0), (0, 1, 0), (-0.01249934, 0, 0.9999219), (-0.01249934, 0, 0.9999219), (-0.01249934, 0, 0.9999219), (-0.01249934, 0, 0.9999219), (-0.01249934, 0, 0.9999219), (-0.01249934, 0, 0.9999219), (0, 1, 0), (0, 1, 0), (0, 1, 0), (0, 1, 0), (0, 1, 0), (0, 1, 0), (-0.01249933, 0, 0.9999219), (-0.01249933, 0, 0.9999219), (-0.01249933, 0, 0.9999219), (-0.01249933, 0, 0.9999219), (-0.01249933, 0, 0.9999219), (-0.01249933, 0, 0.9999219), (0, 1, 0), (0, 1, 0), (0, 1, 0), (0, 1, 0), (0, 1, 0), (0, 1, 0), (-0.01249934, 0, 0.9999219), (-0.01249934, 0, 0.9999219), (-0.01249934, 0, 0.9999219), (-0.01249934, 0, 0.9999219), (-0.01249934, 0, 0.9999219), (-0.01249934, 0, 0.9999219), (0, 1, 0), (0, 1, 0), (0, 1, 0), (0, 1, 0), (0, 1, 0), (0, 1, 0), (-0.01249933, 0, 0.9999219), (-0.01249933, 0, 0.9999219), (-0.01249933, 0, 0.9999219), (-0.01249933, 0, 0.9999219), (-0.01249933, 0, 0.9999219), (-0.01249933, 0, 0.9999219), (0, 1, 0), (0, 1, 0), (0, 1, 0), (0, 1, 0), (0, 1, 0), (0, 1, 0), (-0.01249934, 0, 0.9999219), (-0.01249934, 0, 0.9999219), (-0.01249934, 0, 0.9999219), (-0.01249934, 0, 0.9999219), (-0.01249934, 0, 0.9999219), (-0.01249934, 0, 0.9999219), (0, 1, 0), (0, 1, 0), (0, 1, 0), (0, 1, 0), (0, 1, 0), (0, 1, 0), (-0.01249934, 0, 0.9999219), (-0.01249934, 0, 0.9999219), (-0.01249934, 0, 0.9999219), (-0.01249934, 0, 0.9999219), (-0.01249934, 0, 0.9999219), (-0.01249934, 0, 0.9999219), (-2.135566E-08, 1, 1.708411E-06), (-2.135566E-08, 1, 1.708411E-06), (-2.135566E-08, 1, 1.708411E-06), (-2.135566E-08, 1, 1.708411E-06), (-2.135566E-08, 1, 1.708411E-06), (-2.135566E-08, 1, 1.70841E-06)](
			
			interpolation = "faceVarying"
		)
		
		point3f[] points = [(4.074688, -3.8, -5.950003), (3.924686, -3.8, 6.049996), (3.924686, -3.623256, 6.049996), (3.928173, -3.623256, 5.770926), (3.928173, -3.446512, 5.770926), (3.93166, -3.446512, 5.491856), (3.93166, -3.269767, 5.491856), (3.935154, -3.269767, 5.212787), (3.935154, -3.093023, 5.212787), (3.938641, -3.093023, 4.933717), (3.938641, -2.916279, 4.933717), (3.942127, -2.916279, 4.654647), (3.942127, -2.739535, 4.654647), (3.945621, -2.739535, 4.375578), (3.945621, -2.562791, 4.375578), (3.9491, -2.562791, 4.096508), (3.9491, -2.386046, 4.096508), (3.952595, -2.386046, 3.817438), (3.952595, -2.209302, 3.817438), (3.956081, -2.209302, 3.538367), (3.956081, -2.032558, 3.538367), (3.959568, -2.032558, 3.259297), (3.959568, -1.855814, 3.259297), (3.963062, -1.855814, 2.980228), (3.963062, -1.67907, 2.980228), (3.966549, -1.67907, 2.701159), (3.966549, -1.502326, 2.701159), (3.970036, -1.502326, 2.42209), (3.970036, -1.325582, 2.42209), (3.97353, -1.325582, 2.14302), (3.97353, -1.148837, 2.14302), (3.977009, -1.148837, 1.863949), (3.977009, -0.9720931, 1.863949), (3.980503, -0.9720931, 1.584879), (3.980503, -0.7953489, 1.584879), (3.98399, -0.7953489, 1.305809), (3.98399, -0.6186047, 1.305809), (3.987476, -0.6186047, 1.02674), (3.987476, -0.4418607, 1.02674), (3.990971, -0.4418607, 0.7476692), (3.990971, -0.2651165, 0.7476692), (3.99445, -0.2651165, 0.4685993), (3.99445, -0.08837223, 0.4685993), (3.997944, -0.08837223, 0.1895304), (3.997944, 0.08837199, 0.1895304), (4.001431, 0.08837199, -0.08953857), (4.001431, 0.265116, -0.08953857), (4.004917, 0.265116, -0.3686085), (4.004917, 0.4418604, -0.3686085), (4.008411, 0.4418604, -0.6476784), (4.008411, 0.6186044, -0.6476784), (4.011898, 0.6186044, -0.9267483), (4.011898, 0.7953489, -0.9267483), (4.015385, 0.7953489, -1.205818), (4.015385, 0.9720929, -1.205818), (4.018879, 0.9720929, -1.484888), (4.018879, 1.148837, -1.484888), (4.022358, 1.148837, -1.763957), (4.022358, 1.325581, -1.763957), (4.025852, 1.325581, -2.043027), (4.025852, 1.502325, -2.043027), (4.029339, 1.502325, -2.322097), (4.029339, 1.67907, -2.322097), (4.032825, 1.67907, -2.601167), (4.032825, 1.855814, -2.601167), (4.03632, 1.855814, -2.880237), (4.03632, 2.032558, -2.880237), (4.039799, 2.032558, -3.159307), (4.039799, 2.209302, -3.159307), (4.043293, 2.209302, -3.438376), (4.043293, 2.386046, -3.438376), (4.04678, 2.386046, -3.717446), (4.04678, 2.562791, -3.717446), (4.050266, 2.562791, -3.996516), (4.050266, 2.739535, -3.996516), (4.053761, 2.739535, -4.275583), (4.053761, 2.916279, -4.275583), (4.057247, 2.916279, -4.554655), (4.057247, 3.093023, -4.554655), (4.060734, 3.093023, -4.833723), (4.060734, 3.269767, -4.833723), (4.064228, 3.269767, -5.112795), (4.064228, 3.446512, -5.112795), (4.067707, 3.446512, -5.391863), (4.067707, 3.623255, -5.391863), (4.071201, 3.623255, -5.670935), (4.071201, 3.799999, -5.670935), (4.074688, 3.8, -5.950003), (0.07499695, -3.8, -6), (0.07499695, 3.8, -6), (0.07151794, 3.799999, -5.720932), (0.07151794, 3.623255, -5.720932), (0.06802368, 3.623255, -5.44186), (0.06802368, 3.446512, -5.44186), (0.06454468, 3.446512, -5.162792), (0.06454468, 3.269767, -5.162792), (0.06105042, 3.269767, -4.88372), (0.06105042, 3.093023, -4.88372), (0.05757141, 3.093023, -4.604652), (0.05757141, 2.916279, -4.604652), (0.05407715, 2.916279, -4.325581), (0.05407715, 2.739535, -4.325581), (0.05059814, 2.739535, -4.046513), (0.05059814, 2.562791, -4.046513), (0.04710388, 2.562791, -3.767442), (0.04710388, 2.386046, -3.767442), (0.04362488, 2.386046, -3.488373), (0.04362488, 2.209302, -3.488373), (0.04013062, 2.209302, -3.209303), (0.04013062, 2.032558, -3.209303), (0.03665161, 2.032558, -2.930233), (0.03665161, 1.855814, -2.930233), (0.03315735, 1.855814, -2.651163), (0.03315735, 1.67907, -2.651163), (0.02967834, 1.67907, -2.372093), (0.02967834, 1.502325, -2.372093), (0.02618408, 1.502325, -2.093023), (0.02618408, 1.325581, -2.093023), (0.02270508, 1.325581, -1.813953), (0.02270508, 1.148837, -1.813953), (0.01921082, 1.148837, -1.534883), (0.01921082, 0.9720929, -1.534883), (0.01573181, 0.9720929, -1.255814), (0.01573181, 0.7953489, -1.255814), (0.01223755, 0.7953489, -0.9767437), (0.01223755, 0.6186044, -0.9767437), (0.008758545, 0.6186044, -0.6976738), (0.008758545, 0.4418604, -0.6976738), (0.005264282, 0.4418604, -0.4186039), (0.005264282, 0.265116, -0.4186039), (0.001785278, 0.265116, -0.139534), (0.001785278, 0.08837199, -0.139534), (-0.001708984, 0.08837199, 0.139534), (-0.001708984, -0.08837223, 0.139534), (-0.005187988, -0.08837223, 0.4186049), (-0.005187988, -0.2651165, 0.4186049), (-0.008682251, -0.2651165, 0.6976748), (-0.008682251, -0.4418607, 0.6976748), (-0.01216125, -0.4418607, 0.9767437), (-0.01216125, -0.6186047, 0.9767437), (-0.01565552, -0.6186047, 1.255815), (-0.01565552, -0.7953489, 1.255815), (-0.01913452, -0.7953489, 1.534884), (-0.01913452, -0.9720931, 1.534884), (-0.02262878, -0.9720931, 1.813953), (-0.02262878, -1.148837, 1.813953), (-0.02610779, -1.148837, 2.093024), (-0.02610779, -1.325582, 2.093024), (-0.02960205, -1.325582, 2.372094), (-0.02960205, -1.502326, 2.372094), (-0.03308105, -1.502326, 2.651164), (-0.03308105, -1.67907, 2.651164), (-0.03657532, -1.67907, 2.930234), (-0.03657532, -1.855814, 2.930234), (-0.04005432, -1.855814, 3.209304), (-0.04005432, -2.032558, 3.209304), (-0.04354858, -2.032558, 3.488373), (-0.04354858, -2.209302, 3.488373), (-0.04702759, -2.209302, 3.767443), (-0.04702759, -2.386046, 3.767443), (-0.05052185, -2.386046, 4.046512), (-0.05052185, -2.562791, 4.046512), (-0.05400085, -2.562791, 4.325582), (-0.05400085, -2.739535, 4.325582), (-0.05749512, -2.739535, 4.604651), (-0.05749512, -2.916279, 4.604651), (-0.06097412, -2.916279, 4.883722), (-0.06097412, -3.093023, 4.883722), (-0.06446838, -3.093023, 5.162792), (-0.06446838, -3.269767, 5.162792), (-0.06794739, -3.269767, 5.441861), (-0.06794739, -3.446512, 5.441861), (-0.07144165, -3.446512, 5.720931), (-0.07144165, -3.623256, 5.720931), (-0.07492065, -3.623256, 6.000001), (-0.07492065, -3.8, 6.000001), (4.074688, 3.8, -5.950003), (0.07500076, 3.8, -6), (0.07500076, -3.8, -6), (4.074688, -3.8, -5.950003), (4.074688, -3.8, -5.950003), (0.07500076, -3.8, -6), (-0.07500076, -3.8, 6), (3.924686, -3.8, 6.049996), (-0.07500076, -3.623256, 6), (3.924686, -3.623256, 6.049996), (3.924686, -3.8, 6.049996), (-0.07500076, -3.8, 6), (-0.07151413, -3.623256, 5.72093), (3.928173, -3.623256, 5.770926), (3.924686, -3.623256, 6.049996), (-0.07500076, -3.623256, 6), (-0.07151413, -3.446512, 5.72093), (3.928173, -3.446512, 5.770926), (3.928173, -3.623256, 5.770926), (-0.07151413, -3.623256, 5.72093), (-0.06802368, -3.446512, 5.44186), (3.931664, -3.446512, 5.491857), (3.928173, -3.446512, 5.770926), (-0.07151413, -3.446512, 5.72093), (-0.06802368, -3.269767, 5.44186), (3.931664, -3.269767, 5.491857), (3.931664, -3.446512, 5.491857), (-0.06802368, -3.446512, 5.44186), (-0.06453705, -3.269767, 5.162791), (3.93515, -3.269767, 5.212787), (3.931664, -3.269767, 5.491857), (-0.06802368, -3.269767, 5.44186), (-0.06453705, -3.093023, 5.162791), (3.93515, -3.093023, 5.212787), (3.93515, -3.269767, 5.212787), (-0.06453705, -3.269767, 5.162791), (-0.0610466, -3.093023, 4.883721), (3.938641, -3.093023, 4.933717), (3.93515, -3.093023, 5.212787), (-0.06453705, -3.093023, 5.162791), (-0.0610466, -2.916279, 4.883721), (3.938641, -2.916279, 4.933717), (3.938641, -3.093023, 4.933717), (-0.0610466, -3.093023, 4.883721), (-0.05755997, -2.916279, 4.604651), (3.942127, -2.916279, 4.654647), (3.938641, -2.916279, 4.933717), (-0.0610466, -2.916279, 4.883721), (-0.05755997, -2.739535, 4.604651), (3.942127, -2.739535, 4.654647), (3.942127, -2.916279, 4.654647), (-0.05755997, -2.916279, 4.604651), (-0.05406952, -2.739535, 4.325582), (3.945618, -2.739535, 4.375578), (3.942127, -2.739535, 4.654647), (-0.05755997, -2.739535, 4.604651), (-0.05406952, -2.562791, 4.325582), (3.945618, -2.562791, 4.375578), (3.945618, -2.739535, 4.375578), (-0.05406952, -2.739535, 4.325582), (-0.05058289, -2.562791, 4.046512), (3.949104, -2.562791, 4.096508), (3.945618, -2.562791, 4.375578), (-0.05406952, -2.562791, 4.325582), (-0.05058289, -2.386046, 4.046512), (3.949104, -2.386046, 4.096508), (3.949104, -2.562791, 4.096508), (-0.05058289, -2.562791, 4.046512), (-0.04709244, -2.386046, 3.767442), (3.952595, -2.386046, 3.817438), (3.949104, -2.386046, 4.096508), (-0.05058289, -2.386046, 4.046512), (-0.04709244, -2.209302, 3.767442), (3.952595, -2.209302, 3.817438), (3.952595, -2.386046, 3.817438), (-0.04709244, -2.386046, 3.767442), (-0.0436058, -2.209302, 3.488372), (3.956081, -2.209302, 3.538368), (3.952595, -2.209302, 3.817438), (-0.04709244, -2.209302, 3.767442), (-0.0436058, -2.032558, 3.488372), (3.956081, -2.032558, 3.538368), (3.956081, -2.209302, 3.538368), (-0.0436058, -2.209302, 3.488372), (-0.04011536, -2.032558, 3.209302), (3.959572, -2.032558, 3.259298), (3.956081, -2.032558, 3.538368), (-0.0436058, -2.032558, 3.488372), (-0.04011536, -1.855814, 3.209302), (3.959572, -1.855814, 3.259298), (3.959572, -2.032558, 3.259298), (-0.04011536, -2.032558, 3.209302), (-0.03662872, -1.855814, 2.930233), (3.963058, -1.855814, 2.980229), (3.959572, -1.855814, 3.259298), (-0.04011536, -1.855814, 3.209302), (-0.03662872, -1.67907, 2.930233), (3.963058, -1.67907, 2.980229), (3.963058, -1.855814, 2.980229), (-0.03662872, -1.855814, 2.930233), (-0.03313828, -1.67907, 2.651163), (3.966549, -1.67907, 2.701159), (3.963058, -1.67907, 2.980229), (-0.03662872, -1.67907, 2.930233), (-0.03313828, -1.502326, 2.651163), (3.966549, -1.502326, 2.701159), (3.966549, -1.67907, 2.701159), (-0.03313828, -1.67907, 2.651163), (-0.02965164, -1.502326, 2.372093), (3.970036, -1.502326, 2.42209), (3.966549, -1.502326, 2.701159), (-0.03313828, -1.502326, 2.651163), (-0.02965164, -1.325582, 2.372093), (3.970036, -1.325582, 2.42209), (3.970036, -1.502326, 2.42209), (-0.02965164, -1.502326, 2.372093), (-0.02616119, -1.325582, 2.093023), (3.973526, -1.325582, 2.14302), (3.970036, -1.325582, 2.42209), (-0.02965164, -1.325582, 2.372093), (-0.02616119, -1.148837, 2.093023), (3.973526, -1.148837, 2.14302), (3.973526, -1.325582, 2.14302), (-0.02616119, -1.325582, 2.093023), (-0.02267456, -1.148837, 1.813953), (3.977013, -1.148837, 1.86395), (3.973526, -1.148837, 2.14302), (-0.02616119, -1.148837, 2.093023), (-0.02267456, -0.9720931, 1.813953), (3.977013, -0.9720931, 1.86395), (3.977013, -1.148837, 1.86395), (-0.02267456, -1.148837, 1.813953), (-0.01918793, -0.9720931, 1.534883), (3.980499, -0.9720931, 1.58488), (3.977013, -0.9720931, 1.86395), (-0.02267456, -0.9720931, 1.813953), (-0.01918793, -0.7953489, 1.534883), (3.980499, -0.7953489, 1.58488), (3.980499, -0.9720931, 1.58488), (-0.01918793, -0.9720931, 1.534883), (-0.01569748, -0.7953489, 1.255814), (3.98399, -0.7953489, 1.30581), (3.980499, -0.7953489, 1.58488), (-0.01918793, -0.7953489, 1.534883), (-0.01569748, -0.6186047, 1.255814), (3.98399, -0.6186047, 1.30581), (3.98399, -0.7953489, 1.30581), (-0.01569748, -0.7953489, 1.255814), (-0.01221085, -0.6186047, 0.9767437), (3.987476, -0.6186047, 1.02674), (3.98399, -0.6186047, 1.30581), (-0.01569748, -0.6186047, 1.255814), (-0.01221085, -0.4418607, 0.9767437), (3.987476, -0.4418607, 1.02674), (3.987476, -0.6186047, 1.02674), (-0.01221085, -0.6186047, 0.9767437), (-0.008720398, -0.4418607, 0.6976738), (3.990967, -0.4418607, 0.7476702), (3.987476, -0.4418607, 1.02674), (-0.01221085, -0.4418607, 0.9767437), (-0.008720398, -0.2651165, 0.6976738), (3.990967, -0.2651165, 0.7476702), (3.990967, -0.4418607, 0.7476702), (-0.008720398, -0.4418607, 0.6976738), (-0.005233765, -0.2651165, 0.4186039), (3.994453, -0.2651165, 0.4686003), (3.990967, -0.2651165, 0.7476702), (-0.008720398, -0.2651165, 0.6976738), (-0.005233765, -0.08837223, 0.4186039), (3.994453, -0.08837223, 0.4686003), (3.994453, -0.2651165, 0.4686003), (-0.005233765, -0.2651165, 0.4186039), (-0.001743317, -0.08837223, 0.139534), (3.997944, -0.08837223, 0.1895304), (3.994453, -0.08837223, 0.4686003), (-0.005233765, -0.08837223, 0.4186039), (-0.001743317, 0.08837199, 0.139534), (3.997944, 0.08837199, 0.1895304), (3.997944, -0.08837223, 0.1895304), (-0.001743317, -0.08837223, 0.139534), (0.001743317, 0.08837199, -0.139535), (4.001431, 0.08837199, -0.08953857), (3.997944, 0.08837199, 0.1895304), (-0.001743317, 0.08837199, 0.139534), (0.001743317, 0.265116, -0.139535), (4.001431, 0.265116, -0.08953857), (4.001431, 0.08837199, -0.08953857), (0.001743317, 0.08837199, -0.139535), (0.005233765, 0.265116, -0.4186049), (4.004921, 0.265116, -0.3686085), (4.001431, 0.265116, -0.08953857), (0.001743317, 0.265116, -0.139535), (0.005233765, 0.4418604, -0.4186049), (4.004921, 0.4418604, -0.3686085), (4.004921, 0.265116, -0.3686085), (0.005233765, 0.265116, -0.4186049), (0.008720398, 0.4418604, -0.6976748), (4.008408, 0.4418604, -0.6476784), (4.004921, 0.4418604, -0.3686085), (0.005233765, 0.4418604, -0.4186049), (0.008720398, 0.6186044, -0.6976748), (4.008408, 0.6186044, -0.6476784), (4.008408, 0.4418604, -0.6476784), (0.008720398, 0.4418604, -0.6976748), (0.01221085, 0.6186044, -0.9767447), (4.011898, 0.6186044, -0.9267483), (4.008408, 0.6186044, -0.6476784), (0.008720398, 0.6186044, -0.6976748), (0.01221085, 0.7953489, -0.9767447), (4.011898, 0.7953489, -0.9267483), (4.011898, 0.6186044, -0.9267483), (0.01221085, 0.6186044, -0.9767447), (0.01569748, 0.7953489, -1.255815), (4.015385, 0.7953489, -1.205818), (4.011898, 0.7953489, -0.9267483), (0.01221085, 0.7953489, -0.9767447), (0.01569748, 0.9720929, -1.255815), (4.015385, 0.9720929, -1.205818), (4.015385, 0.7953489, -1.205818), (0.01569748, 0.7953489, -1.255815), (0.01918793, 0.9720929, -1.534883), (4.018875, 0.9720929, -1.484887), (4.015385, 0.9720929, -1.205818), (0.01569748, 0.9720929, -1.255815), (0.01918793, 1.148837, -1.534883), (4.018875, 1.148837, -1.484887), (4.018875, 0.9720929, -1.484887), (0.01918793, 0.9720929, -1.534883), (0.02267456, 1.148837, -1.813953), (4.022362, 1.148837, -1.763957), (4.018875, 1.148837, -1.484887), (0.01918793, 1.148837, -1.534883), (0.02267456, 1.325581, -1.813953), (4.022362, 1.325581, -1.763957), (4.022362, 1.148837, -1.763957), (0.02267456, 1.148837, -1.813953), (0.02616119, 1.325581, -2.093023), (4.025848, 1.325581, -2.043027), (4.022362, 1.325581, -1.763957), (0.02267456, 1.325581, -1.813953), (0.02616119, 1.502325, -2.093023), (4.025848, 1.502325, -2.043027), (4.025848, 1.325581, -2.043027), (0.02616119, 1.325581, -2.093023), (0.02965164, 1.502325, -2.372093), (4.029339, 1.502325, -2.322097), (4.025848, 1.502325, -2.043027), (0.02616119, 1.502325, -2.093023), (0.02965164, 1.67907, -2.372093), (4.029339, 1.67907, -2.322097), (4.029339, 1.502325, -2.322097), (0.02965164, 1.502325, -2.372093), (0.03313828, 1.67907, -2.651163), (4.032825, 1.67907, -2.601167), (4.029339, 1.67907, -2.322097), (0.02965164, 1.67907, -2.372093), (0.03313828, 1.855814, -2.651163), (4.032825, 1.855814, -2.601167), (4.032825, 1.67907, -2.601167), (0.03313828, 1.67907, -2.651163), (0.03662872, 1.855814, -2.930233), (4.036316, 1.855814, -2.880237), (4.032825, 1.855814, -2.601167), (0.03313828, 1.855814, -2.651163), (0.03662872, 2.032558, -2.930233), (4.036316, 2.032558, -2.880237), (4.036316, 1.855814, -2.880237), (0.03662872, 1.855814, -2.930233), (0.04011536, 2.032558, -3.209303), (4.039803, 2.032558, -3.159307), (4.036316, 2.032558, -2.880237), (0.03662872, 2.032558, -2.930233), (0.04011536, 2.209302, -3.209303), (4.039803, 2.209302, -3.159307), (4.039803, 2.032558, -3.159307), (0.04011536, 2.032558, -3.209303), (0.0436058, 2.209302, -3.488373), (4.043293, 2.209302, -3.438376), (4.039803, 2.209302, -3.159307), (0.04011536, 2.209302, -3.209303), (0.0436058, 2.386046, -3.488373), (4.043293, 2.386046, -3.438376), (4.043293, 2.209302, -3.438376), (0.0436058, 2.209302, -3.488373), (0.04709244, 2.386046, -3.767443), (4.04678, 2.386046, -3.717446), (4.043293, 2.386046, -3.438376), (0.0436058, 2.386046, -3.488373), (0.04709244, 2.562791, -3.767443), (4.04678, 2.562791, -3.717446), (4.04678, 2.386046, -3.717446), (0.04709244, 2.386046, -3.767443), (0.05058289, 2.562791, -4.046513), (4.05027, 2.562791, -3.996516), (4.04678, 2.562791, -3.717446), (0.04709244, 2.562791, -3.767443), (0.05058289, 2.739535, -4.046513), (4.05027, 2.739535, -3.996516), (4.05027, 2.562791, -3.996516), (0.05058289, 2.562791, -4.046513), (0.05406952, 2.739535, -4.325581), (4.053757, 2.739535, -4.275583), (4.05027, 2.739535, -3.996516), (0.05058289, 2.739535, -4.046513), (0.05406952, 2.916279, -4.325581), (4.053757, 2.916279, -4.275583), (4.053757, 2.739535, -4.275583), (0.05406952, 2.739535, -4.325581), (0.05755997, 2.916279, -4.604652), (4.057247, 2.916279, -4.554655), (4.053757, 2.916279, -4.275583), (0.05406952, 2.916279, -4.325581), (0.05755997, 3.093023, -4.604652), (4.057247, 3.093023, -4.554655), (4.057247, 2.916279, -4.554655), (0.05755997, 2.916279, -4.604652), (0.0610466, 3.093023, -4.88372), (4.060734, 3.093023, -4.833723), (4.057247, 3.093023, -4.554655), (0.05755997, 3.093023, -4.604652), (0.0610466, 3.269767, -4.88372), (4.060734, 3.269767, -4.833723), (4.060734, 3.093023, -4.833723), (0.0610466, 3.093023, -4.88372), (0.06453705, 3.269767, -5.162792), (4.064224, 3.269767, -5.112795), (4.060734, 3.269767, -4.833723), (0.0610466, 3.269767, -4.88372), (0.06453705, 3.446512, -5.162792), (4.064224, 3.446512, -5.112795), (4.064224, 3.269767, -5.112795), (0.06453705, 3.269767, -5.162792), (0.06802368, 3.446512, -5.44186), (4.067711, 3.446512, -5.391863), (4.064224, 3.446512, -5.112795), (0.06453705, 3.446512, -5.162792), (0.06802368, 3.623255, -5.44186), (4.067711, 3.623255, -5.391863), (4.067711, 3.446512, -5.391863), (0.06802368, 3.446512, -5.44186), (0.07151413, 3.623255, -5.720932), (4.071201, 3.623255, -5.670935), (4.067711, 3.623255, -5.391863), (0.06802368, 3.623255, -5.44186), (0.07151413, 3.799999, -5.720932), (4.071201, 3.799999, -5.670935), (4.071201, 3.623255, -5.670935), (0.07151413, 3.623255, -5.720932), (0.07500076, 3.8, -6), (4.074688, 3.8, -5.950003), (4.071201, 3.799999, -5.670935), (0.07151413, 3.799999, -5.720932)]
		float2[] primvars:st = [(0, 0), (1, 0), (0.9767442, 0.02325581), (0, 0), (0.9767442, 0.02325581), (0.9534882, 0.04651163), (0.9534882, 0.04651163), (0.9302325, 0.06976744), (0, 0), (0.9302325, 0.06976744), (0.9069767, 0.09302326), (0, 0), (0.9069767, 0.09302326), (0.8837208, 0.1162791), (0, 0), (0.8837208, 0.1162791), (0.860465, 0.1395349), (0, 0), (0.860465, 0.1395349), (0.8372093, 0.1627907), (0, 0), (0.8372093, 0.1627907), (0.8139535, 0.1860465), (0, 0), (0.8139535, 0.1860465), (0.7906975, 0.2093023), (0, 0), (0.7906975, 0.2093023), (0.7674417, 0.2325581), (0, 0), (0.7674417, 0.2325581), (0.7441859, 0.255814), (0, 0), (0.7441859, 0.255814), (0.7209302, 0.2790698), (0, 0), (0.7209302, 0.2790698), (0.6976744, 0.3023256), (0, 0), (0.6976744, 0.3023256), (0.6744186, 0.3255814), (0, 0), (0.6744186, 0.3255814), (0.6511626, 0.3488372), (0, 0), (0.6511626, 0.3488372), (0.6279068, 0.372093), (0, 0), (0.6279068, 0.372093), (0.604651, 0.3953488), (0, 0), (0.604651, 0.3953488), (0.5813952, 0.4186046), (0, 0), (0.5813952, 0.4186046), (0.5581394, 0.4418604), (0, 0), (0.5581394, 0.4418604), (0.5348835, 0.4651163), (0, 0), (0.5348835, 0.4651163), (0.5116277, 0.4883721), (0, 0), (0.5116277, 0.4883721), (0.488372, 0.5116279), (0, 0), (0.488372, 0.5116279), (0.4651162, 0.5348837), (0, 0), (0.4651162, 0.5348837), (0.4418603, 0.5581395), (0, 0), (0.4418603, 0.5581395), (0.4186045, 0.5813953), (0, 0), (0.4186045, 0.5813953), (0.3953487, 0.6046512), (0, 0), (0.3953487, 0.6046512), (0.3720929, 0.627907), (0, 0), (0.3720929, 0.627907), (0.3488371, 0.6511627), (0, 0), (0.3488371, 0.6511627), (0.3255813, 0.6744186), (0, 0), (0.3255813, 0.6744186), (0.3023254, 0.6976744), (0, 0), (0.3023254, 0.6976744), (0.2790696, 0.7209302), (0, 0), (0.2790696, 0.7209302), (0.2558137, 0.744186), (0, 0), (0.2558137, 0.744186), (0.232558, 0.7674418), (0, 0), (0.232558, 0.7674418), (0.2093022, 0.7906976), (0, 0), (0.2093022, 0.7906976), (0.1860463, 0.8139535), (0, 0), (0.1860463, 0.8139535), (0.1627905, 0.8372093), (0, 0), (0.1627905, 0.8372093), (0.1395349, 0.8604651), (0, 0), (0.1395349, 0.8604651), (0.116279, 0.8837209), (0, 0), (0.116279, 0.8837209), (0.0930232, 0.9069767), (0, 0), (0.0930232, 0.9069767), (0.06976728, 0.9302325), (0, 0), (0.06976728, 0.9302325), (0.04651152, 0.9534883), (0, 0), (0.04651152, 0.9534883), (0.0232556, 0.9767442), (0, 0), (0.0232556, 0.9767442), (0, 1), (0, 0), (0.6744186, 0.3255814), (0.6744186, 0.3488372), (0.6511626, 0.3488372), (0.8139535, 0.1860465), (0.8139535, 0.2093023), (0.7906975, 0.2093023), (0.9767442, 0.02325581), (0.9767442, 0.04651163), (0.9534882, 0.04651163), (0.04651152, 0.9534883), (0.04651152, 0.9767442), (0.0232556, 0.9767442), (0.0930232, 0.9069767), (0.0930232, 0.9302325), (0.06976728, 0.9302325), (0.1395349, 0.8604651), (0.1395349, 0.8837209), (0.116279, 0.8837209), (0.1860463, 0.8139535), (0.1860463, 0.8372093), (0.1627905, 0.8372093), (0.232558, 0.7674418), (0.232558, 0.7906976), (0.2093022, 0.7906976), (0.3023254, 0.6976744), (0.3023254, 0.7209302), (0.2790696, 0.7209302), (0.3488371, 0.6511627), (0.3488371, 0.6744186), (0.3255813, 0.6744186), (0.4651162, 0.5348837), (0.4651162, 0.5581395), (0.4418603, 0.5581395), (0.5581394, 0.4418604), (0.5581394, 0.4651163), (0.5348835, 0.4651163), (0.6279068, 0.372093), (0.6279068, 0.3953488), (0.604651, 0.3953488), (0.6511626, 0.3488372), (0.6511626, 0.372093), (0.6279068, 0.372093), (0.8372093, 0.1627907), (0.8372093, 0.1860465), (0.8139535, 0.1860465), (0.9069767, 0.09302326), (0.9069767, 0.1162791), (0.8837208, 0.1162791), (0.9302325, 0.06976744), (0.9302325, 0.09302326), (0.9069767, 0.09302326), (1, 0), (1, 0.02325581), (0.9767442, 0.02325581), (0.7906975, 0.2093023), (0.7906975, 0.2325581), (0.7674417, 0.2325581), (0.2093022, 0.7906976), (0.2093022, 0.8139535), (0.1860463, 0.8139535), (0.2790696, 0.7209302), (0.2790696, 0.744186), (0.2558137, 0.744186), (0.3255813, 0.6744186), (0.3255813, 0.6976744), (0.3023254, 0.6976744), (0.3953487, 0.6046512), (0.3953487, 0.627907), (0.3720929, 0.627907), (0.4418603, 0.5581395), (0.4418603, 0.5813953), (0.4186045, 0.5813953), (0.488372, 0.5116279), (0.488372, 0.5348837), (0.4651162, 0.5348837), (0.5813952, 0.4186046), (0.5813952, 0.4418604), (0.5581394, 0.4418604), (0.6976744, 0.3023256), (0.6976744, 0.3255814), (0.6744186, 0.3255814), (0.860465, 0.1395349), (0.860465, 0.1627907), (0.8372093, 0.1627907), (0.06976728, 0.9302325), (0.06976728, 0.9534883), (0.04651152, 0.9534883), (0.116279, 0.8837209), (0.116279, 0.9069767), (0.0930232, 0.9069767), (0.4186045, 0.5813953), (0.4186045, 0.6046512), (0.3953487, 0.6046512), (0.5116277, 0.4883721), (0.5116277, 0.5116279), (0.488372, 0.5116279), (0.5348835, 0.4651163), (0.5348835, 0.4883721), (0.5116277, 0.4883721), (0.604651, 0.3953488), (0.604651, 0.4186046), (0.5813952, 0.4186046), (0.7209302, 0.2790698), (0.7209302, 0.3023256), (0.6976744, 0.3023256), (0.7441859, 0.255814), (0.7441859, 0.2790698), (0.7209302, 0.2790698), (0.7674417, 0.2325581), (0.7674417, 0.255814), (0.7441859, 0.255814), (0.8837208, 0.1162791), (0.8837208, 0.1395349), (0.860465, 0.1395349), (0.2558137, 0.744186), (0.2558137, 0.7674418), (0.232558, 0.7674418), (0.3720929, 0.627907), (0.3720929, 0.6511627), (0.3488371, 0.6511627), (0.9534882, 0.04651163), (0.9534882, 0.06976744), (0.9302325, 0.06976744), (0.0232556, 0.9767442), (0.0232556, 0.9999999), (0, 1), (0.1627905, 0.8372093), (0.1627905, 0.8604651), (0.1395349, 0.8604651), (0, 0), (0.04651163, 0.9534883), (0.02325581, 0.9767442), (0, 0), (0.02325581, 0.9767442), (0, 1), (0, 0), (0.06976744, 0.9302326), (0.04651163, 0.9534883), (0, 0), (0.09302326, 0.9069768), (0.06976744, 0.9302326), (0, 0), (0.1162791, 0.8837209), (0.09302326, 0.9069768), (0, 0), (0.1395349, 0.860465), (0.1162791, 0.8837209), (0, 0), (0.1627907, 0.8372092), (0.1395349, 0.860465), (0, 0), (0.1860465, 0.8139535), (0.1627907, 0.8372092), (0, 0), (0.2093023, 0.7906976), (0.1860465, 0.8139535), (0, 0), (0.2325581, 0.7674419), (0.2093023, 0.7906976), (0, 0), (0.255814, 0.7441862), (0.2325581, 0.7674419), (0, 0), (0.2790698, 0.7209303), (0.255814, 0.7441862), (0, 0), (0.3023256, 0.6976745), (0.2790698, 0.7209303), (0, 0), (0.3255814, 0.6744186), (0.3023256, 0.6976745), (0, 0), (0.3488372, 0.6511627), (0.3255814, 0.6744186), (0, 0), (0.372093, 0.627907), (0.3488372, 0.6511627), (0, 0), (0.3953488, 0.6046512), (0.372093, 0.627907), (0, 0), (0.4186046, 0.5813953), (0.3953488, 0.6046512), (0, 0), (0.4418604, 0.5581396), (0.4186046, 0.5813953), (0, 0), (0.4651163, 0.5348837), (0.4418604, 0.5581396), (0, 0), (0.4883721, 0.5116278), (0.4651163, 0.5348837), (0, 0), (0.5116279, 0.4883721), (0.4883721, 0.5116278), (0, 0), (0.5348837, 0.4651163), (0.5116279, 0.4883721), (0, 0), (0.5581395, 0.4418605), (0.5348837, 0.4651163), (0, 0), (0.5813953, 0.4186047), (0.5581395, 0.4418605), (0, 0), (0.6046512, 0.3953489), (0.5813953, 0.4186047), (0, 0), (0.627907, 0.372093), (0.6046512, 0.3953489), (0, 0), (0.6511627, 0.3488372), (0.627907, 0.372093), (0, 0), (0.6744186, 0.3255814), (0.6511627, 0.3488372), (0, 0), (0.6976744, 0.3023255), (0.6744186, 0.3255814), (0, 0), (0.7209302, 0.2790698), (0.6976744, 0.3023255), (0, 0), (0.744186, 0.2558139), (0.7209302, 0.2790698), (0, 0), (0.7674418, 0.2325581), (0.744186, 0.2558139), (0, 0), (0.7906976, 0.2093023), (0.7674418, 0.2325581), (0, 0), (0.8139535, 0.1860465), (0.7906976, 0.2093023), (0, 0), (0.8372093, 0.1627906), (0.8139535, 0.1860465), (0, 0), (0.8604651, 0.139535), (0.8372093, 0.1627906), (0, 0), (0.8837209, 0.1162789), (0.8604651, 0.139535), (0, 0), (0.9069767, 0.09302334), (0.8837209, 0.1162789), (0, 0), (0.9302325, 0.06976742), (0.9069767, 0.09302334), (0, 0), (0.9534883, 0.04651167), (0.9302325, 0.06976742), (0, 0), (0.9767442, 0.02325575), (0.9534883, 0.04651167), (0, 0), (1, 0), (0.9767442, 0.02325575), (0.8837209, 0.1162789), (0.8837209, 0.139535), (0.8604651, 0.139535), (0.8372093, 0.1627906), (0.8372093, 0.1860465), (0.8139535, 0.1860465), (0.3488372, 0.6511627), (0.3488372, 0.6744186), (0.3255814, 0.6744186), (0.4186046, 0.5813953), (0.4186046, 0.6046512), (0.3953488, 0.6046512), (0.4883721, 0.5116278), (0.4883721, 0.5348837), (0.4651163, 0.5348837), (0.1162791, 0.8837209), (0.1162791, 0.9069768), (0.09302326, 0.9069768), (0.9302325, 0.06976742), (0.9302325, 0.09302334), (0.9069767, 0.09302334), (0.9767442, 0.02325575), (0.9767442, 0.04651167), (0.9534883, 0.04651167), (0.6046512, 0.3953489), (0.6046512, 0.4186047), (0.5813953, 0.4186047), (0.6744186, 0.3255814), (0.6744186, 0.3488372), (0.6511627, 0.3488372), (0.7906976, 0.2093023), (0.7906976, 0.2325581), (0.7674418, 0.2325581), (0.2093023, 0.7906976), (0.2093023, 0.8139535), (0.1860465, 0.8139535), (0.2790698, 0.7209303), (0.2790698, 0.7441862), (0.255814, 0.7441862), (0.3023256, 0.6976745), (0.3023256, 0.7209303), (0.2790698, 0.7209303), (0.4651163, 0.5348837), (0.4651163, 0.5581396), (0.4418604, 0.5581396), (0.02325581, 0.9767442), (0.02325581, 1), (0, 1), (0.04651163, 0.9534883), (0.04651163, 0.9767442), (0.02325581, 0.9767442), (0.09302326, 0.9069768), (0.09302326, 0.9302326), (0.06976744, 0.9302326), (0.3255814, 0.6744186), (0.3255814, 0.6976745), (0.3023256, 0.6976745), (0.5348837, 0.4651163), (0.5348837, 0.4883721), (0.5116279, 0.4883721), (0.5813953, 0.4186047), (0.5813953, 0.4418605), (0.5581395, 0.4418605), (0.627907, 0.372093), (0.627907, 0.3953489), (0.6046512, 0.3953489), (0.6511627, 0.3488372), (0.6511627, 0.372093), (0.627907, 0.372093), (0.6976744, 0.3023255), (0.6976744, 0.3255814), (0.6744186, 0.3255814), (0.744186, 0.2558139), (0.744186, 0.2790698), (0.7209302, 0.2790698), (0.7674418, 0.2325581), (0.7674418, 0.2558139), (0.744186, 0.2558139), (0.1395349, 0.860465), (0.1395349, 0.8837209), (0.1162791, 0.8837209), (0.1860465, 0.8139535), (0.1860465, 0.8372092), (0.1627907, 0.8372092), (0.1627907, 0.8372092), (0.1627907, 0.860465), (0.1395349, 0.860465), (0.5581395, 0.4418605), (0.5581395, 0.4651163), (0.5348837, 0.4651163), (0.7209302, 0.2790698), (0.7209302, 0.3023255), (0.6976744, 0.3023255), (0.9534883, 0.04651167), (0.9534883, 0.06976742), (0.9302325, 0.06976742), (1, 0), (0.9999999, 0.02325575), (0.9767442, 0.02325575), (0.255814, 0.7441862), (0.255814, 0.7674419), (0.2325581, 0.7674419), (0.372093, 0.627907), (0.372093, 0.6511627), (0.3488372, 0.6511627), (0.3953488, 0.6046512), (0.3953488, 0.627907), (0.372093, 0.627907), (0.2325581, 0.7674419), (0.2325581, 0.7906976), (0.2093023, 0.7906976), (0.4418604, 0.5581396), (0.4418604, 0.5813953), (0.4186046, 0.5813953), (0.8139535, 0.1860465), (0.8139535, 0.2093023), (0.7906976, 0.2093023), (0.06976744, 0.9302326), (0.06976744, 0.9534883), (0.04651163, 0.9534883), (0.5116279, 0.4883721), (0.5116279, 0.5116278), (0.4883721, 0.5116278), (0.9069767, 0.09302334), (0.9069767, 0.1162789), (0.8837209, 0.1162789), (0.8604651, 0.139535), (0.8604651, 0.1627906), (0.8372093, 0.1627906), (0, 0), (1, 0), (1, 1), (0, 0), (1, 1), (0, 1), (0, 0), (1, 0), (1, 1), (0, 0), (1, 1), (0, 0.9999999), (0, 0), (1, 0), (1, 1), (0, 0), (1, 1), (0, 1), (0, 0), (0.999999, 0), (1, 1), (0, 0), (1, 1), (9.536734E-07, 1), (0, 0), (1, 0), (1, 1), (0, 0), (1, 1), (0, 1), (0, 0), (1.000001, 0), (1, 1), (0, 0), (1, 1), (-9.536752E-07, 1), (0, 0), (1, 0), (1, 1), (0, 0), (1, 1), (0, 1), (0, 0), (0.999999, 0), (1, 1), (0, 0), (1, 1), (9.536734E-07, 1), (0, 0), (1, 0), (1, 1), (0, 0), (1, 1), (0, 1), (0, 0), (1.000001, 0), (1, 1), (0, 0), (1, 1), (-9.536752E-07, 1), (0, 0), (1, 0), (1, 1), (0, 0), (1, 1), (0, 1), (0, 0), (0.999999, 0), (1, 1), (0, 0), (1, 1), (9.536734E-07, 1), (0, 0), (1, 0), (1, 1), (0, 0), (1, 1), (0, 1), (0, 0), (1.000001, 0), (1, 1), (0, 0), (1, 1), (-9.536752E-07, 1), (0, 0), (1, 0), (1, 1), (0, 0), (1, 1), (0, 1), (0, 0), (0.999999, 0), (1, 1), (0, 0), (1, 1), (9.536734E-07, 1), (0, 0), (1, 0), (1, 1), (0, 0), (1, 1), (0, 1), (0, 0), (1.000001, 0), (1, 1), (0, 0), (1, 1), (-9.536752E-07, 1), (0, 0), (1, 0), (1, 1), (0, 0), (1, 1), (0, 1), (0, 0), (0.999999, 0), (1, 1), (0, 0), (1, 1), (9.536734E-07, 1), (0, 0), (1, 0), (1, 1), (0, 0), (1, 1), (0, 1), (0, 0), (1.000001, 0), (1, 1), (0, 0), (1, 1), (-9.536752E-07, 1), (0, 0), (1, 0), (1, 1), (0, 0), (1, 1), (0, 1), (0, 0), (0.999999, 0), (1, 1), (0, 0), (1, 1), (0, 1), (0, 0), (1, 0), (1, 1), (0, 0), (1, 1), (0, 1), (0, 0), (1.000001, 0), (1, 1), (0, 0), (1, 1), (0, 1), (0, 0), (1, 0), (1, 1), (0, 0), (1, 1), (0, 1), (0, 0), (1, 0), (1, 1), (0, 0), (1, 1), (0, 1), (0, 0), (1, 0), (1, 1), (0, 0), (1, 1), (0, 1), (0, 0), (1, 0), (1, 1), (0, 0), (1, 1), (0, 1), (0, 0), (1, 0), (1, 1), (0, 0), (1, 1), (0, 1), (0, 0), (1, 0), (1, 1), (0, 0), (1, 1), (0, 1), (0, 0), (1, 0), (1, 1), (0, 0), (1, 1), (0, 1), (0, 0), (0.999999, 0), (1, 1), (0, 0), (1, 1), (9.536734E-07, 1), (0, 0), (1, 0), (1, 1), (0, 0), (1, 1), (0, 1), (0, 0), (1.000001, 0), (1, 1), (0, 0), (1, 1), (-9.536752E-07, 1), (0, 0), (1, 0), (1, 1), (0, 0), (1, 1), (0, 1), (0, 0), (0.999999, 0), (1, 1), (0, 0), (1, 1), (9.536734E-07, 1), (0, 0), (1, 0), (1, 1), (0, 0), (1, 1), (0, 1), (0, 0), (1.000001, 0), (1, 1), (0, 0), (1, 1), (-9.536752E-07, 1), (0, 0), (1, 0), (1, 1), (0, 0), (1, 1), (0, 1), (0, 0), (0.999999, 0), (1, 1), (0, 0), (1, 1), (9.536734E-07, 1), (0, 0), (1, 0), (1, 1), (0, 0), (1, 1), (0, 1), (0, 0), (1.000001, 0), (1, 1), (0, 0), (1, 1), (-9.536752E-07, 1), (0, 0), (1, 0), (1, 1), (0, 0), (1, 1), (0, 1), (0, 0), (0.999999, 0), (1, 1), (0, 0), (1, 1), (9.536734E-07, 1), (0, 0), (1, 0), (1, 1), (0, 0), (1, 1), (0, 1), (0, 0), (1.000001, 0), (1, 1), (0, 0), (1, 1), (-9.536752E-07, 1), (0, 0), (1, 0), (1, 1), (0, 0), (1, 1), (0, 1), (0, 0), (0.999999, 0), (1, 1), (0, 0), (1, 1), (0, 1), (0, 0), (1, 0), (1, 1), (0, 0), (1, 1), (0, 1), (0, 0), (1.000001, 0), (1, 1), (0, 0), (1, 1), (0, 1), (0, 0), (1, 0), (1, 1), (0, 0), (1, 1), (0, 1), (0, 0), (1, 0), (1, 1), (0, 0), (1, 1), (0, 1), (0, 0), (1, 0), (1, 1), (0, 0), (1, 1), (0, 1), (0, 0), (1, 0), (1, 1), (0, 0), (1, 1), (0, 1), (0, 0), (1, 0), (1, 1), (0, 0), (1, 1), (0, 1), (0, 0), (1, 0), (1, 1), (0, 0), (1, 1), (0, 1), (0, 0), (1, 0), (1, 1), (0, 0), (1, 1), (0, 1), (0, 0), (0.999999, 0), (1, 1), (0, 0), (1, 1), (9.536734E-07, 1), (0, 0), (1, 0), (1, 1), (0, 0), (1, 1), (0, 1), (0, 0), (1.000001, 0), (1, 1), (0, 0), (1, 1), (-9.536752E-07, 1), (0, 0), (1, 0), (1, 1), (0, 0), (1, 1), (0, 1), (0, 0), (0.999999, 0), (1, 1), (0, 0), (1, 1), (9.536734E-07, 1), (0, 0), (1, 0), (1, 1), (0, 0), (1, 1), (0, 1), (0, 0), (1.000001, 0), (1, 1), (0, 0), (1, 1), (-9.536752E-07, 1), (0, 0), (1, 0), (1, 1), (0, 0), (1, 1), (0, 1), (0, 0), (0.999999, 0), (1, 1), (0, 0), (1, 1), (9.536734E-07, 1), (0, 0), (1, 0), (1, 1), (0, 0), (1, 1), (0, 1), (0, 0), (1.000001, 0), (1, 1), (0, 0), (1, 1), (-9.536752E-07, 1), (0, 0), (1, 0), (1, 1), (0, 0), (1, 1), (0, 1), (0, 0), (0.999999, 0), (1, 1), (0, 0), (1, 1), (9.536734E-07, 1), (0, 0), (1, 0), (1, 1), (0, 0), (1, 1), (0, 1), (0, 0), (1.000001, 0), (1, 1), (0, 0), (1, 1), (-9.536752E-07, 1), (0, 0), (1, 0), (1, 1), (0, 0), (1, 1), (0, 1), (0, 0), (0.999999, 0), (1, 1), (0, 0), (1, 1), (0, 1.000003), (0, 0), (1, 0), (1, 1), (0, 0), (1, 1), (0, 1), (0, 0), (1.000001, 0), (1, 1), (0, 0), (1, 1), (0, 1), (0, 0), (1, 0), (1, 1), (0, 0), (1, 1), (0, 1), (0, 0), (0.999999, 0), (1, 1), (0, 0), (1, 1), (0, 1), (0, 0), (1, 0), (1, 1), (0, 0), (1, 1), (0, 1), (0, 0), (1.000001, 0), (1, 1), (0, 0), (1, 1), (0, 1), (0, 0), (1, 0), (1, 1), (0, 0), (1, 1), (0, 1), (0, 0), (1, 0), (1, 1), (0, 0), (1, 1), (0, 1), (0, 0), (1, 0), (1, 1), (0, 0), (1, 1), (0, 1), (0, 0), (1, 0), (1, 1), (0, 0), (1, 1), (0, 1), (0, 0), (1, 0), (1, 1), (0, 0), (1, 1), (0, 1), (0, 0), (1, 0), (1, 1), (0, 0), (1, 1), (0, 1)](
			
			interpolation = "faceVarying"
		)
		
		
	}
	
}
