#usda 1.0 | Cygon
(
	defaultPrim = "World"
	upAxis = "Y"
	metersPerUnit = 1
)

def Xform "World"
{
	def Mesh "Stair_941e7fc1_751c_4374_ba1b_2f40c9652174"
	{
		int[] faceVertexCounts = [3, 3, 3, 3, 3, 3, 3, 3]
		int[] faceVertexIndices = [0, 1, 2, 3, 4, 5, 6, 7, 8, 6, 8, 9, 10, 11, 12, 10, 12, 13, 14, 15, 16, 14, 16, 17]
		uniform token orientation = "leftHanded"
		normal3f[] normals = [(-1, 0, 0), (-1, 0, 0), (-1, 0, 0), (1, 0, 0), (1, 0, 0), (1, 0, 0), (0, 0, 1), (0, 0, 1), (0, 0, 1), (0, 0, 1), (0, 0, 1), (0, 0, 1), (0, -1, 0), (0, -1, 0), (0, -1, 0), (0, -1, 0), (0, -1, 0), (0, -1, 0), (0, 0.9761871, -0.2169305), (0, 0.9761871, -0.2169305), (0, 0.9761871, -0.2169305), (0, 0.9761871, -0.2169305), (0, 0.9761871, -0.2169305), (0, 0.9761871, -0.2169305)](
			
			interpolation = "faceVarying"
		)
		
		point3f[] points = [(-0.3000011, -0.5, 2.25), (-0.3000011, -0.5, -2.25), (-0.3000011, 0.5, 2.25), (-1.907349E-06, -0.5, 2.25), (-1.907349E-06, 0.5, 2.25), (-1.907349E-06, -0.5, -2.25), (-0.2999992, 0.5, 2.25), (0, 0.5, 2.25), (0, -0.5, 2.25), (-0.2999992, -0.5, 2.25), (-0.2999992, -0.5, 2.25), (0, -0.5, 2.25), (0, -0.5, -2.25), (-0.2999992, -0.5, -2.25), (0, 0.5, 2.25), (-0.2999992, 0.5, 2.25), (-0.2999992, -0.5, -2.25), (0, -0.5, -2.25)]
		float2[] primvars:st = [(0, 0), (1, 0), (0, 1), (0, 0), (1, 0), (0, 1), (0, 0), (1, 0), (1, 1), (0, 0), (1, 1), (0, 1), (0, 0), (1, 0), (1, 1), (0, 0), (1, 1), (0, 1), (0, 0), (1, 0), (1, 1), (0, 0), (1, 1), (0, 1)](
			
			interpolation = "faceVarying"
		)
		
		
	}
	
}
