#usda 1.0 | Cygon
(
	defaultPrim = "World"
	upAxis = "Y"
	metersPerUnit = 1
)

def Xform "World"
{
	def Mesh "Stair_e828d498_7485_41e6_8605_2a7000d8889d"
	{
		int[] faceVertexCounts = [3, 3, 3, 3, 3, 3, 3, 3]
		int[] faceVertexIndices = [0, 1, 2, 3, 4, 5, 6, 7, 8, 6, 8, 9, 10, 11, 12, 10, 12, 13, 14, 15, 16, 14, 16, 17]
		uniform token orientation = "leftHanded"
		normal3f[] normals = [(-1, 0, 0), (-1, 0, 0), (-1, 0, 0), (1, 0, 0), (1, 0, 0), (1, 0, 0), (0, 0, 1), (0, 0, 1), (0, 0, 1), (0, 0, 1), (0, 0, 1), (0, 0, 1), (0, -0.9999999, 0), (0, -0.9999999, 0), (0, -0.9999999, 0), (0, -0.9999999, 0), (0, -0.9999999, 0), (0, -0.9999999, 0), (0, 0.9876356, -0.1567676), (0, 0.9876356, -0.1567676), (0, 0.9876356, -0.1567676), (0, 0.9876356, -0.1567676), (0, 0.9876356, -0.1567676), (0, 0.9876356, -0.1567676)](
			
			interpolation = "faceVarying"
		)
		
		point3f[] points = [(-0.3000011, -0.5000001, 3.15), (-0.3000011, -0.5000001, -3.15), (-0.3000011, 0.5000002, 3.15), (-1.907349E-06, -0.5, 3.15), (-1.907349E-06, 0.5000002, 3.15), (-1.907349E-06, -0.5, -3.15), (-0.2999992, 0.5000002, 3.15), (0, 0.5000002, 3.15), (0, -0.5, 3.15), (-0.2999992, -0.5, 3.15), (-0.2999992, -0.5, 3.15), (0, -0.5, 3.15), (0, -0.5, -3.15), (-0.2999992, -0.5, -3.15), (0, 0.5000002, 3.15), (-0.2999992, 0.5000002, 3.15), (-0.2999992, -0.5, -3.15), (0, -0.5, -3.15)]
		float2[] primvars:st = [(0, -1.192093E-07), (1, -1.192093E-07), (0, 1), (0, 0), (1, 0), (0, 1), (0, 0), (1, 0), (1, 1), (0, 0), (1, 1), (0, 1), (0, 0), (1, 0), (1, 1), (0, 0), (1, 1), (0, 1), (0, 0), (1, 0), (1, 1), (0, 0), (1, 1), (0, 1)](
			
			interpolation = "faceVarying"
		)
		
		
	}
	
}
