#usda 1.0 | Cygon
(
	defaultPrim = "World"
	upAxis = "Y"
	metersPerUnit = 1
)

def Xform "World"
{
	def Mesh "Stair_28356364_45bd_42f2_82f9_74a5527dedcc"
	{
		int[] faceVertexCounts = [3, 3, 3, 3, 3, 3, 3, 3, 3, 3, 3, 3, 3, 3, 3, 3, 3, 3, 3, 3, 3, 3, 3, 3, 3, 3, 3, 3, 3, 3, 3, 3, 3, 3, 3, 3, 3, 3, 3, 3, 3, 3, 3, 3, 3, 3, 3, 3, 3, 3, 3, 3, 3, 3]
		int[] faceVertexIndices = [0, 1, 8, 0, 8, 10, 10, 12, 0, 1, 6, 8, 8, 9, 10, 10, 11, 12, 1, 5, 6, 1, 4, 5, 1, 2, 4, 2, 3, 4, 12, 14, 0, 12, 13, 14, 6, 7, 8, 15, 16, 21, 15, 21, 23, 16, 19, 21, 23, 25, 15, 21, 22, 23, 25, 27, 15, 27, 29, 15, 27, 28, 29, 25, 26, 27, 16, 17, 19, 17, 18, 19, 19, 20, 21, 23, 24, 25, 30, 31, 32, 30, 32, 33, 34, 35, 36, 34, 36, 37, 38, 39, 40, 38, 40, 41, 42, 43, 44, 42, 44, 45, 46, 47, 48, 46, 48, 49, 50, 51, 52, 50, 52, 53, 54, 55, 56, 54, 56, 57, 58, 59, 60, 58, 60, 61, 62, 63, 64, 62, 64, 65, 66, 67, 68, 66, 68, 69, 70, 71, 72, 70, 72, 73, 74, 75, 76, 74, 76, 77, 78, 79, 80, 78, 80, 81, 82, 83, 84, 82, 84, 85]
		uniform token orientation = "leftHanded"
		normal3f[] normals = [(1, 0, 0), (0.9999999, 0, 0), (1, 0, 0), (1, 0, 0), (1, 0, 0), (1, 0, 0), (1, 0, 0), (1, 0, 0), (1, 0, 0), (0.9999999, 0, 0), (1, 0, 0), (1, 0, 0), (1, 0, 0), (1, 0, 0), (1, 0, 0), (1, 0, 0), (1, 0, 0), (1, 0, 0), (0.9999999, 0, 0), (1, 0, 0), (1, 0, 0), (0.9999999, 0, 0), (1, 0, 0), (1, 0, 0), (0.9999999, 0, 0), (1, 0, 0), (1, 0, 0), (1, 0, 0), (1, 0, 0), (1, 0, 0), (1, 0, 0), (1, 0, 0), (1, 0, 0), (1, 0, 0), (1, 0, 0), (1, 0, 0), (1, 0, 0), (1, 0, 0), (1, 0, 0), (-1, 0, 0), (-1, 0, 0), (-1, 0, 0), (-1, 0, 0), (-1, 0, 0), (-1, 0, 0), (-1, 0, 0), (-1, 0, 0), (-1, 0, 0), (-1, 0, 0), (-1, 0, 0), (-1, 0, 0), (-1, 0, 0), (-1, 0, 0), (-1, 0, 0), (-1, 0, 0), (-1, 0, 0), (-1, 0, 0), (-1, 0, 0), (-1, 0, 0), (-1, 0, 0), (-1, 0, 0), (-1, 0, 0), (-1, 0, 0), (-1, 0, 0), (-1, 0, 0), (-1, 0, 0), (-1, 0, 0), (-1, 0, 0), (-1, 0, 0), (-1, 0, 0), (-1, 0, 0), (-1, 0, 0), (-1, 0, 0), (-1, 0, 0), (-1, 0, 0), (-1, 0, 0), (-1, 0, 0), (-1, 0, 0), (0, 0, -0.9999999), (0, 0, -0.9999999), (0, 0, -0.9999999), (0, 0, -0.9999999), (0, 0, -0.9999999), (0, 0, -0.9999999), (0, -0.9701424, -0.2425357), (0, -0.9701424, -0.2425357), (0, -0.9701424, -0.2425357), (0, -0.9701424, -0.2425357), (0, -0.9701424, -0.2425357), (0, -0.9701424, -0.2425357), (0, 0, 0.9999999), (0, 0, 0.9999999), (0, 0, 0.9999999), (0, 0, 0.9999999), (0, 0, 0.9999999), (0, 0, 0.9999999), (0, 0.9999999, 0), (0, 0.9999999, 0), (0, 0.9999999, 0), (0, 0.9999999, 0), (0, 0.9999999, 0), (0, 0.9999999, 0), (0, 0, 1), (0, 0, 1), (0, 0, 1), (0, 0, 1), (0, 0, 1), (0, 0, 1), (0, 0.9999999, 0), (0, 0.9999999, 0), (0, 0.9999999, 0), (0, 0.9999999, 0), (0, 0.9999999, 0), (0, 0.9999999, 0), (0, 0, 1), (0, 0, 1), (0, 0, 1), (0, 0, 1), (0, 0, 1), (0, 0, 1), (0, 1, 0), (0, 1, 0), (0, 1, 0), (0, 1, 0), (0, 1, 0), (0, 1, 0), (0, 0, 1), (0, 0, 1), (0, 0, 1), (0, 0, 1), (0, 0, 1), (0, 0, 1), (0, 0.9999999, 0), (0, 0.9999999, 0), (0, 0.9999999, 0), (0, 0.9999999, 0), (0, 0.9999999, 0), (0, 0.9999999, 0), (0, 0, 1), (0, 0, 1), (0, 0, 1), (0, 0, 1), (0, 0, 1), (0, 0, 1), (0, 0.9999999, 0), (0, 0.9999999, 0), (0, 0.9999999, 0), (0, 0.9999999, 0), (0, 0.9999999, 0), (0, 0.9999999, 0), (0, 0, 1), (0, 0, 1), (0, 0, 1), (0, 0, 1), (0, 0, 1), (0, 0, 1), (0, 1, 0), (0, 1, 0), (0, 1, 0), (0, 1, 0), (0, 1, 0), (0, 1, 0)](
			
			interpolation = "faceVarying"
		)
		
		point3f[] points = [(-1.907349E-06, 0.2, -2), (-1.907349E-06, -0.5000001, 0.799999), (-1.907349E-06, -0.5, 2), (-1.907349E-06, -0.3333334, 2), (-1.907349E-06, -0.3333334, 1.333333), (-1.907349E-06, -0.1666667, 1.333333), (-1.907349E-06, -0.1666669, 0.6666665), (-1.907349E-06, 0, 0.6666665), (-1.907349E-06, 0, 1.192093E-07), (-1.907349E-06, 0.1666666, 1.192093E-07), (-1.907349E-06, 0.1666665, -0.6666668), (-1.907349E-06, 0.3333333, -0.6666667), (-1.907349E-06, 0.3333333, -1.333333), (-1.907349E-06, 0.5, -1.333333), (-1.907349E-06, 0.5, -2), (-5.000002, -0.5000001, 0.799999), (-5.000002, 0.2, -2), (-5.000002, 0.4999999, -2), (-5.000002, 0.5, -1.333333), (-5.000002, 0.3333333, -1.333333), (-5.000002, 0.3333333, -0.6666668), (-5.000002, 0.1666665, -0.6666668), (-5.000002, 0.1666667, 0), (-5.000002, 0, 0), (-5.000002, 0, 0.6666663), (-5.000002, -0.1666667, 0.6666665), (-5.000002, -0.1666667, 1.333333), (-5.000002, -0.3333334, 1.333333), (-5.000002, -0.3333334, 2), (-5.000002, -0.5000001, 2), (0, 0.5, -2), (-5, 0.5, -2), (-5, 0.2, -2), (0, 0.2, -2), (0, 0.2, -2), (-5, 0.2, -2), (-5, -0.5000001, 0.799999), (0, -0.5000001, 0.799999), (-5, -0.3333334, 2), (0, -0.3333334, 2), (0, -0.5000001, 2), (-5, -0.5000001, 2), (-5, -0.3333334, 1.333333), (0, -0.3333334, 1.333333), (0, -0.3333334, 2), (-5, -0.3333334, 2), (-5, -0.1666667, 1.333333), (0, -0.1666667, 1.333333), (0, -0.3333334, 1.333333), (-5, -0.3333334, 1.333333), (-5, -0.1666667, 0.6666665), (0, -0.1666667, 0.6666665), (0, -0.1666667, 1.333333), (-5, -0.1666667, 1.333333), (-5, 0, 0.6666665), (0, 0, 0.6666665), (0, -0.1666667, 0.6666665), (-5, -0.1666667, 0.6666665), (-5, 0, 0), (0, 0, 0), (0, 0, 0.6666665), (-5, 0, 0.6666665), (-5, 0.1666666, 0), (0, 0.1666666, 0), (0, 0, 0), (-5, 0, 0), (-5, 0.1666666, -0.6666667), (0, 0.1666666, -0.6666667), (0, 0.1666666, 0), (-5, 0.1666666, 0), (-5, 0.3333333, -0.6666667), (0, 0.3333333, -0.6666667), (0, 0.1666666, -0.6666667), (-5, 0.1666666, -0.6666667), (-5, 0.3333333, -1.333333), (0, 0.3333333, -1.333333), (0, 0.3333333, -0.6666667), (-5, 0.3333333, -0.6666667), (-5, 0.5, -1.333333), (0, 0.5, -1.333333), (0, 0.3333333, -1.333333), (-5, 0.3333333, -1.333333), (-5, 0.5, -2), (0, 0.5, -2), (0, 0.5, -1.333333), (-5, 0.5, -1.333333)]
		float2[] primvars:st = [(0.01764705, 0), (0.7176467, 0), (0.5, 0.6428571), (0.01764705, 0), (0.5, 0.6428571), (0.3333333, 0.6428564), (0.3333333, 0.6428564), (0.1666666, 0.6428564), (0.01764705, 0), (0.7176467, 0), (0.6666666, 0.6428566), (0.5, 0.6428571), (0.5, 0.6428571), (0.490196, 0.9999995), (0.3333333, 0.6428564), (0.3333333, 0.6428564), (0.3235294, 0.9999992), (0.1666666, 0.6428564), (0.7176467, 0), (0.8235294, 0.9999998), (0.6666666, 0.6428566), (0.7176467, 0), (0.8333332, 0.6428571), (0.8235294, 0.9999998), (0.7176467, 0), (0.9999999, 0.6428574), (0.8333332, 0.6428571), (0.9999999, 0.6428574), (0.990196, 1), (0.8333332, 0.6428571), (0.1666666, 0.6428564), (-1.445625E-08, 0.6428564), (0.01764705, 0), (0.1666666, 0.6428564), (0.1568627, 0.9999989), (-1.445625E-08, 0.6428564), (0.6666666, 0.6428566), (0.6568626, 0.9999995), (0.5, 0.6428571), (0.2823532, 0), (0.982353, 0), (0.6666667, 0.6428564), (0.2823532, 0), (0.6666667, 0.6428564), (0.5, 0.6428568), (0.982353, 0), (0.8333334, 0.6428564), (0.6666667, 0.6428564), (0.5, 0.6428568), (0.3333334, 0.6428568), (0.2823532, 0), (0.6666667, 0.6428564), (0.509804, 0.9999998), (0.5, 0.6428568), (0.3333334, 0.6428568), (0.1666667, 0.6428571), (0.2823532, 0), (0.1666667, 0.6428571), (0, 0.6428571), (0.2823532, 0), (0.1666667, 0.6428571), (0.00980394, 1), (0, 0.6428571), (0.3333334, 0.6428568), (0.1764706, 0.9999998), (0.1666667, 0.6428571), (0.982353, 0), (1, 0.6428561), (0.8333334, 0.6428564), (1, 0.6428561), (0.8431373, 0.9999989), (0.8333334, 0.6428564), (0.8333334, 0.6428564), (0.6764706, 0.9999989), (0.6666667, 0.6428564), (0.5, 0.6428568), (0.3431374, 0.9999995), (0.3333334, 0.6428568), (0, 0), (1, 0), (1, 1), (0, 0), (1, 1), (0, 1), (0, 0), (1, 0), (1, 1), (0, 0), (1, 1), (0, 1), (0, 0), (1, 0), (1, 1), (0, 0), (1, 1), (0, 1), (0, 0), (1, 0), (1, 1), (0, 0), (1, 1), (0, 1), (0, 0), (1, 0), (1, 1), (0, 0), (1, 1), (0, 1), (0, 0), (1, 0), (1, 1), (0, 0), (1, 1), (0, 1), (0, 0), (1, 0), (1, 1), (0, 0), (1, 1), (0, 1), (0, 0), (1, 0), (1, 1), (0, 0), (1, 1), (0, 1), (0, 0), (1, 0), (1, 1), (0, 0), (1, 1), (0, 1), (0, 0), (1, 0), (1, 1), (0, 0), (1, 1), (0, 1), (0, 0), (1, 0), (1, 1), (0, 0), (1, 1), (0, 1), (0, 0), (1, 0), (1, 1), (0, 0), (1, 1), (0, 1), (0, 0), (1, 0), (1, 1), (0, 0), (1, 1), (0, 1), (0, 0), (1, 0), (1, 1), (0, 0), (1, 1), (0, 1)](
			
			interpolation = "faceVarying"
		)
		
		
	}
	
}
