#usda 1.0 | Cygon
(
	defaultPrim = "World"
	upAxis = "Y"
	metersPerUnit = 1
)

def Xform "World"
{
	def Mesh "Stair_a09a9ac8_c0fa_4084_b156_56c34cb751bb"
	{
		int[] faceVertexCounts = [3, 3, 3, 3, 3, 3, 3, 3]
		int[] faceVertexIndices = [0, 1, 2, 3, 4, 5, 6, 7, 8, 6, 8, 9, 10, 11, 12, 10, 12, 13, 14, 15, 16, 14, 16, 17]
		uniform token orientation = "leftHanded"
		normal3f[] normals = [(0, 0, 1), (0, 0, 1), (0, 0, 1), (0, 0, -1), (0, 0, -1), (0, 0, -1), (1, 0, 0), (1, 0, 0), (1, 0, 0), (1, 0, 0), (1, 0, 0), (1, 0, 0), (0, -1, 0), (0, -1, 0), (0, -1, 0), (0, -1, 0), (0, -1, 0), (0, -1, 0), (-0.5734623, 0.8192319, 0), (-0.5734623, 0.8192319, 0), (-0.5734623, 0.8192319, 0), (-0.5734623, 0.8192319, 0), (-0.5734623, 0.8192319, 0), (-0.5734623, 0.8192319, 0)](
			
			interpolation = "faceVarying"
		)
		
		point3f[] points = [(2.5, -1.75, 0.2999992), (-2.5, -1.75, 0.2999992), (2.5, 1.75, 0.2999992), (2.5, -1.75, 0), (2.5, 1.75, 0), (-2.5, -1.75, 0), (2.5, 1.75, 0.2999992), (2.5, 1.75, 0), (2.5, -1.75, 0), (2.5, -1.75, 0.2999992), (2.5, -1.75, 0.2999992), (2.5, -1.75, 0), (-2.5, -1.75, 0), (-2.5, -1.75, 0.2999992), (2.5, 1.75, 0), (2.5, 1.75, 0.2999992), (-2.5, -1.75, 0.2999992), (-2.5, -1.75, 0)]
		float2[] primvars:st = [(0, 0), (1, 0), (0, 1), (0, 0), (1, 0), (0, 1), (0, 0), (1, 0), (1, 1), (0, 0), (1, 1), (0, 1), (0, 0), (1, 0), (1, 1), (0, 0), (1, 1), (0, 1), (0, 0), (1, 0), (1, 1), (0, 0), (1, 1), (0, 1)](
			
			interpolation = "faceVarying"
		)
		
		
	}
	
}
