#usda 1.0 | Cygon
(
	defaultPrim = "World"
	upAxis = "Y"
	metersPerUnit = 1
)

def Xform "World"
{
	def Mesh "Stair_06808d52_057d_4f15_8dc3_ce43341cc2cd"
	{
		int[] faceVertexCounts = [3, 3, 3, 3, 3, 3, 3, 3, 3, 3, 3, 3, 3, 3, 3, 3, 3, 3, 3, 3, 3, 3, 3, 3, 3, 3, 3, 3, 3, 3, 3, 3, 3, 3, 3, 3, 3, 3, 3, 3, 3, 3, 3, 3, 3, 3, 3, 3, 3, 3, 3, 3, 3, 3]
		int[] faceVertexIndices = [0, 1, 8, 0, 8, 10, 10, 12, 0, 1, 6, 8, 8, 9, 10, 12, 14, 0, 12, 13, 14, 1, 5, 6, 1, 4, 5, 1, 2, 4, 2, 3, 4, 10, 11, 12, 6, 7, 8, 15, 16, 21, 15, 21, 23, 16, 19, 21, 23, 25, 15, 21, 22, 23, 16, 17, 19, 17, 18, 19, 19, 20, 21, 25, 26, 15, 26, 27, 15, 27, 29, 15, 27, 28, 29, 23, 24, 25, 30, 31, 32, 30, 32, 33, 34, 35, 36, 34, 36, 37, 38, 39, 40, 38, 40, 41, 42, 43, 44, 42, 44, 45, 46, 47, 48, 46, 48, 49, 50, 51, 52, 50, 52, 53, 54, 55, 56, 54, 56, 57, 58, 59, 60, 58, 60, 61, 62, 63, 64, 62, 64, 65, 66, 67, 68, 66, 68, 69, 70, 71, 72, 70, 72, 73, 74, 75, 76, 74, 76, 77, 78, 79, 80, 78, 80, 81, 82, 83, 84, 82, 84, 85]
		uniform token orientation = "leftHanded"
		normal3f[] normals = [(-1, 0, 0), (-1, 0, 0), (-1, 0, 0), (-1, 0, 0), (-1, 0, 0), (-1, 0, 0), (-1, 0, 0), (-1, 0, 0), (-1, 0, 0), (-1, 0, 0), (-1, 0, 0), (-1, 0, 0), (-1, 0, 0), (-1, 0, 0), (-1, 0, 0), (-1, 0, 0), (-1, 0, 0), (-1, 0, 0), (-1, 0, 0), (-0.9999999, 0, 0), (-1, 0, 0), (-1, 0, 0), (-1, 0, 0), (-1, 0, 0), (-1, 0, 0), (-1, 0, 0), (-1, 0, 0), (-1, 0, 0), (-0.9999999, 0, 0), (-1, 0, 0), (-0.9999999, 0, 0), (-1, 0, 0), (-1, 0, 0), (-1, 0, 0), (-0.9999999, 0, 0), (-1, 0, 0), (-1, 0, 0), (-1, 0, 0), (-1, 0, 0), (0.9999999, 0, 0), (1, 0, 0), (1, 0, 0), (0.9999999, 0, 0), (1, 0, 0), (1, 0, 0), (1, 0, 0), (1, 0, 0), (1, 0, 0), (1, 0, 0), (1, 0, 0), (0.9999999, 0, 0), (1, 0, 0), (1, 0, 0), (1, 0, 0), (1, 0, 0), (1, 0, 0), (1, 0, 0), (1, 0, 0), (0.9999999, 0, 0), (1, 0, 0), (1, 0, 0), (0.9999999, 0, 0), (1, 0, 0), (1, 0, 0), (1, 0, 0), (0.9999999, 0, 0), (1, 0, 0), (1, 0, 0), (0.9999999, 0, 0), (1, 0, 0), (1, 0, 0), (0.9999999, 0, 0), (1, 0, 0), (1, 0, 0), (1, 0, 0), (1, 0, 0), (1, 0, 0), (1, 0, 0), (0, 0, 0.9999999), (0, 0, 0.9999999), (0, 0, 0.9999999), (0, 0, 0.9999999), (0, 0, 0.9999999), (0, 0, 0.9999999), (0, -0.9701425, 0.2425357), (0, -0.9701425, 0.2425357), (0, -0.9701425, 0.2425357), (0, -0.9701425, 0.2425357), (0, -0.9701425, 0.2425357), (0, -0.9701425, 0.2425357), (0, 0, -0.9999999), (0, 0, -0.9999999), (0, 0, -0.9999999), (0, 0, -0.9999999), (0, 0, -0.9999999), (0, 0, -0.9999999), (0, 1, 0), (0, 1, 0), (0, 1, 0), (0, 1, 0), (0, 1, 0), (0, 1, 0), (0, 0, -1), (0, 0, -1), (0, 0, -1), (0, 0, -1), (0, 0, -1), (0, 0, -1), (0, 1, 0), (0, 1, 0), (0, 1, 0), (0, 1, 0), (0, 1, 0), (0, 1, 0), (0, 0, -1), (0, 0, -1), (0, 0, -1), (0, 0, -1), (0, 0, -1), (0, 0, -1), (0, 1, 0), (0, 1, 0), (0, 1, 0), (0, 1, 0), (0, 1, 0), (0, 1, 0), (0, 0, -1), (0, 0, -1), (0, 0, -1), (0, 0, -1), (0, 0, -1), (0, 0, -1), (0, 0.9999999, 0), (0, 0.9999999, 0), (0, 0.9999999, 0), (0, 0.9999999, 0), (0, 0.9999999, 0), (0, 0.9999999, 0), (0, 0, -1), (0, 0, -1), (0, 0, -1), (0, 0, -1), (0, 0, -1), (0, 0, -1), (0, 0.9999999, 0), (0, 0.9999999, 0), (0, 0.9999999, 0), (0, 0.9999999, 0), (0, 0.9999999, 0), (0, 0.9999999, 0), (0, 0, -1), (0, 0, -1), (0, 0, -1), (0, 0, -1), (0, 0, -1), (0, 0, -1), (0, 1, 0), (0, 1, 0), (0, 1, 0), (0, 1, 0), (0, 1, 0), (0, 1, 0)](
			
			interpolation = "faceVarying"
		)
		
		point3f[] points = [(-5, 0.2, 2), (-5, -0.5000001, -0.7999992), (-5, -0.5, -2), (-5, -0.3333334, -2), (-5, -0.3333334, -1.333333), (-5, -0.1666667, -1.333334), (-5, -0.1666667, -0.666666), (-5, 0, -0.666667), (-5, -1.192093E-07, 0), (-5, 0.1666666, 0), (-5, 0.1666666, 0.6666667), (-5, 0.3333333, 0.6666667), (-5, 0.3333333, 1.333333), (-5, 0.5, 1.333333), (-5, 0.5, 2), (1.907349E-06, -0.5000001, -0.7999992), (1.907349E-06, 0.2, 2), (1.907349E-06, 0.4999998, 2), (1.907349E-06, 0.4999998, 1.333333), (1.907349E-06, 0.3333331, 1.333333), (1.907349E-06, 0.3333333, 0.6666667), (1.907349E-06, 0.1666666, 0.6666667), (1.907349E-06, 0.1666666, 0), (1.907349E-06, 0, 0), (1.907349E-06, 0, -0.6666665), (1.907349E-06, -0.1666667, -0.6666665), (1.907349E-06, -0.1666667, -1.333333), (1.907349E-06, -0.3333334, -1.333333), (1.907349E-06, -0.3333334, -2), (1.907349E-06, -0.5000001, -2), (-5, 0.5, 2), (0, 0.5, 2), (0, 0.2, 2), (-5, 0.2, 2), (-5, 0.2, 2), (0, 0.2, 2), (0, -0.5000001, -0.7999992), (-5, -0.5000001, -0.7999992), (0, -0.3333334, -2), (-5, -0.3333334, -2), (-5, -0.5000001, -2), (0, -0.5000001, -2), (0, -0.3333334, -1.333333), (-5, -0.3333334, -1.333333), (-5, -0.3333334, -2), (0, -0.3333334, -2), (0, -0.1666667, -1.333333), (-5, -0.1666667, -1.333333), (-5, -0.3333334, -1.333333), (0, -0.3333334, -1.333333), (0, -0.1666667, -0.6666665), (-5, -0.1666667, -0.6666665), (-5, -0.1666667, -1.333333), (0, -0.1666667, -1.333333), (0, 0, -0.6666665), (-5, 0, -0.6666665), (-5, -0.1666667, -0.6666665), (0, -0.1666667, -0.6666665), (0, 0, 0), (-5, 0, 0), (-5, 0, -0.6666665), (0, 0, -0.6666665), (0, 0.1666666, 0), (-5, 0.1666666, 0), (-5, 0, 0), (0, 0, 0), (0, 0.1666666, 0.6666667), (-5, 0.1666666, 0.6666667), (-5, 0.1666666, 0), (0, 0.1666666, 0), (0, 0.3333333, 0.6666667), (-5, 0.3333333, 0.6666667), (-5, 0.1666666, 0.6666667), (0, 0.1666666, 0.6666667), (0, 0.3333333, 1.333333), (-5, 0.3333333, 1.333333), (-5, 0.3333333, 0.6666667), (0, 0.3333333, 0.6666667), (0, 0.5, 1.333333), (-5, 0.5, 1.333333), (-5, 0.3333333, 1.333333), (0, 0.3333333, 1.333333), (0, 0.5, 2), (-5, 0.5, 2), (-5, 0.5, 1.333333), (0, 0.5, 1.333333)]
		float2[] primvars:st = [(0.01764709, 0), (0.7176468, 0), (0.5, 0.6428568), (0.01764709, 0), (0.5, 0.6428568), (0.3333333, 0.6428568), (0.3333333, 0.6428568), (0.1666667, 0.6428562), (0.01764709, 0), (0.7176468, 0), (0.6666664, 0.6428568), (0.5, 0.6428568), (0.5, 0.6428568), (0.490196, 0.9999995), (0.3333333, 0.6428568), (0.1666667, 0.6428562), (0, 0.6428562), (0.01764709, 0), (0.1666667, 0.6428562), (0.1568627, 0.9999989), (0, 0.6428562), (0.7176468, 0), (0.8235295, 1), (0.6666664, 0.6428568), (0.7176468, 0), (0.8333332, 0.6428568), (0.8235295, 1), (0.7176468, 0), (0.9999999, 0.6428573), (0.8333332, 0.6428568), (0.9999999, 0.6428573), (0.990196, 1), (0.8333332, 0.6428568), (0.3333333, 0.6428568), (0.3235294, 0.9999989), (0.1666667, 0.6428562), (0.6666664, 0.6428568), (0.6568628, 1), (0.5, 0.6428568), (0.2823532, 0), (0.9823531, 0), (0.6666668, 0.6428571), (0.2823532, 0), (0.6666668, 0.6428571), (0.5000001, 0.6428571), (0.9823531, 0), (0.8333334, 0.6428566), (0.6666668, 0.6428571), (0.5000001, 0.6428571), (0.3333335, 0.6428571), (0.2823532, 0), (0.6666668, 0.6428571), (0.509804, 1), (0.5000001, 0.6428571), (0.9823531, 0), (1, 0.6428561), (0.8333334, 0.6428566), (1, 0.6428561), (0.8431374, 0.9999989), (0.8333334, 0.6428566), (0.8333334, 0.6428566), (0.6764707, 0.9999995), (0.6666668, 0.6428571), (0.3333335, 0.6428571), (0.1764707, 1), (0.2823532, 0), (0.1764707, 1), (0.1666667, 0.6428576), (0.2823532, 0), (0.1666667, 0.6428576), (1.1565E-07, 0.6428576), (0.2823532, 0), (0.1666667, 0.6428576), (0.009803997, 1), (1.1565E-07, 0.6428576), (0.5000001, 0.6428571), (0.3431374, 1), (0.3333335, 0.6428571), (0, 0), (1, 0), (1, 1), (0, 0), (1, 1), (0, 1), (0, 0), (1, 0), (1, 1), (0, 0), (1, 1), (0, 1), (0, 0), (1, 0), (1, 1), (0, 0), (1, 1), (0, 1), (0, 0), (1, 0), (1, 1), (0, 0), (1, 1), (0, 1), (0, 0), (1, 0), (1, 1), (0, 0), (1, 1), (0, 1), (0, 0), (1, 0), (1, 1), (0, 0), (1, 1), (0, 1), (0, 0), (1, 0), (1, 1), (0, 0), (1, 1), (0, 1), (0, 0), (1, 0), (1, 1), (0, 0), (1, 1), (0, 1), (0, 0), (1, 0), (1, 1), (0, 0), (1, 1), (0, 1), (0, 0), (1, 0), (1, 1), (0, 0), (1, 1), (0, 1), (0, 0), (1, 0), (1, 1), (0, 0), (1, 1), (0, 1), (0, 0), (1, 0), (1, 1), (0, 0), (1, 1), (0, 1), (0, 0), (1, 0), (1, 1), (0, 0), (1, 1), (0, 1), (0, 0), (1, 0), (1, 1), (0, 0), (1, 1), (0, 1)](
			
			interpolation = "faceVarying"
		)
		
		
	}
	
}
