#usda 1.0 | Cygon
(
	defaultPrim = "World"
	upAxis = "Y"
	metersPerUnit = 1
)

def Xform "World"
{
	def Mesh "Stair_ce9bd57a_b191_42f6_a3eb_a0bc687541a5"
	{
		int[] faceVertexCounts = [3, 3, 3, 3, 3, 3, 3, 3]
		int[] faceVertexIndices = [0, 1, 2, 3, 4, 5, 6, 7, 8, 6, 8, 9, 10, 11, 12, 10, 12, 13, 14, 15, 16, 14, 16, 17]
		uniform token orientation = "leftHanded"
		normal3f[] normals = [(1, 0, 0), (1, 0, 0), (1, 0, 0), (-1, 0, 0), (-1, 0, 0), (-1, 0, 0), (0, 0, -1), (0, 0, -1), (0, 0, -1), (0, 0, -1), (0, 0, -1), (0, 0, -1), (0, -1, 0), (0, -1, 0), (0, -1, 0), (0, -1, 0), (0, -1, 0), (0, -1, 0), (0, 0.7808688, 0.6246951), (0, 0.7808688, 0.6246951), (0, 0.7808688, 0.6246951), (0, 0.7808688, 0.6246951), (0, 0.7808688, 0.6246951), (0, 0.7808688, 0.6246951)](
			
			interpolation = "faceVarying"
		)
		
		point3f[] points = [(0.2999992, -2, -2.5), (0.2999992, -2, 2.5), (0.2999992, 2, -2.5), (0, -2, -2.5), (0, 2, -2.5), (0, -2, 2.5), (0.2999992, 2, -2.5), (0, 2, -2.5), (0, -2, -2.5), (0.2999992, -2, -2.5), (0.2999992, -2, -2.5), (0, -2, -2.5), (0, -2, 2.5), (0.2999992, -2, 2.5), (0, 2, -2.5), (0.2999992, 2, -2.5), (0.2999992, -2, 2.5), (0, -2, 2.5)]
		float2[] primvars:st = [(0, 0), (1, 0), (0, 1), (0, 0), (1, 0), (0, 1), (0, 0), (1, 0), (1, 1), (0, 0), (1, 1), (0, 1), (0, 0), (1, 0), (1, 1), (0, 0), (1, 1), (0, 1), (0, 0), (1, 0), (1, 1), (0, 0), (1, 1), (0, 1)](
			
			interpolation = "faceVarying"
		)
		
		
	}
	
}
