#usda 1.0 | Cygon
(
	defaultPrim = "World"
	upAxis = "Y"
	metersPerUnit = 1
)

def Xform "World"
{
	def Mesh "Stair_f7c67a1e_a303_4600_bfb5_090439551a68"
	{
		int[] faceVertexCounts = [3, 3, 3, 3, 3, 3, 3, 3]
		int[] faceVertexIndices = [0, 1, 2, 3, 4, 5, 6, 7, 8, 6, 8, 9, 10, 11, 12, 10, 12, 13, 14, 15, 16, 14, 16, 17]
		uniform token orientation = "leftHanded"
		normal3f[] normals = [(-1, 0, 0), (-1, 0, 0), (-1, 0, 0), (1, 0, 0), (1, 0, 0), (1, 0, 0), (0, 0, 1), (0, 0, 1), (0, 0, 1), (0, 0, 1), (0, 0, 1), (0, 0, 1), (0, -1, 0), (0, -1, 0), (0, -1, 0), (0, -1, 0), (0, -1, 0), (0, -1, 0), (0, 0.9874255, -0.1580854), (0, 0.9874255, -0.1580854), (0, 0.9874255, -0.1580854), (0, 0.9874255, -0.1580854), (0, 0.9874255, -0.1580854), (0, 0.9874255, -0.1580854)](
			
			interpolation = "faceVarying"
		)
		
		point3f[] points = [(-0.2999973, -0.5, 3.123077), (-0.2999973, -0.5, -3.123077), (-0.2999973, 0.5, 3.123077), (0, -0.5, 3.123077), (0, 0.5, 3.123077), (0, -0.5, -3.123077), (-0.2999992, 0.5, 3.123077), (0, 0.5, 3.123077), (0, -0.5, 3.123077), (-0.2999992, -0.5, 3.123077), (-0.2999992, -0.5, 3.123077), (0, -0.5, 3.123077), (0, -0.5, -3.123077), (-0.2999992, -0.5, -3.123077), (0, 0.5, 3.123077), (-0.2999992, 0.5, 3.123077), (-0.2999992, -0.5, -3.123077), (0, -0.5, -3.123077)]
		float2[] primvars:st = [(0, 0), (1, 0), (0, 1), (0, 0), (1, 0), (0, 1), (0, 0), (1, 0), (1, 1), (0, 0), (1, 1), (0, 1), (0, 0), (1, 0), (1, 1), (0, 0), (1, 1), (0, 1), (0, 0), (1, 0), (1, 1), (0, 0), (1, 1), (0, 1)](
			
			interpolation = "faceVarying"
		)
		
		
	}
	
}
