#usda 1.0 | Cygon
(
	defaultPrim = "World"
	upAxis = "Y"
	metersPerUnit = 1
)

def Xform "World"
{
	def Mesh "Wall_52ca2891_381a_4b3b_a9f9_499cb5b24b7b"
	{
		int[] faceVertexCounts = [3, 3, 3, 3, 3, 3, 3, 3, 3, 3, 3, 3, 3, 3, 3, 3, 3, 3, 3, 3, 3, 3, 3, 3, 3, 3, 3, 3, 3, 3, 3, 3, 3, 3, 3, 3, 3, 3, 3, 3, 3, 3, 3, 3, 3, 3, 3, 3, 3, 3, 3, 3, 3, 3, 3, 3, 3, 3, 3, 3, 3, 3, 3, 3, 3, 3, 3, 3, 3, 3, 3, 3, 3, 3, 3, 3]
		int[] faceVertexIndices = [0, 1, 2, 0, 2, 3, 4, 5, 6, 4, 6, 7, 13, 19, 21, 19, 20, 21, 21, 12, 13, 21, 11, 12, 21, 10, 11, 21, 9, 10, 21, 22, 9, 13, 18, 19, 13, 14, 18, 14, 15, 18, 15, 17, 18, 22, 8, 9, 22, 23, 8, 15, 16, 17, 24, 25, 26, 24, 26, 27, 28, 29, 31, 28, 31, 32, 29, 30, 31, 35, 36, 44, 36, 43, 44, 36, 40, 43, 36, 39, 40, 36, 38, 39, 36, 37, 38, 44, 34, 35, 44, 45, 34, 40, 41, 43, 41, 42, 43, 45, 46, 34, 46, 33, 34, 46, 47, 33, 48, 49, 50, 48, 50, 51, 48, 51, 52, 48, 52, 53, 54, 55, 56, 54, 56, 57, 54, 57, 58, 59, 60, 61, 59, 61, 62, 59, 62, 63, 64, 65, 66, 64, 66, 67, 68, 69, 70, 68, 70, 71, 72, 73, 74, 72, 74, 75, 76, 77, 78, 76, 78, 79, 80, 81, 82, 80, 82, 83, 84, 85, 86, 84, 86, 87, 88, 89, 90, 88, 90, 91, 92, 93, 94, 92, 94, 95, 96, 97, 98, 96, 98, 99, 100, 101, 102, 100, 102, 103, 104, 105, 106, 104, 106, 107, 108, 109, 110, 108, 110, 111, 112, 113, 114, 112, 114, 115, 116, 117, 118, 116, 118, 119, 120, 121, 122, 120, 122, 123]
		uniform token orientation = "leftHanded"
		normal3f[] normals = [(1, 0, 0), (1, 0, 0), (1, 0, 0), (1, 0, 0), (1, 0, 0), (1, 0, 0), (1, 0, 0), (1, 0, 0), (1, 0, 0), (1, 0, 0), (1, 0, 0), (1, 0, 0), (1, 0, 0), (1, 0, 0), (1, 0, 0), (1, 0, 0), (1, 0, 0), (1, 0, 0), (1, 0, 0), (1, 0, 0), (1, 0, 0), (1, 0, 0), (1, 0, 0), (1, 0, 0), (1, 0, 0), (1, 0, 0), (1, 0, 0), (1, 0, 0), (1, 0, 0), (1, 0, 0), (1, 0, 0), (1, 0, 0), (1, 0, 0), (1, 0, 0), (1, 0, 0), (1, 0, 0), (1, 0, 0), (1, 0, 0), (1, 0, 0), (1, 0, 0), (1, 0, 0), (1, 0, 0), (1, 0, 0), (0.9999999, 0, 0), (1, 0, 0), (1, 0, 0), (1, 0, 0), (1, 0, 0), (1, 0, 0), (1, 0, 0), (1, 0, 0), (1, 0, 0), (1, 0, 0), (0.9999999, 0, 0), (-0.9999999, 0, 0), (-1, 0, 0), (-0.9999999, 0, 0), (-0.9999999, 0, 0), (-0.9999999, 0, 0), (-1, 0, 0), (-1, 0, 0), (-1, 0, 0), (-1, 0, 0), (-1, 0, 0), (-1, 0, 0), (-1, 0, 0), (-1, 0, 0), (-0.9999999, 0, 0), (-1, 0, 0), (-1, 0, 0), (-1, 0, 0), (-1, 0, 0), (-1, 0, 0), (-1, 0, 0), (-1, 0, 0), (-1, 0, 0), (-1, 0, 0), (-1, 0, 0), (-1, 0, 0), (-1, 0, 0), (-1, 0, 0), (-1, 0, 0), (-1, 0, 0), (-1, 0, 0), (-1, 0, 0), (-1, 0, 0), (-1, 0, 0), (-1, 0, 0), (-1, 0, 0), (-1, 0, 0), (-1, 0, 0), (-0.9999999, 0, 0), (-1, 0, 0), (-1, 0, 0), (-1, 0, 0), (-1, 0, 0), (-1, 0, 0), (-1, 0, 0), (-1, 0, 0), (-0.9999999, 0, 0), (-1, 0, 0), (-1, 0, 0), (-1, 0, 0), (-1, 0, 0), (-1, 0, 0), (-1, 0, 0), (-1, 0, 0), (-1, 0, 0), (0, 1, 0), (0, 0.9999999, 0), (0, 0.9999999, 0), (0, 1, 0), (0, 0.9999999, 0), (0, 1, 0), (0, 1, 0), (0, 1, 0), (0, 1, 0), (0, 1, 0), (0, 1, 0), (0, 1, 0), (0, -0.9999999, 0), (0, -1, 0), (0, -0.9999999, 0), (0, -0.9999999, 0), (0, -0.9999999, 0), (0, -0.9999999, 0), (0, -0.9999999, 0), (0, -0.9999999, 0), (0, -0.9999999, 0), (0, -1, 0), (0, -1, 0), (0, -1, 0), (0, -1, 0), (0, -1, 0), (0, -1, 0), (0, -1, 0), (0, -1, 0), (0, -1, 0), (-0.7071607, 0, -0.7070528), (-0.7071607, 0, -0.7070528), (-0.7071607, 0, -0.7070528), (-0.7071607, 0, -0.7070528), (-0.7071607, 0, -0.7070528), (-0.7071607, 0, -0.7070528), (0.7071652, 0, -0.7070484), (0.7071652, 0, -0.7070484), (0.7071652, 0, -0.7070484), (0.7071652, 0, -0.7070484), (0.7071652, 0, -0.7070484), (0.7071652, 0, -0.7070484), (-0.7070169, 0, 0.7071968), (-0.7070169, 0, 0.7071968), (-0.7070169, 0, 0.7071968), (-0.7070169, 0, 0.7071968), (-0.7070169, 0, 0.7071968), (-0.7070169, 0, 0.7071968), (0.7070213, 0, 0.7071922), (0.7070213, 0, 0.7071922), (0.7070213, 0, 0.7071922), (0.7070213, 0, 0.7071922), (0.7070213, 0, 0.7071922), (0.7070213, 0, 0.7071922), (0, -1, 0), (0, -1, 0), (0, -1, 0), (0, -1, 0), (0, -1, 0), (0, -1, 0), (0, 0, 1), (0, 0, 1), (0, 0, 1), (0, 0, 1), (0, 0, 1), (0, 0, 1), (0, 0, -1), (0, 0, -1), (0, 0, -1), (0, 0, -1), (0, 0, -1), (0, 0, -1), (0, -1, 0), (0, -1, 0), (0, -1, 0), (0, -1, 0), (0, -1, 0), (0, -1, 0), (0, 1, 0), (0, 1, 0), (0, 1, 0), (0, 1, 0), (0, 1, 0), (0, 1, 0), (0, 0, 1), (0, 0, 1), (0, 0, 1), (0, 0, 1), (0, 0, 1), (0, 0, 1), (0, 0, -1), (0, 0, -1), (0, 0, -1), (0, 0, -1), (0, 0, -1), (0, 0, -1), (0, -1, 0), (0, -1, 0), (0, -1, 0), (0, -1, 0), (0, -1, 0), (0, -1, 0), (0, 1, 0), (0, 1, 0), (0, 1, 0), (0, 1, 0), (0, 1, 0), (0, 1, 0), (0, 0, 1), (0, 0, 1), (0, 0, 1), (0, 0, 1), (0, 0, 1), (0, 0, 1), (0, 0, -1), (0, 0, -1), (0, 0, -1), (0, 0, -1), (0, 0, -1), (0, 0, -1)](
			
			interpolation = "faceVarying"
		)
		
		point3f[] points = [(0.1499977, 6.5, 3.999996), (0.1499977, 1.5, 3.999996), (0.1499977, 7.5, 4.850037), (0.1499977, 7.5, -4.849976), (0.1499958, 6.5, -3.500008), (0.1499958, 1.5, -3.500008), (0.1499958, 0, -2.000004), (0.1499958, 6.5, -2.000004), (0.1499958, 1.5, -3.500008), (0.1499958, 1.5, -4.500008), (0.1499958, 6.5, -4.500008), (0.1499958, 6.5, -3.500008), (0.1499958, 6.5, -2.000004), (0.1499958, 6.5, 1.999996), (0.1499958, 0, 1.999996), (0.1499958, 0, 4.850037), (0.1499958, 7.5, 4.850037), (0.1499958, 1.5, 3.999996), (0.1499958, 1.5, 2.999996), (0.1499958, 6.5, 2.999996), (0.1499958, 6.5, 3.999996), (0.1499958, 7.5, -4.849976), (0.1499958, 0, -4.849976), (0.1499958, 0, -2.000004), (-0.1500015, 1.5, 2.999996), (-0.1500015, 1.5, 3.999996), (-0.1500015, 0, 4.850037), (-0.1500015, 0, 1.999996), (-0.1500015, 6.5, -3.500008), (-0.1500015, 6.5, -4.500008), (-0.1500015, 1.5, -4.500008), (-0.1500015, 7.5, -4.849976), (-0.1500015, 7.5, 4.850037), (-0.1500015, 1.5, -4.500008), (-0.1500015, 1.5, -3.500008), (-0.1500015, 6.5, -3.500008), (-0.1500015, 7.5, 4.850037), (-0.1500015, 0, 4.850037), (-0.1500015, 1.5, 3.999996), (-0.1500015, 6.5, 3.999996), (-0.1500015, 6.5, 2.999996), (-0.1500015, 1.5, 2.999996), (-0.1500015, 0, 1.999996), (-0.1500015, 6.5, 1.999996), (-0.1500015, 6.5, -2.000004), (-0.1500015, 0, -2.000004), (-0.1500015, 0, -4.849976), (-0.1500015, 7.5, -4.849976), (0.1499996, 7.5, -4.849976), (0.1499996, 7.5, 4.850037), (0, 7.5, 5), (-0.1500015, 7.5, 4.850037), (-0.1500015, 7.5, -4.849976), (0, 7.5, -5), (0.1499996, 0, -4.849976), (0, 0, -5), (-0.1500015, 0, -4.849976), (-0.1500092, 0, -2.000004), (0.149992, 0, -2.000004), (0.149992, 0, 1.999996), (-0.1500092, 0, 1.999996), (-0.1500015, 0, 4.850037), (0, 0, 5), (0.1499996, 0, 4.850037), (-0.1500015, 0, -4.849976), (0, 0, -5), (0, 7.5, -5), (-0.1500015, 7.5, -4.849976), (0.1499996, 7.5, -4.849976), (0, 7.5, -5), (0, 0, -5), (0.1499996, 0, -4.849976), (-0.1500015, 7.5, 4.850037), (0, 7.5, 5), (0, 0, 5), (-0.1500015, 0, 4.850037), (0.1499996, 0, 4.850037), (0, 0, 5), (0, 7.5, 5), (0.1499996, 7.5, 4.850037), (-0.1500092, 6.5, -2.000004), (-0.1500092, 6.5, 1.999996), (0.149992, 6.5, 1.999996), (0.149992, 6.5, -2.000004), (-0.1500092, 6.5, -2.000004), (0.149992, 6.5, -2.000004), (0.149992, 0, -2.000004), (-0.1500092, 0, -2.000004), (0.149992, 6.5, 1.999996), (-0.1500092, 6.5, 1.999996), (-0.1500092, 0, 1.999996), (0.149992, 0, 1.999996), (-0.1500092, 6.5, 2.999996), (-0.1500092, 6.5, 3.999996), (0.149992, 6.5, 3.999996), (0.149992, 6.5, 2.999996), (0.149992, 1.5, 2.999996), (0.149992, 1.5, 3.999996), (-0.1500092, 1.5, 3.999996), (-0.1500092, 1.5, 2.999996), (-0.1500092, 6.5, 2.999996), (0.149992, 6.5, 2.999996), (0.149992, 1.5, 2.999996), (-0.1500092, 1.5, 2.999996), (0.149992, 6.5, 3.999996), (-0.1500092, 6.5, 3.999996), (-0.1500092, 1.5, 3.999996), (0.149992, 1.5, 3.999996), (-0.1500092, 6.5, -4.500008), (-0.1500092, 6.5, -3.500008), (0.149992, 6.5, -3.500008), (0.149992, 6.5, -4.500008), (0.149992, 1.5, -4.500008), (0.149992, 1.5, -3.500008), (-0.1500092, 1.5, -3.500008), (-0.1500092, 1.5, -4.500008), (-0.1500092, 6.5, -4.500008), (0.149992, 6.5, -4.500008), (0.149992, 1.5, -4.500008), (-0.1500092, 1.5, -4.500008), (0.149992, 6.5, -3.500008), (-0.1500092, 6.5, -3.500008), (-0.1500092, 1.5, -3.500008), (0.149992, 1.5, -3.500008)]
		float2[] primvars:st = [(0.912367, 0.8666667), (0.912367, 0.2), (1, 1), (0.912367, 0.8666667), (1, 1), (0, 1), (0.1391718, 0.8666667), (0.1391718, 0.2), (0.2938111, 0), (0.1391718, 0.8666667), (0.2938111, 0), (0.2938111, 0.8666667), (0.7061818, 0.8666667), (0.8092744, 0.8666667), (0, 1), (0.8092744, 0.8666667), (0.912367, 0.8666667), (0, 1), (0, 1), (0.2938111, 0.8666667), (0.7061818, 0.8666667), (0, 1), (0.1391718, 0.8666667), (0.2938111, 0.8666667), (0, 1), (0.03607912, 0.8666667), (0.1391718, 0.8666667), (0, 1), (0.03607912, 0.2), (0.03607912, 0.8666667), (0, 1), (0, 0), (0.03607912, 0.2), (0.7061818, 0.8666667), (0.8092744, 0.2), (0.8092744, 0.8666667), (0.7061818, 0.8666667), (0.7061818, 0), (0.8092744, 0.2), (0.7061818, 0), (1, 0), (0.8092744, 0.2), (1, 0), (0.912367, 0.2), (0.8092744, 0.2), (0, 0), (0.1391718, 0.2), (0.03607912, 0.2), (0, 0), (0.2938111, 0), (0.1391718, 0.2), (1, 0), (1, 1), (0.912367, 0.2), (0.8092744, 0.8), (0.912367, 0.8), (1, 1), (0.8092744, 0.8), (1, 1), (0.7061818, 1), (0.1391718, 0.1333333), (0.03607912, 0.1333333), (0, 0), (0.1391718, 0.1333333), (0, 0), (1, 0), (0.03607912, 0.1333333), (0.03607912, 0.8), (0, 0), (0.1391718, 0.1333333), (1, 0), (0.2938111, 0.1333333), (1, 0), (0.7061818, 0.1333333), (0.2938111, 0.1333333), (1, 0), (0.8092744, 0.1333333), (0.7061818, 0.1333333), (1, 0), (0.912367, 0.1333333), (0.8092744, 0.1333333), (1, 0), (0.912367, 0.8), (0.912367, 0.1333333), (1, 0), (1, 1), (0.912367, 0.8), (0.2938111, 0.1333333), (0.1391718, 0.8), (0.1391718, 0.1333333), (0.2938111, 0.1333333), (0.2938111, 1), (0.1391718, 0.8), (0.8092744, 0.1333333), (0.8092744, 0.8), (0.7061818, 0.1333333), (0.8092744, 0.8), (0.7061818, 1), (0.7061818, 0.1333333), (0.2938111, 1), (0, 1), (0.1391718, 0.8), (0, 1), (0.03607912, 0.8), (0.1391718, 0.8), (0, 1), (0, 0), (0.03607912, 0.8), (0.01500244, 0), (0.9850037, 0), (1, 0.4999968), (0.01500244, 0), (1, 0.4999968), (0.9850037, 1), (0.01500244, 0), (0.9850037, 1), (0.01500244, 1), (0.01500244, 0), (0.01500244, 1), (0, 0.4999968), (0.9047604, -3.211424E-07), (1, -3.211424E-07), (0.9999846, 0.09525296), (0.9047604, -3.211424E-07), (0.9999846, 0.09525296), (0.09522415, 0.9999998), (0.9047604, -3.211424E-07), (0.09522415, 0.9999998), (1.712511E-06, 0.9047464), (2.543057E-05, 0), (1, 0), (0.9999745, 0.9500123), (2.543057E-05, 0), (0.9999745, 0.9500123), (0.4999841, 1), (2.543057E-05, 0), (0.4999841, 1), (0, 0.9500123), (0, 0), (1, 0), (1, 1), (0, 0), (1, 1), (0, 1), (0, 0), (1, 0), (1, 1), (0, 0), (1, 1), (0, 1), (0, 0), (1, 0), (1, 1), (0, 0), (1, 1), (0, 1), (0, 0), (1, 0), (1, 1), (0, 0), (1, 1), (0, 1), (0, 0), (1, 0), (1, 1), (0, 0), (1, 1), (0, 1), (0, 0), (1, 0), (1, 1), (0, 0), (1, 1), (0, 1), (0, 0), (1, 0), (1, 1), (0, 0), (1, 1), (0, 1), (0, 0), (1, 0), (1, 1), (0, 0), (1, 1), (0, 1), (0, 0), (1, 0), (1, 1), (0, 0), (1, 1), (0, 1), (0, 0), (1, 0), (1, 1), (0, 0), (1, 1), (0, 1), (0, 0), (1, 0), (1, 1), (0, 0), (1, 1), (0, 1), (0, 0), (1, 0), (1, 1), (0, 0), (1, 1), (0, 1), (0, 0), (1, 0), (1, 1), (0, 0), (1, 1), (0, 1), (0, 0), (1, 0), (1, 1), (0, 0), (1, 1), (0, 1), (0, 0), (1, 0), (1, 1), (0, 0), (1, 1), (0, 1)](
			
			interpolation = "faceVarying"
		)
		
		
	}
	
}
