#usda 1.0 | Cygon
(
	defaultPrim = "World"
	upAxis = "Y"
	metersPerUnit = 1
)

def Xform "World"
{
	def Mesh "Wall_3cc297a9_a6f0_4662_a3ba_cc87812606bd"
	{
		int[] faceVertexCounts = [3, 3, 3, 3, 3, 3, 3, 3, 3, 3, 3, 3]
		int[] faceVertexIndices = [0, 1, 2, 0, 2, 3, 4, 5, 6, 4, 6, 7, 10, 11, 12, 10, 12, 13, 13, 8, 10, 8, 9, 10, 15, 16, 17, 15, 17, 18, 18, 14, 15, 18, 19, 14]
		uniform token orientation = "leftHanded"
		normal3f[] normals = [(0, 0, -1), (0, 0, -1), (0, 0, -1), (0, 0, -1), (0, 0, -1), (0, 0, -1), (0, 0, 1), (0, 0, 1), (0, 0, 1), (0, 0, 1), (0, 0, 1), (0, 0, 1), (0, 1, 0), (0, 1, 0), (0, 1, 0), (0, 1, 0), (0, 1, 0), (0, 1, 0), (0, 1, 0), (0, 1, 0), (0, 1, 0), (0, 1, 0), (0, 0.9999999, 0), (0, 1, 0), (0, -1, 0), (0, -1, 0), (0, -1, 0), (0, -1, 0), (0, -1, 0), (0, -1, 0), (0, -1, 0), (0, -1, 0), (0, -1, 0), (0, -1, 0), (0, -0.9999999, 0), (0, -1, 0)](
			
			interpolation = "faceVarying"
		)
		
		point3f[] points = [(-4.849976, 0, -0.1499996), (4.850037, 0, -0.1499996), (4.850037, 1, -0.1499996), (-4.849976, 1, -0.1499996), (-5.149963, 1, 0.1499996), (5.150024, 1, 0.1499996), (5.150024, 0, 0.1499996), (-5.149963, 0, 0.1499996), (-4.849976, 1, -0.1499996), (4.850037, 1, -0.1499996), (5, 1, 0), (5.150024, 1, 0.1499996), (-5.149963, 1, 0.1499996), (-5, 1, 0), (-4.849976, 0, -0.1499996), (-5, 0, 0), (-5.149963, 0, 0.1499996), (5.150024, 0, 0.1499996), (5, 0, 0), (4.850037, 0, -0.1499996)]
		float2[] primvars:st = [(0, 0), (1, 0), (1, 1), (0, 0), (1, 1), (0, 1), (0, 0), (1, 0), (1, 1), (0, 0), (1, 1), (0, 1), (0.9854345, 0.5), (1, 1), (0, 1), (0.9854345, 0.5), (0, 1), (0.01455957, 0.5), (0.01455957, 0.5), (0.02912506, 0), (0.9854345, 0.5), (0.02912506, 0), (0.970875, 0), (0.9854345, 0.5), (0.9708798, 0), (1, 6.285688E-06), (-6.546551E-08, 0.9999998), (0.9708798, 0), (-6.546551E-08, 0.9999998), (4.746249E-06, 0.970869), (4.746249E-06, 0.970869), (0.9417536, 0), (0.9708798, 0), (4.746249E-06, 0.970869), (3.666068E-06, 0.9417443), (0.9417536, 0)](
			
			interpolation = "faceVarying"
		)
		
		
	}
	
}
