#usda 1.0 | Cygon
(
	defaultPrim = "World"
	upAxis = "Y"
	metersPerUnit = 1
)

def Xform "World"
{
	def Mesh "Wall_ec4af7b7_3e69_4859_851a_8912a5cdf13b"
	{
		int[] faceVertexCounts = [3, 3, 3, 3, 3, 3, 3, 3, 3, 3, 3, 3]
		int[] faceVertexIndices = [0, 1, 2, 0, 2, 3, 4, 5, 6, 4, 6, 7, 10, 11, 12, 10, 12, 13, 13, 8, 10, 8, 9, 10, 15, 16, 17, 15, 17, 18, 18, 14, 15, 18, 19, 14]
		uniform token orientation = "leftHanded"
		normal3f[] normals = [(1, 0, 0), (1, 0, 0), (1, 0, 0), (1, 0, 0), (1, 0, 0), (1, 0, 0), (-1, 0, 0), (-1, 0, 0), (-1, 0, 0), (-1, 0, 0), (-1, 0, 0), (-1, 0, 0), (0, 1, 0), (0, 1, 0), (0, 1, 0), (0, 1, 0), (0, 1, 0), (0, 0.9999999, 0), (0, 0.9999999, 0), (0, 1, 0), (0, 1, 0), (0, 1, 0), (0, 1, 0), (0, 1, 0), (0, -1, 0), (0, -1, 0), (0, -1, 0), (0, -1, 0), (0, -1, 0), (0, -1, 0), (0, -1, 0), (0, -1, 0), (0, -1, 0), (0, -1, 0), (0, -1, 0), (0, -1, 0)](
			
			interpolation = "faceVarying"
		)
		
		point3f[] points = [(0.1500015, 0, -2.349975), (0.1500015, 0, 2.350038), (0.1500015, 1, 2.350038), (0.1500015, 1, -2.349975), (-0.1500015, 1, -2.649962), (-0.1500015, 1, 2.650025), (-0.1500015, 0, 2.650025), (-0.1500015, 0, -2.649962), (0.1500015, 1, -2.349975), (0.1500015, 1, 2.350038), (0, 1, 2.500001), (-0.1500015, 1, 2.650025), (-0.1500015, 1, -2.649962), (0, 1, -2.500001), (0.1500015, 0, -2.349975), (0, 0, -2.500001), (-0.1500015, 0, -2.649962), (-0.1500015, 0, 2.650025), (0, 0, 2.500001), (0.1500015, 0, 2.350038)]
		float2[] primvars:st = [(0, 0), (1, 0), (1, 1), (0, 0), (1, 1), (0, 1), (0, 0), (1, 0), (1, 1), (0, 0), (1, 1), (0, 1), (0.9716935, 0.5), (1, 1), (0, 1), (0.9716935, 0.5), (0, 1), (0.02829468, 0.5), (0.02829468, 0.5), (0.0566016, 0), (0.9716935, 0.5), (0.0566016, 0), (0.9433984, 0), (0.9716935, 0.5), (0.9434071, 0), (0.9999995, 1.221551E-05), (0, 0.999999), (0.9434071, 0), (0, 0.999999), (8.651334E-06, 0.9433862), (8.651334E-06, 0.9433862), (0.8868029, 0), (0.9434071, 0), (8.651334E-06, 0.9433862), (6.106824E-06, 0.8867847), (0.8868029, 0)](
			
			interpolation = "faceVarying"
		)
		
		
	}
	
}
