#usda 1.0 | Cygon
(
	defaultPrim = "World"
	upAxis = "Y"
	metersPerUnit = 1
)

def Xform "World"
{
	def Mesh "Wall_af5f6ce0_75d8_45cc_9b63_8afe4e07d959"
	{
		int[] faceVertexCounts = [3, 3, 3, 3, 3, 3, 3, 3, 3, 3, 3, 3]
		int[] faceVertexIndices = [0, 1, 2, 0, 2, 3, 4, 5, 6, 4, 6, 7, 8, 10, 11, 8, 11, 12, 8, 9, 10, 12, 13, 8, 14, 16, 17, 14, 17, 18, 18, 19, 14, 14, 15, 16]
		uniform token orientation = "leftHanded"
		normal3f[] normals = [(0, 0, 1), (0, 0, 1), (0, 0, 1), (0, 0, 1), (0, 0, 1), (0, 0, 1), (0, 0, -1), (0, 0, -1), (0, 0, -1), (0, 0, -1), (0, 0, -1), (0, 0, -1), (0, 1, 0), (0, 1, 0), (0, 1, 0), (0, 1, 0), (0, 1, 0), (0, 1, 0), (0, 1, 0), (0, 1, 0), (0, 1, 0), (0, 1, 0), (0, 1, 0), (0, 1, 0), (0, -1, 0), (0, -1, 0), (0, -1, 0), (0, -1, 0), (0, -1, 0), (0, -1, 0), (0, -1, 0), (0, -1, 0), (0, -1, 0), (0, -1, 0), (0, -1, 0), (0, -1, 0)](
			
			interpolation = "faceVarying"
		)
		
		point3f[] points = [(3.099976, 0, 0.1499996), (-3.100037, 0, 0.1499996), (-3.100037, 7.5, 0.1499996), (3.099976, 7.5, 0.1499996), (3.25, 7.5, -0.1499996), (-3.400024, 7.5, -0.1499996), (-3.400024, 0, -0.1499996), (3.25, 0, -0.1499996), (3.099976, 7.5, 0.1499996), (-3.100037, 7.5, 0.1499996), (-3.25, 7.5, 0), (-3.400024, 7.5, -0.1499996), (3.25, 7.5, -0.1499996), (3.25, 7.5, 0), (3.099976, 0, 0.1499996), (3.25, 0, 0), (3.25, 0, -0.1499996), (-3.400024, 0, -0.1499996), (-3.25, 0, 0), (-3.100037, 0, 0.1499996)]
		float2[] primvars:st = [(0, 0), (1, 0), (1, 1), (0, 0), (1, 1), (0, 1), (0, 0), (1, 0), (1, 1), (0, 0), (1, 1), (0, 1), (0.02255998, 0), (0.97744, 0.5), (1, 1), (0.02255998, 0), (1, 1), (0, 1), (0.02255998, 0), (0.9548892, 0), (0.97744, 0.5), (0, 1), (0, 0.5), (0.02255998, 0), (0.932335, 0), (1, 0.02206241), (-2.027944E-07, 1), (0.932335, 0), (-2.027944E-07, 1), (7.300599E-06, 0.9558752), (7.300599E-06, 0.9558752), (5.576847E-06, 0.9117599), (0.932335, 0), (0.932335, 0), (0.9774475, 0), (1, 0.02206241)](
			
			interpolation = "faceVarying"
		)
		
		
	}
	
}
