#usda 1.0 | Cygon
(
	defaultPrim = "World"
	upAxis = "Y"
	metersPerUnit = 1
)

def Xform "World"
{
	def Mesh "Wall_c010e6e5_17ad_434a_bef1_bee57a4bfc54"
	{
		int[] faceVertexCounts = [3, 3, 3, 3, 3, 3, 3, 3, 3, 3, 3, 3, 3, 3, 3, 3, 3, 3, 3, 3, 3, 3, 3, 3, 3, 3, 3, 3, 3, 3, 3, 3, 3, 3, 3, 3, 3, 3, 3, 3, 3, 3, 3, 3, 3, 3, 3, 3, 3, 3, 3, 3, 3, 3, 3, 3, 3, 3, 3, 3, 3, 3, 3, 3, 3, 3, 3, 3, 3, 3, 3, 3, 3, 3, 3, 3, 3, 3, 3, 3]
		int[] faceVertexIndices = [0, 1, 2, 0, 2, 3, 4, 5, 6, 4, 6, 7, 8, 10, 12, 10, 11, 12, 8, 9, 10, 13, 14, 23, 14, 22, 23, 14, 21, 22, 14, 15, 21, 15, 17, 21, 17, 20, 21, 17, 19, 20, 17, 18, 19, 23, 26, 13, 15, 16, 17, 23, 25, 26, 23, 24, 25, 26, 27, 13, 28, 29, 30, 28, 30, 31, 32, 33, 35, 32, 35, 36, 33, 34, 35, 37, 38, 40, 38, 39, 40, 42, 43, 50, 43, 49, 50, 50, 54, 42, 50, 53, 54, 50, 52, 53, 50, 51, 52, 43, 48, 49, 43, 44, 48, 54, 41, 42, 54, 55, 41, 44, 45, 48, 45, 47, 48, 45, 46, 47, 56, 57, 58, 56, 58, 59, 56, 59, 60, 56, 60, 61, 62, 63, 64, 62, 64, 65, 62, 65, 66, 62, 66, 67, 68, 69, 70, 68, 70, 71, 72, 73, 74, 72, 74, 75, 76, 77, 78, 76, 78, 79, 80, 81, 82, 80, 82, 83, 84, 85, 86, 84, 86, 87, 88, 89, 90, 88, 90, 91, 92, 93, 94, 92, 94, 95, 96, 97, 98, 96, 98, 99, 100, 101, 102, 100, 102, 103, 104, 105, 106, 104, 106, 107, 108, 109, 110, 108, 110, 111, 112, 113, 114, 112, 114, 115, 116, 117, 118, 116, 118, 119, 120, 121, 122, 120, 122, 123, 124, 125, 126, 124, 126, 127, 128, 129, 130, 128, 130, 131]
		uniform token orientation = "leftHanded"
		normal3f[] normals = [(0, 0, -1), (0, 0, -1), (0, 0, -1), (0, 0, -1), (0, 0, -1), (0, 0, -1), (0, 0, -1), (0, 0, -1), (0, 0, -1), (0, 0, -1), (0, 0, -1), (0, 0, -1), (0, 0, -1), (0, 0, -1), (0, 0, -1), (0, 0, -1), (0, 0, -1), (0, 0, -1), (0, 0, -1), (0, 0, -1), (0, 0, -1), (0, 0, -1), (0, 0, -1), (0, 0, -1), (0, 0, -1), (0, 0, -1), (0, 0, -1), (0, 0, -1), (0, 0, -1), (0, 0, -1), (0, 0, -1), (0, 0, -1), (0, 0, -1), (0, 0, -1), (0, 0, -1), (0, 0, -1), (0, 0, -1), (0, 0, -1), (0, 0, -1), (0, 0, -1), (0, 0, -1), (0, 0, -1), (0, 0, -1), (0, 0, -1), (0, 0, -1), (0, 0, -1), (0, 0, -1), (0, 0, -1), (0, 0, -1), (0, 0, -1), (0, 0, -1), (0, 0, -1), (0, 0, -0.9999999), (0, 0, -1), (0, 0, -1), (0, 0, -1), (0, 0, -0.9999999), (0, 0, -1), (0, 0, -1), (0, 0, -1), (0, 0, 1), (0, 0, 1), (0, 0, 1), (0, 0, 1), (0, 0, 1), (0, 0, 1), (0, 0, 0.9999999), (0, 0, 1), (0, 0, 0.9999999), (0, 0, 0.9999999), (0, 0, 0.9999999), (0, 0, 1), (0, 0, 1), (0, 0, 1), (0, 0, 0.9999999), (0, 0, 1), (0, 0, 1), (0, 0, 1), (0, 0, 1), (0, 0, 1), (0, 0, 1), (0, 0, 1), (0, 0, 1), (0, 0, 1), (0, 0, 1), (0, 0, 1), (0, 0, 1), (0, 0, 1), (0, 0, 1), (0, 0, 1), (0, 0, 1), (0, 0, 1), (0, 0, 1), (0, 0, 1), (0, 0, 1), (0, 0, 1), (0, 0, 1), (0, 0, 0.9999999), (0, 0, 1), (0, 0, 1), (0, 0, 1), (0, 0, 1), (0, 0, 1), (0, 0, 1), (0, 0, 1), (0, 0, 1), (0, 0, 1), (0, 0, 1), (0, 0, 1), (0, 0, 1), (0, 0, 1), (0, 0, 1), (0, 0, 1), (0, 0, 1), (0, 0, 1), (0, 0, 1), (0, 0, 1), (0, 0, 1), (0, 0, 1), (0, 0, 1), (0, 1, 0), (0, 0.9999999, 0), (0, 0.9999999, 0), (0, 1, 0), (0, 0.9999999, 0), (0, 1, 0), (0, 1, 0), (0, 1, 0), (0, 0.9999999, 0), (0, 1, 0), (0, 0.9999999, 0), (0, 1, 0), (0, -0.9999999, 0), (0, -1, 0), (0, -0.9999999, 0), (0, -0.9999999, 0), (0, -0.9999999, 0), (0, -1, 0), (0, -0.9999999, 0), (0, -1, 0), (0, -0.9999999, 0), (0, -0.9999999, 0), (0, -0.9999999, 0), (0, -0.9999999, 0), (-1, 0, 0), (-1, 0, 0), (-1, 0, 0), (-1, 0, 0), (-1, 0, 0), (-1, 0, 0), (-0.7070484, 0, -0.7071652), (-0.7070484, 0, -0.7071652), (-0.7070484, 0, -0.7071652), (-0.7070484, 0, -0.7071652), (-0.7070484, 0, -0.7071652), (-0.7070484, 0, -0.7071652), (0.5999756, 0, 0.8000183), (0.5999756, 0, 0.8000183), (0.5999756, 0, 0.8000183), (0.5999756, 0, 0.8000183), (0.5999756, 0, 0.8000183), (0.5999756, 0, 0.8000183), (0.7071922, 0, -0.7070213), (0.7071922, 0, -0.7070213), (0.7071922, 0, -0.7070213), (0.7071922, 0, -0.7070213), (0.7071922, 0, -0.7070213), (0.7071922, 0, -0.7070213), (0, -1, 0), (0, -1, 0), (0, -1, 0), (0, -1, 0), (0, -1, 0), (0, -1, 0), (0, 1, 0), (0, 1, 0), (0, 1, 0), (0, 1, 0), (0, 1, 0), (0, 1, 0), (1, 0, 0), (1, 0, 0), (1, 0, 0), (1, 0, 0), (1, 0, 0), (1, 0, 0), (-1, 0, 0), (-1, 0, 0), (-1, 0, 0), (-1, 0, 0), (-1, 0, 0), (-1, 0, 0), (0, -1, 0), (0, -1, 0), (0, -1, 0), (0, -1, 0), (0, -1, 0), (0, -1, 0), (0, 1, 0), (0, 1, 0), (0, 1, 0), (0, 1, 0), (0, 1, 0), (0, 1, 0), (1, 0, 0), (1, 0, 0), (1, 0, 0), (1, 0, 0), (1, 0, 0), (1, 0, 0), (-1, 0, 0), (-1, 0, 0), (-1, 0, 0), (-1, 0, 0), (-1, 0, 0), (-1, 0, 0), (0, -1, 0), (0, -1, 0), (0, -1, 0), (0, -1, 0), (0, -1, 0), (0, -1, 0), (0, 1, 0), (0, 1, 0), (0, 1, 0), (0, 1, 0), (0, 1, 0), (0, 1, 0), (1, 0, 0), (1, 0, 0), (1, 0, 0), (1, 0, 0), (1, 0, 0), (1, 0, 0), (-1, 0, 0), (-1, 0, 0), (-1, 0, 0), (-1, 0, 0), (-1, 0, 0), (-1, 0, 0)](
			
			interpolation = "faceVarying"
		)
		
		point3f[] points = [(4, 6.5, -0.1500015), (4, 1.5, -0.1500015), (4.850037, 7.5, -0.1500015), (-4.849976, 7.5, -0.1500015), (-3, 1.5, -0.1500015), (-4, 1.5, -0.1500015), (-4.849976, 0, -0.1500015), (4.850037, 0, -0.1500015), (2, 6.5, -0.1500015), (2, 1.5, -0.1500015), (3, 6.5, -0.1500015), (4, 6.5, -0.1500015), (-4.849976, 7.5, -0.1500015), (2, 1.5, -0.1500015), (-2, 1.5, -0.1500015), (-2, 6.5, -0.1500015), (2, 6.5, -0.1500015), (-4.849976, 7.5, -0.1500015), (-4.849976, 0, -0.1500015), (-4, 1.5, -0.1500015), (-4, 6.5, -0.1500015), (-3, 6.5, -0.1500015), (-3, 1.5, -0.1500015), (4.850037, 0, -0.1500015), (4.850037, 7.5, -0.1500015), (4, 1.5, -0.1500015), (3, 1.5, -0.1500015), (3, 6.5, -0.1500015), (3, 1.5, 0.1500015), (4, 1.5, 0.1500015), (4.799988, 0, 0.1500015), (-5, 0, 0.1500015), (-3, 6.5, 0.1500015), (-4, 6.5, 0.1500015), (-4, 1.5, 0.1500015), (-5, 7.5, 0.1500015), (4.799988, 7.5, 0.1500015), (-2, 1.5, 0.1500015), (2, 1.5, 0.1500015), (3, 1.5, 0.1500015), (-5, 0, 0.1500015), (2, 1.5, 0.1500015), (2, 6.5, 0.1500015), (-2, 6.5, 0.1500015), (-2, 1.5, 0.1500015), (-5, 0, 0.1500015), (-5, 7.5, 0.1500015), (-4, 1.5, 0.1500015), (-3, 1.5, 0.1500015), (-3, 6.5, 0.1500015), (4.799988, 7.5, 0.1500015), (4.799988, 0, 0.1500015), (4, 1.5, 0.1500015), (4, 6.5, 0.1500015), (3, 6.5, 0.1500015), (3, 1.5, 0.1500015), (-4.849976, 7.5, -0.1499996), (4.850037, 7.5, -0.1499996), (5, 7.5, 0), (4.799988, 7.5, 0.1499996), (-5, 7.5, 0.1499996), (-5, 7.5, 0), (-4.849976, 0, -0.1499996), (-5, 0, 0), (-5, 0, 0.1499996), (4.799988, 0, 0.1499996), (5, 0, 0), (4.850037, 0, -0.1499996), (-5, 0, 0.1499996), (-5, 0, 0), (-5, 7.5, 0), (-5, 7.5, 0.1499996), (-4.849976, 7.5, -0.1499996), (-5, 7.5, 0), (-5, 0, 0), (-4.849976, 0, -0.1499996), (4.799988, 7.5, 0.1499996), (5, 7.5, 0), (5, 0, 0), (4.799988, 0, 0.1499996), (4.850037, 0, -0.1499996), (5, 0, 0), (5, 7.5, 0), (4.850037, 7.5, -0.1499996), (3, 6.5, 0.1499996), (4, 6.5, 0.1499996), (4, 6.5, -0.1499996), (3, 6.5, -0.1499996), (3, 1.5, -0.1499996), (4, 1.5, -0.1499996), (4, 1.5, 0.1499996), (3, 1.5, 0.1499996), (3, 6.5, 0.1499996), (3, 6.5, -0.1499996), (3, 1.5, -0.1499996), (3, 1.5, 0.1499996), (4, 6.5, -0.1499996), (4, 6.5, 0.1499996), (4, 1.5, 0.1499996), (4, 1.5, -0.1499996), (-4, 6.5, 0.1499996), (-3, 6.5, 0.1499996), (-3, 6.5, -0.1499996), (-4, 6.5, -0.1499996), (-4, 1.5, -0.1499996), (-3, 1.5, -0.1499996), (-3, 1.5, 0.1499996), (-4, 1.5, 0.1499996), (-4, 6.5, 0.1499996), (-4, 6.5, -0.1499996), (-4, 1.5, -0.1499996), (-4, 1.5, 0.1499996), (-3, 6.5, -0.1499996), (-3, 6.5, 0.1499996), (-3, 1.5, 0.1499996), (-3, 1.5, -0.1499996), (-2, 6.5, 0.1499996), (2, 6.5, 0.1499996), (2, 6.5, -0.1499996), (-2, 6.5, -0.1499996), (-2, 1.5, -0.1499996), (2, 1.5, -0.1499996), (2, 1.5, 0.1499996), (-2, 1.5, 0.1499996), (-2, 6.5, 0.1499996), (-2, 6.5, -0.1499996), (-2, 1.5, -0.1499996), (-2, 1.5, 0.1499996), (2, 6.5, -0.1499996), (2, 6.5, 0.1499996), (2, 1.5, 0.1499996), (2, 1.5, -0.1499996)]
		float2[] primvars:st = [(0.9123675, 0.8666667), (0.9123675, 0.2), (1, 1), (0.9123675, 0.8666667), (1, 1), (0, 1), (0.1907189, 0.2), (0.08762624, 0.2), (0, 0), (0.1907189, 0.2), (0, 0), (1, 0), (0.7061822, 0.8666667), (0.8092748, 0.8666667), (0, 1), (0.8092748, 0.8666667), (0.9123675, 0.8666667), (0, 1), (0.7061822, 0.8666667), (0.7061822, 0.2), (0.8092748, 0.8666667), (0.7061822, 0.2), (0.2938116, 0.2), (1, 0), (0.2938116, 0.2), (0.1907189, 0.2), (1, 0), (0.2938116, 0.2), (0.1907189, 0.8666667), (0.1907189, 0.2), (0.2938116, 0.2), (0.2938116, 0.8666667), (0.1907189, 0.8666667), (0.2938116, 0.8666667), (0, 1), (0.1907189, 0.8666667), (0, 1), (0.08762624, 0.8666667), (0.1907189, 0.8666667), (0, 1), (0.08762624, 0.2), (0.08762624, 0.8666667), (0, 1), (0, 0), (0.08762624, 0.2), (1, 0), (0.8092748, 0.2), (0.7061822, 0.2), (0.2938116, 0.8666667), (0.7061822, 0.8666667), (0, 1), (1, 0), (0.9123675, 0.2), (0.8092748, 0.2), (1, 0), (1, 1), (0.9123675, 0.2), (0.8092748, 0.2), (0.8092748, 0.8666667), (0.7061822, 0.2), (0.8163276, 0.8), (0.9183685, 0.8), (1, 1), (0.8163276, 0.8), (1, 1), (0, 1), (0.2040819, 0.1333333), (0.1020409, 0.1333333), (0, 0), (0.2040819, 0.1333333), (0, 0), (1, 0), (0.1020409, 0.1333333), (0.1020409, 0.8), (0, 0), (0.3061228, 0.8), (0.7142866, 0.8), (0, 1), (0.7142866, 0.8), (0.8163276, 0.8), (0, 1), (0.7142866, 0.1333333), (0.3061228, 0.1333333), (1, 0), (0.3061228, 0.1333333), (0.2040819, 0.1333333), (1, 0), (1, 0), (0.8163276, 0.1333333), (0.7142866, 0.1333333), (1, 0), (0.9183685, 0.1333333), (0.8163276, 0.1333333), (1, 0), (0.9183685, 0.8), (0.9183685, 0.1333333), (1, 0), (1, 1), (0.9183685, 0.8), (0.3061228, 0.1333333), (0.2040819, 0.8), (0.2040819, 0.1333333), (0.3061228, 0.1333333), (0.3061228, 0.8), (0.2040819, 0.8), (0.8163276, 0.1333333), (0.7142866, 0.8), (0.7142866, 0.1333333), (0.8163276, 0.1333333), (0.8163276, 0.8), (0.7142866, 0.8), (0.3061228, 0.8), (0, 1), (0.2040819, 0.8), (0, 1), (0.1020409, 0.8), (0.2040819, 0.8), (0, 1), (0, 0), (0.1020409, 0.8), (0.01500244, 0), (0.9850037, 0), (1, 0.5), (0.01500244, 0), (1, 0.5), (0.9799988, 1), (0.01500244, 0), (0.9799988, 1), (0, 1), (0.01500244, 0), (0, 1), (0, 0.5), (0.9556676, 0), (0.9852241, 0), (1, 0.01500255), (0.9556676, 0), (1, 0.01500255), (0.03448261, 0.9950013), (0.9556676, 0), (0.03448261, 0.9950013), (1.062928E-06, 1), (0.9556676, 0), (1.062928E-06, 1), (-3.321649E-08, 0.9700014), (0, 0), (1, 0), (1, 1), (0, 0), (1, 1), (0, 1), (0, 0), (1, 0), (1, 1), (0, 0), (1, 1), (0, 1), (0, 0), (1, 0), (1, 1), (0, 0), (1, 1), (0, 1), (0, 0), (1, 0), (1, 1), (0, 0), (1, 1), (0, 1), (0, 0), (1, 0), (1, 1), (0, 0), (1, 1), (0, 1), (0, 0), (1, 0), (1, 1), (0, 0), (1, 1), (0, 1), (0, 0), (1, 0), (1, 1), (0, 0), (1, 1), (0, 1), (0, 0), (1, 0), (1, 1), (0, 0), (1, 1), (0, 1), (0, 0), (1, 0), (1, 1), (0, 0), (1, 1), (0, 1), (0, 0), (1, 0), (1, 1), (0, 0), (1, 1), (0, 1), (0, 0), (1, 0), (1, 1), (0, 0), (1, 1), (0, 1), (0, 0), (1, 0), (1, 1), (0, 0), (1, 1), (0, 1), (0, 0), (1, 0), (1, 1), (0, 0), (1, 1), (0, 1), (0, 0), (1, 0), (1, 1), (0, 0), (1, 1), (0, 1), (0, 0), (1, 0), (1, 1), (0, 0), (1, 1), (0, 1), (0, 0), (1, 0), (1, 1), (0, 0), (1, 1), (0, 1)](
			
			interpolation = "faceVarying"
		)
		
		
	}
	
}
