#usda 1.0 | Cygon
(
	defaultPrim = "World"
	upAxis = "Y"
	metersPerUnit = 1
)

def Xform "World"
{
	def Mesh "Wall_a9b4e545_776e_42dd_84ef_ee4e2d65fc25"
	{
		int[] faceVertexCounts = [3, 3, 3, 3, 3, 3, 3, 3, 3, 3, 3, 3]
		int[] faceVertexIndices = [0, 1, 2, 0, 2, 3, 4, 5, 6, 4, 6, 7, 8, 9, 10, 8, 10, 13, 10, 12, 13, 10, 11, 12, 14, 15, 18, 14, 18, 19, 15, 16, 18, 16, 17, 18]
		uniform token orientation = "leftHanded"
		normal3f[] normals = [(1, 0, 0), (1, 0, 0), (1, 0, 0), (1, 0, 0), (1, 0, 0), (1, 0, 0), (-0.9999999, 0, 0), (-0.9999999, 0, 0), (-0.9999999, 0, 0), (-0.9999999, 0, 0), (-0.9999999, 0, 0), (-0.9999999, 0, 0), (0, 1, 0), (0, 1, 0), (0, 1, 0), (0, 1, 0), (0, 1, 0), (0, 1, 0), (0, 1, 0), (0, 1, 0), (0, 1, 0), (0, 1, 0), (0, 1, 0), (0, 1, 0), (0, -1, 0), (0, -1, 0), (0, -1, 0), (0, -1, 0), (0, -1, 0), (0, -1, 0), (0, -1, 0), (0, -1, 0), (0, -1, 0), (0, -1, 0), (0, -1, 0), (0, -1, 0)](
			
			interpolation = "faceVarying"
		)
		
		point3f[] points = [(0.1499996, 0, -0.6499634), (0.1499996, 0, 0.6500244), (0.1499996, 2.5, 0.6500244), (0.1499996, 2.5, -0.6499634), (-0.1499996, 2.5, -0.3499756), (-0.1499996, 2.5, 0.3500366), (-0.1499996, 0, 0.3500366), (-0.1499996, 0, -0.3499756), (0.1499996, 2.5, -0.6499634), (0.1499996, 2.5, 0.6500244), (0, 2.5, 0.5), (-0.1499996, 2.5, 0.3500366), (-0.1499996, 2.5, -0.3499756), (0, 2.5, -0.5), (0.1499996, 0, -0.6499634), (0, 0, -0.5), (-0.1499996, 0, -0.3499756), (-0.1499996, 0, 0.3500366), (0, 0, 0.5), (0.1499996, 0, 0.6500244)]
		float2[] primvars:st = [(0, 0), (1, 0), (1, 1), (0, 0), (1, 1), (0, 1), (0, 0), (1, 0), (1, 1), (0, 0), (1, 1), (0, 1), (0, 0), (1, 0), (0.8845955, 0.5), (0, 0), (0.8845955, 0.5), (0.1153575, 0.5), (0.8845955, 0.5), (0.230762, 1), (0.1153575, 0.5), (0.8845955, 0.5), (0.769238, 1), (0.230762, 1), (0, 0), (0.2307559, 0), (0.9999442, 0.7692407), (0, 0), (0.9999442, 0.7692407), (0.9999354, 1), (0.2307559, 0), (0.4615587, 4.979253E-05), (0.9999442, 0.7692407), (0.4615587, 4.979253E-05), (1, 0.5385228), (0.9999442, 0.7692407)](
			
			interpolation = "faceVarying"
		)
		
		
	}
	
}
