#usda 1.0 | Cygon
(
	defaultPrim = "World"
	upAxis = "Y"
	metersPerUnit = 1
)

def Xform "World"
{
	def Mesh "Wall_4e224718_3296_4fe0_826e_5a017906c9d4"
	{
		int[] faceVertexCounts = [3, 3, 3, 3, 3, 3, 3, 3, 3, 3, 3, 3]
		int[] faceVertexIndices = [0, 1, 2, 0, 2, 3, 4, 5, 6, 4, 6, 7, 10, 11, 12, 10, 12, 13, 13, 8, 10, 8, 9, 10, 15, 16, 17, 15, 17, 18, 18, 14, 15, 18, 19, 14]
		uniform token orientation = "leftHanded"
		normal3f[] normals = [(-1, 0, 0), (-1, 0, 0), (-1, 0, 0), (-1, 0, 0), (-1, 0, 0), (-1, 0, 0), (1, 0, 0), (1, 0, 0), (1, 0, 0), (1, 0, 0), (1, 0, 0), (1, 0, 0), (-7.947205E-07, 1, 0), (-7.947205E-07, 1, 0), (-7.947205E-07, 1, 0), (-7.947205E-07, 1, 0), (-7.947205E-07, 1, 0), (-7.947204E-07, 0.9999999, 0), (-7.947204E-07, 0.9999999, 0), (-7.947206E-07, 1, 0), (-7.947205E-07, 1, 0), (-7.947206E-07, 1, 0), (-7.947205E-07, 1, 0), (-7.947205E-07, 1, 0), (1.142411E-06, -1, 0), (1.142411E-06, -1, 0), (1.142411E-06, -1, 0), (1.142411E-06, -1, 0), (1.142411E-06, -1, 0), (1.142411E-06, -1, 0), (1.142411E-06, -1, 0), (1.142411E-06, -1, 0), (1.142411E-06, -1, 0), (1.142411E-06, -1, 0), (1.142411E-06, -1, 0), (1.142411E-06, -1, 0)](
			
			interpolation = "faceVarying"
		)
		
		point3f[] points = [(-0.1500015, -1.713634E-07, 2.349977), (-0.1500015, -1.713634E-07, -2.350036), (-0.1500015, 0.9999999, -2.350036), (-0.1500015, 0.9999999, 2.349977), (0.1500015, 1, 2.649964), (0.1500015, 1, -2.650023), (0.1500015, 1.713634E-07, -2.650023), (0.1500015, 1.713634E-07, 2.649964), (-0.1500015, 0.9999999, 2.349977), (-0.1500015, 0.9999999, -2.350036), (0, 1, -2.500001), (0.1500015, 1, -2.650023), (0.1500015, 1, 2.649964), (0, 1, 2.500001), (-0.1500015, -1.713634E-07, 2.349977), (0, 0, 2.500001), (0.1500015, 1.713634E-07, 2.649964), (0.1500015, 1.713634E-07, -2.650023), (0, 0, -2.500001), (-0.1500015, -1.713634E-07, -2.350036)]
		float2[] primvars:st = [(0, 0), (1, 0), (1, 1), (0, 0), (1, 1), (0, 1), (0, 0), (1, 0), (1, 1), (0, 0), (1, 1), (0, 1), (0.9716938, 0.5), (1, 1), (0, 1), (0.9716938, 0.5), (0, 1), (0.02829504, 0.5), (0.02829504, 0.5), (0.0566016, 0), (0.9716938, 0.5), (0.0566016, 0), (0.9433984, 0), (0.9716938, 0.5), (0.9434072, 0), (1, 1.11975E-05), (0, 1), (0.9434072, 0), (0, 1), (8.142488E-06, 0.943388), (8.142488E-06, 0.943388), (0.8868026, 0), (0.9434072, 0), (8.142488E-06, 0.943388), (5.59796E-06, 0.8867866), (0.8868026, 0)](
			
			interpolation = "faceVarying"
		)
		
		
	}
	
}
