#usda 1.0 | Cygon
(
	defaultPrim = "World"
	upAxis = "Y"
	metersPerUnit = 1
)

def Xform "World"
{
	def Mesh "Wall_ed7e2ce0_ef03_4414_a7a1_fc95e83dddeb"
	{
		int[] faceVertexCounts = [3, 3, 3, 3, 3, 3, 3, 3, 3, 3, 3, 3]
		int[] faceVertexIndices = [0, 1, 2, 0, 2, 3, 4, 5, 6, 4, 6, 7, 10, 11, 12, 10, 12, 13, 13, 8, 10, 8, 9, 10, 15, 16, 17, 15, 17, 19, 19, 14, 15, 17, 18, 19]
		uniform token orientation = "leftHanded"
		normal3f[] normals = [(0.9999999, 0, 0), (0.9999999, 0, 0), (0.9999999, 0, 0), (0.9999999, 0, 0), (0.9999999, 0, 0), (0.9999999, 0, 0), (-1, 0, 0), (-1, 0, 0), (-1, 0, 0), (-1, 0, 0), (-1, 0, 0), (-1, 0, 0), (0, 1, 0), (0, 1, 0), (0, 1, 0), (0, 1, 0), (0, 1, 0), (0, 1, 0), (0, 1, 0), (0, 1, 0), (0, 1, 0), (0, 1, 0), (0, 0.9999999, 0), (0, 1, 0), (0, -1, 0), (0, -1, 0), (0, -1, 0), (0, -1, 0), (0, -1, 0), (0, -1, 0), (0, -1, 0), (0, -0.9999999, 0), (0, -1, 0), (0, -1, 0), (0, 1, 0), (0, -1, 0)](
			
			interpolation = "faceVarying"
		)
		
		point3f[] points = [(0.1499996, 0, -1.849976), (0.1499996, 0, 1.850037), (0.1499996, 1, 1.850037), (0.1499996, 1, -1.849976), (-0.1499996, 1, -2.149963), (-0.1499996, 1, 2.150024), (-0.1499996, 0, 2.150024), (-0.1499996, 0, -2.149963), (0.1499996, 1, -1.849976), (0.1499996, 1, 1.850037), (0, 1, 2), (-0.1499996, 1, 2.150024), (-0.1499996, 1, -2.149963), (0, 1, -2), (0.1499996, 0, -1.849976), (0, 0, -2), (-0.1499996, 0, -2.149963), (-0.1499996, 0, 2.150024), (0, 0, 2), (0.1499996, 0, 1.850037)]
		float2[] primvars:st = [(0, 0), (1, 0), (1, 1), (0, 0), (1, 1), (0, 1), (0, 0), (1, 0), (1, 1), (0, 0), (1, 1), (0, 1), (0.9651105, 0.5), (1, 1), (0, 1), (0.9651105, 0.5), (0, 1), (0.0348753, 0.5), (0.0348753, 0.5), (0.0697648, 0), (0.9651105, 0.5), (0.0697648, 0), (0.9302352, 0), (0.9651105, 0.5), (0.930247, 1.568366E-07), (1, 1.435055E-05), (-1.254505E-06, 0.9999998), (0.930247, 1.568366E-07), (-1.254505E-06, 0.9999998), (8.781537E-06, 0.8604581), (8.781537E-06, 0.8604581), (0.8604802, 1.568366E-07), (0.930247, 1.568366E-07), (-1.254505E-06, 0.9999998), (1.129055E-05, 0.930222), (8.781537E-06, 0.8604581)](
			
			interpolation = "faceVarying"
		)
		
		
	}
	
}
