#usda 1.0 | Cygon
(
	defaultPrim = "World"
	upAxis = "Y"
	metersPerUnit = 1
)

def Xform "World"
{
	def Mesh "Wall_69ef1941_1565_4ca8_b504_9fa95865a6bd"
	{
		int[] faceVertexCounts = [3, 3, 3, 3, 3, 3, 3, 3, 3, 3, 3, 3, 3, 3, 3, 3, 3, 3, 3, 3]
		int[] faceVertexIndices = [0, 1, 2, 0, 2, 3, 4, 5, 6, 4, 6, 7, 8, 9, 10, 8, 10, 11, 11, 13, 8, 11, 12, 13, 14, 17, 18, 14, 18, 19, 14, 15, 17, 15, 16, 17, 20, 21, 22, 20, 22, 23, 24, 25, 26, 24, 26, 27, 28, 29, 30, 28, 30, 31, 32, 33, 34, 32, 34, 35]
		uniform token orientation = "leftHanded"
		normal3f[] normals = [(-1, 0, 0), (-1, 0, 0), (-1, 0, 0), (-1, 0, 0), (-1, 0, 0), (-1, 0, 0), (1, 0, 0), (1, 0, 0), (1, 0, 0), (1, 0, 0), (1, 0, 0), (1, 0, 0), (0, 1, 0), (0, 0.9999999, 0), (0, 1, 0), (0, 1, 0), (0, 1, 0), (0, 1, 0), (0, 1, 0), (0, 1, 0), (0, 1, 0), (0, 1, 0), (0, 1, 0), (0, 1, 0), (0, -1, 0), (0, -1, 0), (0, -1, 0), (0, -1, 0), (0, -1, 0), (0, -0.9999999, 0), (0, -1, 0), (0, -1, 0), (0, -1, 0), (0, -1, 0), (0, -1, 0), (0, -1, 0), (0, 0, 1), (0, 0, 1), (0, 0, 1), (0, 0, 1), (0, 0, 1), (0, 0, 1), (0, 0, 1), (0, 0, 1), (0, 0, 1), (0, 0, 1), (0, 0, 1), (0, 0, 1), (0.7070214, 0, -0.7071922), (0.7070214, 0, -0.7071922), (0.7070214, 0, -0.7071922), (0.7070214, 0, -0.7071922), (0.7070214, 0, -0.7071922), (0.7070214, 0, -0.7071922), (0.7071652, 0, -0.7070484), (0.7071652, 0, -0.7070484), (0.7071652, 0, -0.7070484), (0.7071652, 0, -0.7070484), (0.7071652, 0, -0.7070484), (0.7071652, 0, -0.7070484)](
			
			interpolation = "faceVarying"
		)
		
		point3f[] points = [(-0.1499996, 0, 2.5), (-0.1499996, 0, -2.650024), (-0.1499996, 1, -2.650024), (-0.1499996, 1, 2.5), (0.1499996, 1, 2.5), (0.1499996, 1, -2.350037), (0.1499996, 0, -2.350037), (0.1499996, 0, 2.5), (-0.1499996, 1, 2.5), (-0.1499996, 1, -2.650024), (0, 1, -2.5), (0.1499996, 1, -2.350037), (0.1499996, 1, 2.5), (0, 1, 2.5), (-0.1499996, 0, 2.5), (0, 0, 2.5), (0.1499996, 0, 2.5), (0.1499996, 0, -2.350037), (0, 0, -2.5), (-0.1499996, 0, -2.650024), (0.1499996, 0, 2.5), (0, 0, 2.5), (0, 1, 2.5), (0.1499996, 1, 2.5), (-0.1499996, 1, 2.5), (0, 1, 2.5), (0, 0, 2.5), (-0.1499996, 0, 2.5), (0.1499996, 1, -2.350037), (0, 1, -2.5), (0, 0, -2.5), (0.1499996, 0, -2.350037), (-0.1499996, 0, -2.650024), (0, 0, -2.5), (0, 1, -2.5), (-0.1499996, 1, -2.650024)]
		float2[] primvars:st = [(0, 0), (1, 0), (1, 1), (0, 0), (1, 1), (0, 1), (0, 0), (1, 0), (1, 1), (0, 0), (1, 1), (0, 1), (0, 0), (1, 0), (0.9708692, 0.5), (0, 0), (0.9708692, 0.5), (0.9417502, 1), (0.9417502, 1), (0, 0.5), (0, 0), (0.9417502, 1), (0, 1), (0, 0.5), (0, 0), (1, 0.9417502), (0.5, 0.9708692), (0, 0), (0.5, 0.9708692), (0, 1), (0, 0), (0.5, 0), (1, 0.9417502), (0.5, 0), (1, 0), (1, 0.9417502), (0, 0), (1, 0), (1, 1), (0, 0), (1, 1), (0, 1), (0, 0), (1, 0), (1, 1), (0, 0), (1, 1), (0, 1), (0, 0), (1, 0), (1, 1), (0, 0), (1, 1), (0, 1), (0, 0), (1, 0), (1, 1), (0, 0), (1, 1), (0, 1)](
			
			interpolation = "faceVarying"
		)
		
		
	}
	
}
