#usda 1.0 | Cygon
(
	defaultPrim = "World"
	upAxis = "Y"
	metersPerUnit = 1
)

def Xform "World"
{
	def Mesh "Wall_79c2adaf_091e_4d60_a80e_eae3dfedf9d3"
	{
		int[] faceVertexCounts = [3, 3, 3, 3, 3, 3, 3, 3, 3, 3, 3, 3, 3, 3, 3, 3]
		int[] faceVertexIndices = [0, 1, 2, 0, 2, 3, 4, 5, 6, 4, 6, 7, 8, 9, 10, 8, 10, 11, 12, 13, 14, 12, 14, 15, 16, 17, 18, 16, 18, 19, 20, 21, 22, 20, 22, 23, 24, 25, 26, 24, 26, 27, 28, 29, 30, 28, 30, 31]
		uniform token orientation = "leftHanded"
		normal3f[] normals = [(0, 0, -1), (0, 0, -1), (0, 0, -1), (0, 0, -1), (0, 0, -1), (0, 0, -1), (0, 0, 1), (0, 0, 1), (0, 0, 1), (0, 0, 1), (0, 0, 1), (0, 0, 1), (0, 1, 0), (0, 1, 0), (0, 1, 0), (0, 1, 0), (0, 1, 0), (0, 1, 0), (0, -1, 0), (0, -1, 0), (0, -1, 0), (0, -1, 0), (0, -1, 0), (0, -1, 0), (-1, 0, 0), (-1, 0, 0), (-1, 0, 0), (-1, 0, 0), (-1, 0, 0), (-1, 0, 0), (-1, 0, 0), (-1, 0, 0), (-1, 0, 0), (-1, 0, 0), (-1, 0, 0), (-1, 0, 0), (1, 0, 0), (1, 0, 0), (1, 0, 0), (1, 0, 0), (1, 0, 0), (1, 0, 0), (1, 0, 0), (1, 0, 0), (1, 0, 0), (1, 0, 0), (1, 0, 0), (1, 0, 0)](
			
			interpolation = "faceVarying"
		)
		
		point3f[] points = [(-2.5, 0, -0.1499996), (2.5, 0, -0.1499996), (2.5, 1, -0.1499996), (-2.5, 1, -0.1499996), (-2.5, 1, 0.1499996), (2.5, 1, 0.1499996), (2.5, 0, 0.1499996), (-2.5, 0, 0.1499996), (-2.5, 1, -0.1499996), (2.5, 1, -0.1499996), (2.5, 1, 0.1499996), (-2.5, 1, 0.1499996), (-2.5, 0, -0.1499996), (-2.5, 0, 0.1499996), (2.5, 0, 0.1499996), (2.5, 0, -0.1499996), (-2.5, 0, 0.1499996), (-2.5, 0, 0), (-2.5, 1, 0), (-2.5, 1, 0.1499996), (-2.5, 1, -0.1499996), (-2.5, 1, 0), (-2.5, 0, 0), (-2.5, 0, -0.1499996), (2.5, 1, 0.1499996), (2.5, 1, 0), (2.5, 0, 0), (2.5, 0, 0.1499996), (2.5, 0, -0.1499996), (2.5, 0, 0), (2.5, 1, 0), (2.5, 1, -0.1499996)]
		float2[] primvars:st = [(0, 0), (1, 0), (1, 1), (0, 0), (1, 1), (0, 1), (0, 0), (1, 0), (1, 1), (0, 0), (1, 1), (0, 1), (0, 0), (1, 0), (1, 1), (0, 0), (1, 1), (0, 1), (0, 0), (1, 0), (1, 1), (0, 0), (1, 1), (0, 1), (0, 0), (1, 0), (1, 1), (0, 0), (1, 1), (0, 1), (0, 0), (1, 0), (1, 1), (0, 0), (1, 1), (0, 1), (0, 0), (1, 0), (1, 1), (0, 0), (1, 1), (0, 1), (0, 0), (1, 0), (1, 1), (0, 0), (1, 1), (0, 1)](
			
			interpolation = "faceVarying"
		)
		
		
	}
	
}
