#usda 1.0 | Cygon
(
	defaultPrim = "World"
	upAxis = "Y"
	metersPerUnit = 1
)

def Xform "World"
{
	def Mesh "Wall_c43463e3_2a0e_4ffd_8a9a_bd6b4c57ccb3"
	{
		int[] faceVertexCounts = [3, 3, 3, 3, 3, 3, 3, 3, 3, 3, 3, 3]
		int[] faceVertexIndices = [0, 1, 2, 0, 2, 3, 4, 5, 6, 4, 6, 7, 8, 9, 10, 8, 10, 13, 10, 12, 13, 10, 11, 12, 14, 15, 18, 14, 18, 19, 15, 16, 18, 16, 17, 18]
		uniform token orientation = "leftHanded"
		normal3f[] normals = [(0, 0, 1), (0, 0, 1), (0, 0, 1), (0, 0, 1), (0, 0, 1), (0, 0, 1), (0, 0, -1), (0, 0, -1), (0, 0, -1), (0, 0, -1), (0, 0, -1), (0, 0, -1), (0, 1, 0), (0, 0.9999999, 0), (0, 1, 0), (0, 1, 0), (0, 1, 0), (0, 1, 0), (0, 1, 0), (0, 0.9999999, 0), (0, 1, 0), (0, 1, 0), (0, 1, 0), (0, 0.9999999, 0), (0, -1, 0), (0, -1, 0), (0, -1, 0), (0, -1, 0), (0, -1, 0), (0, -0.9999999, 0), (0, -1, 0), (0, -0.9999999, 0), (0, -1, 0), (0, -0.9999999, 0), (0, -1, 0), (0, -1, 0)](
			
			interpolation = "faceVarying"
		)
		
		point3f[] points = [(2.649963, 0, 0.1499996), (-2.650024, 0, 0.1499996), (-2.650024, 0.8999999, 0.1499996), (2.649963, 0.8999999, 0.1499996), (2.349976, 0.8999999, -0.1499996), (-2.350037, 0.8999999, -0.1499996), (-2.350037, 0, -0.1499996), (2.349976, 0, -0.1499996), (2.649963, 0.8999999, 0.1499996), (-2.650024, 0.8999999, 0.1499996), (-2.5, 0.8999999, 0), (-2.350037, 0.8999999, -0.1499996), (2.349976, 0.8999999, -0.1499996), (2.5, 0.8999999, 0), (2.649963, 0, 0.1499996), (2.5, 0, 0), (2.349976, 0, -0.1499996), (-2.350037, 0, -0.1499996), (-2.5, 0, 0), (-2.650024, 0, 0.1499996)]
		float2[] primvars:st = [(0, 0), (1, 0), (1, 1), (0, 0), (1, 1), (0, 1), (0, 0), (1, 0), (1, 1), (0, 0), (1, 1), (0, 1), (0, 0), (1, 0), (0.9716935, 0.5), (0, 0), (0.9716935, 0.5), (0.02829504, 0.5), (0.9716935, 0.5), (0.0566016, 1), (0.02829504, 0.5), (0.9716935, 0.5), (0.9433984, 1), (0.0566016, 1), (0, 0), (0.05660307, 0), (0.9999862, 0.9433985), (0, 0), (0.9999862, 0.9433985), (0.9999842, 1), (0.05660307, 0), (0.1132173, 1.17043E-05), (0.9999862, 0.9433985), (0.1132173, 1.17043E-05), (1, 0.8868087), (0.9999862, 0.9433985)](
			
			interpolation = "faceVarying"
		)
		
		
	}
	
}
