#usda 1.0 | Cygon
(
	defaultPrim = "World"
	upAxis = "Y"
	metersPerUnit = 1
)

def Xform "World"
{
	def Mesh "Wall_1616d352_b5ae_47ce_bc06_d86839b291d7"
	{
		int[] faceVertexCounts = [3, 3, 3, 3, 3, 3, 3, 3, 3, 3, 3, 3, 3, 3]
		int[] faceVertexIndices = [0, 1, 2, 0, 2, 3, 4, 5, 6, 4, 6, 7, 8, 9, 10, 8, 10, 11, 8, 11, 12, 13, 14, 15, 13, 15, 16, 13, 16, 17, 18, 19, 20, 18, 20, 21, 22, 23, 24, 22, 24, 25]
		uniform token orientation = "leftHanded"
		normal3f[] normals = [(0, 0, -1), (0, 0, -1), (0, 0, -1), (0, 0, -1), (0, 0, -1), (0, 0, -1), (0, 0, 0.9999999), (0, 0, 0.9999999), (0, 0, 0.9999999), (0, 0, 0.9999999), (0, 0, 0.9999999), (0, 0, 0.9999999), (0, 1, 0), (0, 1, 0), (0, 1, 0), (0, 1, 0), (0, 1, 0), (0, 0.9999999, 0), (0, 1, 0), (0, 0.9999999, 0), (0, 1, 0), (0, -0.9999999, 0), (0, -1, 0), (0, -0.9999999, 0), (0, -0.9999999, 0), (0, -0.9999999, 0), (0, -1, 0), (0, -0.9999999, 0), (0, -1, 0), (0, -1, 0), (1, 0, 0), (1, 0, 0), (1, 0, 0), (1, 0, 0), (1, 0, 0), (1, 0, 0), (1, 0, 0), (1, 0, 0), (1, 0, 0), (1, 0, 0), (1, 0, 0), (1, 0, 0)](
			
			interpolation = "faceVarying"
		)
		
		point3f[] points = [(-0.5999756, 0, -0.1499996), (0.75, 0, -0.1499996), (0.75, 1, -0.1499996), (-0.5999756, 1, -0.1499996), (-0.8999634, 1, 0.1499996), (0.75, 1, 0.1499996), (0.75, 0, 0.1499996), (-0.8999634, 0, 0.1499996), (-0.5999756, 1, -0.1499996), (0.75, 1, -0.1499996), (0.75, 1, 0.1499996), (-0.8999634, 1, 0.1499996), (-0.75, 1, 0), (-0.5999756, 0, -0.1499996), (-0.75, 0, 0), (-0.8999634, 0, 0.1499996), (0.75, 0, 0.1499996), (0.75, 0, -0.1499996), (0.75, 1, 0.1499996), (0.75, 1, 0), (0.75, 0, 0), (0.75, 0, 0.1499996), (0.75, 0, -0.1499996), (0.75, 0, 0), (0.75, 1, 0), (0.75, 1, -0.1499996)]
		float2[] primvars:st = [(0, 0), (1, 0), (1, 1), (0, 0), (1, 1), (0, 1), (0, 0), (1, 0), (1, 1), (0, 0), (1, 1), (0, 1), (0.1818148, 0), (1, 0), (1, 1), (0.1818148, 0), (1, 1), (0, 1), (0.1818148, 0), (0, 1), (0.09088891, 0.5), (0.6923256, 0), (0.846178, 0), (1, 3.596781E-05), (0.6923256, 0), (1, 3.596781E-05), (0.1538261, 1.000003), (0.6923256, 0), (0.1538261, 1.000003), (-6.916146E-07, 0.8181565), (0, 0), (1, 0), (1, 1), (0, 0), (1, 1), (0, 1), (0, 0), (1, 0), (1, 1), (0, 0), (1, 1), (0, 1)](
			
			interpolation = "faceVarying"
		)
		
		
	}
	
}
