#usda 1.0 | Cygon
(
	defaultPrim = "World"
	upAxis = "Y"
	metersPerUnit = 1
)

def Xform "World"
{
	def Mesh "Wall_6afab6eb_c7dd_4984_9b53_657d32bdec85"
	{
		int[] faceVertexCounts = [3, 3, 3, 3, 3, 3, 3, 3, 3, 3, 3, 3, 3, 3, 3, 3]
		int[] faceVertexIndices = [0, 1, 2, 0, 2, 3, 4, 5, 6, 4, 6, 7, 8, 10, 11, 8, 11, 12, 8, 9, 10, 12, 13, 8, 14, 15, 17, 15, 16, 17, 17, 18, 14, 18, 19, 14, 20, 21, 22, 20, 22, 23, 24, 25, 26, 24, 26, 27]
		uniform token orientation = "leftHanded"
		normal3f[] normals = [(-1, 0, 0), (-1, 0, 0), (-1, 0, 0), (-1, 0, 0), (-1, 0, 0), (-1, 0, 0), (1, 0, 0), (1, 0, 0), (1, 0, 0), (1, 0, 0), (1, 0, 0), (1, 0, 0), (0, 1, 0), (0, 0.9999999, 0), (0, 1, 0), (0, 1, 0), (0, 1, 0), (0, 1, 0), (0, 1, 0), (0, 1, 0), (0, 0.9999999, 0), (0, 1, 0), (0, 1, 0), (0, 1, 0), (0, -1, 0), (0, -1, 0), (0, -1, 0), (0, -1, 0), (0, -1, 0), (0, -1, 0), (0, -1, 0), (0, -0.9999999, 0), (0, -1, 0), (0, -0.9999999, 0), (0, -1, 0), (0, -1, 0), (-0.7065937, 0, 0.7076194), (-0.7065937, 0, 0.7076194), (-0.7065937, 0, 0.7076194), (-0.7065937, 0, 0.7076194), (-0.7065937, 0, 0.7076194), (-0.7065937, 0, 0.7076194), (-0.7071607, 0, 0.7070528), (-0.7071607, 0, 0.7070528), (-0.7071607, 0, 0.7070528), (-0.7071607, 0, 0.7070528), (-0.7071607, 0, 0.7070528), (-0.7071607, 0, 0.7070528)](
			
			interpolation = "faceVarying"
		)
		
		point3f[] points = [(-0.1500015, 0, 0.8499756), (-0.1500015, 0, -0.8500366), (-0.1500015, 3, -0.8500366), (-0.1500015, 3, 0.8499756), (0.04999924, 3, 1.049927), (0.04999924, 3, -1.049988), (0.04999924, 0, -1.049988), (0.04999924, 0, 1.049927), (-0.1500015, 3, 0.8499756), (-0.1500015, 3, -0.8500366), (0, 3, -1), (0.04999924, 3, -1.049988), (0.04999924, 3, 1.049927), (0, 3, 1), (-0.1500015, 0, 0.8499756), (0, 0, 1), (0.04999924, 0, 1.049927), (0.04999924, 0, -1.049988), (0, 0, -1), (-0.1500015, 0, -0.8500366), (0.04999924, 0, 1.049927), (0, 0, 1), (0, 3, 1), (0.04999924, 3, 1.049927), (-0.1500015, 3, 0.8499756), (0, 3, 1), (0, 0, 1), (-0.1500015, 0, 0.8499756)]
		float2[] primvars:st = [(0, 0), (1, 0), (1, 1), (0, 0), (1, 1), (0, 1), (0, 0), (1, 0), (1, 1), (0, 0), (1, 1), (0, 1), (0.09521872, 0), (0.9761953, 0.7500048), (1, 1), (0.09521872, 0), (1, 1), (0, 1), (0.09521872, 0), (0.9047813, 0), (0.9761953, 0.7500048), (0, 1), (0.02377561, 0.7500048), (0.09521872, 0), (0.8095576, 0), (0.9524212, 0), (8.990946E-06, 1.000001), (0.9524212, 0), (1.000003, 3.853733E-05), (8.990946E-06, 1.000001), (8.990946E-06, 1.000001), (7.706525E-06, 0.9523846), (0.8095576, 0), (7.706525E-06, 0.9523846), (0, 0.8095331), (0.8095576, 0), (0, 0), (1, 0), (1, 1), (0, 0), (1, 1), (0, 1), (0, 0), (1, 0), (1, 1), (0, 0), (1, 1), (0, 1)](
			
			interpolation = "faceVarying"
		)
		
		
	}
	
}
