#usda 1.0 | Cygon
(
	defaultPrim = "World"
	upAxis = "Y"
	metersPerUnit = 1
)

def Xform "World"
{
	def Mesh "Wall_d5965345_89e6_446d_b358_64256a9ccfff"
	{
		int[] faceVertexCounts = [3, 3, 3, 3, 3, 3, 3, 3, 3, 3, 3, 3, 3, 3, 3, 3, 3, 3]
		int[] faceVertexIndices = [0, 1, 2, 0, 2, 3, 4, 5, 6, 4, 6, 7, 8, 9, 10, 8, 10, 11, 8, 11, 12, 13, 14, 15, 13, 15, 16, 13, 16, 17, 18, 19, 20, 18, 20, 21, 22, 23, 24, 22, 24, 25, 26, 27, 28, 26, 28, 29, 30, 31, 32, 30, 32, 33]
		uniform token orientation = "leftHanded"
		normal3f[] normals = [(-1, 0, 0), (-1, 0, 0), (-1, 0, 0), (-1, 0, 0), (-1, 0, 0), (-1, 0, 0), (0.9999999, 0, 0), (0.9999999, 0, 0), (0.9999999, 0, 0), (0.9999999, 0, 0), (0.9999999, 0, 0), (0.9999999, 0, 0), (0, 1, 0), (0, 1, 0), (0, 1, 0), (0, 1, 0), (0, 1, 0), (0, 1, 0), (0, 1, 0), (0, 1, 0), (0, 1, 0), (0, -1, 0), (0, -1, 0), (0, -1, 0), (0, -1, 0), (0, -1, 0), (0, -1, 0), (0, -1, 0), (0, -1, 0), (0, -1, 0), (0.7071652, 0, 0.7070484), (0.7071652, 0, 0.7070484), (0.7071652, 0, 0.7070484), (0.7071652, 0, 0.7070484), (0.7071652, 0, 0.7070484), (0.7071652, 0, 0.7070484), (0.7070214, 0, 0.7071922), (0.7070214, 0, 0.7071922), (0.7070214, 0, 0.7071922), (0.7070214, 0, 0.7071922), (0.7070214, 0, 0.7071922), (0.7070214, 0, 0.7071922), (0, 0, -1), (0, 0, -1), (0, 0, -1), (0, 0, -1), (0, 0, -1), (0, 0, -1), (0, 0, -1), (0, 0, -1), (0, 0, -1), (0, 0, -1), (0, 0, -1), (0, 0, -1)](
			
			interpolation = "faceVarying"
		)
		
		point3f[] points = [(-0.1499996, 0, 3.649963), (-0.1499996, 0, -3.5), (-0.1499996, 1, -3.5), (-0.1499996, 1, 3.649963), (0.1499996, 1, 3.349976), (0.1499996, 1, -3.5), (0.1499996, 0, -3.5), (0.1499996, 0, 3.349976), (-0.1499996, 1, 3.649963), (-0.1499996, 1, -3.5), (0.1499996, 1, -3.5), (0.1499996, 1, 3.349976), (0, 1, 3.5), (-0.1499996, 0, 3.649963), (0, 0, 3.5), (0.1499996, 0, 3.349976), (0.1499996, 0, -3.5), (-0.1499996, 0, -3.5), (0.1499996, 0, 3.349976), (0, 0, 3.5), (0, 1, 3.5), (0.1499996, 1, 3.349976), (-0.1499996, 1, 3.649963), (0, 1, 3.5), (0, 0, 3.5), (-0.1499996, 0, 3.649963), (0.1499996, 1, -3.5), (0, 1, -3.5), (0, 0, -3.5), (0.1499996, 0, -3.5), (-0.1499996, 0, -3.5), (0, 0, -3.5), (0, 1, -3.5), (-0.1499996, 1, -3.5)]
		float2[] primvars:st = [(0, 0), (1, 0), (1, 1), (0, 0), (1, 1), (0, 1), (0, 0), (1, 0), (1, 1), (0, 0), (1, 1), (0, 1), (0, 0), (1, 0), (1, 1), (0, 0), (1, 1), (0.04195655, 1), (0, 0), (0.04195655, 1), (0.02097401, 0.5), (0, 0), (0.04026833, 0), (0.08054463, 8.675938E-06), (0, 0), (0.08054463, 8.675938E-06), (1, 0.9580514), (0, 0), (1, 0.9580514), (0.9597225, 0.9999996), (0, 0), (1, 0), (1, 1), (0, 0), (1, 1), (0, 1), (0, 0), (1, 0), (1, 1), (0, 0), (1, 1), (0, 1), (0, 0), (1, 0), (1, 1), (0, 0), (1, 1), (0, 1), (0, 0), (1, 0), (1, 1), (0, 0), (1, 1), (0, 1)](
			
			interpolation = "faceVarying"
		)
		
		
	}
	
}
