#usda 1.0 | Cygon
(
	defaultPrim = "World"
	upAxis = "Y"
	metersPerUnit = 1
)

def Xform "World"
{
	def Mesh "Wall_9b6b08bd_3d4f_4a6e_aa79_4591ad321ae9"
	{
		int[] faceVertexCounts = [3, 3, 3, 3, 3, 3, 3, 3, 3, 3, 3, 3, 3, 3, 3, 3, 3, 3, 3, 3, 3, 3, 3, 3, 3, 3, 3, 3]
		int[] faceVertexIndices = [1, 2, 3, 1, 3, 4, 4, 5, 1, 5, 0, 1, 5, 6, 0, 6, 7, 0, 8, 13, 14, 8, 14, 15, 8, 12, 13, 8, 9, 12, 9, 11, 12, 9, 10, 11, 16, 17, 18, 16, 18, 21, 18, 20, 21, 18, 19, 20, 22, 23, 24, 22, 24, 25, 22, 25, 26, 27, 29, 30, 27, 30, 31, 27, 28, 29, 32, 33, 34, 32, 34, 35, 36, 37, 38, 36, 38, 39, 40, 41, 42, 40, 42, 43]
		uniform token orientation = "leftHanded"
		normal3f[] normals = [(0, 0, -0.9999999), (0, 0, -1), (0, 0, -1), (0, 0, -0.9999999), (0, 0, -1), (0, 0, -1), (0, 0, -1), (0, 0, -1), (0, 0, -0.9999999), (0, 0, -1), (0, 0, -0.9999999), (0, 0, -0.9999999), (0, 0, -1), (0, 0, -1), (0, 0, -0.9999999), (0, 0, -1), (0, 0, -1), (0, 0, -0.9999999), (0, 0, 1), (0, 0, 1), (0, 0, 1), (0, 0, 1), (0, 0, 1), (0, 0, 1), (0, 0, 1), (0, 0, 1), (0, 0, 1), (0, 0, 1), (0, 0, 0.9999999), (0, 0, 1), (0, 0, 0.9999999), (0, 0, 0.9999999), (0, 0, 1), (0, 0, 0.9999999), (0, 0, 1), (0, 0, 0.9999999), (0, 1, 0), (0, 1, 0), (0, 1, 0), (0, 1, 0), (0, 1, 0), (0, 1, 0), (0, 1, 0), (0, 1, 0), (0, 1, 0), (0, 1, 0), (0, 0.9999999, 0), (0, 1, 0), (0, -1, 0), (0, -1, 0), (0, -1, 0), (0, -1, 0), (0, -1, 0), (0, -1, 0), (0, -1, 0), (0, -1, 0), (0, -1, 0), (0, -1, 0), (0, -1, 0), (0, -1, 0), (0, -1, 0), (0, -1, 0), (0, -1, 0), (0, -1, 0), (0, -1, 0), (0, -1, 0), (0, -1, 0), (0, -1, 0), (0, -1, 0), (0, -1, 0), (0, -1, 0), (0, -1, 0), (1, 0, 0), (1, 0, 0), (1, 0, 0), (1, 0, 0), (1, 0, 0), (1, 0, 0), (-1, 0, 0), (-1, 0, 0), (-1, 0, 0), (-1, 0, 0), (-1, 0, 0), (-1, 0, 0)](
			
			interpolation = "faceVarying"
		)
		
		point3f[] points = [(-1.5, 4.5, -0.1500015), (1.5, 4.5, -0.1500015), (1.5, 0, -0.1500015), (2.150024, 0, -0.1500015), (2.150024, 5, -0.1500015), (-2.149963, 5, -0.1500015), (-2.149963, 0, -0.1500015), (-1.5, 0, -0.1500015), (1.5, 4.5, 0.1499996), (-1.5, 4.5, 0.1499996), (-1.5, 0, 0.1499996), (-1.849976, 0, 0.1499996), (-1.849976, 5, 0.1499996), (1.850037, 5, 0.1499996), (1.850037, 0, 0.1499996), (1.5, 0, 0.1499996), (-2.149963, 5, -0.1499996), (2.150024, 5, -0.1499996), (2, 5, 0), (1.850037, 5, 0.1499996), (-1.849976, 5, 0.1499996), (-2, 5, 0), (-2.149963, 0, -0.1499996), (-2, 0, 0), (-1.849976, 0, 0.1499996), (-1.5, 0, 0.1499996), (-1.5, 0, -0.1499996), (1.5, 0, -0.1499996), (1.5, 0, 0.1499996), (1.850037, 0, 0.1499996), (2, 0, 0), (2.150024, 0, -0.1499996), (-1.5, 4.5, 0.1499996), (1.5, 4.5, 0.1499996), (1.5, 4.5, -0.1499996), (-1.5, 4.5, -0.1499996), (-1.5, 4.5, 0.1499996), (-1.5, 4.5, -0.1499996), (-1.5, 0, -0.1499996), (-1.5, 0, 0.1499996), (1.5, 4.5, -0.1499996), (1.5, 4.5, 0.1499996), (1.5, 0, 0.1499996), (1.5, 0, -0.1499996)]
		float2[] primvars:st = [(0.8488311, 0.9), (0.8488311, 0), (1, 0), (0.8488311, 0.9), (1, 0), (1, 1), (1, 1), (0, 1), (0.8488311, 0.9), (0, 1), (0.1511547, 0.9), (0.8488311, 0.9), (0, 1), (0, 0), (0.1511547, 0.9), (0, 0), (0.1511547, 0), (0.1511547, 0.9), (0.9053958, 0.1), (1, 0), (1, 1), (0.9053958, 0.1), (1, 1), (0.9053958, 1), (0.9053958, 0.1), (0, 0), (1, 0), (0.9053958, 0.1), (0.09458768, 0.1), (0, 0), (0.09458768, 0.1), (0, 1), (0, 0), (0.09458768, 0.1), (0.09458768, 1), (0, 1), (0, 0), (1, 0), (0.9651105, 0.5), (0, 0), (0.9651105, 0.5), (0.0348753, 0.5), (0.9651105, 0.5), (0.0697648, 1), (0.0348753, 0.5), (0.9651105, 0.5), (0.9302352, 1), (0.0697648, 1), (0, 0), (0.3157808, 0), (0.6316184, 9.38842E-05), (0, 0), (0.6316184, 9.38842E-05), (1, 0.5385483), (0, 0), (1, 0.5385483), (0.6841454, 1), (0, 0), (1, 0.5384976), (0.5, 0.7692019), (0, 0), (0.5, 0.7692019), (0, 1), (0, 0), (1, 0), (1, 0.5384976), (0, 0), (1, 0), (1, 1), (0, 0), (1, 1), (0, 1), (0, 0), (1, 0), (1, 1), (0, 0), (1, 1), (0, 1), (0, 0), (1, 0), (1, 1), (0, 0), (1, 1), (0, 1)](
			
			interpolation = "faceVarying"
		)
		
		
	}
	
}
