#usda 1.0 | Cygon
(
	defaultPrim = "World"
	upAxis = "Y"
	metersPerUnit = 1
)

def Xform "World"
{
	def Mesh "Wall_f635281d_6676_4703_adb6_7bc400093008"
	{
		int[] faceVertexCounts = [3, 3, 3, 3, 3, 3, 3, 3, 3, 3, 3, 3]
		int[] faceVertexIndices = [0, 1, 2, 0, 2, 3, 4, 5, 6, 4, 6, 7, 8, 10, 11, 8, 11, 12, 8, 9, 10, 12, 13, 8, 14, 16, 17, 14, 17, 19, 17, 18, 19, 14, 15, 16]
		uniform token orientation = "leftHanded"
		normal3f[] normals = [(0, 0, -1), (0, 0, -1), (0, 0, -1), (0, 0, -1), (0, 0, -1), (0, 0, -1), (0, 0, 1), (0, 0, 1), (0, 0, 1), (0, 0, 1), (0, 0, 1), (0, 0, 1), (0, 1, 0), (0, 1, 0), (0, 1, 0), (0, 1, 0), (0, 1, 0), (0, 1, 0), (0, 1, 0), (0, 1, 0), (0, 1, 0), (0, 1, 0), (0, 1, 0), (0, 1, 0), (0, -1, 0), (0, -1, 0), (0, -1, 0), (0, -1, 0), (0, -1, 0), (0, -1, 0), (0, -1, 0), (0, 1, 0), (0, -1, 0), (0, -1, 0), (0, -1, 0), (0, -1, 0)](
			
			interpolation = "faceVarying"
		)
		
		point3f[] points = [(-7.349976, 0, -0.1499996), (7.350037, 0, -0.1499996), (7.350037, 7.5, -0.1499996), (-7.349976, 7.5, -0.1499996), (-7.5, 7.5, 0.1499996), (7.650024, 7.5, 0.1499996), (7.650024, 0, 0.1499996), (-7.5, 0, 0.1499996), (-7.349976, 7.5, -0.1499996), (7.350037, 7.5, -0.1499996), (7.5, 7.5, 0), (7.650024, 7.5, 0.1499996), (-7.5, 7.5, 0.1499996), (-7.5, 7.5, 0), (-7.349976, 0, -0.1499996), (-7.5, 0, 0), (-7.5, 0, 0.1499996), (7.650024, 0, 0.1499996), (7.5, 0, 0), (7.350037, 0, -0.1499996)]
		float2[] primvars:st = [(0, 0), (1, 0), (1, 1), (0, 0), (1, 1), (0, 1), (0, 0), (1, 0), (1, 1), (0, 0), (1, 1), (0, 1), (0.009902585, 0), (0.9900974, 0.5), (1, 1), (0.009902585, 0), (1, 1), (0, 1), (0.009902585, 0), (0.9801989, 0), (0.9900974, 0.5), (0, 1), (0, 0.5), (0.009902585, 0), (0.9702987, 0), (0.9999999, 0.009805556), (1.112694E-08, 1), (0.9702987, 0), (1.112694E-08, 1), (2.525816E-06, 0.960782), (1.112694E-08, 1), (3.282448E-06, 0.9803891), (2.525816E-06, 0.960782), (0.9702987, 0), (0.9901006, 0), (0.9999999, 0.009805556)](
			
			interpolation = "faceVarying"
		)
		
		
	}
	
}
