#usda 1.0 | Cygon
(
	defaultPrim = "World"
	upAxis = "Y"
	metersPerUnit = 1
)

def Xform "World"
{
	def Mesh "Wall_27381809_7db6_4ef6_a35e_f123c9b8afb1"
	{
		int[] faceVertexCounts = [3, 3, 3, 3, 3, 3, 3, 3, 3, 3, 3, 3, 3, 3, 3, 3, 3, 3, 3, 3, 3, 3, 3, 3, 3, 3, 3, 3, 3, 3, 3, 3, 3, 3, 3, 3, 3, 3, 3, 3, 3, 3, 3, 3, 3, 3, 3, 3, 3, 3, 3, 3, 3, 3, 3, 3, 3, 3, 3, 3, 3, 3, 3, 3, 3, 3, 3, 3, 3, 3, 3, 3, 3, 3, 3, 3]
		int[] faceVertexIndices = [0, 1, 2, 0, 2, 3, 4, 5, 6, 4, 6, 7, 13, 19, 21, 19, 20, 21, 21, 12, 13, 21, 11, 12, 21, 10, 11, 21, 9, 10, 21, 22, 9, 13, 18, 19, 13, 14, 18, 14, 17, 18, 14, 15, 17, 22, 8, 9, 22, 23, 8, 15, 16, 17, 24, 25, 26, 24, 26, 27, 28, 29, 31, 28, 31, 32, 29, 30, 31, 35, 36, 44, 36, 43, 44, 36, 40, 43, 36, 39, 40, 36, 38, 39, 36, 37, 38, 44, 34, 35, 44, 45, 34, 40, 41, 43, 41, 42, 43, 45, 46, 34, 46, 33, 34, 46, 47, 33, 48, 49, 50, 48, 50, 51, 48, 51, 52, 48, 52, 53, 54, 55, 56, 54, 56, 57, 54, 57, 58, 59, 60, 61, 59, 61, 62, 59, 62, 63, 64, 65, 66, 64, 66, 67, 68, 69, 70, 68, 70, 71, 72, 73, 74, 72, 74, 75, 76, 77, 78, 76, 78, 79, 80, 81, 82, 80, 82, 83, 84, 85, 86, 84, 86, 87, 88, 89, 90, 88, 90, 91, 92, 93, 94, 92, 94, 95, 96, 97, 98, 96, 98, 99, 100, 101, 102, 100, 102, 103, 104, 105, 106, 104, 106, 107, 108, 109, 110, 108, 110, 111, 112, 113, 114, 112, 114, 115, 116, 117, 118, 116, 118, 119, 120, 121, 122, 120, 122, 123]
		uniform token orientation = "leftHanded"
		normal3f[] normals = [(1, 0, 0), (1, 0, 0), (1, 0, 0), (1, 0, 0), (1, 0, 0), (1, 0, 0), (1, 0, 0), (0.9999999, 0, 0), (1, 0, 0), (1, 0, 0), (1, 0, 0), (1, 0, 0), (1, 0, 0), (1, 0, 0), (1, 0, 0), (1, 0, 0), (1, 0, 0), (1, 0, 0), (1, 0, 0), (1, 0, 0), (1, 0, 0), (1, 0, 0), (1, 0, 0), (1, 0, 0), (1, 0, 0), (1, 0, 0), (1, 0, 0), (1, 0, 0), (1, 0, 0), (1, 0, 0), (1, 0, 0), (0.9999999, 0, 0), (1, 0, 0), (1, 0, 0), (0.9999999, 0, 0), (1, 0, 0), (1, 0, 0), (1, 0, 0), (0.9999999, 0, 0), (1, 0, 0), (1, 0, 0), (0.9999999, 0, 0), (1, 0, 0), (1, 0, 0), (1, 0, 0), (0.9999999, 0, 0), (1, 0, 0), (1, 0, 0), (0.9999999, 0, 0), (1, 0, 0), (1, 0, 0), (1, 0, 0), (0.9999999, 0, 0), (1, 0, 0), (-1, 0, 0), (-1, 0, 0), (-1, 0, 0), (-1, 0, 0), (-1, 0, 0), (-1, 0, 0), (-1, 0, 0), (-1, 0, 0), (-0.9999999, 0, 0), (-1, 0, 0), (-0.9999999, 0, 0), (-1, 0, 0), (-1, 0, 0), (-1, 0, 0), (-0.9999999, 0, 0), (-0.9999999, 0, 0), (-1, 0, 0), (-1, 0, 0), (-1, 0, 0), (-1, 0, 0), (-1, 0, 0), (-1, 0, 0), (-1, 0, 0), (-1, 0, 0), (-1, 0, 0), (-1, 0, 0), (-1, 0, 0), (-1, 0, 0), (-1, 0, 0), (-1, 0, 0), (-1, 0, 0), (-1, 0, 0), (-1, 0, 0), (-1, 0, 0), (-1, 0, 0), (-0.9999999, 0, 0), (-1, 0, 0), (-1, 0, 0), (-1, 0, 0), (-1, 0, 0), (-1, 0, 0), (-1, 0, 0), (-1, 0, 0), (-1, 0, 0), (-1, 0, 0), (-1, 0, 0), (-0.9999999, 0, 0), (-1, 0, 0), (-0.9999999, 0, 0), (-1, 0, 0), (-1, 0, 0), (-0.9999999, 0, 0), (-0.9999999, 0, 0), (-1, 0, 0), (0, 1, 0), (0, 1, 0), (0, 0.9999999, 0), (0, 1, 0), (0, 0.9999999, 0), (0, 1, 0), (0, 1, 0), (0, 1, 0), (0, 1, 0), (0, 1, 0), (0, 1, 0), (0, 1, 0), (0, -1, 0), (0, -1, 0), (0, -1, 0), (0, -1, 0), (0, -1, 0), (0, -1, 0), (0, -1, 0), (0, -1, 0), (0, -1, 0), (0, -1, 0), (0, -1, 0), (0, -1, 0), (0, -1, 0), (0, -1, 0), (0, -0.9999999, 0), (0, -1, 0), (0, -0.9999999, 0), (0, -1, 0), (-0.7071652, 0, -0.7070484), (-0.7071652, 0, -0.7070484), (-0.7071652, 0, -0.7070484), (-0.7071652, 0, -0.7070484), (-0.7071652, 0, -0.7070484), (-0.7071652, 0, -0.7070484), (0.7071652, 0, -0.7070484), (0.7071652, 0, -0.7070484), (0.7071652, 0, -0.7070484), (0.7071652, 0, -0.7070484), (0.7071652, 0, -0.7070484), (0.7071652, 0, -0.7070484), (-0.7070213, 0, 0.7071922), (-0.7070213, 0, 0.7071922), (-0.7070213, 0, 0.7071922), (-0.7070213, 0, 0.7071922), (-0.7070213, 0, 0.7071922), (-0.7070213, 0, 0.7071922), (0, 0, 1), (0, 0, 1), (0, 0, 1), (0, 0, 1), (0, 0, 1), (0, 0, 1), (0, -1, 0), (0, -1, 0), (0, -1, 0), (0, -1, 0), (0, -1, 0), (0, -1, 0), (0, 0, 0.9999999), (0, 0, 0.9999999), (0, 0, 0.9999999), (0, 0, 0.9999999), (0, 0, 0.9999999), (0, 0, 0.9999999), (0, 0, -0.9999999), (0, 0, -0.9999999), (0, 0, -0.9999999), (0, 0, -0.9999999), (0, 0, -0.9999999), (0, 0, -0.9999999), (0, -1, 0), (0, -1, 0), (0, -1, 0), (0, -1, 0), (0, -1, 0), (0, -1, 0), (0, 1, 0), (0, 1, 0), (0, 1, 0), (0, 1, 0), (0, 1, 0), (0, 1, 0), (0, 0, 1), (0, 0, 1), (0, 0, 1), (0, 0, 1), (0, 0, 1), (0, 0, 1), (0, 0, -1), (0, 0, -1), (0, 0, -1), (0, 0, -1), (0, 0, -1), (0, 0, -1), (0, -1, 0), (0, -1, 0), (0, -1, 0), (0, -1, 0), (0, -1, 0), (0, -1, 0), (0, 1, 0), (0, 1, 0), (0, 1, 0), (0, 1, 0), (0, 1, 0), (0, 1, 0), (0, 0, 1), (0, 0, 1), (0, 0, 1), (0, 0, 1), (0, 0, 1), (0, 0, 1), (0, 0, -1), (0, 0, -1), (0, 0, -1), (0, 0, -1), (0, 0, -1), (0, 0, -1)](
			
			interpolation = "faceVarying"
		)
		
		point3f[] points = [(0.1500015, 6.5, 3.999996), (0.1500015, 1.5, 3.999996), (0.1500015, 7.5, 5), (0.1500015, 7.5, -4.849976), (0.1499996, 6.5, -3.000008), (0.1499996, 1.5, -3.000008), (0.1499996, 0, -2), (0.1499996, 6.5, -2), (0.1499996, 1.5, -3.000008), (0.1499996, 1.5, -4.000008), (0.1499996, 6.5, -4.000008), (0.1499996, 6.5, -3.000008), (0.1499996, 6.5, -2), (0.1499996, 6.5, 2), (0.1499996, 0, 2), (0.1499996, 0, 5), (0.1499996, 7.5, 5), (0.1499996, 1.5, 3.999996), (0.1499996, 1.5, 2.999996), (0.1499996, 6.5, 2.999996), (0.1499996, 6.5, 3.999996), (0.1499996, 7.5, -4.849976), (0.1499996, 0, -4.849976), (0.1499996, 0, -2), (-0.1500015, 1.5, 2.999996), (-0.1500015, 1.5, 3.999996), (-0.1500015, 0, 4.850037), (-0.1500015, 0, 2), (-0.1499996, 6.5, -3.000008), (-0.1499996, 6.5, -4.000008), (-0.1499996, 1.5, -4.000008), (-0.1499996, 7.5, -4.849976), (-0.1499996, 7.5, 4.850037), (-0.1499996, 1.5, -4.000008), (-0.1499996, 1.5, -3.000008), (-0.1499996, 6.5, -3.000008), (-0.1499996, 7.5, 4.850037), (-0.1499996, 0, 4.850037), (-0.1499996, 1.5, 3.999996), (-0.1499996, 6.5, 3.999996), (-0.1499996, 6.5, 2.999996), (-0.1499996, 1.5, 2.999996), (-0.1499996, 0, 2), (-0.1499996, 6.5, 2), (-0.1499996, 6.5, -2), (-0.1499996, 0, -2), (-0.1499996, 0, -4.849976), (-0.1499996, 7.5, -4.849976), (0.1499996, 7.5, -4.849976), (0.1499996, 7.5, 5), (0, 7.5, 5), (-0.1499996, 7.5, 4.850037), (-0.1499996, 7.5, -4.849976), (0, 7.5, -5), (0.1499996, 0, -4.849976), (0, 0, -5), (-0.1499996, 0, -4.849976), (-0.1499996, 0, -2), (0.1499996, 0, -2), (0.1499996, 0, 2), (-0.1499996, 0, 2), (-0.1499996, 0, 4.850037), (0, 0, 5), (0.1499996, 0, 5), (-0.1499996, 0, -4.849976), (0, 0, -5), (0, 7.5, -5), (-0.1499996, 7.5, -4.849976), (0.1499996, 7.5, -4.849976), (0, 7.5, -5), (0, 0, -5), (0.1499996, 0, -4.849976), (-0.1499996, 7.5, 4.850037), (0, 7.5, 5), (0, 0, 5), (-0.1499996, 0, 4.850037), (0.1499996, 0, 5), (0, 0, 5), (0, 7.5, 5), (0.1499996, 7.5, 5), (-0.1499996, 6.5, -2), (-0.1499996, 6.5, 2), (0.1499996, 6.5, 2), (0.1499996, 6.5, -2), (-0.1499996, 6.5, -2), (0.1499996, 6.5, -2), (0.1499996, 0, -2), (-0.1499996, 0, -2), (0.1499996, 6.5, 2), (-0.1499996, 6.5, 2), (-0.1499996, 0, 2), (0.1499996, 0, 2), (-0.1499996, 6.5, 2.999996), (-0.1499996, 6.5, 3.999996), (0.1499996, 6.5, 3.999996), (0.1499996, 6.5, 2.999996), (0.1499996, 1.5, 2.999996), (0.1499996, 1.5, 3.999996), (-0.1499996, 1.5, 3.999996), (-0.1499996, 1.5, 2.999996), (-0.1499996, 6.5, 2.999996), (0.1499996, 6.5, 2.999996), (0.1499996, 1.5, 2.999996), (-0.1499996, 1.5, 2.999996), (0.1499996, 6.5, 3.999996), (-0.1499996, 6.5, 3.999996), (-0.1499996, 1.5, 3.999996), (0.1499996, 1.5, 3.999996), (-0.1500034, 6.5, -4.000008), (-0.1500034, 6.5, -3.000008), (0.1499958, 6.5, -3.000008), (0.1499958, 6.5, -4.000008), (0.1499958, 1.5, -4.000008), (0.1499958, 1.5, -3.000008), (-0.1500034, 1.5, -3.000008), (-0.1500034, 1.5, -4.000008), (-0.1500034, 6.5, -4.000008), (0.1499958, 6.5, -4.000008), (0.1499958, 1.5, -4.000008), (-0.1500034, 1.5, -4.000008), (0.1499958, 6.5, -3.000008), (-0.1500034, 6.5, -3.000008), (-0.1500034, 1.5, -3.000008), (0.1499958, 1.5, -3.000008)]
		float2[] primvars:st = [(0.8984765, 0.8666667), (0.8984765, 0.2), (1, 1), (0.8984765, 0.8666667), (1, 1), (0, 1), (0.1878145, 0.8666667), (0.1878145, 0.2), (0.2893384, 0), (0.1878145, 0.8666667), (0.2893384, 0), (0.2893384, 0.8666667), (0.6954307, 0.8666667), (0.7969534, 0.8666667), (0, 1), (0.7969534, 0.8666667), (0.8984765, 0.8666667), (0, 1), (0, 1), (0.2893384, 0.8666667), (0.6954307, 0.8666667), (0, 1), (0.1878145, 0.8666667), (0.2893384, 0.8666667), (0, 1), (0.08629138, 0.8666667), (0.1878145, 0.8666667), (0, 1), (0.08629138, 0.2), (0.08629138, 0.8666667), (0, 1), (0, 0), (0.08629138, 0.2), (0.6954307, 0.8666667), (0.7969534, 0.2), (0.7969534, 0.8666667), (0.6954307, 0.8666667), (0.6954307, 0), (0.7969534, 0.2), (0.6954307, 0), (0.8984765, 0.2), (0.7969534, 0.2), (0.6954307, 0), (1, 0), (0.8984765, 0.2), (0, 0), (0.1878145, 0.2), (0.08629138, 0.2), (0, 0), (0.2893384, 0), (0.1878145, 0.2), (1, 0), (1, 1), (0.8984765, 0.2), (0.8092744, 0.8), (0.912367, 0.8), (1, 1), (0.8092744, 0.8), (1, 1), (0.7061822, 1), (0.1907181, 0.1333333), (0.08762545, 0.1333333), (0, 0), (0.1907181, 0.1333333), (0, 0), (1, 0), (0.08762545, 0.1333333), (0.08762545, 0.8), (0, 0), (0.1907181, 0.1333333), (1, 0), (0.2938116, 0.1333333), (1, 0), (0.7061822, 0.1333333), (0.2938116, 0.1333333), (1, 0), (0.8092744, 0.1333333), (0.7061822, 0.1333333), (1, 0), (0.912367, 0.1333333), (0.8092744, 0.1333333), (1, 0), (0.912367, 0.8), (0.912367, 0.1333333), (1, 0), (1, 1), (0.912367, 0.8), (0.2938116, 0.1333333), (0.1907181, 0.8), (0.1907181, 0.1333333), (0.2938116, 0.1333333), (0.2938116, 1), (0.1907181, 0.8), (0.8092744, 0.1333333), (0.8092744, 0.8), (0.7061822, 0.1333333), (0.8092744, 0.8), (0.7061822, 1), (0.7061822, 0.1333333), (0.2938116, 1), (0, 1), (0.1907181, 0.8), (0, 1), (0.08762545, 0.8), (0.1907181, 0.8), (0, 1), (0, 0), (0.08762545, 0.8), (0.01500244, 0), (1, 0), (1, 0.5), (0.01500244, 0), (1, 0.5), (0.9850037, 1), (0.01500244, 0), (0.9850037, 1), (0.01500244, 1), (0.01500244, 0), (0.01500244, 1), (0, 0.5), (0.9047624, -4.281905E-07), (1, -2.140953E-07), (0.9999846, 0.09525248), (0.9047624, -4.281905E-07), (0.9999846, 0.09525248), (0.09522382, 0.9999997), (0.9047624, -4.281905E-07), (0.09522382, 0.9999997), (1.712505E-06, 0.9047468), (0, 0), (1, 0), (1, 0.9500122), (0, 0), (1, 0.9500122), (0.5, 1), (0, 0), (0.5, 1), (0, 1), (0, 0), (1, 0), (1, 1), (0, 0), (1, 1), (0, 1), (0, 0), (1, 0), (1, 1), (0, 0), (1, 1), (0, 1), (0, 0), (1, 0), (1, 1), (0, 0), (1, 1), (0, 1), (0, 0), (1, 0), (1, 1), (0, 0), (1, 1), (0, 1), (0, 0), (1, 0), (1, 1), (0, 0), (1, 1), (0, 1), (0, 0), (1, 0), (1, 1), (0, 0), (1, 1), (0, 1), (0, 0), (1, 0), (1, 1), (0, 0), (1, 1), (0, 1), (0, 0), (1, 0), (1, 1), (0, 0), (1, 1), (0, 1), (0, 0), (1, 0), (1, 1), (0, 0), (1, 1), (0, 1), (0, 0), (1, 0), (1, 1), (0, 0), (1, 1), (0, 1), (0, 0), (1, 0), (1, 1), (0, 0), (1, 1), (0, 1), (0, 0), (1, 0), (1, 1), (0, 0), (1, 1), (0, 1), (0, 0), (1, 0), (1, 1), (0, 0), (1, 1), (0, 1), (0, 0), (1, 0), (1, 1), (0, 0), (1, 1), (0, 1), (0, 0), (1, 0), (1, 1), (0, 0), (1, 1), (0, 1)](
			
			interpolation = "faceVarying"
		)
		
		
	}
	
}
