#usda 1.0 | Cygon
(
	defaultPrim = "World"
	upAxis = "Y"
	metersPerUnit = 1
)

def Xform "World"
{
	def Mesh "Wall_c20fa4bf_26f5_46d6_9756_12f07c94e640"
	{
		int[] faceVertexCounts = [3, 3, 3, 3, 3, 3, 3, 3, 3, 3, 3, 3]
		int[] faceVertexIndices = [0, 1, 2, 0, 2, 3, 4, 5, 6, 4, 6, 7, 10, 11, 12, 10, 12, 13, 13, 8, 10, 8, 9, 10, 15, 16, 17, 15, 17, 19, 19, 14, 15, 17, 18, 19]
		uniform token orientation = "leftHanded"
		normal3f[] normals = [(0, 0, 1), (0, 0, 1), (0, 0, 1), (0, 0, 1), (0, 0, 1), (0, 0, 1), (0, 0, -1), (0, 0, -1), (0, 0, -1), (0, 0, -1), (0, 0, -1), (0, 0, -1), (0, 1, 0), (0, 0.9999999, 0), (0, 1, 0), (0, 1, 0), (0, 1, 0), (0, 1, 0), (0, 1, 0), (0, 0.9999999, 0), (0, 1, 0), (0, 0.9999999, 0), (0, 1, 0), (0, 1, 0), (0, -0.9999999, 0), (0, -0.9999999, 0), (0, -1, 0), (0, -0.9999999, 0), (0, -1, 0), (0, -1, 0), (0, -1, 0), (0, -1, 0), (0, -0.9999999, 0), (0, -1, 0), (0, 1, 0), (0, -1, 0)](
			
			interpolation = "faceVarying"
		)
		
		point3f[] points = [(2.349976, 0, 0.1499996), (-2.350037, 0, 0.1499996), (-2.350037, 0.9, 0.1499996), (2.349976, 0.9, 0.1499996), (2.649963, 0.9, -0.1499996), (-2.650024, 0.9, -0.1499996), (-2.650024, 0, -0.1499996), (2.649963, 0, -0.1499996), (2.349976, 0.9, 0.1499996), (-2.350037, 0.9, 0.1499996), (-2.5, 0.9, 0), (-2.650024, 0.9, -0.1499996), (2.649963, 0.9, -0.1499996), (2.5, 0.9, 0), (2.349976, 0, 0.1499996), (2.5, 0, 0), (2.649963, 0, -0.1499996), (-2.650024, 0, -0.1499996), (-2.5, 0, 0), (-2.350037, 0, 0.1499996)]
		float2[] primvars:st = [(0, 0), (1, 0), (1, 1), (0, 0), (1, 1), (0, 1), (0, 0), (1, 0), (1, 1), (0, 0), (1, 1), (0, 1), (0.9716935, 0.5), (1, 1), (0, 1), (0.9716935, 0.5), (0, 1), (0.02829504, 0.5), (0.02829504, 0.5), (0.0566016, 0), (0.9716935, 0.5), (0.0566016, 0), (0.9433984, 0), (0.9716935, 0.5), (0.9434075, -2.544903E-07), (1, 1.145206E-05), (0, 1), (0.9434075, -2.544903E-07), (0, 1), (7.633529E-06, 0.8867869), (7.633529E-06, 0.8867869), (0.8868039, -2.544903E-07), (0.9434075, -2.544903E-07), (0, 1), (9.669137E-06, 0.9433876), (7.633529E-06, 0.8867869)](
			
			interpolation = "faceVarying"
		)
		
		
	}
	
}
