#usda 1.0 | Cygon
(
	defaultPrim = "World"
	upAxis = "Y"
	metersPerUnit = 1
)

def Xform "World"
{
	def Mesh "Wall_8a71f753_e4ea_40ff_aadc_19afc6422cb6"
	{
		int[] faceVertexCounts = [3, 3, 3, 3, 3, 3, 3, 3, 3, 3, 3, 3]
		int[] faceVertexIndices = [0, 1, 2, 0, 2, 3, 4, 5, 6, 4, 6, 7, 8, 9, 10, 8, 10, 11, 8, 11, 12, 8, 12, 13, 14, 15, 17, 15, 16, 17, 17, 18, 14, 18, 19, 14]
		uniform token orientation = "leftHanded"
		normal3f[] normals = [(0, 0, 1), (0, 0, 1), (0, 0, 1), (0, 0, 1), (0, 0, 1), (0, 0, 1), (0, 0, -1), (0, 0, -1), (0, 0, -1), (0, 0, -1), (0, 0, -1), (0, 0, -1), (0, 0.9999999, 0), (0, 1, 0), (0, 1, 0), (0, 0.9999999, 0), (0, 1, 0), (0, 1, 0), (0, 0.9999999, 0), (0, 1, 0), (0, 1, 0), (0, 0.9999999, 0), (0, 1, 0), (0, 1, 0), (0, -1, 0), (0, -0.9999999, 0), (0, -1, 0), (0, -0.9999999, 0), (0, -1, 0), (0, -1, 0), (0, -1, 0), (0, -1, 0), (0, -1, 0), (0, -1, 0), (0, -1, 0), (0, -1, 0)](
			
			interpolation = "faceVarying"
		)
		
		point3f[] points = [(0.8499756, 0, 0.1499996), (-0.8500366, 0, 0.1499996), (-0.8500366, 3, 0.1499996), (0.8499756, 3, 0.1499996), (1.049927, 3, -0.05000019), (-1.049988, 3, -0.05000019), (-1.049988, 0, -0.05000019), (1.049927, 0, -0.05000019), (0.8499756, 3, 0.1499996), (-0.8500366, 3, 0.1499996), (-1, 3, 0), (-1.049988, 3, -0.05000019), (1.049927, 3, -0.05000019), (1, 3, 0), (0.8499756, 0, 0.1499996), (1, 0, 0), (1.049927, 0, -0.05000019), (-1.049988, 0, -0.05000019), (-1, 0, 0), (-0.8500366, 0, 0.1499996)]
		float2[] primvars:st = [(0, 0), (1, 0), (1, 1), (0, 0), (1, 1), (0, 1), (0, 0), (1, 0), (1, 1), (0, 0), (1, 1), (0, 1), (0.09521872, 0), (0.9047813, 0), (0.9761953, 0.7499988), (0.09521872, 0), (0.9761953, 0.7499988), (1, 1), (0.09521872, 0), (1, 1), (0, 1), (0.09521872, 0), (0, 1), (0.02377561, 0.7499988), (0.8095555, -1.284586E-06), (0.9524178, -1.284586E-06), (7.706456E-06, 1.000001), (0.9524178, -1.284586E-06), (0.9999987, 3.853758E-05), (7.706456E-06, 1.000001), (7.706456E-06, 1.000001), (7.706456E-06, 0.952383), (0.8095555, -1.284586E-06), (7.706456E-06, 0.952383), (0, 0.8095319), (0.8095555, -1.284586E-06)](
			
			interpolation = "faceVarying"
		)
		
		
	}
	
}
