#usda 1.0 | Cygon
(
	defaultPrim = "World"
	upAxis = "Y"
	metersPerUnit = 1
)

def Xform "World"
{
	def Mesh "Wall_6fa5e0c4_eec7_4840_b3cc_adc4ca7005fb"
	{
		int[] faceVertexCounts = [3, 3, 3, 3, 3, 3, 3, 3, 3, 3, 3, 3, 3, 3, 3, 3]
		int[] faceVertexIndices = [0, 1, 2, 0, 2, 3, 4, 5, 6, 4, 6, 7, 9, 10, 12, 10, 11, 12, 12, 13, 9, 13, 8, 9, 16, 17, 18, 16, 18, 19, 19, 15, 16, 19, 14, 15, 20, 21, 22, 20, 22, 23, 24, 25, 26, 24, 26, 27]
		uniform token orientation = "leftHanded"
		normal3f[] normals = [(0, 0, -1), (0, 0, -1), (0, 0, -1), (0, 0, -1), (0, 0, -1), (0, 0, -1), (0, 0, 1), (0, 0, 1), (0, 0, 1), (0, 0, 1), (0, 0, 1), (0, 0, 1), (0, 1, 0), (0, 1, 0), (0, 1, 0), (0, 1, 0), (0, 0.9999999, 0), (0, 1, 0), (0, 1, 0), (0, 1, 0), (0, 1, 0), (0, 1, 0), (0, 1, 0), (0, 1, 0), (0, -1, 0), (0, -0.9999999, 0), (0, -1, 0), (0, -1, 0), (0, -1, 0), (0, -1, 0), (0, -1, 0), (0, -1, 0), (0, -1, 0), (0, -1, 0), (0, -1, 0), (0, -1, 0), (-1, 0, 0), (-1, 0, 0), (-1, 0, 0), (-1, 0, 0), (-1, 0, 0), (-1, 0, 0), (-1, 0, 0), (-1, 0, 0), (-1, 0, 0), (-1, 0, 0), (-1, 0, 0), (-1, 0, 0)](
			
			interpolation = "faceVarying"
		)
		
		point3f[] points = [(-2.5, 0, -0.1499996), (2.350037, 0, -0.1499996), (2.350037, 1, -0.1499996), (-2.5, 1, -0.1499996), (-2.5, 1, 0.1499996), (2.650024, 1, 0.1499996), (2.650024, 0, 0.1499996), (-2.5, 0, 0.1499996), (-2.5, 1, -0.1499996), (2.350037, 1, -0.1499996), (2.5, 1, 0), (2.650024, 1, 0.1499996), (-2.5, 1, 0.1499996), (-2.5, 1, 0), (-2.5, 0, -0.1499996), (-2.5, 0, 0), (-2.5, 0, 0.1499996), (2.650024, 0, 0.1499996), (2.5, 0, 0), (2.350037, 0, -0.1499996), (-2.5, 0, 0.1499996), (-2.5, 0, 0), (-2.5, 1, 0), (-2.5, 1, 0.1499996), (-2.5, 1, -0.1499996), (-2.5, 1, 0), (-2.5, 0, 0), (-2.5, 0, -0.1499996)]
		float2[] primvars:st = [(0, 0), (1, 0), (1, 1), (0, 0), (1, 1), (0, 1), (0, 0), (1, 0), (1, 1), (0, 0), (1, 1), (0, 1), (0.9417502, 0), (0.9708692, 0.5), (0, 1), (0.9708692, 0.5), (1, 1), (0, 1), (0, 1), (0, 0.5), (0.9417502, 0), (0, 0.5), (0, 0), (0.9417502, 0), (1, 0), (1, 1), (0.5, 0.9708692), (1, 0), (0.5, 0.9708692), (0, 0.9417502), (0, 0.9417502), (0.5, 0), (1, 0), (0, 0.9417502), (0, 0), (0.5, 0), (0, 0), (1, 0), (1, 1), (0, 0), (1, 1), (0, 1), (0, 0), (1, 0), (1, 1), (0, 0), (1, 1), (0, 1)](
			
			interpolation = "faceVarying"
		)
		
		
	}
	
}
