#usda 1.0 | Cygon
(
	defaultPrim = "World"
	upAxis = "Y"
	metersPerUnit = 1
)

def Xform "World"
{
	def Mesh "Wall_41faa8f4_3529_4eee_aa81_9d1550eaa8a6"
	{
		int[] faceVertexCounts = [3, 3, 3, 3, 3, 3, 3, 3, 3, 3, 3, 3]
		int[] faceVertexIndices = [0, 1, 2, 0, 2, 3, 4, 5, 6, 4, 6, 7, 10, 11, 12, 10, 12, 13, 13, 8, 10, 8, 9, 10, 15, 16, 17, 15, 17, 18, 18, 14, 15, 18, 19, 14]
		uniform token orientation = "leftHanded"
		normal3f[] normals = [(1, 0, 0), (1, 0, 0), (1, 0, 0), (1, 0, 0), (1, 0, 0), (1, 0, 0), (-1, 0, 0), (-1, 0, 0), (-1, 0, 0), (-1, 0, 0), (-1, 0, 0), (-1, 0, 0), (0, 1, 0), (0, 1, 0), (0, 0.9999999, 0), (0, 1, 0), (0, 0.9999999, 0), (0, 1, 0), (0, 1, 0), (0, 1, 0), (0, 1, 0), (0, 1, 0), (0, 1, 0), (0, 1, 0), (0, -1, 0), (0, -1, 0), (0, -0.9999999, 0), (0, -1, 0), (0, -0.9999999, 0), (0, -1, 0), (0, -1, 0), (0, -1, 0), (0, -1, 0), (0, -1, 0), (0, -1, 0), (0, -1, 0)](
			
			interpolation = "faceVarying"
		)
		
		point3f[] points = [(0.1500015, 0, -4.849976), (0.1500015, 0, 4.850037), (0.1500015, 7.5, 4.850037), (0.1500015, 7.5, -4.849976), (-0.1500015, 7.5, -5.149963), (-0.1500015, 7.5, 5.150024), (-0.1500015, 0, 5.150024), (-0.1500015, 0, -5.149963), (0.1500015, 7.5, -4.849976), (0.1500015, 7.5, 4.850037), (0, 7.5, 5), (-0.1500015, 7.5, 5.150024), (-0.1500015, 7.5, -5.149963), (0, 7.5, -5), (0.1500015, 0, -4.849976), (0, 0, -5), (-0.1500015, 0, -5.149963), (-0.1500015, 0, 5.150024), (0, 0, 5), (0.1500015, 0, 4.850037)]
		float2[] primvars:st = [(0, 0), (1, 0), (1, 1), (0, 0), (1, 1), (0, 1), (0, 0), (1, 0), (1, 1), (0, 0), (1, 1), (0, 1), (0.9854345, 0.5), (1, 1), (0, 1), (0.9854345, 0.5), (0, 1), (0.01455957, 0.5), (0.01455957, 0.5), (0.02912506, 0), (0.9854345, 0.5), (0.02912506, 0), (0.970875, 0), (0.9854345, 0.5), (0.9708792, 0), (1, 5.892797E-06), (0, 1), (0.9708792, 0), (0, 1), (4.713545E-06, 0.9708692), (4.713545E-06, 0.9708692), (0.9417526, 0), (0.9708792, 0), (4.713545E-06, 0.9708692), (3.142363E-06, 0.9417443), (0.9417526, 0)](
			
			interpolation = "faceVarying"
		)
		
		
	}
	
}
