#usda 1.0 | Cygon
(
	defaultPrim = "World"
	upAxis = "Y"
	metersPerUnit = 1
)

def Xform "World"
{
	def Mesh "Wall_87ac7817_51ce_4048_9b88_343c4a3b87cd"
	{
		int[] faceVertexCounts = [3, 3, 3, 3, 3, 3, 3, 3, 3, 3, 3, 3, 3, 3, 3, 3, 3, 3, 3, 3]
		int[] faceVertexIndices = [0, 1, 2, 0, 2, 3, 4, 5, 6, 4, 6, 7, 8, 9, 10, 8, 10, 11, 8, 11, 12, 8, 12, 13, 14, 15, 16, 14, 16, 17, 14, 17, 18, 14, 18, 19, 20, 21, 22, 20, 22, 23, 24, 25, 26, 24, 26, 27, 28, 29, 30, 28, 30, 31, 32, 33, 34, 32, 34, 35]
		uniform token orientation = "leftHanded"
		normal3f[] normals = [(1, 0, 0), (1, 0, 0), (1, 0, 0), (1, 0, 0), (1, 0, 0), (1, 0, 0), (-1, 0, 0), (-1, 0, 0), (-1, 0, 0), (-1, 0, 0), (-1, 0, 0), (-1, 0, 0), (0, 1, 0), (0, 1, 0), (0, 1, 0), (0, 1, 0), (0, 1, 0), (0, 1, 0), (0, 1, 0), (0, 1, 0), (0, 1, 0), (0, 1, 0), (0, 1, 0), (0, 1, 0), (0, -1, 0), (0, -1, 0), (0, -1, 0), (0, -1, 0), (0, -1, 0), (0, -1, 0), (0, -1, 0), (0, -1, 0), (0, -1, 0), (0, -1, 0), (0, -1, 0), (0, -1, 0), (-0.6000611, 0, -0.7999542), (-0.6000611, 0, -0.7999542), (-0.6000611, 0, -0.7999542), (-0.6000611, 0, -0.7999542), (-0.6000611, 0, -0.7999542), (-0.6000611, 0, -0.7999542), (0, 0, -1), (0, 0, -1), (0, 0, -1), (0, 0, -1), (0, 0, -1), (0, 0, -1), (0, 0, 1), (0, 0, 1), (0, 0, 1), (0, 0, 1), (0, 0, 1), (0, 0, 1), (0, 0, 1), (0, 0, 1), (0, 0, 1), (0, 0, 1), (0, 0, 1), (0, 0, 1)](
			
			interpolation = "faceVarying"
		)
		
		point3f[] points = [(0.2000008, 0, -15), (0.2000008, 0, 15), (0.2000008, 1, 15), (0.2000008, 1, -15), (-0.2000008, 1, -14.84998), (-0.2000008, 1, 15), (-0.2000008, 0, 15), (-0.2000008, 0, -14.84998), (0.2000008, 1, -15), (0.2000008, 1, 15), (0, 1, 15), (-0.2000008, 1, 15), (-0.2000008, 1, -14.84998), (0, 1, -15), (0.2000008, 0, -15), (0, 0, -15), (-0.2000008, 0, -14.84998), (-0.2000008, 0, 15), (0, 0, 15), (0.2000008, 0, 15), (-0.2000008, 0, -14.84998), (0, 0, -15), (0, 1, -15), (-0.2000008, 1, -14.84998), (0.2000008, 1, -15), (0, 1, -15), (0, 0, -15), (0.2000008, 0, -15), (-0.2000008, 1, 15), (0, 1, 15), (0, 0, 15), (-0.2000008, 0, 15), (0.2000008, 0, 15), (0, 0, 15), (0, 1, 15), (0.2000008, 1, 15)]
		float2[] primvars:st = [(0, 0), (1, 0), (1, 1), (0, 0), (1, 1), (0, 1), (0, 0), (1, 0), (1, 1), (0, 0), (1, 1), (0, 1), (0, 0), (1, 0), (1, 0.5), (0, 0), (1, 0.5), (1, 1), (0, 0), (1, 1), (0.005000814, 1), (0, 0), (0.005000814, 1), (0, 0.5), (0, 0), (0.5, 0), (1, 0.005000814), (0, 0), (1, 0.005000814), (1, 1), (0, 0), (1, 1), (0.5, 1), (0, 0), (0.5, 1), (0, 1), (0, 0), (1, 0), (1, 1), (0, 0), (1, 1), (0, 1), (0, 0), (1, 0), (1, 1), (0, 0), (1, 1), (0, 1), (0, 0), (1, 0), (1, 1), (0, 0), (1, 1), (0, 1), (0, 0), (1, 0), (1, 1), (0, 0), (1, 1), (0, 1)](
			
			interpolation = "faceVarying"
		)
		
		
	}
	
}
