#usda 1.0 | Cygon
(
	defaultPrim = "World"
	upAxis = "Y"
	metersPerUnit = 1
)

def Xform "World"
{
	def Mesh "Wall_c3f9ed7f_2467_4e3e_9106_c4c52e8e9607"
	{
		int[] faceVertexCounts = [3, 3, 3, 3, 3, 3, 3, 3, 3, 3, 3, 3]
		int[] faceVertexIndices = [0, 1, 2, 0, 2, 3, 4, 5, 6, 4, 6, 7, 10, 11, 12, 10, 12, 13, 13, 8, 10, 8, 9, 10, 15, 16, 17, 15, 17, 18, 18, 14, 15, 18, 19, 14]
		uniform token orientation = "leftHanded"
		normal3f[] normals = [(1, 0, 0), (1, 0, 0), (1, 0, 0), (1, 0, 0), (1, 0, 0), (1, 0, 0), (-1, 0, 0), (-1, 0, 0), (-1, 0, 0), (-1, 0, 0), (-1, 0, 0), (-1, 0, 0), (0, 1, 0), (0, 1, 0), (0, 0.9999999, 0), (0, 1, 0), (0, 0.9999999, 0), (0, 1, 0), (0, 1, 0), (0, 1, 0), (0, 1, 0), (0, 1, 0), (0, 0.9999999, 0), (0, 1, 0), (0, -1, 0), (0, -1, 0), (0, -0.9999999, 0), (0, -1, 0), (0, -0.9999999, 0), (0, -1, 0), (0, -1, 0), (0, -1, 0), (0, -1, 0), (0, -1, 0), (0, -0.9999999, 0), (0, -1, 0)](
			
			interpolation = "faceVarying"
		)
		
		point3f[] points = [(0.1499996, 0, -4.849976), (0.1499996, 0, 4.850037), (0.1499996, 1, 4.850037), (0.1499996, 1, -4.849976), (-0.1500015, 1, -5.149963), (-0.1500015, 1, 5.150024), (-0.1500015, 0, 5.150024), (-0.1500015, 0, -5.149963), (0.1499996, 1, -4.849976), (0.1499996, 1, 4.850037), (0, 1, 5), (-0.1500015, 1, 5.150024), (-0.1500015, 1, -5.149963), (0, 1, -5), (0.1499996, 0, -4.849976), (0, 0, -5), (-0.1500015, 0, -5.149963), (-0.1500015, 0, 5.150024), (0, 0, 5), (0.1499996, 0, 4.850037)]
		float2[] primvars:st = [(0, 0), (1, 0), (1, 1), (0, 0), (1, 1), (0, 1), (0, 0), (1, 0), (1, 1), (0, 0), (1, 1), (0, 1), (0.9854345, 0.4999968), (1, 1), (0, 1), (0.9854345, 0.4999968), (0, 1), (0.01455957, 0.4999968), (0.01455957, 0.4999968), (0.02912506, 0), (0.9854345, 0.4999968), (0.02912506, 0), (0.970875, 0), (0.9854345, 0.4999968), (0.9708794, -1.309519E-07), (1, 5.991049E-06), (0, 1), (0.9708794, -1.309519E-07), (0, 1), (4.713515E-06, 0.9708691), (4.713515E-06, 0.9708691), (0.941753, -1.309519E-07), (0.9708794, -1.309519E-07), (4.713515E-06, 0.9708691), (3.666067E-06, 0.9417442), (0.941753, -1.309519E-07)](
			
			interpolation = "faceVarying"
		)
		
		
	}
	
}
