#usda 1.0 | Cygon
(
	defaultPrim = "World"
	upAxis = "Y"
	metersPerUnit = 1
)

def Xform "World"
{
	def Mesh "Wall_53e274fe_1d17_4c67_a718_ab4845352c07"
	{
		int[] faceVertexCounts = [3, 3, 3, 3, 3, 3, 3, 3, 3, 3, 3, 3, 3, 3, 3, 3, 3, 3, 3, 3, 3, 3, 3, 3, 3, 3, 3, 3, 3, 3, 3, 3, 3, 3, 3, 3, 3, 3, 3, 3, 3, 3, 3, 3, 3, 3, 3, 3, 3, 3, 3, 3, 3, 3, 3, 3, 3, 3, 3, 3, 3, 3, 3, 3, 3, 3, 3, 3, 3, 3, 3, 3, 3, 3, 3, 3, 3, 3, 3, 3, 3, 3, 3, 3, 3, 3, 3, 3, 3, 3, 3, 3, 3, 3, 3, 3]
		int[] faceVertexIndices = [8, 9, 20, 8, 20, 21, 21, 5, 8, 9, 12, 20, 21, 4, 5, 12, 13, 20, 9, 11, 12, 9, 10, 11, 5, 7, 8, 5, 6, 7, 21, 1, 4, 1, 3, 4, 1, 2, 3, 21, 0, 1, 21, 22, 0, 22, 23, 0, 13, 16, 20, 16, 17, 20, 17, 19, 20, 17, 18, 19, 13, 15, 16, 13, 14, 15, 28, 29, 40, 28, 40, 41, 29, 37, 40, 41, 44, 28, 29, 36, 37, 44, 45, 28, 41, 43, 44, 41, 42, 43, 37, 39, 40, 37, 38, 39, 45, 24, 28, 45, 47, 24, 45, 46, 47, 29, 33, 36, 29, 32, 33, 29, 30, 32, 30, 31, 32, 33, 35, 36, 33, 34, 35, 24, 25, 28, 25, 27, 28, 25, 26, 27, 48, 49, 50, 48, 50, 51, 52, 53, 54, 52, 54, 55, 56, 57, 58, 56, 58, 59, 60, 61, 62, 60, 62, 63, 64, 65, 66, 64, 66, 67, 68, 69, 70, 68, 70, 71, 72, 73, 74, 72, 74, 75, 76, 77, 78, 76, 78, 79, 80, 81, 82, 80, 82, 83, 84, 85, 86, 84, 86, 87, 88, 89, 90, 88, 90, 91, 92, 93, 94, 92, 94, 95, 96, 97, 98, 96, 98, 99, 100, 101, 102, 100, 102, 103, 104, 105, 106, 104, 106, 107, 108, 109, 110, 108, 110, 111, 112, 113, 114, 112, 114, 115, 116, 117, 118, 116, 118, 119, 120, 121, 122, 120, 122, 123, 124, 125, 126, 124, 126, 127, 128, 129, 130, 128, 130, 131, 132, 133, 134, 132, 134, 135, 136, 137, 138, 136, 138, 139, 140, 141, 142, 140, 142, 143, 144, 145, 146, 144, 146, 147, 148, 149, 150, 148, 150, 151]
		uniform token orientation = "leftHanded"
		normal3f[] normals = [(1, 0, 0), (1, 0, 0), (0.9999999, 0, 0), (1, 0, 0), (0.9999999, 0, 0), (1, 0, 0), (1, 0, 0), (1, 0, 0), (1, 0, 0), (1, 0, 0), (1, 0, 0), (0.9999999, 0, 0), (1, 0, 0), (1, 0, 0), (1, 0, 0), (1, 0, 0), (1, 0, 0), (0.9999999, 0, 0), (1, 0, 0), (1, 0, 0), (1, 0, 0), (1, 0, 0), (1, 0, 0), (1, 0, 0), (1, 0, 0), (1, 0, 0), (1, 0, 0), (1, 0, 0), (1, 0, 0), (1, 0, 0), (1, 0, 0), (1, 0, 0), (1, 0, 0), (1, 0, 0), (0.9999999, 0, 0), (1, 0, 0), (1, 0, 0), (0.9999999, 0, 0), (0.9999999, 0, 0), (1, 0, 0), (1, 0, 0), (1, 0, 0), (1, 0, 0), (1, 0, 0), (1, 0, 0), (1, 0, 0), (1, 0, 0), (1, 0, 0), (1, 0, 0), (1, 0, 0), (0.9999999, 0, 0), (1, 0, 0), (1, 0, 0), (0.9999999, 0, 0), (1, 0, 0), (1, 0, 0), (0.9999999, 0, 0), (1, 0, 0), (1, 0, 0), (1, 0, 0), (1, 0, 0), (1, 0, 0), (1, 0, 0), (1, 0, 0), (1, 0, 0), (1, 0, 0), (-1, 0, 0), (-0.9999999, 0, 0), (-1, 0, 0), (-1, 0, 0), (-1, 0, 0), (-0.9999999, 0, 0), (-0.9999999, 0, 0), (-1, 0, 0), (-1, 0, 0), (-0.9999999, 0, 0), (-1, 0, 0), (-1, 0, 0), (-0.9999999, 0, 0), (-1, 0, 0), (-1, 0, 0), (-1, 0, 0), (-1, 0, 0), (-1, 0, 0), (-0.9999999, 0, 0), (-1, 0, 0), (-1, 0, 0), (-0.9999999, 0, 0), (-1, 0, 0), (-1, 0, 0), (-1, 0, 0), (-1, 0, 0), (-1, 0, 0), (-1, 0, 0), (-1, 0, 0), (-1, 0, 0), (-1, 0, 0), (-1, 0, 0), (-1, 0, 0), (-1, 0, 0), (-1, 0, 0), (-1, 0, 0), (-1, 0, 0), (-0.9999999, 0, 0), (-1, 0, 0), (-0.9999999, 0, 0), (-1, 0, 0), (-1, 0, 0), (-0.9999999, 0, 0), (-1, 0, 0), (-1, 0, 0), (-0.9999999, 0, 0), (-1, 0, 0), (-1, 0, 0), (-1, 0, 0), (-0.9999999, 0, 0), (-1, 0, 0), (-1, 0, 0), (-0.9999999, 0, 0), (-1, 0, 0), (-1, 0, 0), (-1, 0, 0), (-0.9999999, 0, 0), (-1, 0, 0), (-1, 0, 0), (-1, 0, 0), (-1, 0, 0), (-1, 0, 0), (-1, 0, 0), (-1, 0, 0), (-1, 0, 0), (-1, 0, 0), (0, 0.9999999, 0), (0, 0.9999999, 0), (0, 0.9999999, 0), (0, 0.9999999, 0), (0, 0.9999999, 0), (0, 0.9999999, 0), (0, -1, 0), (0, -1, 0), (0, -1, 0), (0, -1, 0), (0, -1, 0), (0, -1, 0), (0, -1, 0), (0, -1, 0), (0, -1, 0), (0, -1, 0), (0, -1, 0), (0, -1, 0), (0, -1, 0), (0, -1, 0), (0, -1, 0), (0, -1, 0), (0, -1, 0), (0, -1, 0), (0, -1, 0), (0, -1, 0), (0, -1, 0), (0, -1, 0), (0, -1, 0), (0, -1, 0), (0, -1, 0), (0, -1, 0), (0, -1, 0), (0, -1, 0), (0, -1, 0), (0, -1, 0), (0, -1, 0), (0, -1, 0), (0, -1, 0), (0, -1, 0), (0, -1, 0), (0, -1, 0), (0, 0, -1), (0, 0, -1), (0, 0, -1), (0, 0, -1), (0, 0, -1), (0, 0, -1), (0, 0, -1), (0, 0, -1), (0, 0, -1), (0, 0, -1), (0, 0, -1), (0, 0, -1), (0, 0, 1), (0, 0, 1), (0, 0, 1), (0, 0, 1), (0, 0, 1), (0, 0, 1), (0, 0, 1), (0, 0, 1), (0, 0, 1), (0, 0, 1), (0, 0, 1), (0, 0, 1), (0, -1, 0), (0, -1, 0), (0, -1, 0), (0, -1, 0), (0, -1, 0), (0, -1, 0), (0, 0, 1), (0, 0, 1), (0, 0, 1), (0, 0, 1), (0, 0, 1), (0, 0, 1), (0, 0, -1), (0, 0, -1), (0, 0, -1), (0, 0, -1), (0, 0, -1), (0, 0, -1), (0, -1, 0), (0, -1, 0), (0, -1, 0), (0, -1, 0), (0, -1, 0), (0, -1, 0), (0, 0, 1), (0, 0, 1), (0, 0, 1), (0, 0, 1), (0, 0, 1), (0, 0, 1), (0, 0, -1), (0, 0, -1), (0, 0, -1), (0, 0, -1), (0, 0, -1), (0, 0, -1), (0, -1, 0), (0, -1, 0), (0, -1, 0), (0, -1, 0), (0, -1, 0), (0, -1, 0), (0, 0, 1), (0, 0, 1), (0, 0, 1), (0, 0, 1), (0, 0, 1), (0, 0, 1), (0, 0, -1), (0, 0, -1), (0, 0, -1), (0, 0, -1), (0, 0, -1), (0, 0, -1), (0, -1, 0), (0, -1, 0), (0, -1, 0), (0, -1, 0), (0, -1, 0), (0, -1, 0), (0, 0, 1), (0, 0, 1), (0, 0, 1), (0, 0, 1), (0, 0, 1), (0, 0, 1), (0, 0, -1), (0, 0, -1), (0, 0, -1), (0, 0, -1), (0, 0, -1), (0, 0, -1), (0, -1, 0), (0, -1, 0), (0, -1, 0), (0, -1, 0), (0, -1, 0), (0, -1, 0), (0, 0, 1), (0, 0, 1), (0, 0, 1), (0, 0, 1), (0, 0, 1), (0, 0, 1), (0, 0, -1), (0, 0, -1), (0, 0, -1), (0, 0, -1), (0, 0, -1), (0, 0, -1)](
			
			interpolation = "faceVarying"
		)
		
		point3f[] points = [(0.1499996, 7, -12), (0.1499996, 7, -8.000003), (0.1499996, 0, -8.000003), (0.1499996, 0, -7.000001), (0.1499996, 7, -7.000001), (0.1499996, 7, -3.000003), (0.1499996, 0, -3.000003), (0.1499996, 0, -1.999999), (0.1499996, 7, -1.999999), (0.1499996, 7, 1.999999), (0.1499996, 0, 1.999999), (0.1499996, 0, 3.000003), (0.1499996, 7, 3.000003), (0.1499996, 7, 7.000001), (0.1499996, 0, 7.000001), (0.1499996, 0, 8), (0.1499996, 7, 8), (0.1499996, 7, 12), (0.1499996, 0, 12), (0.1499996, 0, 13), (0.1499996, 7.5, 13), (0.1499996, 7.5, -13), (0.1499996, 0, -13), (0.1499996, 0, -12), (-0.1500015, 7, -8.000003), (-0.1500015, 7, -12), (-0.1500015, 0, -12), (-0.1500015, 0, -13), (-0.1500015, 7.5, -13), (-0.1500015, 7.5, 13), (-0.1500015, 0, 13), (-0.1500015, 0, 12), (-0.1500015, 7, 12), (-0.1500015, 7, 8), (-0.1500015, 0, 8), (-0.1500015, 0, 7.000002), (-0.1500015, 7, 7.000001), (-0.1500015, 7, 3.000003), (-0.1500015, 0, 3.000002), (-0.1500015, 0, 1.999998), (-0.1500015, 7, 1.999999), (-0.1500015, 7, -1.999999), (-0.1500015, 0, -2), (-0.1500015, 0, -3.000003), (-0.1500015, 7, -3.000003), (-0.1500015, 7, -7.000001), (-0.1500015, 0, -7.000001), (-0.1500015, 0, -8.000002), (0.1499996, 7.5, -13), (0.1499996, 7.5, 13), (-0.1499996, 7.5, 13), (-0.1499996, 7.5, -13), (0.1499996, 0, -13), (-0.1499996, 0, -13), (-0.1500015, 0, -12), (0.1499977, 0, -12), (0.1499977, 0, -8.000003), (-0.1500015, 0, -8.000003), (-0.1500034, 0, -7.000001), (0.1499958, 0, -7.000001), (0.1499958, 0, -3.000003), (-0.1500034, 0, -3.000003), (-0.1500034, 0, -1.999999), (0.1499958, 0, -1.999999), (0.1499958, 0, 1.999999), (-0.1500034, 0, 1.999999), (-0.1500034, 0, 3.000003), (0.1499958, 0, 3.000003), (0.1499958, 0, 7.000001), (-0.1500034, 0, 7.000001), (-0.1499996, 0, 8.000001), (0.1499996, 0, 8.000001), (0.1499996, 0, 12), (-0.1499996, 0, 12), (-0.1499996, 0, 13), (0.1499996, 0, 13), (-0.1499996, 0, -13), (0, 0, -13), (0, 7.5, -13), (-0.1499996, 7.5, -13), (0.1499996, 7.5, -13), (0, 7.5, -13), (0, 0, -13), (0.1499996, 0, -13), (-0.1499996, 7.5, 13), (0, 7.5, 13), (0, 0, 13), (-0.1499996, 0, 13), (0.1499996, 0, 13), (0, 0, 13), (0, 7.5, 13), (0.1499996, 7.5, 13), (-0.1499996, 7, 8.000001), (-0.1499996, 7, 12), (0.1499996, 7, 12), (0.1499996, 7, 8.000001), (-0.1499996, 7, 8.000001), (0.1499996, 7, 8.000001), (0.1499996, 0, 8.000001), (-0.1499996, 0, 8.000001), (0.1499996, 7, 12), (-0.1499996, 7, 12), (-0.1499996, 0, 12), (0.1499996, 0, 12), (-0.1500034, 7, 3.000003), (-0.1500034, 7, 7.000001), (0.1499958, 7, 7.000001), (0.1499958, 7, 3.000003), (-0.1500034, 7, 3.000003), (0.1499958, 7, 3.000003), (0.1499958, 0, 3.000003), (-0.1500034, 0, 3.000003), (0.1499958, 7, 7.000001), (-0.1500034, 7, 7.000001), (-0.1500034, 0, 7.000001), (0.1499958, 0, 7.000001), (-0.1500034, 7, -1.999999), (-0.1500034, 7, 1.999999), (0.1499958, 7, 1.999999), (0.1499958, 7, -1.999999), (-0.1500034, 7, -1.999999), (0.1499958, 7, -1.999999), (0.1499958, 0, -1.999999), (-0.1500034, 0, -1.999999), (0.1499958, 7, 1.999999), (-0.1500034, 7, 1.999999), (-0.1500034, 0, 1.999999), (0.1499958, 0, 1.999999), (-0.1500034, 7, -7.000001), (-0.1500034, 7, -3.000003), (0.1499958, 7, -3.000003), (0.1499958, 7, -7.000001), (-0.1500034, 7, -7.000001), (0.1499958, 7, -7.000001), (0.1499958, 0, -7.000001), (-0.1500034, 0, -7.000001), (0.1499958, 7, -3.000003), (-0.1500034, 7, -3.000003), (-0.1500034, 0, -3.000003), (0.1499958, 0, -3.000003), (-0.1500015, 7, -12), (-0.1500015, 7, -8.000003), (0.1499977, 7, -8.000003), (0.1499977, 7, -12), (-0.1500015, 7, -12), (0.1499977, 7, -12), (0.1499977, 0, -12), (-0.1500015, 0, -12), (0.1499977, 7, -8.000003), (-0.1500015, 7, -8.000003), (-0.1500015, 0, -8.000003), (0.1499977, 0, -8.000003)]
		float2[] primvars:st = [(0.423077, 0.9333333), (0.576923, 0.9333333), (1, 1), (0.423077, 0.9333333), (1, 1), (-3.667978E-08, 1), (-3.667978E-08, 1), (0.3846153, 0.9333333), (0.423077, 0.9333333), (0.576923, 0.9333333), (0.6153848, 0.9333333), (1, 1), (-3.667978E-08, 1), (0.2307692, 0.9333333), (0.3846153, 0.9333333), (0.6153848, 0.9333333), (0.7692308, 0.9333333), (1, 1), (0.576923, 0.9333333), (0.6153848, 0), (0.6153848, 0.9333333), (0.576923, 0.9333333), (0.576923, 0), (0.6153848, 0), (0.3846153, 0.9333333), (0.423077, 0), (0.423077, 0.9333333), (0.3846153, 0.9333333), (0.3846153, 0), (0.423077, 0), (-3.667978E-08, 1), (0.1923076, 0.9333333), (0.2307692, 0.9333333), (0.1923076, 0.9333333), (0.2307692, 0), (0.2307692, 0.9333333), (0.1923076, 0.9333333), (0.1923076, 0), (0.2307692, 0), (-3.667978E-08, 1), (0.0384615, 0.9333333), (0.1923076, 0.9333333), (-3.667978E-08, 1), (-3.667978E-08, 0), (0.0384615, 0.9333333), (-3.667978E-08, 0), (0.0384615, 0), (0.0384615, 0.9333333), (0.7692308, 0.9333333), (0.8076923, 0.9333333), (1, 1), (0.8076923, 0.9333333), (0.9615384, 0.9333333), (1, 1), (0.9615384, 0.9333333), (1, 0), (1, 1), (0.9615384, 0.9333333), (0.9615384, 0), (1, 0), (0.7692308, 0.9333333), (0.8076923, 0), (0.8076923, 0.9333333), (0.7692308, 0.9333333), (0.7692308, 0), (0.8076923, 0), (3.667978E-08, 0), (1, 0), (0.576923, 0.06666667), (3.667978E-08, 0), (0.576923, 0.06666667), (0.423077, 0.06666667), (1, 0), (0.6153848, 0.06666667), (0.576923, 0.06666667), (0.423077, 0.06666667), (0.3846153, 0.06666667), (3.667978E-08, 0), (1, 0), (0.7692308, 0.06666667), (0.6153848, 0.06666667), (0.3846153, 0.06666667), (0.2307692, 0.06666667), (3.667978E-08, 0), (0.423077, 0.06666667), (0.3846153, 1), (0.3846153, 0.06666667), (0.423077, 0.06666667), (0.4230769, 1), (0.3846153, 1), (0.6153848, 0.06666667), (0.576923, 1), (0.576923, 0.06666667), (0.6153848, 0.06666667), (0.6153847, 1), (0.576923, 1), (0.2307692, 0.06666667), (0.1923076, 0.06666667), (3.667978E-08, 0), (0.2307692, 0.06666667), (0.1923076, 1), (0.1923076, 0.06666667), (0.2307692, 0.06666667), (0.2307692, 1), (0.1923076, 1), (1, 0), (0.8076923, 0.06666667), (0.7692308, 0.06666667), (1, 0), (0.9615384, 0.06666667), (0.8076923, 0.06666667), (1, 0), (1, 1), (0.9615384, 0.06666667), (1, 1), (0.9615384, 1), (0.9615384, 0.06666667), (0.8076923, 0.06666667), (0.7692308, 1), (0.7692308, 0.06666667), (0.8076923, 0.06666667), (0.8076923, 1), (0.7692308, 1), (0.1923076, 0.06666667), (0.0384615, 0.06666667), (3.667978E-08, 0), (0.0384615, 0.06666667), (3.667978E-08, 1), (3.667978E-08, 0), (0.0384615, 0.06666667), (0.0384615, 1), (3.667978E-08, 1), (0, 0), (1, 0), (1, 1), (0, 0), (1, 1), (0, 1), (0, 0), (0.9999936, 0), (1, 1), (0, 0), (1, 1), (6.357805E-06, 1), (0, 0), (0.9999936, 0), (1, 1), (0, 0), (1, 1), (6.357805E-06, 1), (0, 0), (1, 0), (1, 1), (0, 0), (1, 1), (0, 1), (0, 0), (1, 0), (1, 1), (0, 0), (1, 1), (0, 1), (1.271553E-05, 0), (1, 0), (0.9999873, 1), (1.271553E-05, 0), (0.9999873, 1), (0, 1), (0, 0), (1, 0), (1, 1), (0, 0), (1, 1), (0, 1), (0, 0), (1, 0), (1, 1), (0, 0), (1, 1), (0, 1), (0, 0), (1, 0), (1, 1), (0, 0), (1, 1), (0, 1), (0, 0), (1, 0), (1, 1), (0, 0), (1, 1), (0, 1), (0, 0), (1, 0), (1, 1), (0, 0), (1, 1), (0, 1), (0, 0), (1, 0), (1, 1), (0, 0), (1, 1), (0, 1), (0, 0), (1, 0), (1, 1), (0, 0), (1, 1), (0, 1), (0, 0), (1, 0), (1, 1), (0, 0), (1, 1), (0, 1), (0, 0), (1, 0), (1, 1), (0, 0), (1, 1), (0, 1), (0, 0), (1, 0), (1, 1), (0, 0), (1, 1), (0, 1), (0, 0), (1, 0), (1, 1), (0, 0), (1, 1), (0, 1), (0, 0), (1, 0), (1, 1), (0, 0), (1, 1), (0, 1), (0, 0), (1, 0), (1, 1), (0, 0), (1, 1), (0, 1), (0, 0), (1, 0), (1, 1), (0, 0), (1, 1), (0, 1), (0, 0), (1, 0), (1, 1), (0, 0), (1, 1), (0, 1), (0, 0), (1, 0), (1, 1), (0, 0), (1, 1), (0, 1), (0, 0), (1, 0), (1, 1), (0, 0), (1, 1), (0, 1), (0, 0), (1, 0), (1, 1), (0, 0), (1, 1), (0, 1), (0, 0), (1, 0), (1, 1), (0, 0), (1, 1), (0, 1), (0, 0), (1, 0), (1, 1), (0, 0), (1, 1), (0, 1)](
			
			interpolation = "faceVarying"
		)
		
		
	}
	
}
