#usda 1.0 | Cygon
(
	defaultPrim = "World"
	upAxis = "Y"
	metersPerUnit = 1
)

def Xform "World"
{
	def Mesh "Wall_2fa6c470_948a_4b38_a5c4_063989d88dc4"
	{
		int[] faceVertexCounts = [3, 3, 3, 3, 3, 3, 3, 3, 3, 3, 3, 3]
		int[] faceVertexIndices = [0, 1, 2, 0, 2, 3, 4, 5, 6, 4, 6, 7, 8, 9, 10, 8, 10, 11, 8, 11, 12, 8, 12, 13, 14, 16, 17, 14, 17, 18, 18, 19, 14, 14, 15, 16]
		uniform token orientation = "leftHanded"
		normal3f[] normals = [(-1, 0, 0), (-1, 0, 0), (-1, 0, 0), (-1, 0, 0), (-1, 0, 0), (-1, 0, 0), (1, 0, 0), (1, 0, 0), (1, 0, 0), (1, 0, 0), (1, 0, 0), (1, 0, 0), (0, 1, 0), (0, 1, 0), (0, 1, 0), (0, 1, 0), (0, 1, 0), (0, 1, 0), (0, 1, 0), (0, 1, 0), (0, 1, 0), (0, 1, 0), (0, 1, 0), (0, 1, 0), (0, -1, 0), (0, -1, 0), (0, -1, 0), (0, -1, 0), (0, -1, 0), (0, -1, 0), (0, -1, 0), (0, -1, 0), (0, -1, 0), (0, -1, 0), (0, -1, 0), (0, -1, 0)](
			
			interpolation = "faceVarying"
		)
		
		point3f[] points = [(-0.1499996, 0, 2.349976), (-0.1499996, 0, -2.5), (-0.1499996, 1, -2.5), (-0.1499996, 1, 2.349976), (0.1499996, 1, 2.649963), (0.1499996, 1, -2.5), (0.1499996, 0, -2.5), (0.1499996, 0, 2.649963), (-0.1499996, 1, 2.349976), (-0.1499996, 1, -2.5), (0, 1, -2.5), (0.1499996, 1, -2.5), (0.1499996, 1, 2.649963), (0, 1, 2.5), (-0.1499996, 0, 2.349976), (0, 0, 2.5), (0.1499996, 0, 2.649963), (0.1499996, 0, -2.5), (0, 0, -2.5), (-0.1499996, 0, -2.5)]
		float2[] primvars:st = [(0, 0), (1, 0), (1, 1), (0, 0), (1, 1), (0, 1), (0, 0), (1, 0), (1, 1), (0, 0), (1, 1), (0, 1), (0.05825047, 0), (1, 0), (1, 0.5), (0.05825047, 0), (1, 0.5), (1, 1), (0.05825047, 0), (1, 1), (0, 1), (0.05825047, 0), (0, 1), (0.02911931, 0.5), (0.889918, 0), (1, 1.204757E-05), (0.05503746, 1), (0.889918, 0), (0.05503746, 1), (0.02751871, 0.970869), (0.02751871, 0.970869), (-5.026354E-08, 0.9417385), (0.889918, 0), (0.889918, 0), (0.9449646, 0), (1, 1.204757E-05)](
			
			interpolation = "faceVarying"
		)
		
		
	}
	
}
