#usda 1.0 | Cygon
(
	defaultPrim = "World"
	upAxis = "Y"
	metersPerUnit = 1
)

def Xform "World"
{
	def Mesh "Wall_0b289d9f_344b_4398_aa02_865912fa17a9"
	{
		int[] faceVertexCounts = [3, 3, 3, 3, 3, 3, 3, 3, 3, 3, 3, 3, 3, 3, 3, 3, 3, 3, 3, 3, 3, 3, 3, 3, 3, 3, 3, 3]
		int[] faceVertexIndices = [1, 2, 3, 1, 3, 4, 4, 5, 1, 5, 0, 1, 5, 6, 0, 6, 7, 0, 8, 13, 14, 8, 14, 15, 8, 12, 13, 8, 9, 12, 9, 11, 12, 9, 10, 11, 16, 17, 18, 16, 18, 21, 18, 20, 21, 18, 19, 20, 22, 23, 26, 22, 26, 27, 23, 24, 26, 24, 25, 26, 28, 29, 30, 28, 30, 31, 32, 33, 34, 32, 34, 35, 36, 37, 38, 36, 38, 39, 40, 41, 42, 40, 42, 43]
		uniform token orientation = "leftHanded"
		normal3f[] normals = [(1, 0, 0), (1, 0, 0), (1, 0, 0), (1, 0, 0), (1, 0, 0), (1, 0, 0), (1, 0, 0), (0.9999999, 0, 0), (1, 0, 0), (0.9999999, 0, 0), (0.9999999, 0, 0), (1, 0, 0), (0.9999999, 0, 0), (1, 0, 0), (0.9999999, 0, 0), (1, 0, 0), (0.9999999, 0, 0), (0.9999999, 0, 0), (-1, 0, 0), (-1, 0, 0), (-0.9999999, 0, 0), (-1, 0, 0), (-0.9999999, 0, 0), (-1, 0, 0), (-1, 0, 0), (-1, 0, 0), (-1, 0, 0), (-1, 0, 0), (-1, 0, 0), (-1, 0, 0), (-1, 0, 0), (-1, 0, 0), (-1, 0, 0), (-1, 0, 0), (-1, 0, 0), (-1, 0, 0), (0, 1, 0), (0, 1, 0), (0, 1, 0), (0, 1, 0), (0, 1, 0), (0, 1, 0), (0, 1, 0), (0, 1, 0), (0, 1, 0), (0, 1, 0), (0, 0.9999999, 0), (0, 1, 0), (0, -1, 0), (0, -1, 0), (0, -1, 0), (0, -1, 0), (0, -1, 0), (0, -1, 0), (0, -1, 0), (0, -1, 0), (0, -1, 0), (0, -1, 0), (0, -0.9999999, 0), (0, -1, 0), (0, -1, 0), (0, -1, 0), (0, -1, 0), (0, -1, 0), (0, -1, 0), (0, -1, 0), (0, 1, 0), (0, 1, 0), (0, 1, 0), (0, 1, 0), (0, 1, 0), (0, 1, 0), (0, 0, 1), (0, 0, 1), (0, 0, 1), (0, 0, 1), (0, 0, 1), (0, 0, 1), (0, 0, -1), (0, 0, -1), (0, 0, -1), (0, 0, -1), (0, 0, -1), (0, 0, -1)](
			
			interpolation = "faceVarying"
		)
		
		point3f[] points = [(0.1499996, 4.450001, -1.500004), (0.1499996, 4.450001, 1.499996), (0.1499996, 0, 1.499996), (0.1499996, 0, 2.150024), (0.1499996, 5, 2.150024), (0.1499996, 5, -2.149963), (0.1499996, 0, -2.149963), (0.1499996, 0, -1.500004), (-0.1499996, 4.450001, 1.499996), (-0.1499996, 4.450001, -1.500004), (-0.1499996, 0, -1.500004), (-0.1499996, 0, -1.849976), (-0.1499996, 5, -1.849976), (-0.1499996, 5, 1.850037), (-0.1499996, 0, 1.850037), (-0.1499996, 0, 1.499996), (0.1499996, 5, -2.149963), (0.1499996, 5, 2.150024), (0, 5, 2), (-0.1499996, 5, 1.850037), (-0.1499996, 5, -1.849976), (0, 5, -2), (0.1499996, 0, -2.149963), (0, 0, -2), (-0.1499996, 0, -1.849976), (-0.1499996, 0, 1.850037), (0, 0, 2), (0.1499996, 0, 2.150024), (-0.1500072, 4.450001, -1.500004), (-0.1500072, 4.450001, 1.499996), (0.149992, 4.450001, 1.499996), (0.149992, 4.450001, -1.500004), (0.149992, -0.04999924, -1.500004), (0.149992, -0.04999924, 1.499996), (-0.1500072, -0.04999924, 1.499996), (-0.1500072, -0.04999924, -1.500004), (-0.1500072, 4.450001, -1.500004), (0.149992, 4.450001, -1.500004), (0.149992, -0.04999924, -1.500004), (-0.1500072, -0.04999924, -1.500004), (0.149992, 4.450001, 1.499996), (-0.1500072, 4.450001, 1.499996), (-0.1500072, -0.04999924, 1.499996), (0.149992, -0.04999924, 1.499996)]
		float2[] primvars:st = [(0.8488302, 0.8900002), (0.8488302, 0), (1, 0), (0.8488302, 0.8900002), (1, 0), (1, 1), (1, 1), (0, 1), (0.8488302, 0.8900002), (0, 1), (0.1511538, 0.8900002), (0.8488302, 0.8900002), (0, 1), (0, 0), (0.1511538, 0.8900002), (0, 0), (0.1511538, 0), (0.1511538, 0.8900002), (0.9053948, 0.1099999), (1, 0), (1, 1), (0.9053948, 0.1099999), (1, 1), (0.9053948, 1), (0.9053948, 0.1099999), (0, 0), (1, 0), (0.9053948, 0.1099999), (0.09458666, 0.1099999), (0, 0), (0.09458666, 0.1099999), (0, 1), (0, 0), (0.09458666, 0.1099999), (0.09458666, 1), (0, 1), (0, 0), (1, 0), (0.9651105, 0.5), (0, 0), (0.9651105, 0.5), (0.0348753, 0.5), (0.9651105, 0.5), (0.0697648, 1), (0.0348753, 0.5), (0.9651105, 0.5), (0.9302352, 1), (0.0697648, 1), (0, 0), (0.0697661, 0), (0.9999831, 0.9302347), (0, 0), (0.9999831, 0.9302347), (0.9999806, 1), (0.0697661, 0), (0.1395464, 1.3799E-05), (0.9999831, 0.9302347), (0.1395464, 1.3799E-05), (1, 0.8604845), (0.9999831, 0.9302347), (0, 0), (1, 0), (1, 1), (0, 0), (1, 1), (0, 1), (0, 0), (1, 0), (1, 1), (0, 0), (1, 1), (0, 1), (0, 0), (1, 0), (1, 1), (0, 0), (1, 1), (0, 1), (0, 0), (1, 0), (1, 1), (0, 0), (1, 1), (0, 1)](
			
			interpolation = "faceVarying"
		)
		
		
	}
	
}
