#usda 1.0 | Cygon
(
	defaultPrim = "World"
	upAxis = "Y"
	metersPerUnit = 1
)

def Xform "World"
{
	def Mesh "Wall_1f360848_7ce7_413d_9445_69814e49506c"
	{
		int[] faceVertexCounts = [3, 3, 3, 3, 3, 3, 3, 3, 3, 3, 3, 3]
		int[] faceVertexIndices = [0, 1, 2, 0, 2, 3, 4, 5, 6, 4, 6, 7, 8, 9, 10, 8, 10, 11, 8, 11, 12, 8, 12, 13, 14, 15, 16, 14, 16, 17, 14, 17, 18, 14, 18, 19]
		uniform token orientation = "leftHanded"
		normal3f[] normals = [(0, 0, 1), (0, 0, 1), (0, 0, 1), (0, 0, 1), (0, 0, 1), (0, 0, 1), (0, 0, -1), (0, 0, -1), (0, 0, -1), (0, 0, -1), (0, 0, -1), (0, 0, -1), (0, 1, 0), (0, 1, 0), (0, 0.9999999, 0), (0, 1, 0), (0, 0.9999999, 0), (0, 1, 0), (0, 1, 0), (0, 1, 0), (0, 1, 0), (0, 1, 0), (0, 1, 0), (0, 1, 0), (0, -1, 0), (0, -1, 0), (0, -1, 0), (0, -1, 0), (0, -1, 0), (0, -1, 0), (0, -1, 0), (0, -1, 0), (0, -0.9999999, 0), (0, -1, 0), (0, -0.9999999, 0), (0, -1, 0)](
			
			interpolation = "faceVarying"
		)
		
		point3f[] points = [(2.349976, 0, 0.1499996), (-2.350037, 0, 0.1499996), (-2.350037, 1, 0.1499996), (2.349976, 1, 0.1499996), (2.649963, 1, -0.1499996), (-2.5, 1, -0.1499996), (-2.5, 0, -0.1499996), (2.649963, 0, -0.1499996), (2.349976, 1, 0.1499996), (-2.350037, 1, 0.1499996), (-2.5, 1, 0), (-2.5, 1, -0.1499996), (2.649963, 1, -0.1499996), (2.5, 1, 0), (2.349976, 0, 0.1499996), (2.5, 0, 0), (2.649963, 0, -0.1499996), (-2.5, 0, -0.1499996), (-2.5, 0, 0), (-2.350037, 0, 0.1499996)]
		float2[] primvars:st = [(0, 0), (1, 0), (1, 1), (0, 0), (1, 1), (0, 1), (0, 0), (1, 0), (1, 1), (0, 0), (1, 1), (0, 1), (0.05825047, 0), (0.9708807, 0), (1, 0.5), (0.05825047, 0), (1, 0.5), (1, 1), (0.05825047, 0), (1, 1), (0, 1), (0.05825047, 0), (0, 1), (0.02911931, 0.5), (0.8868033, -5.238076E-07), (0.9434075, -5.238076E-07), (1, 1.152377E-05), (0.8868033, -5.238076E-07), (1, 1.152377E-05), (0.02829962, 1), (0.8868033, -5.238076E-07), (0.02829962, 1), (2.16285E-06, 0.9708689), (0.8868033, -5.238076E-07), (2.16285E-06, 0.9708689), (1.272265E-07, 0.9126195)](
			
			interpolation = "faceVarying"
		)
		
		
	}
	
}
