#usda 1.0 | Cygon
(
	defaultPrim = "World"
	upAxis = "Y"
	metersPerUnit = 1
)

def Xform "World"
{
	def Mesh "Wall_82bff049_c119_4cd5_8d80_e3e21edc0f6b"
	{
		int[] faceVertexCounts = [3, 3, 3, 3, 3, 3, 3, 3, 3, 3, 3, 3]
		int[] faceVertexIndices = [0, 1, 2, 0, 2, 3, 4, 5, 6, 4, 6, 7, 8, 9, 10, 8, 10, 13, 10, 12, 13, 10, 11, 12, 14, 15, 18, 14, 18, 19, 15, 16, 18, 16, 17, 18]
		uniform token orientation = "leftHanded"
		normal3f[] normals = [(0, 0, 1), (0, 0, 1), (0, 0, 1), (0, 0, 1), (0, 0, 1), (0, 0, 1), (0, 0, -0.9999999), (0, 0, -0.9999999), (0, 0, -0.9999999), (0, 0, -0.9999999), (0, 0, -0.9999999), (0, 0, -0.9999999), (0, 1, 0), (0, 1, 0), (0, 1, 0), (0, 1, 0), (0, 1, 0), (0, 1, 0), (0, 1, 0), (0, 1, 0), (0, 1, 0), (0, 1, 0), (0, 1, 0), (0, 1, 0), (0, -1, 0), (0, -1, 0), (0, -1, 0), (0, -1, 0), (0, -1, 0), (0, -1, 0), (0, -1, 0), (0, -1, 0), (0, -1, 0), (0, -1, 0), (0, -1, 0), (0, -1, 0)](
			
			interpolation = "faceVarying"
		)
		
		point3f[] points = [(0.6499634, 0, 0.1499996), (-0.6500244, 0, 0.1499996), (-0.6500244, 2.5, 0.1499996), (0.6499634, 2.5, 0.1499996), (0.3499756, 2.5, -0.1499996), (-0.3500366, 2.5, -0.1499996), (-0.3500366, 0, -0.1499996), (0.3499756, 0, -0.1499996), (0.6499634, 2.5, 0.1499996), (-0.6500244, 2.5, 0.1499996), (-0.5, 2.5, 0), (-0.3500366, 2.5, -0.1499996), (0.3499756, 2.5, -0.1499996), (0.5, 2.5, 0), (0.6499634, 0, 0.1499996), (0.5, 0, 0), (0.3499756, 0, -0.1499996), (-0.3500366, 0, -0.1499996), (-0.5, 0, 0), (-0.6500244, 0, 0.1499996)]
		float2[] primvars:st = [(0, 0), (1, 0), (1, 1), (0, 0), (1, 1), (0, 1), (0, 0), (1, 0), (1, 1), (0, 0), (1, 1), (0, 1), (0, 0), (1, 0), (0.8845955, 0.5), (0, 0), (0.8845955, 0.5), (0.1153575, 0.5), (0.8845955, 0.5), (0.230762, 1), (0.1153575, 0.5), (0.8845955, 0.5), (0.769238, 1), (0.230762, 1), (0, 0), (0.2307549, 0), (0.9999461, 0.7692379), (0, 0), (0.9999461, 0.7692379), (0.9999378, 1), (0.2307549, 0), (0.4615595, 4.693987E-05), (0.9999461, 0.7692379), (0.4615595, 4.693987E-05), (1, 0.538523), (0.9999461, 0.7692379)](
			
			interpolation = "faceVarying"
		)
		
		
	}
	
}
