#usda 1.0 | Cygon
(
	defaultPrim = "World"
	upAxis = "Y"
	metersPerUnit = 1
)

def Xform "World"
{
	def Mesh "Wall_70c19a93_78d8_41c7_848e_e1d856fea720"
	{
		int[] faceVertexCounts = [3, 3, 3, 3, 3, 3, 3, 3, 3, 3, 3, 3]
		int[] faceVertexIndices = [0, 1, 2, 0, 2, 3, 4, 5, 6, 4, 6, 7, 10, 11, 12, 10, 12, 13, 13, 8, 10, 8, 9, 10, 15, 16, 17, 15, 17, 18, 18, 14, 15, 18, 19, 14]
		uniform token orientation = "leftHanded"
		normal3f[] normals = [(0, 0, 0.9999999), (0, 0, 0.9999999), (0, 0, 0.9999999), (0, 0, 0.9999999), (0, 0, 0.9999999), (0, 0, 0.9999999), (0, 0, -1), (0, 0, -1), (0, 0, -1), (0, 0, -1), (0, 0, -1), (0, 0, -1), (0, 1, 0), (0, 1, 0), (0, 1, 0), (0, 1, 0), (0, 1, 0), (0, 1, 0), (0, 1, 0), (0, 1, 0), (0, 1, 0), (0, 1, 0), (0, 0.9999999, 0), (0, 1, 0), (0, -1, 0), (0, -1, 0), (0, -1, 0), (0, -1, 0), (0, -1, 0), (0, -1, 0), (0, -1, 0), (0, -1, 0), (0, -1, 0), (0, -1, 0), (0, -0.9999999, 0), (0, -1, 0)](
			
			interpolation = "faceVarying"
		)
		
		point3f[] points = [(1.849976, 0, 0.1499996), (-1.850037, 0, 0.1499996), (-1.850037, 1, 0.1499996), (1.849976, 1, 0.1499996), (2.149963, 1, -0.1499996), (-2.150024, 1, -0.1499996), (-2.150024, 0, -0.1499996), (2.149963, 0, -0.1499996), (1.849976, 1, 0.1499996), (-1.850037, 1, 0.1499996), (-2, 1, 0), (-2.150024, 1, -0.1499996), (2.149963, 1, -0.1499996), (2, 1, 0), (1.849976, 0, 0.1499996), (2, 0, 0), (2.149963, 0, -0.1499996), (-2.150024, 0, -0.1499996), (-2, 0, 0), (-1.850037, 0, 0.1499996)]
		float2[] primvars:st = [(0, 0), (1, 0), (1, 1), (0, 0), (1, 1), (0, 1), (0, 0), (1, 0), (1, 1), (0, 0), (1, 1), (0, 1), (0.9651105, 0.5), (1, 1), (0, 1), (0.9651105, 0.5), (0, 1), (0.0348753, 0.5), (0.0348753, 0.5), (0.0697648, 0), (0.9651105, 0.5), (0.0697648, 0), (0.9302352, 0), (0.9651105, 0.5), (0.9302469, 0), (1, 1.505631E-05), (-7.84065E-08, 1), (0.9302469, 0), (-7.84065E-08, 1), (1.144735E-05, 0.9302216), (1.144735E-05, 0.9302216), (0.8604794, 0), (0.9302469, 0), (1.144735E-05, 0.9302216), (8.781529E-06, 0.8604581), (0.8604794, 0)](
			
			interpolation = "faceVarying"
		)
		
		
	}
	
}
