#usda 1.0 | Cygon
(
	defaultPrim = "World"
	upAxis = "Y"
	metersPerUnit = 1
)

def Xform "World"
{
	def Mesh "Wall_68247171_8318_416d_8759_f49bb9b73c89"
	{
		int[] faceVertexCounts = [3, 3, 3, 3, 3, 3, 3, 3, 3, 3, 3, 3]
		int[] faceVertexIndices = [0, 1, 2, 0, 2, 3, 4, 5, 6, 4, 6, 7, 8, 9, 10, 8, 10, 11, 8, 11, 12, 8, 12, 13, 14, 15, 16, 14, 16, 17, 14, 17, 18, 14, 18, 19]
		uniform token orientation = "leftHanded"
		normal3f[] normals = [(1, 0, 0), (1, 0, 0), (1, 0, 0), (1, 0, 0), (1, 0, 0), (1, 0, 0), (-1, 0, 0), (-1, 0, 0), (-1, 0, 0), (-1, 0, 0), (-1, 0, 0), (-1, 0, 0), (0, 1, 0), (0, 0.9999999, 0), (0, 0.9999999, 0), (0, 1, 0), (0, 0.9999999, 0), (0, 1, 0), (0, 1, 0), (0, 1, 0), (0, 1, 0), (0, 1, 0), (0, 1, 0), (0, 1, 0), (0, -1, 0), (0, -1, 0), (0, -1, 0), (0, -1, 0), (0, -1, 0), (0, -1, 0), (0, -1, 0), (0, -1, 0), (0, -0.9999999, 0), (0, -1, 0), (0, -0.9999999, 0), (0, -0.9999999, 0)](
			
			interpolation = "faceVarying"
		)
		
		point3f[] points = [(0.1499996, 0, -4.849976), (0.1499996, 0, 4.850037), (0.1499996, 7.5, 4.850037), (0.1499996, 7.5, -4.849976), (-0.1500015, 7.5, -4.849976), (-0.1500015, 7.5, 4.850037), (-0.1500015, 0, 4.850037), (-0.1500015, 0, -4.849976), (0.1499996, 7.5, -4.849976), (0.1499996, 7.5, 4.850037), (0, 7.5, 5), (-0.1500015, 7.5, 4.850037), (-0.1500015, 7.5, -4.849976), (0, 7.5, -5), (0.1499996, 0, -4.849976), (0, 0, -5), (-0.1500015, 0, -4.849976), (-0.1500015, 0, 4.850037), (0, 0, 5), (0.1499996, 0, 4.850037)]
		float2[] primvars:st = [(0, 0), (1, 0), (1, 1), (0, 0), (1, 1), (0, 1), (0, 0), (1, 0), (1, 1), (0, 0), (1, 1), (0, 1), (0.01500244, 0), (0.9850037, 0), (1, 0.4999968), (0.01500244, 0), (1, 0.4999968), (0.9850037, 1), (0.01500244, 0), (0.9850037, 1), (0.01500244, 1), (0.01500244, 0), (0.01500244, 1), (0, 0.4999968), (0.9699994, 6.744008E-08), (0.9999995, 6.744008E-08), (0.9999946, 0.03000493), (0.9699994, 6.744008E-08), (0.9999946, 0.03000493), (0.0299947, 0.9999997), (0.9699994, 6.744008E-08), (0.0299947, 0.9999997), (1.078869E-06, 0.9999934), (0.9699994, 6.744008E-08), (1.078869E-06, 0.9999934), (0, 0.9699948)](
			
			interpolation = "faceVarying"
		)
		
		
	}
	
}
