#usda 1.0 | Cygon
(
	defaultPrim = "World"
	upAxis = "Y"
	metersPerUnit = 1
)

def Xform "World"
{
	def Mesh "Wall_dc0d7b06_5dcf_4930_b548_5225aa41883e"
	{
		int[] faceVertexCounts = [3, 3, 3, 3, 3, 3, 3, 3, 3, 3, 3, 3, 3, 3, 3, 3]
		int[] faceVertexIndices = [0, 1, 2, 0, 2, 3, 4, 5, 6, 4, 6, 7, 8, 9, 10, 8, 10, 11, 12, 13, 14, 12, 14, 15, 16, 17, 18, 16, 18, 19, 20, 21, 22, 20, 22, 23, 24, 25, 26, 24, 26, 27, 28, 29, 30, 28, 30, 31]
		uniform token orientation = "leftHanded"
		normal3f[] normals = [(1, 0, 0), (1, 0, 0), (1, 0, 0), (1, 0, 0), (1, 0, 0), (1, 0, 0), (-0.9999999, 0, 0), (-0.9999999, 0, 0), (-0.9999999, 0, 0), (-0.9999999, 0, 0), (-0.9999999, 0, 0), (-0.9999999, 0, 0), (0, 1, 0), (0, 1, 0), (0, 1, 0), (0, 1, 0), (0, 1, 0), (0, 1, 0), (-3.973653E-07, -1, 0), (-3.973653E-07, -1, 0), (-3.973653E-07, -1, 0), (-3.973653E-07, -1, 0), (-3.973653E-07, -1, 0), (-3.973653E-07, -1, 0), (0, 0, -1), (0, 0, -1), (0, 0, -1), (0, 0, -1), (0, 0, -1), (0, 0, -1), (0, 0, -1), (0, 0, -1), (0, 0, -1), (0, 0, -1), (0, 0, -1), (0, 0, -1), (0, 0, 1), (0, 0, 1), (0, 0, 1), (0, 0, 1), (0, 0, 1), (0, 0, 1), (0, 0, 1), (0, 0, 1), (0, 0, 1), (0, 0, 1), (0, 0, 1), (0, 0, 1)](
			
			interpolation = "faceVarying"
		)
		
		point3f[] points = [(0.1499996, -1.192093E-07, -1.726923), (0.1499996, -1.192093E-07, 1.726923), (0.1499996, 1, 1.726923), (0.1499996, 1, -1.726923), (-0.1499996, 1, -1.726923), (-0.1499996, 1, 1.726923), (-0.1499996, 0, 1.726923), (-0.1499996, 0, -1.726923), (0.1499996, 1, -1.726923), (0.1499996, 1, 1.726923), (-0.1499996, 1, 1.726923), (-0.1499996, 1, -1.726923), (0.1499996, -1.192093E-07, -1.726923), (-0.1499996, 0, -1.726923), (-0.1499996, 0, 1.726923), (0.1499996, -1.192093E-07, 1.726923), (-0.1499996, 0, -1.726923), (0, 0, -1.726923), (0, 1, -1.726923), (-0.1499996, 1, -1.726923), (0.1499996, 1, -1.726923), (0, 1, -1.726923), (0, 0, -1.726923), (0.1499996, -1.192093E-07, -1.726923), (-0.1499996, 1, 1.726923), (0, 1, 1.726923), (0, 0, 1.726923), (-0.1499996, 0, 1.726923), (0.1499996, -1.192093E-07, 1.726923), (0, 0, 1.726923), (0, 1, 1.726923), (0.1499996, 1, 1.726923)]
		float2[] primvars:st = [(0, 0), (1, 0), (1, 1), (0, 0), (1, 1), (0, 1), (0, 0), (1, 0), (1, 1), (0, 0), (1, 1), (0, 1), (0, 0), (1, 0), (1, 1), (0, 0), (1, 1), (0, 1), (0, 0), (1, 0), (1, 1), (0, 0), (1, 1), (0, 1), (0, 0), (1, 0), (1, 1), (0, 0), (1, 1), (0, 1), (0, 0), (1, 0), (1, 1), (0, 0), (1, 1), (0, 1), (0, 0), (1, 0), (1, 1), (0, 0), (1, 1), (0, 1), (0, 0), (1, 0), (1, 1), (0, 0), (1, 1), (0, 1)](
			
			interpolation = "faceVarying"
		)
		
		
	}
	
}
