#usda 1.0 | Cygon
(
	defaultPrim = "World"
	upAxis = "Y"
	metersPerUnit = 1
)

def Xform "World"
{
	def Mesh "Wall_2eecc143_03db_4322_872d_2f6c06e8f697"
	{
		int[] faceVertexCounts = [3, 3, 3, 3, 3, 3, 3, 3, 3, 3, 3, 3, 3, 3]
		int[] faceVertexIndices = [0, 1, 2, 0, 2, 3, 4, 5, 6, 4, 6, 7, 8, 9, 10, 8, 10, 11, 8, 11, 12, 13, 14, 15, 13, 15, 16, 13, 16, 17, 18, 19, 20, 18, 20, 21, 22, 23, 24, 22, 24, 25]
		uniform token orientation = "leftHanded"
		normal3f[] normals = [(0, 0, 1), (0, 0, 1), (0, 0, 1), (0, 0, 1), (0, 0, 1), (0, 0, 1), (0, 0, -1), (0, 0, -1), (0, 0, -1), (0, 0, -1), (0, 0, -1), (0, 0, -1), (0, 1, 0), (0, 1, 0), (0, 1, 0), (0, 1, 0), (0, 1, 0), (0, 1, 0), (0, 1, 0), (0, 1, 0), (0, 1, 0), (0, -1, 0), (0, -1, 0), (0, -1, 0), (0, -1, 0), (0, -1, 0), (0, -1, 0), (0, -1, 0), (0, -1, 0), (0, -1, 0), (-1, 0, 0), (-1, 0, 0), (-1, 0, 0), (-1, 0, 0), (-1, 0, 0), (-1, 0, 0), (-1, 0, 0), (-1, 0, 0), (-1, 0, 0), (-1, 0, 0), (-1, 0, 0), (-1, 0, 0)](
			
			interpolation = "faceVarying"
		)
		
		point3f[] points = [(0.5, 0, 0.1499996), (-0.5, 0, 0.1499996), (-0.5, 1, 0.1499996), (0.5, 1, 0.1499996), (0.3499756, 1, -0.1499996), (-0.5, 1, -0.1499996), (-0.5, 0, -0.1499996), (0.3499756, 0, -0.1499996), (0.5, 1, 0.1499996), (-0.5, 1, 0.1499996), (-0.5, 1, -0.1499996), (0.3499756, 1, -0.1499996), (0.5, 1, 0), (0.5, 0, 0.1499996), (0.5, 0, 0), (0.3499756, 0, -0.1499996), (-0.5, 0, -0.1499996), (-0.5, 0, 0.1499996), (-0.5, 1, -0.1499996), (-0.5, 1, 0), (-0.5, 0, 0), (-0.5, 0, -0.1499996), (-0.5, 0, 0.1499996), (-0.5, 0, 0), (-0.5, 1, 0), (-0.5, 1, 0.1499996)]
		float2[] primvars:st = [(0, 0), (1, 0), (1, 1), (0, 0), (1, 1), (0, 1), (0, 0), (1, 0), (1, 1), (0, 0), (1, 1), (0, 1), (0, 0), (1, 0), (1, 1), (0, 0), (1, 1), (0.1500244, 1), (0, 0), (0.1500244, 1), (0, 0.5), (0, 0), (0.5, 0), (1, 0.1500244), (0, 0), (1, 0.1500244), (1, 1), (0, 0), (1, 1), (0, 1), (0, 0), (1, 0), (1, 1), (0, 0), (1, 1), (0, 1), (0, 0), (1, 0), (1, 1), (0, 0), (1, 1), (0, 1)](
			
			interpolation = "faceVarying"
		)
		
		
	}
	
}
