#usda 1.0 | Cygon
(
	defaultPrim = "World"
	upAxis = "Y"
	metersPerUnit = 1
)

def Xform "World"
{
	def Mesh "Wall_c020e2bc_2ad3_4f77_9ccf_71569f88ad73"
	{
		int[] faceVertexCounts = [3, 3, 3, 3, 3, 3, 3, 3, 3, 3, 3, 3, 3, 3, 3, 3, 3, 3]
		int[] faceVertexIndices = [0, 1, 2, 0, 2, 3, 4, 5, 6, 4, 6, 7, 8, 9, 10, 8, 10, 11, 11, 12, 8, 13, 15, 16, 13, 16, 17, 13, 14, 15, 18, 19, 20, 18, 20, 21, 22, 23, 24, 22, 24, 25, 26, 27, 28, 26, 28, 29, 30, 31, 32, 30, 32, 33]
		uniform token orientation = "leftHanded"
		normal3f[] normals = [(1, 0, 0), (1, 0, 0), (1, 0, 0), (1, 0, 0), (1, 0, 0), (1, 0, 0), (-1, 0, 0), (-1, 0, 0), (-1, 0, 0), (-1, 0, 0), (-1, 0, 0), (-1, 0, 0), (0, 1, 0), (0, 1, 0), (0, 1, 0), (0, 1, 0), (0, 1, 0), (0, 1, 0), (0, 1, 0), (0, 1, 0), (0, 1, 0), (0, -1, 0), (0, -1, 0), (0, -1, 0), (0, -1, 0), (0, -1, 0), (0, -1, 0), (0, -1, 0), (0, -1, 0), (0, -1, 0), (0, 0, -1), (0, 0, -1), (0, 0, -1), (0, 0, -1), (0, 0, -1), (0, 0, -1), (0, 0, -1), (0, 0, -1), (0, 0, -1), (0, 0, -1), (0, 0, -1), (0, 0, -1), (-0.7070214, 0, 0.7071922), (-0.7070214, 0, 0.7071922), (-0.7070214, 0, 0.7071922), (-0.7070214, 0, 0.7071922), (-0.7070214, 0, 0.7071922), (-0.7070214, 0, 0.7071922), (-0.7071652, 0, 0.7070484), (-0.7071652, 0, 0.7070484), (-0.7071652, 0, 0.7070484), (-0.7071652, 0, 0.7070484), (-0.7071652, 0, 0.7070484), (-0.7071652, 0, 0.7070484)](
			
			interpolation = "faceVarying"
		)
		
		point3f[] points = [(0.1499996, 0, -3.5), (0.1499996, 0, 3.650024), (0.1499996, 1, 3.650024), (0.1499996, 1, -3.5), (-0.1499996, 1, -3.5), (-0.1499996, 1, 3.350037), (-0.1499996, 0, 3.350037), (-0.1499996, 0, -3.5), (0.1499996, 1, -3.5), (0.1499996, 1, 3.650024), (0, 1, 3.5), (-0.1499996, 1, 3.350037), (-0.1499996, 1, -3.5), (0.1499996, 0, -3.5), (-0.1499996, 0, -3.5), (-0.1499996, 0, 3.350037), (0, 0, 3.5), (0.1499996, 0, 3.650024), (-0.1499996, 0, -3.5), (0, 0, -3.5), (0, 1, -3.5), (-0.1499996, 1, -3.5), (0.1499996, 1, -3.5), (0, 1, -3.5), (0, 0, -3.5), (0.1499996, 0, -3.5), (-0.1499996, 1, 3.350037), (0, 1, 3.5), (0, 0, 3.5), (-0.1499996, 0, 3.350037), (0.1499996, 0, 3.650024), (0, 0, 3.5), (0, 1, 3.5), (0.1499996, 1, 3.650024)]
		float2[] primvars:st = [(0, 0), (1, 0), (1, 1), (0, 0), (1, 1), (0, 1), (0, 0), (1, 0), (1, 1), (0, 0), (1, 1), (0, 1), (0, 0), (1, 0), (0.9790176, 0.5), (0, 0), (0.9790176, 0.5), (0.9580438, 1), (0.9580438, 1), (0, 1), (0, 0), (0, 0), (1, 0.9580438), (0.5, 0.9790176), (0, 0), (0.5, 0.9790176), (0, 1), (0, 0), (1, 0), (1, 0.9580438), (0, 0), (1, 0), (1, 1), (0, 0), (1, 1), (0, 1), (0, 0), (1, 0), (1, 1), (0, 0), (1, 1), (0, 1), (0, 0), (1, 0), (1, 1), (0, 0), (1, 1), (0, 1), (0, 0), (1, 0), (1, 1), (0, 0), (1, 1), (0, 1)](
			
			interpolation = "faceVarying"
		)
		
		
	}
	
}
