#usda 1.0 | Cygon
(
	defaultPrim = "World"
	upAxis = "Y"
	metersPerUnit = 1
)

def Xform "World"
{
	def Mesh "Wall_9f968dba_b904_41bb_8199_f1c2343804b0"
	{
		int[] faceVertexCounts = [3, 3, 3, 3, 3, 3, 3, 3, 3, 3, 3, 3]
		int[] faceVertexIndices = [0, 1, 2, 0, 2, 3, 4, 5, 6, 4, 6, 7, 8, 9, 10, 8, 10, 11, 8, 11, 12, 8, 12, 13, 14, 15, 16, 14, 16, 17, 14, 17, 18, 14, 18, 19]
		uniform token orientation = "leftHanded"
		normal3f[] normals = [(0, 0, 1), (0, 0, 1), (0, 0, 1), (0, 0, 1), (0, 0, 1), (0, 0, 1), (0, 0, -1), (0, 0, -1), (0, 0, -1), (0, 0, -1), (0, 0, -1), (0, 0, -1), (0, 1, 0), (0, 1, 0), (0, 1, 0), (0, 1, 0), (0, 1, 0), (0, 1, 0), (0, 1, 0), (0, 1, 0), (0, 1, 0), (0, 1, 0), (0, 1, 0), (0, 1, 0), (0, -1, 0), (0, -1, 0), (0, -1, 0), (0, -1, 0), (0, -1, 0), (0, -1, 0), (0, -1, 0), (0, -1, 0), (0, -1, 0), (0, -1, 0), (0, -1, 0), (0, -1, 0)](
			
			interpolation = "faceVarying"
		)
		
		point3f[] points = [(7.349976, 0, 0.1499996), (-7.350037, 0, 0.1499996), (-7.350037, 7.5, 0.1499996), (7.349976, 7.5, 0.1499996), (7.649963, 7.5, -0.1499996), (-7.5, 7.5, -0.1499996), (-7.5, 0, -0.1499996), (7.649963, 0, -0.1499996), (7.349976, 7.5, 0.1499996), (-7.350037, 7.5, 0.1499996), (-7.5, 7.5, 0), (-7.5, 7.5, -0.1499996), (7.649963, 7.5, -0.1499996), (7.5, 7.5, 0), (7.349976, 0, 0.1499996), (7.5, 0, 0), (7.649963, 0, -0.1499996), (-7.5, 0, -0.1499996), (-7.5, 0, 0), (-7.350037, 0, 0.1499996)]
		float2[] primvars:st = [(0, 0), (1, 0), (1, 1), (0, 0), (1, 1), (0, 1), (0, 0), (1, 0), (1, 1), (0, 0), (1, 1), (0, 1), (0.01980122, 0), (0.9901014, 0), (1, 0.5), (0.01980122, 0), (1, 0.5), (1, 1), (0.01980122, 0), (1, 1), (0, 1), (0.01980122, 0), (0, 1), (0.009898596, 0.5), (0.9607885, 0), (0.9803963, 0), (1, 4.095391E-06), (0.9607885, 0), (1, 4.095391E-06), (0.009803055, 1), (0.9607885, 0), (0.009803055, 1), (7.49218E-07, 0.9900973), (0.9607885, 0), (7.49218E-07, 0.9900973), (0, 0.9702963)](
			
			interpolation = "faceVarying"
		)
		
		
	}
	
}
