#usda 1.0 | Cygon
(
	defaultPrim = "World"
	upAxis = "Y"
	metersPerUnit = 1
)

def Xform "World"
{
	def Mesh "Wall_bd5ac6eb_ac05_450e_a40f_2474c0ebea7d"
	{
		int[] faceVertexCounts = [3, 3, 3, 3, 3, 3, 3, 3, 3, 3, 3, 3]
		int[] faceVertexIndices = [0, 1, 2, 0, 2, 3, 4, 5, 6, 4, 6, 7, 10, 11, 12, 10, 12, 13, 13, 8, 10, 8, 9, 10, 15, 16, 17, 15, 17, 19, 19, 14, 15, 17, 18, 19]
		uniform token orientation = "leftHanded"
		normal3f[] normals = [(-1, 0, 0), (-1, 0, 0), (-1, 0, 0), (-1, 0, 0), (-1, 0, 0), (-1, 0, 0), (1, 0, 0), (1, 0, 0), (1, 0, 0), (1, 0, 0), (1, 0, 0), (1, 0, 0), (0, 1, 0), (0, 1, 0), (0, 1, 0), (0, 1, 0), (0, 1, 0), (0, 1, 0), (0, 1, 0), (0, 1, 0), (0, 1, 0), (0, 1, 0), (0, 0.9999999, 0), (0, 1, 0), (0, -1, 0), (0, -1, 0), (0, -1, 0), (0, -1, 0), (0, -1, 0), (0, -1, 0), (0, -1, 0), (0, -0.9999999, 0), (0, -1, 0), (0, -1, 0), (0, 1, 0), (0, -1, 0)](
			
			interpolation = "faceVarying"
		)
		
		point3f[] points = [(-0.1499996, 0, 4.849976), (-0.1499996, 0, -4.850037), (-0.1499996, 7.5, -4.850037), (-0.1499996, 7.5, 4.849976), (0.1499996, 7.5, 5.149963), (0.1499996, 7.5, -5.150024), (0.1499996, 0, -5.150024), (0.1499996, 0, 5.149963), (-0.1499996, 7.5, 4.849976), (-0.1499996, 7.5, -4.850037), (0, 7.5, -5), (0.1499996, 7.5, -5.150024), (0.1499996, 7.5, 5.149963), (0, 7.5, 5), (-0.1499996, 0, 4.849976), (0, 0, 5), (0.1499996, 0, 5.149963), (0.1499996, 0, -5.150024), (0, 0, -5), (-0.1499996, 0, -4.850037)]
		float2[] primvars:st = [(0, 0), (1, 0), (1, 1), (0, 0), (1, 1), (0, 1), (0, 0), (1, 0), (1, 1), (0, 0), (1, 1), (0, 1), (0.9854345, 0.5), (1, 1), (0, 1), (0.9854345, 0.5), (0, 1), (0.01455957, 0.5), (0.01455957, 0.5), (0.02912506, 0), (0.9854345, 0.5), (0.02912506, 0), (0.970875, 0), (0.9854345, 0.5), (0.9708799, 6.547592E-08), (1, 5.991047E-06), (0, 0.9999999), (0.9708799, 6.547592E-08), (0, 0.9999999), (3.666068E-06, 0.9417442), (3.666068E-06, 0.9417442), (0.9417537, 6.547592E-08), (0.9708799, 6.547592E-08), (0, 0.9999999), (4.975378E-06, 0.9708692), (3.666068E-06, 0.9417442)](
			
			interpolation = "faceVarying"
		)
		
		
	}
	
}
