#usda 1.0 | Cygon
(
	defaultPrim = "World"
	upAxis = "Y"
	metersPerUnit = 1
)

def Xform "World"
{
	def Mesh "Wall_6396d272_57f8_4975_873d_292771e7dd67"
	{
		int[] faceVertexCounts = [3, 3, 3, 3, 3, 3, 3, 3, 3, 3, 3, 3]
		int[] faceVertexIndices = [0, 1, 2, 0, 2, 3, 4, 5, 6, 4, 6, 7, 8, 9, 10, 8, 10, 11, 8, 11, 12, 8, 12, 13, 14, 15, 16, 14, 16, 17, 14, 17, 18, 14, 18, 19]
		uniform token orientation = "leftHanded"
		normal3f[] normals = [(0, 0, -1), (0, 0, -1), (0, 0, -1), (0, 0, -1), (0, 0, -1), (0, 0, -1), (0, 0, 0.9999999), (0, 0, 0.9999999), (0, 0, 0.9999999), (0, 0, 0.9999999), (0, 0, 0.9999999), (0, 0, 0.9999999), (0, 1, 0), (0, 1, 0), (0, 1, 0), (0, 1, 0), (0, 1, 0), (0, 1, 0), (0, 1, 0), (0, 1, 0), (0, 1, 0), (0, 1, 0), (0, 1, 0), (0, 1, 0), (0, -1, 0), (0, -1, 0), (0, -1, 0), (0, -1, 0), (0, -1, 0), (0, -1, 0), (0, -1, 0), (0, -1, 0), (0, -1, 0), (0, -1, 0), (0, -1, 0), (0, -1, 0)](
			
			interpolation = "faceVarying"
		)
		
		point3f[] points = [(-3.099976, 0, -0.1499996), (3.100037, 0, -0.1499996), (3.100037, 7.5, -0.1499996), (-3.099976, 7.5, -0.1499996), (-3.399963, 7.5, 0.1499996), (3.25, 7.5, 0.1499996), (3.25, 0, 0.1499996), (-3.399963, 0, 0.1499996), (-3.099976, 7.5, -0.1499996), (3.100037, 7.5, -0.1499996), (3.25, 7.5, 0), (3.25, 7.5, 0.1499996), (-3.399963, 7.5, 0.1499996), (-3.25, 7.5, 0), (-3.099976, 0, -0.1499996), (-3.25, 0, 0), (-3.399963, 0, 0.1499996), (3.25, 0, 0.1499996), (3.25, 0, 0), (3.100037, 0, -0.1499996)]
		float2[] primvars:st = [(0, 0), (1, 0), (1, 1), (0, 0), (1, 1), (0, 1), (0, 0), (1, 0), (1, 1), (0, 0), (1, 1), (0, 1), (0.04511119, 0), (0.977449, 0), (1, 0.5), (0.04511119, 0), (1, 0.5), (1, 1), (0.04511119, 0), (1, 1), (0, 1), (0.04511119, 0), (0, 1), (0.02255101, 0.5), (0.9117733, 0), (0.9558911, 0), (1, 8.924428E-06), (0.9117733, 0), (1, 8.924428E-06), (0.02205672, 1), (0.9117733, 0), (0.02205672, 1), (1.388263E-06, 0.9774399), (0.9117733, 0), (1.388263E-06, 0.9774399), (-1.983232E-07, 0.9323293)](
			
			interpolation = "faceVarying"
		)
		
		
	}
	
}
