#usda 1.0 | Cygon
(
	defaultPrim = "World"
	upAxis = "Y"
	metersPerUnit = 1
)

def Xform "World"
{
	def Mesh "Wall_68e6d9ec_ed36_49b5_ba93_8cdbbb3ad605"
	{
		int[] faceVertexCounts = [3, 3, 3, 3, 3, 3, 3, 3, 3, 3, 3, 3]
		int[] faceVertexIndices = [0, 1, 2, 0, 2, 3, 4, 5, 6, 4, 6, 7, 9, 10, 12, 10, 11, 12, 12, 13, 9, 13, 8, 9, 16, 17, 18, 16, 18, 19, 19, 15, 16, 19, 14, 15]
		uniform token orientation = "leftHanded"
		normal3f[] normals = [(-1, 0, 0), (-1, 0, 0), (-1, 0, 0), (-1, 0, 0), (-1, 0, 0), (-1, 0, 0), (1, 0, 0), (1, 0, 0), (1, 0, 0), (1, 0, 0), (1, 0, 0), (1, 0, 0), (0, 1, 0), (0, 1, 0), (0, 1, 0), (0, 1, 0), (0, 0.9999999, 0), (0, 1, 0), (0, 1, 0), (0, 1, 0), (0, 1, 0), (0, 1, 0), (0, 1, 0), (0, 1, 0), (0, -1, 0), (0, -0.9999999, 0), (0, -1, 0), (0, -1, 0), (0, -1, 0), (0, -1, 0), (0, -1, 0), (0, -1, 0), (0, -1, 0), (0, -1, 0), (0, -1, 0), (0, -1, 0)](
			
			interpolation = "faceVarying"
		)
		
		point3f[] points = [(-0.1499996, 0, 5), (-0.1499996, 0, -4.850037), (-0.1499996, 1, -4.850037), (-0.1499996, 1, 5), (0.1499996, 1, 5), (0.1499996, 1, -5.150024), (0.1499996, 0, -5.150024), (0.1499996, 0, 5), (-0.1499996, 1, 5), (-0.1499996, 1, -4.850037), (0, 1, -5), (0.1499996, 1, -5.150024), (0.1499996, 1, 5), (0, 1, 5), (-0.1499996, 0, 5), (0, 0, 5), (0.1499996, 0, 5), (0.1499996, 0, -5.150024), (0, 0, -5), (-0.1499996, 0, -4.850037)]
		float2[] primvars:st = [(0, 0), (1, 0), (1, 1), (0, 0), (1, 1), (0, 1), (0, 0), (1, 0), (1, 1), (0, 0), (1, 1), (0, 1), (0.9704446, 0), (0.9852193, 0.5), (0, 1), (0.9852193, 0.5), (1, 1), (0, 1), (0, 1), (0, 0.5), (0.9704446, 0), (0, 0.5), (0, 0), (0.9704446, 0), (1, 0), (1, 1), (0.5, 0.9852193), (1, 0), (0.5, 0.9852193), (0, 0.9704446), (0, 0.9704446), (0.5, 0), (1, 0), (0, 0.9704446), (0, 0), (0.5, 0)](
			
			interpolation = "faceVarying"
		)
		
		
	}
	
}
