#usda 1.0 | Cygon
(
	defaultPrim = "World"
	upAxis = "Y"
	metersPerUnit = 1
)

def Xform "World"
{
	def Mesh "Wall_9a0e8a50_ccc5_493b_895b_6a043055b6e9"
	{
		int[] faceVertexCounts = [3, 3, 3, 3, 3, 3, 3, 3, 3, 3, 3, 3, 3, 3, 3, 3]
		int[] faceVertexIndices = [0, 1, 2, 0, 2, 3, 4, 5, 6, 4, 6, 7, 8, 9, 10, 8, 10, 11, 12, 13, 14, 12, 14, 15, 16, 17, 18, 16, 18, 19, 20, 21, 22, 20, 22, 23, 24, 25, 26, 24, 26, 27, 28, 29, 30, 28, 30, 31]
		uniform token orientation = "leftHanded"
		normal3f[] normals = [(-1, 0, 0), (-1, 0, 0), (-1, 0, 0), (-1, 0, 0), (-1, 0, 0), (-1, 0, 0), (1, 0, 0), (1, 0, 0), (1, 0, 0), (1, 0, 0), (1, 0, 0), (1, 0, 0), (0, 1, 0), (0, 1, 0), (0, 1, 0), (0, 1, 0), (0, 1, 0), (0, 1, 0), (0, -1, 0), (0, -1, 0), (0, -1, 0), (0, -1, 0), (0, -1, 0), (0, -1, 0), (0, 0, 1), (0, 0, 1), (0, 0, 1), (0, 0, 1), (0, 0, 1), (0, 0, 1), (0, 0, 1), (0, 0, 1), (0, 0, 1), (0, 0, 1), (0, 0, 1), (0, 0, 1), (0, 0, -1), (0, 0, -1), (0, 0, -1), (0, 0, -1), (0, 0, -1), (0, 0, -1), (0, 0, -1), (0, 0, -1), (0, 0, -1), (0, 0, -1), (0, 0, -1), (0, 0, -1)](
			
			interpolation = "faceVarying"
		)
		
		point3f[] points = [(-0.1500015, 0, 6), (-0.1500015, 0, -6), (-0.1500015, 1, -6), (-0.1500015, 1, 6), (0.1500015, 1, 6), (0.1500015, 1, -6), (0.1500015, 0, -6), (0.1500015, 0, 6), (-0.1500015, 1, 6), (-0.1500015, 1, -6), (0.1500015, 1, -6), (0.1500015, 1, 6), (-0.1500015, 0, 6), (0.1500015, 0, 6), (0.1500015, 0, -6), (-0.1500015, 0, -6), (0.1500015, 0, 6), (0, 0, 6), (0, 1, 6), (0.1500015, 1, 6), (-0.1500015, 1, 6), (0, 1, 6), (0, 0, 6), (-0.1500015, 0, 6), (0.1500015, 1, -6), (0, 1, -6), (0, 0, -6), (0.1500015, 0, -6), (-0.1500015, 0, -6), (0, 0, -6), (0, 1, -6), (-0.1500015, 1, -6)]
		float2[] primvars:st = [(0, 0), (1, 0), (1, 1), (0, 0), (1, 1), (0, 1), (0, 0), (1, 0), (1, 1), (0, 0), (1, 1), (0, 1), (0, 0), (1, 0), (1, 1), (0, 0), (1, 1), (0, 1), (0, 0), (1, 0), (1, 1), (0, 0), (1, 1), (0, 1), (0, 0), (1, 0), (1, 1), (0, 0), (1, 1), (0, 1), (0, 0), (1, 0), (1, 1), (0, 0), (1, 1), (0, 1), (0, 0), (1, 0), (1, 1), (0, 0), (1, 1), (0, 1), (0, 0), (1, 0), (1, 1), (0, 0), (1, 1), (0, 1)](
			
			interpolation = "faceVarying"
		)
		
		
	}
	
}
